<svg width="98" height="49" viewBox="0 0 98 49" fill="none" xmlns="http://www.w3.org/2000/svg">
<path d="M6.105 5.029C6.611 5.139 6.99967 5.359 7.271 5.689C7.54967 6.01167 7.689 6.42967 7.689 6.943C7.689 7.603 7.44333 8.11267 6.952 8.472C6.468 8.824 5.74933 9 4.796 9H1.254V1.3H4.576C5.434 1.3 6.09767 1.47233 6.567 1.817C7.04367 2.16167 7.282 2.64933 7.282 3.28C7.282 3.70533 7.17567 4.06833 6.963 4.369C6.75767 4.66233 6.47167 4.88233 6.105 5.029ZM2.068 1.971V4.765H4.521C5.14433 4.765 5.62467 4.64767 5.962 4.413C6.29933 4.171 6.468 3.82267 6.468 3.368C6.468 2.91333 6.29933 2.56867 5.962 2.334C5.62467 2.092 5.14433 1.971 4.521 1.971H2.068ZM4.785 8.329C5.47433 8.329 5.995 8.21167 6.347 7.977C6.699 7.74233 6.875 7.37567 6.875 6.877C6.875 5.91633 6.17833 5.436 4.785 5.436H2.068V8.329H4.785ZM11.01 9.055C10.4893 9.055 10.086 8.90833 9.79997 8.615C9.5213 8.32167 9.38197 7.91467 9.38197 7.394V0.838H10.163V7.328C10.163 7.67267 10.2436 7.93667 10.405 8.12C10.5663 8.296 10.8083 8.384 11.131 8.384C11.3363 8.384 11.5123 8.351 11.659 8.285L11.714 8.934C11.4866 9.01467 11.252 9.055 11.01 9.055ZM17.9905 3.214V9H17.2425V7.944C17.0372 8.296 16.7548 8.571 16.3955 8.769C16.0362 8.95967 15.6255 9.055 15.1635 9.055C14.4082 9.055 13.8105 8.846 13.3705 8.428C12.9378 8.00267 12.7215 7.383 12.7215 6.569V3.214H13.5025V6.492C13.5025 7.10067 13.6528 7.56267 13.9535 7.878C14.2542 8.19333 14.6832 8.351 15.2405 8.351C15.8492 8.351 16.3295 8.16767 16.6815 7.801C17.0335 7.427 17.2095 6.91 17.2095 6.25V3.214H17.9905ZM22.6529 8.362C23.0122 8.362 23.3422 8.29967 23.6429 8.175C23.9509 8.043 24.2112 7.85233 24.4239 7.603L24.8639 8.109C24.6072 8.417 24.2882 8.65167 23.9069 8.813C23.5255 8.97433 23.1039 9.055 22.6419 9.055C22.0479 9.055 21.5199 8.93033 21.0579 8.681C20.5959 8.42433 20.2365 8.07233 19.9799 7.625C19.7232 7.17767 19.5949 6.67167 19.5949 6.107C19.5949 5.54233 19.7159 5.03633 19.9579 4.589C20.2072 4.14167 20.5482 3.79333 20.9809 3.544C21.4135 3.29467 21.9049 3.17 22.4549 3.17C22.9682 3.17 23.4302 3.28733 23.8409 3.522C24.2589 3.75667 24.5889 4.083 24.8309 4.501C25.0802 4.919 25.2122 5.39567 25.2269 5.931L20.4749 6.855C20.6215 7.32433 20.8855 7.69467 21.2669 7.966C21.6555 8.23 22.1175 8.362 22.6529 8.362ZM22.4549 3.841C22.0515 3.841 21.6885 3.93633 21.3659 4.127C21.0505 4.31033 20.8012 4.57067 20.6179 4.908C20.4419 5.238 20.3539 5.61933 20.3539 6.052C20.3539 6.162 20.3575 6.24267 20.3649 6.294L24.4459 5.502C24.3579 5.018 24.1342 4.622 23.7749 4.314C23.4155 3.99867 22.9755 3.841 22.4549 3.841ZM29.7975 3.17C30.3402 3.17 30.8315 3.29467 31.2715 3.544C31.7115 3.786 32.0562 4.13067 32.3055 4.578C32.5549 5.02533 32.6795 5.535 32.6795 6.107C32.6795 6.679 32.5549 7.18867 32.3055 7.636C32.0562 8.08333 31.7115 8.43167 31.2715 8.681C30.8315 8.93033 30.3402 9.055 29.7975 9.055C29.3135 9.055 28.8772 8.95233 28.4885 8.747C28.1072 8.54167 27.7992 8.24467 27.5645 7.856V9H26.8165V0.838H27.5975V4.314C27.8395 3.94 28.1475 3.65767 28.5215 3.467C28.9029 3.269 29.3282 3.17 29.7975 3.17ZM29.7425 8.362C30.1459 8.362 30.5125 8.27033 30.8425 8.087C31.1725 7.89633 31.4292 7.62867 31.6125 7.284C31.8032 6.93933 31.8985 6.547 31.8985 6.107C31.8985 5.667 31.8032 5.27467 31.6125 4.93C31.4292 4.58533 31.1725 4.32133 30.8425 4.138C30.5125 3.94733 30.1459 3.852 29.7425 3.852C29.3319 3.852 28.9615 3.94733 28.6315 4.138C28.3089 4.32133 28.0522 4.58533 27.8615 4.93C27.6782 5.27467 27.5865 5.667 27.5865 6.107C27.5865 6.547 27.6782 6.93933 27.8615 7.284C28.0522 7.62867 28.3089 7.89633 28.6315 8.087C28.9615 8.27033 29.3319 8.362 29.7425 8.362ZM36.7466 8.362C37.106 8.362 37.436 8.29967 37.7366 8.175C38.0446 8.043 38.305 7.85233 38.5176 7.603L38.9576 8.109C38.701 8.417 38.382 8.65167 38.0006 8.813C37.6193 8.97433 37.1976 9.055 36.7356 9.055C36.1416 9.055 35.6136 8.93033 35.1516 8.681C34.6896 8.42433 34.3303 8.07233 34.0736 7.625C33.817 7.17767 33.6886 6.67167 33.6886 6.107C33.6886 5.54233 33.8096 5.03633 34.0516 4.589C34.301 4.14167 34.642 3.79333 35.0746 3.544C35.5073 3.29467 35.9986 3.17 36.5486 3.17C37.062 3.17 37.524 3.28733 37.9346 3.522C38.3526 3.75667 38.6826 4.083 38.9246 4.501C39.174 4.919 39.306 5.39567 39.3206 5.931L34.5686 6.855C34.7153 7.32433 34.9793 7.69467 35.3606 7.966C35.7493 8.23 36.2113 8.362 36.7466 8.362ZM36.5486 3.841C36.1453 3.841 35.7823 3.93633 35.4596 4.127C35.1443 4.31033 34.895 4.57067 34.7116 4.908C34.5356 5.238 34.4476 5.61933 34.4476 6.052C34.4476 6.162 34.4513 6.24267 34.4586 6.294L38.5396 5.502C38.4516 5.018 38.228 4.622 37.8686 4.314C37.5093 3.99867 37.0693 3.841 36.5486 3.841ZM41.6583 4.347C41.8416 3.95833 42.113 3.665 42.4723 3.467C42.839 3.269 43.29 3.17 43.8253 3.17V3.929L43.6383 3.918C43.0296 3.918 42.553 4.105 42.2083 4.479C41.8636 4.853 41.6913 5.37733 41.6913 6.052V9H40.9103V3.214H41.6583V4.347ZM45.9874 4.347C46.1707 3.95833 46.4421 3.665 46.8014 3.467C47.1681 3.269 47.6191 3.17 48.1544 3.17V3.929L47.9674 3.918C47.3587 3.918 46.8821 4.105 46.5374 4.479C46.1927 4.853 46.0204 5.37733 46.0204 6.052V9H45.2394V3.214H45.9874V4.347ZM54.8684 3.214V8.296C54.8684 9.27867 54.6448 10.0047 54.1974 10.474C53.7501 10.9507 53.0754 11.189 52.1734 11.189C51.6674 11.189 51.1871 11.1083 50.7324 10.947C50.2851 10.793 49.9221 10.5767 49.6434 10.298L50.0394 9.704C50.2888 9.95333 50.5968 10.1477 50.9634 10.287C51.3301 10.4263 51.7224 10.496 52.1404 10.496C52.8078 10.496 53.2991 10.3237 53.6144 9.979C53.9298 9.64167 54.0874 9.11367 54.0874 8.395V7.724C53.8821 8.06133 53.5998 8.32167 53.2404 8.505C52.8884 8.68833 52.4888 8.78 52.0414 8.78C51.2861 8.78 50.6884 8.571 50.2484 8.153C49.8158 7.72767 49.5994 7.108 49.5994 6.294V3.214H50.3804V6.217C50.3804 6.82567 50.5308 7.28767 50.8314 7.603C51.1321 7.91833 51.5611 8.076 52.1184 8.076C52.7271 8.076 53.2074 7.89267 53.5594 7.526C53.9114 7.152 54.0874 6.635 54.0874 5.975V3.214H54.8684ZM59.9347 3.214H60.7157V9H59.9347V3.214ZM60.3307 1.949C60.1694 1.949 60.0337 1.894 59.9237 1.784C59.8137 1.674 59.7587 1.542 59.7587 1.388C59.7587 1.24133 59.8137 1.113 59.9237 1.003C60.0337 0.892999 60.1694 0.838 60.3307 0.838C60.492 0.838 60.6277 0.892999 60.7377 1.003C60.8477 1.10567 60.9027 1.23033 60.9027 1.377C60.9027 1.53833 60.8477 1.674 60.7377 1.784C60.6277 1.894 60.492 1.949 60.3307 1.949ZM65.2868 9.055C64.7148 9.055 64.2015 8.93033 63.7468 8.681C63.2995 8.43167 62.9475 8.08333 62.6908 7.636C62.4341 7.18133 62.3058 6.67167 62.3058 6.107C62.3058 5.54233 62.4341 5.03633 62.6908 4.589C62.9475 4.14167 63.2995 3.79333 63.7468 3.544C64.2015 3.29467 64.7148 3.17 65.2868 3.17C65.7855 3.17 66.2291 3.269 66.6178 3.467C67.0138 3.65767 67.3255 3.94 67.5528 4.314L66.9698 4.71C66.7791 4.424 66.5371 4.21133 66.2438 4.072C65.9505 3.92533 65.6315 3.852 65.2868 3.852C64.8688 3.852 64.4911 3.94733 64.1538 4.138C63.8238 4.32133 63.5635 4.58533 63.3728 4.93C63.1895 5.27467 63.0978 5.667 63.0978 6.107C63.0978 6.55433 63.1895 6.95033 63.3728 7.295C63.5635 7.63233 63.8238 7.89633 64.1538 8.087C64.4911 8.27033 64.8688 8.362 65.2868 8.362C65.6315 8.362 65.9505 8.29233 66.2438 8.153C66.5371 8.01367 66.7791 7.801 66.9698 7.515L67.5528 7.911C67.3255 8.285 67.0138 8.571 66.6178 8.769C66.2218 8.95967 65.7781 9.055 65.2868 9.055ZM71.4654 8.362C71.8247 8.362 72.1547 8.29967 72.4554 8.175C72.7634 8.043 73.0237 7.85233 73.2364 7.603L73.6764 8.109C73.4197 8.417 73.1007 8.65167 72.7194 8.813C72.338 8.97433 71.9164 9.055 71.4544 9.055C70.8604 9.055 70.3324 8.93033 69.8704 8.681C69.4084 8.42433 69.049 8.07233 68.7924 7.625C68.5357 7.17767 68.4074 6.67167 68.4074 6.107C68.4074 5.54233 68.5284 5.03633 68.7704 4.589C69.0197 4.14167 69.3607 3.79333 69.7934 3.544C70.226 3.29467 70.7174 3.17 71.2674 3.17C71.7807 3.17 72.2427 3.28733 72.6534 3.522C73.0714 3.75667 73.4014 4.083 73.6434 4.501C73.8927 4.919 74.0247 5.39567 74.0394 5.931L69.2874 6.855C69.434 7.32433 69.698 7.69467 70.0794 7.966C70.468 8.23 70.93 8.362 71.4654 8.362ZM71.2674 3.841C70.864 3.841 70.501 3.93633 70.1784 4.127C69.863 4.31033 69.6137 4.57067 69.4304 4.908C69.2544 5.238 69.1664 5.61933 69.1664 6.052C69.1664 6.162 69.17 6.24267 69.1774 6.294L73.2584 5.502C73.1704 5.018 72.9467 4.622 72.5874 4.314C72.228 3.99867 71.788 3.841 71.2674 3.841ZM3.487 22.055C2.915 22.055 2.40167 21.9303 1.947 21.681C1.49967 21.4317 1.14767 21.0833 0.891 20.636C0.634333 20.1813 0.506 19.6717 0.506 19.107C0.506 18.5423 0.634333 18.0363 0.891 17.589C1.14767 17.1417 1.49967 16.7933 1.947 16.544C2.40167 16.2947 2.915 16.17 3.487 16.17C3.98567 16.17 4.42933 16.269 4.818 16.467C5.214 16.6577 5.52567 16.94 5.753 17.314L5.17 17.71C4.97933 17.424 4.73733 17.2113 4.444 17.072C4.15067 16.9253 3.83167 16.852 3.487 16.852C3.069 16.852 2.69133 16.9473 2.354 17.138C2.024 17.3213 1.76367 17.5853 1.573 17.93C1.38967 18.2747 1.298 18.667 1.298 19.107C1.298 19.5543 1.38967 19.9503 1.573 20.295C1.76367 20.6323 2.024 20.8963 2.354 21.087C2.69133 21.2703 3.069 21.362 3.487 21.362C3.83167 21.362 4.15067 21.2923 4.444 21.153C4.73733 21.0137 4.97933 20.801 5.17 20.515L5.753 20.911C5.52567 21.285 5.214 21.571 4.818 21.769C4.422 21.9597 3.97833 22.055 3.487 22.055ZM8.03524 17.347C8.21858 16.9583 8.48991 16.665 8.84924 16.467C9.21591 16.269 9.66691 16.17 10.2022 16.17V16.929L10.0152 16.918C9.40658 16.918 8.92991 17.105 8.58524 17.479C8.24058 17.853 8.06824 18.3773 8.06824 19.052V22H7.28724V16.214H8.03524V17.347ZM14.0376 21.362C14.397 21.362 14.727 21.2997 15.0276 21.175C15.3356 21.043 15.596 20.8523 15.8086 20.603L16.2486 21.109C15.992 21.417 15.673 21.6517 15.2916 21.813C14.9103 21.9743 14.4886 22.055 14.0266 22.055C13.4326 22.055 12.9046 21.9303 12.4426 21.681C11.9806 21.4243 11.6213 21.0723 11.3646 20.625C11.108 20.1777 10.9796 19.6717 10.9796 19.107C10.9796 18.5423 11.1006 18.0363 11.3426 17.589C11.592 17.1417 11.933 16.7933 12.3656 16.544C12.7983 16.2947 13.2896 16.17 13.8396 16.17C14.353 16.17 14.815 16.2873 15.2256 16.522C15.6436 16.7567 15.9736 17.083 16.2156 17.501C16.465 17.919 16.597 18.3957 16.6116 18.931L11.8596 19.855C12.0063 20.3243 12.2703 20.6947 12.6516 20.966C13.0403 21.23 13.5023 21.362 14.0376 21.362ZM13.8396 16.841C13.4363 16.841 13.0733 16.9363 12.7506 17.127C12.4353 17.3103 12.186 17.5707 12.0026 17.908C11.8266 18.238 11.7386 18.6193 11.7386 19.052C11.7386 19.162 11.7423 19.2427 11.7496 19.294L15.8306 18.502C15.7426 18.018 15.519 17.622 15.1596 17.314C14.8003 16.9987 14.3603 16.841 13.8396 16.841ZM23.4813 16.214V22H22.7333V20.856C22.4986 21.2447 22.187 21.5417 21.7983 21.747C21.417 21.9523 20.9843 22.055 20.5003 22.055C19.9576 22.055 19.4663 21.9303 19.0263 21.681C18.5863 21.4317 18.2416 21.0833 17.9923 20.636C17.743 20.1887 17.6183 19.679 17.6183 19.107C17.6183 18.535 17.743 18.0253 17.9923 17.578C18.2416 17.1307 18.5863 16.786 19.0263 16.544C19.4663 16.2947 19.9576 16.17 20.5003 16.17C20.9696 16.17 21.3913 16.269 21.7653 16.467C22.1466 16.6577 22.4583 16.94 22.7003 17.314V16.214H23.4813ZM20.5663 21.362C20.9696 21.362 21.3326 21.2703 21.6553 21.087C21.9853 20.8963 22.242 20.6287 22.4253 20.284C22.616 19.9393 22.7113 19.547 22.7113 19.107C22.7113 18.667 22.616 18.2747 22.4253 17.93C22.242 17.5853 21.9853 17.3213 21.6553 17.138C21.3326 16.9473 20.9696 16.852 20.5663 16.852C20.1556 16.852 19.7853 16.9473 19.4553 17.138C19.1326 17.3213 18.876 17.5853 18.6853 17.93C18.502 18.2747 18.4103 18.667 18.4103 19.107C18.4103 19.547 18.502 19.9393 18.6853 20.284C18.876 20.6287 19.1326 20.8963 19.4553 21.087C19.7853 21.2703 20.1556 21.362 20.5663 21.362ZM32.8724 16.17C33.5984 16.17 34.1667 16.379 34.5774 16.797C34.9954 17.215 35.2044 17.831 35.2044 18.645V22H34.4234V18.722C34.4234 18.1207 34.2767 17.6623 33.9834 17.347C33.6974 17.0317 33.2904 16.874 32.7624 16.874C32.1611 16.874 31.6881 17.061 31.3434 17.435C30.9987 17.8017 30.8264 18.3113 30.8264 18.964V22H30.0454V18.722C30.0454 18.1207 29.8987 17.6623 29.6054 17.347C29.3194 17.0317 28.9087 16.874 28.3734 16.874C27.7794 16.874 27.3064 17.061 26.9544 17.435C26.6097 17.8017 26.4374 18.3113 26.4374 18.964V22H25.6564V16.214H26.4044V17.27C26.6097 16.918 26.8957 16.6467 27.2624 16.456C27.629 16.2653 28.0507 16.17 28.5274 16.17C29.0114 16.17 29.4294 16.2727 29.7814 16.478C30.1407 16.6833 30.4084 16.9877 30.5844 17.391C30.797 17.0097 31.1014 16.7127 31.4974 16.5C31.9007 16.28 32.3591 16.17 32.8724 16.17ZM40.2013 16.214H40.9823V22H40.2013V16.214ZM40.5973 14.949C40.436 14.949 40.3003 14.894 40.1903 14.784C40.0803 14.674 40.0253 14.542 40.0253 14.388C40.0253 14.2413 40.0803 14.113 40.1903 14.003C40.3003 13.893 40.436 13.838 40.5973 13.838C40.7586 13.838 40.8943 13.893 41.0043 14.003C41.1143 14.1057 41.1693 14.2303 41.1693 14.377C41.1693 14.5383 41.1143 14.674 41.0043 14.784C40.8943 14.894 40.7586 14.949 40.5973 14.949ZM46.1034 16.17C46.8294 16.17 47.4051 16.3827 47.8304 16.808C48.2631 17.226 48.4794 17.8383 48.4794 18.645V22H47.6984V18.722C47.6984 18.1207 47.5481 17.6623 47.2474 17.347C46.9467 17.0317 46.5177 16.874 45.9604 16.874C45.3371 16.874 44.8421 17.061 44.4754 17.435C44.1161 17.8017 43.9364 18.3113 43.9364 18.964V22H43.1554V16.214H43.9034V17.281C44.1161 16.929 44.4094 16.6577 44.7834 16.467C45.1647 16.269 45.6047 16.17 46.1034 16.17ZM52.3817 14.443C52.0444 14.443 51.7877 14.5347 51.6117 14.718C51.4431 14.9013 51.3587 15.1727 51.3587 15.532V16.214H53.1407V16.874H51.3807V22H50.5997V15.499C50.5997 14.971 50.7501 14.553 51.0507 14.245C51.3587 13.937 51.7914 13.783 52.3487 13.783C52.5687 13.783 52.7814 13.816 52.9867 13.882C53.1921 13.9407 53.3644 14.0287 53.5037 14.146L53.2397 14.729C53.0124 14.5383 52.7264 14.443 52.3817 14.443ZM59.4124 16.214V22H58.6644V20.944C58.459 21.296 58.1767 21.571 57.8174 21.769C57.458 21.9597 57.0474 22.055 56.5854 22.055C55.83 22.055 55.2324 21.846 54.7924 21.428C54.3597 21.0027 54.1434 20.383 54.1434 19.569V16.214H54.9244V19.492C54.9244 20.1007 55.0747 20.5627 55.3754 20.878C55.676 21.1933 56.105 21.351 56.6624 21.351C57.271 21.351 57.7514 21.1677 58.1034 20.801C58.4554 20.427 58.6314 19.91 58.6314 19.25V16.214H59.4124ZM63.1507 22.055C62.6814 22.055 62.2304 21.989 61.7977 21.857C61.3724 21.7177 61.0387 21.5453 60.7967 21.34L61.1487 20.724C61.3907 20.9147 61.6951 21.0723 62.0617 21.197C62.4284 21.3143 62.8097 21.373 63.2057 21.373C63.7337 21.373 64.1224 21.2923 64.3717 21.131C64.6284 20.9623 64.7567 20.7277 64.7567 20.427C64.7567 20.2143 64.6871 20.0493 64.5477 19.932C64.4084 19.8073 64.2324 19.7157 64.0197 19.657C63.8071 19.591 63.5247 19.5287 63.1727 19.47C62.7034 19.382 62.3257 19.294 62.0397 19.206C61.7537 19.1107 61.5081 18.953 61.3027 18.733C61.1047 18.513 61.0057 18.2087 61.0057 17.82C61.0057 17.336 61.2074 16.94 61.6107 16.632C62.0141 16.324 62.5751 16.17 63.2937 16.17C63.6677 16.17 64.0417 16.2213 64.4157 16.324C64.7897 16.4193 65.0977 16.5477 65.3397 16.709L64.9987 17.336C64.5221 17.006 63.9537 16.841 63.2937 16.841C62.7951 16.841 62.4174 16.929 62.1607 17.105C61.9114 17.281 61.7867 17.512 61.7867 17.798C61.7867 18.018 61.8564 18.194 61.9957 18.326C62.1424 18.458 62.3221 18.557 62.5347 18.623C62.7474 18.6817 63.0407 18.744 63.4147 18.81C63.8767 18.898 64.2471 18.986 64.5257 19.074C64.8044 19.162 65.0427 19.3123 65.2407 19.525C65.4387 19.7377 65.5377 20.031 65.5377 20.405C65.5377 20.911 65.3251 21.3143 64.8997 21.615C64.4817 21.9083 63.8987 22.055 63.1507 22.055ZM69.4566 21.362C69.8159 21.362 70.1459 21.2997 70.4466 21.175C70.7546 21.043 71.0149 20.8523 71.2276 20.603L71.6676 21.109C71.4109 21.417 71.0919 21.6517 70.7106 21.813C70.3292 21.9743 69.9076 22.055 69.4456 22.055C68.8516 22.055 68.3236 21.9303 67.8616 21.681C67.3996 21.4243 67.0402 21.0723 66.7836 20.625C66.5269 20.1777 66.3986 19.6717 66.3986 19.107C66.3986 18.5423 66.5196 18.0363 66.7616 17.589C67.0109 17.1417 67.3519 16.7933 67.7846 16.544C68.2172 16.2947 68.7086 16.17 69.2586 16.17C69.7719 16.17 70.2339 16.2873 70.6446 16.522C71.0626 16.7567 71.3926 17.083 71.6346 17.501C71.8839 17.919 72.0159 18.3957 72.0306 18.931L67.2786 19.855C67.4252 20.3243 67.6892 20.6947 68.0706 20.966C68.4592 21.23 68.9212 21.362 69.4566 21.362ZM69.2586 16.841C68.8552 16.841 68.4922 16.9363 68.1696 17.127C67.8542 17.3103 67.6049 17.5707 67.4216 17.908C67.2456 18.238 67.1576 18.6193 67.1576 19.052C67.1576 19.162 67.1612 19.2427 67.1686 19.294L71.2496 18.502C71.1616 18.018 70.9379 17.622 70.5786 17.314C70.2192 16.9987 69.7792 16.841 69.2586 16.841ZM78.9003 13.838V22H78.1523V20.856C77.9176 21.2447 77.6059 21.5417 77.2173 21.747C76.8359 21.9523 76.4033 22.055 75.9193 22.055C75.3766 22.055 74.8853 21.9303 74.4453 21.681C74.0053 21.4317 73.6606 21.0833 73.4113 20.636C73.1619 20.1887 73.0373 19.679 73.0373 19.107C73.0373 18.535 73.1619 18.0253 73.4113 17.578C73.6606 17.1307 74.0053 16.786 74.4453 16.544C74.8853 16.2947 75.3766 16.17 75.9193 16.17C76.3886 16.17 76.8103 16.269 77.1843 16.467C77.5656 16.6577 77.8773 16.94 78.1193 17.314V13.838H78.9003ZM75.9853 21.362C76.3886 21.362 76.7516 21.2703 77.0743 21.087C77.4043 20.8963 77.6609 20.6287 77.8443 20.284C78.0349 19.9393 78.1303 19.547 78.1303 19.107C78.1303 18.667 78.0349 18.2747 77.8443 17.93C77.6609 17.5853 77.4043 17.3213 77.0743 17.138C76.7516 16.9473 76.3886 16.852 75.9853 16.852C75.5746 16.852 75.2043 16.9473 74.8743 17.138C74.5516 17.3213 74.2949 17.5853 74.1043 17.93C73.9209 18.2747 73.8293 18.667 73.8293 19.107C73.8293 19.547 73.9209 19.9393 74.1043 20.284C74.2949 20.6287 74.5516 20.8963 74.8743 21.087C75.2043 21.2703 75.5746 21.362 75.9853 21.362ZM10.01 29.214V32.415C10.01 33.273 9.80467 33.9293 9.394 34.384C8.98333 34.8313 8.37833 35.055 7.579 35.055C7.073 35.055 6.64767 34.9597 6.303 34.769C5.96567 34.571 5.70533 34.2593 5.522 33.834C5.33867 34.252 5.07833 34.56 4.741 34.758C4.40367 34.956 3.97833 35.055 3.465 35.055C2.66567 35.055 2.06067 34.8313 1.65 34.384C1.23933 33.9293 1.034 33.273 1.034 32.415V29.214H1.815V32.349C1.815 33.031 1.947 33.537 2.211 33.867C2.475 34.1897 2.893 34.351 3.465 34.351C4.02967 34.351 4.44767 34.186 4.719 33.856C4.99767 33.526 5.137 33.0163 5.137 32.327V29.214H5.918V32.327C5.918 33.0163 6.05367 33.526 6.325 33.856C6.59633 34.186 7.018 34.351 7.59 34.351C8.14733 34.351 8.558 34.1897 8.822 33.867C9.09333 33.537 9.229 33.031 9.229 32.349V29.214H10.01ZM12.132 29.214H12.913V35H12.132V29.214ZM12.528 27.949C12.3666 27.949 12.231 27.894 12.121 27.784C12.011 27.674 11.956 27.542 11.956 27.388C11.956 27.2413 12.011 27.113 12.121 27.003C12.231 26.893 12.3666 26.838 12.528 26.838C12.6893 26.838 12.825 26.893 12.935 27.003C13.045 27.1057 13.1 27.2303 13.1 27.377C13.1 27.5383 13.045 27.674 12.935 27.784C12.825 27.894 12.6893 27.949 12.528 27.949ZM17.9351 34.648C17.7884 34.78 17.6087 34.8827 17.3961 34.956C17.1834 35.022 16.9597 35.055 16.7251 35.055C16.1824 35.055 15.7644 34.9083 15.4711 34.615C15.1777 34.3217 15.0311 33.9073 15.0311 33.372V27.949H15.8121V29.214H17.5611V29.874H15.8121V33.328C15.8121 33.6727 15.8964 33.9367 16.0651 34.12C16.2337 34.296 16.4794 34.384 16.8021 34.384C17.1541 34.384 17.4401 34.285 17.6601 34.087L17.9351 34.648ZM22.2987 29.17C23.0247 29.17 23.6004 29.3827 24.0257 29.808C24.4584 30.226 24.6747 30.8383 24.6747 31.645V35H23.8937V31.722C23.8937 31.1207 23.7434 30.6623 23.4427 30.347C23.1421 30.0317 22.7131 29.874 22.1557 29.874C21.5324 29.874 21.0374 30.061 20.6707 30.435C20.3114 30.8017 20.1317 31.3113 20.1317 31.964V35H19.3507V26.838H20.1317V30.226C20.3444 29.8887 20.6377 29.6283 21.0117 29.445C21.3857 29.2617 21.8147 29.17 22.2987 29.17ZM31.225 35.055C30.7556 35.055 30.3046 34.989 29.872 34.857C29.4466 34.7177 29.113 34.5453 28.871 34.34L29.223 33.724C29.465 33.9147 29.7693 34.0723 30.136 34.197C30.5026 34.3143 30.884 34.373 31.28 34.373C31.808 34.373 32.1966 34.2923 32.446 34.131C32.7026 33.9623 32.831 33.7277 32.831 33.427C32.831 33.2143 32.7613 33.0493 32.622 32.932C32.4826 32.8073 32.3066 32.7157 32.094 32.657C31.8813 32.591 31.599 32.5287 31.247 32.47C30.7776 32.382 30.4 32.294 30.114 32.206C29.828 32.1107 29.5823 31.953 29.377 31.733C29.179 31.513 29.08 31.2087 29.08 30.82C29.08 30.336 29.2816 29.94 29.685 29.632C30.0883 29.324 30.6493 29.17 31.368 29.17C31.742 29.17 32.116 29.2213 32.49 29.324C32.864 29.4193 33.172 29.5477 33.414 29.709L33.073 30.336C32.5963 30.006 32.028 29.841 31.368 29.841C30.8693 29.841 30.4916 29.929 30.235 30.105C29.9856 30.281 29.861 30.512 29.861 30.798C29.861 31.018 29.9306 31.194 30.07 31.326C30.2166 31.458 30.3963 31.557 30.609 31.623C30.8216 31.6817 31.115 31.744 31.489 31.81C31.951 31.898 32.3213 31.986 32.6 32.074C32.8786 32.162 33.117 32.3123 33.315 32.525C33.513 32.7377 33.612 33.031 33.612 33.405C33.612 33.911 33.3993 34.3143 32.974 34.615C32.556 34.9083 31.973 35.055 31.225 35.055ZM42.2718 29.17C42.9978 29.17 43.5661 29.379 43.9768 29.797C44.3948 30.215 44.6038 30.831 44.6038 31.645V35H43.8228V31.722C43.8228 31.1207 43.6761 30.6623 43.3828 30.347C43.0968 30.0317 42.6898 29.874 42.1618 29.874C41.5605 29.874 41.0875 30.061 40.7428 30.435C40.3981 30.8017 40.2258 31.3113 40.2258 31.964V35H39.4448V31.722C39.4448 31.1207 39.2981 30.6623 39.0048 30.347C38.7188 30.0317 38.3081 29.874 37.7728 29.874C37.1788 29.874 36.7058 30.061 36.3538 30.435C36.0091 30.8017 35.8368 31.3113 35.8368 31.964V35H35.0558V29.214H35.8038V30.27C36.0091 29.918 36.2951 29.6467 36.6618 29.456C37.0285 29.2653 37.4501 29.17 37.9268 29.17C38.4108 29.17 38.8288 29.2727 39.1808 29.478C39.5401 29.6833 39.8078 29.9877 39.9838 30.391C40.1965 30.0097 40.5008 29.7127 40.8968 29.5C41.3001 29.28 41.7585 29.17 42.2718 29.17ZM52.0233 29.214V35H51.2753V33.856C51.0406 34.2447 50.729 34.5417 50.3403 34.747C49.959 34.9523 49.5263 35.055 49.0423 35.055C48.4996 35.055 48.0083 34.9303 47.5683 34.681C47.1283 34.4317 46.7836 34.0833 46.5343 33.636C46.285 33.1887 46.1603 32.679 46.1603 32.107C46.1603 31.535 46.285 31.0253 46.5343 30.578C46.7836 30.1307 47.1283 29.786 47.5683 29.544C48.0083 29.2947 48.4996 29.17 49.0423 29.17C49.5116 29.17 49.9333 29.269 50.3073 29.467C50.6886 29.6577 51.0003 29.94 51.2423 30.314V29.214H52.0233ZM49.1083 34.362C49.5116 34.362 49.8746 34.2703 50.1973 34.087C50.5273 33.8963 50.784 33.6287 50.9673 33.284C51.158 32.9393 51.2533 32.547 51.2533 32.107C51.2533 31.667 51.158 31.2747 50.9673 30.93C50.784 30.5853 50.5273 30.3213 50.1973 30.138C49.8746 29.9473 49.5116 29.852 49.1083 29.852C48.6976 29.852 48.3273 29.9473 47.9973 30.138C47.6746 30.3213 47.418 30.5853 47.2273 30.93C47.044 31.2747 46.9523 31.667 46.9523 32.107C46.9523 32.547 47.044 32.9393 47.2273 33.284C47.418 33.6287 47.6746 33.8963 47.9973 34.087C48.3273 34.2703 48.6976 34.362 49.1083 34.362ZM55.8264 35.055C55.3057 35.055 54.9024 34.9083 54.6164 34.615C54.3377 34.3217 54.1984 33.9147 54.1984 33.394V26.838H54.9794V33.328C54.9794 33.6727 55.06 33.9367 55.2214 34.12C55.3827 34.296 55.6247 34.384 55.9474 34.384C56.1527 34.384 56.3287 34.351 56.4754 34.285L56.5304 34.934C56.303 35.0147 56.0684 35.055 55.8264 35.055ZM59.2209 35.055C58.7002 35.055 58.2969 34.9083 58.0109 34.615C57.7322 34.3217 57.5929 33.9147 57.5929 33.394V26.838H58.3739V33.328C58.3739 33.6727 58.4546 33.9367 58.6159 34.12C58.7772 34.296 59.0192 34.384 59.3419 34.384C59.5472 34.384 59.7232 34.351 59.8699 34.285L59.9249 34.934C59.6976 35.0147 59.4629 35.055 59.2209 35.055ZM66.8473 29.17C67.39 29.17 67.8813 29.2947 68.3213 29.544C68.7613 29.786 69.106 30.1307 69.3553 30.578C69.6047 31.0253 69.7293 31.535 69.7293 32.107C69.7293 32.6863 69.6047 33.1997 69.3553 33.647C69.106 34.0943 68.7613 34.4427 68.3213 34.692C67.8887 34.934 67.3973 35.055 66.8473 35.055C66.378 35.055 65.9527 34.9597 65.5713 34.769C65.1973 34.571 64.8893 34.285 64.6473 33.911V37.134H63.8663V29.214H64.6143V30.358C64.849 29.9767 65.157 29.6833 65.5383 29.478C65.927 29.2727 66.3633 29.17 66.8473 29.17ZM66.7923 34.362C67.1957 34.362 67.5623 34.2703 67.8923 34.087C68.2223 33.8963 68.479 33.6287 68.6623 33.284C68.853 32.9393 68.9483 32.547 68.9483 32.107C68.9483 31.667 68.853 31.2783 68.6623 30.941C68.479 30.5963 68.2223 30.3287 67.8923 30.138C67.5623 29.9473 67.1957 29.852 66.7923 29.852C66.3817 29.852 66.0113 29.9473 65.6813 30.138C65.3587 30.3287 65.102 30.5963 64.9113 30.941C64.728 31.2783 64.6363 31.667 64.6363 32.107C64.6363 32.547 64.728 32.9393 64.9113 33.284C65.102 33.6287 65.3587 33.8963 65.6813 34.087C66.0113 34.2703 66.3817 34.362 66.7923 34.362ZM71.3214 29.214H72.1024V35H71.3214V29.214ZM71.7174 27.949C71.5561 27.949 71.4204 27.894 71.3104 27.784C71.2004 27.674 71.1454 27.542 71.1454 27.388C71.1454 27.2413 71.2004 27.113 71.3104 27.003C71.4204 26.893 71.5561 26.838 71.7174 26.838C71.8788 26.838 72.0144 26.893 72.1244 27.003C72.2344 27.1057 72.2894 27.2303 72.2894 27.377C72.2894 27.5383 72.2344 27.674 72.1244 27.784C72.0144 27.894 71.8788 27.949 71.7174 27.949ZM76.7505 34.362C77.1099 34.362 77.4399 34.2997 77.7405 34.175C78.0485 34.043 78.3089 33.8523 78.5215 33.603L78.9615 34.109C78.7049 34.417 78.3859 34.6517 78.0045 34.813C77.6232 34.9743 77.2015 35.055 76.7395 35.055C76.1455 35.055 75.6175 34.9303 75.1555 34.681C74.6935 34.4243 74.3342 34.0723 74.0775 33.625C73.8209 33.1777 73.6925 32.6717 73.6925 32.107C73.6925 31.5423 73.8135 31.0363 74.0555 30.589C74.3049 30.1417 74.6459 29.7933 75.0785 29.544C75.5112 29.2947 76.0025 29.17 76.5525 29.17C77.0659 29.17 77.5279 29.2873 77.9385 29.522C78.3565 29.7567 78.6865 30.083 78.9285 30.501C79.1779 30.919 79.3099 31.3957 79.3245 31.931L74.5725 32.855C74.7192 33.3243 74.9832 33.6947 75.3645 33.966C75.7532 34.23 76.2152 34.362 76.7505 34.362ZM76.5525 29.841C76.1492 29.841 75.7862 29.9363 75.4635 30.127C75.1482 30.3103 74.8989 30.5707 74.7155 30.908C74.5395 31.238 74.4515 31.6193 74.4515 32.052C74.4515 32.162 74.4552 32.2427 74.4625 32.294L78.5435 31.502C78.4555 31.018 78.2319 30.622 77.8725 30.314C77.5132 29.9987 77.0732 29.841 76.5525 29.841ZM83.3122 35.055C82.7402 35.055 82.2269 34.9303 81.7722 34.681C81.3249 34.4317 80.9729 34.0833 80.7162 33.636C80.4595 33.1813 80.3312 32.6717 80.3312 32.107C80.3312 31.5423 80.4595 31.0363 80.7162 30.589C80.9729 30.1417 81.3249 29.7933 81.7722 29.544C82.2269 29.2947 82.7402 29.17 83.3122 29.17C83.8109 29.17 84.2545 29.269 84.6432 29.467C85.0392 29.6577 85.3509 29.94 85.5782 30.314L84.9952 30.71C84.8045 30.424 84.5625 30.2113 84.2692 30.072C83.9759 29.9253 83.6569 29.852 83.3122 29.852C82.8942 29.852 82.5165 29.9473 82.1792 30.138C81.8492 30.3213 81.5889 30.5853 81.3982 30.93C81.2149 31.2747 81.1232 31.667 81.1232 32.107C81.1232 32.5543 81.2149 32.9503 81.3982 33.295C81.5889 33.6323 81.8492 33.8963 82.1792 34.087C82.5165 34.2703 82.8942 34.362 83.3122 34.362C83.6569 34.362 83.9759 34.2923 84.2692 34.153C84.5625 34.0137 84.8045 33.801 84.9952 33.515L85.5782 33.911C85.3509 34.285 85.0392 34.571 84.6432 34.769C84.2472 34.9597 83.8035 35.055 83.3122 35.055ZM89.4908 34.362C89.8501 34.362 90.1801 34.2997 90.4808 34.175C90.7888 34.043 91.0491 33.8523 91.2618 33.603L91.7018 34.109C91.4451 34.417 91.1261 34.6517 90.7448 34.813C90.3634 34.9743 89.9418 35.055 89.4798 35.055C88.8858 35.055 88.3578 34.9303 87.8958 34.681C87.4338 34.4243 87.0744 34.0723 86.8178 33.625C86.5611 33.1777 86.4328 32.6717 86.4328 32.107C86.4328 31.5423 86.5538 31.0363 86.7958 30.589C87.0451 30.1417 87.3861 29.7933 87.8188 29.544C88.2514 29.2947 88.7428 29.17 89.2928 29.17C89.8061 29.17 90.2681 29.2873 90.6788 29.522C91.0968 29.7567 91.4268 30.083 91.6688 30.501C91.9181 30.919 92.0501 31.3957 92.0648 31.931L87.3128 32.855C87.4594 33.3243 87.7234 33.6947 88.1048 33.966C88.4934 34.23 88.9554 34.362 89.4908 34.362ZM89.2928 29.841C88.8894 29.841 88.5264 29.9363 88.2038 30.127C87.8884 30.3103 87.6391 30.5707 87.4558 30.908C87.2798 31.238 87.1918 31.6193 87.1918 32.052C87.1918 32.162 87.1954 32.2427 87.2028 32.294L91.2838 31.502C91.1958 31.018 90.9721 30.622 90.6128 30.314C90.2534 29.9987 89.8134 29.841 89.2928 29.841ZM95.2054 35.055C94.7361 35.055 94.2851 34.989 93.8524 34.857C93.4271 34.7177 93.0934 34.5453 92.8514 34.34L93.2034 33.724C93.4454 33.9147 93.7498 34.0723 94.1164 34.197C94.4831 34.3143 94.8644 34.373 95.2604 34.373C95.7884 34.373 96.1771 34.2923 96.4264 34.131C96.6831 33.9623 96.8114 33.7277 96.8114 33.427C96.8114 33.2143 96.7418 33.0493 96.6024 32.932C96.4631 32.8073 96.2871 32.7157 96.0744 32.657C95.8618 32.591 95.5794 32.5287 95.2274 32.47C94.7581 32.382 94.3804 32.294 94.0944 32.206C93.8084 32.1107 93.5628 31.953 93.3574 31.733C93.1594 31.513 93.0604 31.2087 93.0604 30.82C93.0604 30.336 93.2621 29.94 93.6654 29.632C94.0688 29.324 94.6298 29.17 95.3484 29.17C95.7224 29.17 96.0964 29.2213 96.4704 29.324C96.8444 29.4193 97.1524 29.5477 97.3944 29.709L97.0534 30.336C96.5768 30.006 96.0084 29.841 95.3484 29.841C94.8498 29.841 94.4721 29.929 94.2154 30.105C93.9661 30.281 93.8414 30.512 93.8414 30.798C93.8414 31.018 93.9111 31.194 94.0504 31.326C94.1971 31.458 94.3768 31.557 94.5894 31.623C94.8021 31.6817 95.0954 31.744 95.4694 31.81C95.9314 31.898 96.3018 31.986 96.5804 32.074C96.8591 32.162 97.0974 32.3123 97.2954 32.525C97.4934 32.7377 97.5924 33.031 97.5924 33.405C97.5924 33.911 97.3798 34.3143 96.9544 34.615C96.5364 34.9083 95.9534 35.055 95.2054 35.055ZM3.454 48.055C2.89667 48.055 2.39433 47.9303 1.947 47.681C1.49967 47.4243 1.14767 47.0723 0.891 46.625C0.634333 46.1777 0.506 45.6717 0.506 45.107C0.506 44.5423 0.634333 44.0363 0.891 43.589C1.14767 43.1417 1.49967 42.7933 1.947 42.544C2.39433 42.2947 2.89667 42.17 3.454 42.17C4.01133 42.17 4.51367 42.2947 4.961 42.544C5.40833 42.7933 5.75667 43.1417 6.006 43.589C6.26267 44.0363 6.391 44.5423 6.391 45.107C6.391 45.6717 6.26267 46.1777 6.006 46.625C5.75667 47.0723 5.40833 47.4243 4.961 47.681C4.51367 47.9303 4.01133 48.055 3.454 48.055ZM3.454 47.362C3.86467 47.362 4.23133 47.2703 4.554 47.087C4.884 46.8963 5.14067 46.6287 5.324 46.284C5.50733 45.9393 5.599 45.547 5.599 45.107C5.599 44.667 5.50733 44.2747 5.324 43.93C5.14067 43.5853 4.884 43.3213 4.554 43.138C4.23133 42.9473 3.86467 42.852 3.454 42.852C3.04333 42.852 2.673 42.9473 2.343 43.138C2.02033 43.3213 1.76367 43.5853 1.573 43.93C1.38967 44.2747 1.298 44.667 1.298 45.107C1.298 45.547 1.38967 45.9393 1.573 46.284C1.76367 46.6287 2.02033 46.8963 2.343 47.087C2.673 47.2703 3.04333 47.362 3.454 47.362ZM9.76748 40.443C9.43015 40.443 9.17348 40.5347 8.99748 40.718C8.82882 40.9013 8.74448 41.1727 8.74448 41.532V42.214H10.5265V42.874H8.76648V48H7.98548V41.499C7.98548 40.971 8.13582 40.553 8.43648 40.245C8.74448 39.937 9.17715 39.783 9.73448 39.783C9.95448 39.783 10.1672 39.816 10.3725 39.882C10.5778 39.9407 10.7502 40.0287 10.8895 40.146L10.6255 40.729C10.3982 40.5383 10.1122 40.443 9.76748 40.443ZM17.444 42.17C17.9867 42.17 18.478 42.2947 18.918 42.544C19.358 42.786 19.7027 43.1307 19.952 43.578C20.2014 44.0253 20.326 44.535 20.326 45.107C20.326 45.679 20.2014 46.1887 19.952 46.636C19.7027 47.0833 19.358 47.4317 18.918 47.681C18.478 47.9303 17.9867 48.055 17.444 48.055C16.96 48.055 16.5237 47.9523 16.135 47.747C15.7537 47.5417 15.4457 47.2447 15.211 46.856V48H14.463V39.838H15.244V43.314C15.486 42.94 15.794 42.6577 16.168 42.467C16.5494 42.269 16.9747 42.17 17.444 42.17ZM17.389 47.362C17.7924 47.362 18.159 47.2703 18.489 47.087C18.819 46.8963 19.0757 46.6287 19.259 46.284C19.4497 45.9393 19.545 45.547 19.545 45.107C19.545 44.667 19.4497 44.2747 19.259 43.93C19.0757 43.5853 18.819 43.3213 18.489 43.138C18.159 42.9473 17.7924 42.852 17.389 42.852C16.9784 42.852 16.608 42.9473 16.278 43.138C15.9554 43.3213 15.6987 43.5853 15.508 43.93C15.3247 44.2747 15.233 44.667 15.233 45.107C15.233 45.547 15.3247 45.9393 15.508 46.284C15.6987 46.6287 15.9554 46.8963 16.278 47.087C16.608 47.2703 16.9784 47.362 17.389 47.362ZM23.5461 48.055C23.0254 48.055 22.6221 47.9083 22.3361 47.615C22.0574 47.3217 21.9181 46.9147 21.9181 46.394V39.838H22.6991V46.328C22.6991 46.6727 22.7798 46.9367 22.9411 47.12C23.1024 47.296 23.3444 47.384 23.6671 47.384C23.8724 47.384 24.0484 47.351 24.1951 47.285L24.2501 47.934C24.0228 48.0147 23.7881 48.055 23.5461 48.055ZM30.5266 42.214V48H29.7786V46.944C29.5733 47.296 29.291 47.571 28.9316 47.769C28.5723 47.9597 28.1616 48.055 27.6996 48.055C26.9443 48.055 26.3466 47.846 25.9066 47.428C25.474 47.0027 25.2576 46.383 25.2576 45.569V42.214H26.0386V45.492C26.0386 46.1007 26.189 46.5627 26.4896 46.878C26.7903 47.1933 27.2193 47.351 27.7766 47.351C28.3853 47.351 28.8656 47.1677 29.2176 46.801C29.5696 46.427 29.7456 45.91 29.7456 45.25V42.214H30.5266ZM35.189 47.362C35.5483 47.362 35.8783 47.2997 36.179 47.175C36.487 47.043 36.7473 46.8523 36.96 46.603L37.4 47.109C37.1433 47.417 36.8243 47.6517 36.443 47.813C36.0617 47.9743 35.64 48.055 35.178 48.055C34.584 48.055 34.056 47.9303 33.594 47.681C33.132 47.4243 32.7727 47.0723 32.516 46.625C32.2593 46.1777 32.131 45.6717 32.131 45.107C32.131 44.5423 32.252 44.0363 32.494 43.589C32.7433 43.1417 33.0843 42.7933 33.517 42.544C33.9497 42.2947 34.441 42.17 34.991 42.17C35.5043 42.17 35.9663 42.2873 36.377 42.522C36.795 42.7567 37.125 43.083 37.367 43.501C37.6163 43.919 37.7483 44.3957 37.763 44.931L33.011 45.855C33.1577 46.3243 33.4217 46.6947 33.803 46.966C34.1917 47.23 34.6537 47.362 35.189 47.362ZM34.991 42.841C34.5877 42.841 34.2247 42.9363 33.902 43.127C33.5867 43.3103 33.3373 43.5707 33.154 43.908C32.978 44.238 32.89 44.6193 32.89 45.052C32.89 45.162 32.8937 45.2427 32.901 45.294L36.982 44.502C36.894 44.018 36.6703 43.622 36.311 43.314C35.9517 42.9987 35.5117 42.841 34.991 42.841ZM42.3337 42.17C42.8763 42.17 43.3677 42.2947 43.8077 42.544C44.2477 42.786 44.5923 43.1307 44.8417 43.578C45.091 44.0253 45.2157 44.535 45.2157 45.107C45.2157 45.679 45.091 46.1887 44.8417 46.636C44.5923 47.0833 44.2477 47.4317 43.8077 47.681C43.3677 47.9303 42.8763 48.055 42.3337 48.055C41.8497 48.055 41.4133 47.9523 41.0247 47.747C40.6433 47.5417 40.3353 47.2447 40.1007 46.856V48H39.3527V39.838H40.1337V43.314C40.3757 42.94 40.6837 42.6577 41.0577 42.467C41.439 42.269 41.8643 42.17 42.3337 42.17ZM42.2787 47.362C42.682 47.362 43.0487 47.2703 43.3787 47.087C43.7087 46.8963 43.9653 46.6287 44.1487 46.284C44.3393 45.9393 44.4347 45.547 44.4347 45.107C44.4347 44.667 44.3393 44.2747 44.1487 43.93C43.9653 43.5853 43.7087 43.3213 43.3787 43.138C43.0487 42.9473 42.682 42.852 42.2787 42.852C41.868 42.852 41.4977 42.9473 41.1677 43.138C40.845 43.3213 40.5883 43.5853 40.3977 43.93C40.2143 44.2747 40.1227 44.667 40.1227 45.107C40.1227 45.547 40.2143 45.9393 40.3977 46.284C40.5883 46.6287 40.845 46.8963 41.1677 47.087C41.4977 47.2703 41.868 47.362 42.2787 47.362ZM49.2828 47.362C49.6421 47.362 49.9721 47.2997 50.2728 47.175C50.5808 47.043 50.8411 46.8523 51.0538 46.603L51.4938 47.109C51.2371 47.417 50.9181 47.6517 50.5368 47.813C50.1554 47.9743 49.7338 48.055 49.2718 48.055C48.6778 48.055 48.1498 47.9303 47.6878 47.681C47.2258 47.4243 46.8664 47.0723 46.6098 46.625C46.3531 46.1777 46.2248 45.6717 46.2248 45.107C46.2248 44.5423 46.3458 44.0363 46.5878 43.589C46.8371 43.1417 47.1781 42.7933 47.6108 42.544C48.0434 42.2947 48.5348 42.17 49.0848 42.17C49.5981 42.17 50.0601 42.2873 50.4708 42.522C50.8888 42.7567 51.2188 43.083 51.4608 43.501C51.7101 43.919 51.8421 44.3957 51.8568 44.931L47.1048 45.855C47.2514 46.3243 47.5154 46.6947 47.8968 46.966C48.2854 47.23 48.7474 47.362 49.2828 47.362ZM49.0848 42.841C48.6814 42.841 48.3184 42.9363 47.9958 43.127C47.6804 43.3103 47.4311 43.5707 47.2478 43.908C47.0718 44.238 46.9838 44.6193 46.9838 45.052C46.9838 45.162 46.9874 45.2427 46.9948 45.294L51.0758 44.502C50.9878 44.018 50.7641 43.622 50.4048 43.314C50.0454 42.9987 49.6054 42.841 49.0848 42.841ZM54.1944 43.347C54.3778 42.9583 54.6491 42.665 55.0084 42.467C55.3751 42.269 55.8261 42.17 56.3614 42.17V42.929L56.1744 42.918C55.5658 42.918 55.0891 43.105 54.7444 43.479C54.3998 43.853 54.2274 44.3773 54.2274 45.052V48H53.4464V42.214H54.1944V43.347ZM58.5235 43.347C58.7069 42.9583 58.9782 42.665 59.3375 42.467C59.7042 42.269 60.1552 42.17 60.6905 42.17V42.929L60.5035 42.918C59.8949 42.918 59.4182 43.105 59.0735 43.479C58.7289 43.853 58.5565 44.3773 58.5565 45.052V48H57.7755V42.214H58.5235V43.347ZM62.1046 42.214H62.8856V48H62.1046V42.214ZM62.5006 40.949C62.3393 40.949 62.2036 40.894 62.0936 40.784C61.9836 40.674 61.9286 40.542 61.9286 40.388C61.9286 40.2413 61.9836 40.113 62.0936 40.003C62.2036 39.893 62.3393 39.838 62.5006 39.838C62.662 39.838 62.7976 39.893 62.9076 40.003C63.0176 40.1057 63.0726 40.2303 63.0726 40.377C63.0726 40.5383 63.0176 40.674 62.9076 40.784C62.7976 40.894 62.662 40.949 62.5006 40.949ZM67.5337 47.362C67.8931 47.362 68.2231 47.2997 68.5237 47.175C68.8317 47.043 69.0921 46.8523 69.3047 46.603L69.7447 47.109C69.4881 47.417 69.1691 47.6517 68.7877 47.813C68.4064 47.9743 67.9847 48.055 67.5227 48.055C66.9287 48.055 66.4007 47.9303 65.9387 47.681C65.4767 47.4243 65.1174 47.0723 64.8607 46.625C64.6041 46.1777 64.4757 45.6717 64.4757 45.107C64.4757 44.5423 64.5967 44.0363 64.8387 43.589C65.0881 43.1417 65.4291 42.7933 65.8617 42.544C66.2944 42.2947 66.7857 42.17 67.3357 42.17C67.8491 42.17 68.3111 42.2873 68.7217 42.522C69.1397 42.7567 69.4697 43.083 69.7117 43.501C69.9611 43.919 70.0931 44.3957 70.1077 44.931L65.3557 45.855C65.5024 46.3243 65.7664 46.6947 66.1477 46.966C66.5364 47.23 66.9984 47.362 67.5337 47.362ZM67.3357 42.841C66.9324 42.841 66.5694 42.9363 66.2467 43.127C65.9314 43.3103 65.6821 43.5707 65.4987 43.908C65.3227 44.238 65.2347 44.6193 65.2347 45.052C65.2347 45.162 65.2384 45.2427 65.2457 45.294L69.3267 44.502C69.2387 44.018 69.0151 43.622 68.6557 43.314C68.2964 42.9987 67.8564 42.841 67.3357 42.841ZM73.2484 48.055C72.7791 48.055 72.3281 47.989 71.8954 47.857C71.4701 47.7177 71.1364 47.5453 70.8944 47.34L71.2464 46.724C71.4884 46.9147 71.7927 47.0723 72.1594 47.197C72.5261 47.3143 72.9074 47.373 73.3034 47.373C73.8314 47.373 74.2201 47.2923 74.4694 47.131C74.7261 46.9623 74.8544 46.7277 74.8544 46.427C74.8544 46.2143 74.7847 46.0493 74.6454 45.932C74.5061 45.8073 74.3301 45.7157 74.1174 45.657C73.9047 45.591 73.6224 45.5287 73.2704 45.47C72.8011 45.382 72.4234 45.294 72.1374 45.206C71.8514 45.1107 71.6057 44.953 71.4004 44.733C71.2024 44.513 71.1034 44.2087 71.1034 43.82C71.1034 43.336 71.3051 42.94 71.7084 42.632C72.1117 42.324 72.6727 42.17 73.3914 42.17C73.7654 42.17 74.1394 42.2213 74.5134 42.324C74.8874 42.4193 75.1954 42.5477 75.4374 42.709L75.0964 43.336C74.6197 43.006 74.0514 42.841 73.3914 42.841C72.8927 42.841 72.5151 42.929 72.2584 43.105C72.0091 43.281 71.8844 43.512 71.8844 43.798C71.8844 44.018 71.9541 44.194 72.0934 44.326C72.2401 44.458 72.4197 44.557 72.6324 44.623C72.8451 44.6817 73.1384 44.744 73.5124 44.81C73.9744 44.898 74.3447 44.986 74.6234 45.074C74.9021 45.162 75.1404 45.3123 75.3384 45.525C75.5364 45.7377 75.6354 46.031 75.6354 46.405C75.6354 46.911 75.4227 47.3143 74.9974 47.615C74.5794 47.9083 73.9964 48.055 73.2484 48.055ZM77.1562 48.055C76.9949 48.055 76.8556 47.9963 76.7382 47.879C76.6282 47.7617 76.5732 47.6187 76.5732 47.45C76.5732 47.2813 76.6282 47.142 76.7382 47.032C76.8556 46.9147 76.9949 46.856 77.1562 46.856C77.3176 46.856 77.4569 46.9147 77.5742 47.032C77.6916 47.142 77.7502 47.2813 77.7502 47.45C77.7502 47.6187 77.6916 47.7617 77.5742 47.879C77.4569 47.9963 77.3176 48.055 77.1562 48.055Z" fill="black"/>
</svg>
