<svg width="95" height="49" viewBox="0 0 95 49" fill="none" xmlns="http://www.w3.org/2000/svg">
<path d="M4.598 9.066C3.83533 9.066 3.146 8.89733 2.53 8.56C1.92133 8.22267 1.441 7.757 1.089 7.163C0.744333 6.56167 0.572 5.89067 0.572 5.15C0.572 4.40933 0.744333 3.742 1.089 3.148C1.441 2.54667 1.925 2.07733 2.541 1.74C3.157 1.40267 3.84633 1.234 4.609 1.234C5.181 1.234 5.709 1.32933 6.193 1.52C6.677 1.71067 7.08767 1.98933 7.425 2.356L6.908 2.873C6.30667 2.26433 5.54767 1.96 4.631 1.96C4.02233 1.96 3.46867 2.09933 2.97 2.378C2.47133 2.65667 2.079 3.038 1.793 3.522C1.51433 4.006 1.375 4.54867 1.375 5.15C1.375 5.75133 1.51433 6.294 1.793 6.778C2.079 7.262 2.47133 7.64333 2.97 7.922C3.46867 8.20067 4.02233 8.34 4.631 8.34C5.555 8.34 6.314 8.032 6.908 7.416L7.425 7.933C7.08767 8.29967 6.67333 8.582 6.182 8.78C5.698 8.97067 5.17 9.066 4.598 9.066ZM11.9433 3.17C12.6693 3.17 13.2449 3.38267 13.6703 3.808C14.1029 4.226 14.3193 4.83833 14.3193 5.645V9H13.5383V5.722C13.5383 5.12067 13.3879 4.66233 13.0873 4.347C12.7866 4.03167 12.3576 3.874 11.8003 3.874C11.1769 3.874 10.6819 4.061 10.3153 4.435C9.95592 4.80167 9.77625 5.31133 9.77625 5.964V9H8.99525V0.838H9.77625V4.226C9.98892 3.88867 10.2823 3.62833 10.6562 3.445C11.0303 3.26167 11.4593 3.17 11.9433 3.17ZM18.8261 9.055C18.2687 9.055 17.7664 8.93033 17.3191 8.681C16.8717 8.42433 16.5197 8.07233 16.2631 7.625C16.0064 7.17767 15.8781 6.67167 15.8781 6.107C15.8781 5.54233 16.0064 5.03633 16.2631 4.589C16.5197 4.14167 16.8717 3.79333 17.3191 3.544C17.7664 3.29467 18.2687 3.17 18.8261 3.17C19.3834 3.17 19.8857 3.29467 20.3331 3.544C20.7804 3.79333 21.1287 4.14167 21.3781 4.589C21.6347 5.03633 21.7631 5.54233 21.7631 6.107C21.7631 6.67167 21.6347 7.17767 21.3781 7.625C21.1287 8.07233 20.7804 8.42433 20.3331 8.681C19.8857 8.93033 19.3834 9.055 18.8261 9.055ZM18.8261 8.362C19.2367 8.362 19.6034 8.27033 19.9261 8.087C20.2561 7.89633 20.5127 7.62867 20.6961 7.284C20.8794 6.93933 20.9711 6.547 20.9711 6.107C20.9711 5.667 20.8794 5.27467 20.6961 4.93C20.5127 4.58533 20.2561 4.32133 19.9261 4.138C19.6034 3.94733 19.2367 3.852 18.8261 3.852C18.4154 3.852 18.0451 3.94733 17.7151 4.138C17.3924 4.32133 17.1357 4.58533 16.9451 4.93C16.7617 5.27467 16.6701 5.667 16.6701 6.107C16.6701 6.547 16.7617 6.93933 16.9451 7.284C17.1357 7.62867 17.3924 7.89633 17.7151 8.087C18.0451 8.27033 18.4154 8.362 18.8261 8.362ZM25.7556 9.055C25.1836 9.055 24.6702 8.93033 24.2156 8.681C23.7682 8.43167 23.4162 8.08333 23.1596 7.636C22.9029 7.18133 22.7746 6.67167 22.7746 6.107C22.7746 5.54233 22.9029 5.03633 23.1596 4.589C23.4162 4.14167 23.7682 3.79333 24.2156 3.544C24.6702 3.29467 25.1836 3.17 25.7556 3.17C26.2542 3.17 26.6979 3.269 27.0866 3.467C27.4826 3.65767 27.7942 3.94 28.0216 4.314L27.4386 4.71C27.2479 4.424 27.0059 4.21133 26.7126 4.072C26.4192 3.92533 26.1002 3.852 25.7556 3.852C25.3376 3.852 24.9599 3.94733 24.6226 4.138C24.2926 4.32133 24.0322 4.58533 23.8416 4.93C23.6582 5.27467 23.5666 5.667 23.5666 6.107C23.5666 6.55433 23.6582 6.95033 23.8416 7.295C24.0322 7.63233 24.2926 7.89633 24.6226 8.087C24.9599 8.27033 25.3376 8.362 25.7556 8.362C26.1002 8.362 26.4192 8.29233 26.7126 8.153C27.0059 8.01367 27.2479 7.801 27.4386 7.515L28.0216 7.911C27.7942 8.285 27.4826 8.571 27.0866 8.769C26.6906 8.95967 26.2469 9.055 25.7556 9.055ZM31.8241 9.055C31.2668 9.055 30.7645 8.93033 30.3171 8.681C29.8698 8.42433 29.5178 8.07233 29.2611 7.625C29.0045 7.17767 28.8761 6.67167 28.8761 6.107C28.8761 5.54233 29.0045 5.03633 29.2611 4.589C29.5178 4.14167 29.8698 3.79333 30.3171 3.544C30.7645 3.29467 31.2668 3.17 31.8241 3.17C32.3815 3.17 32.8838 3.29467 33.3311 3.544C33.7785 3.79333 34.1268 4.14167 34.3761 4.589C34.6328 5.03633 34.7611 5.54233 34.7611 6.107C34.7611 6.67167 34.6328 7.17767 34.3761 7.625C34.1268 8.07233 33.7785 8.42433 33.3311 8.681C32.8838 8.93033 32.3815 9.055 31.8241 9.055ZM31.8241 8.362C32.2348 8.362 32.6015 8.27033 32.9241 8.087C33.2541 7.89633 33.5108 7.62867 33.6941 7.284C33.8775 6.93933 33.9691 6.547 33.9691 6.107C33.9691 5.667 33.8775 5.27467 33.6941 4.93C33.5108 4.58533 33.2541 4.32133 32.9241 4.138C32.6015 3.94733 32.2348 3.852 31.8241 3.852C31.4135 3.852 31.0431 3.94733 30.7131 4.138C30.3905 4.32133 30.1338 4.58533 29.9431 4.93C29.7598 5.27467 29.6681 5.667 29.6681 6.107C29.6681 6.547 29.7598 6.93933 29.9431 7.284C30.1338 7.62867 30.3905 7.89633 30.7131 8.087C31.0431 8.27033 31.4135 8.362 31.8241 8.362ZM37.9836 9.055C37.4629 9.055 37.0596 8.90833 36.7736 8.615C36.4949 8.32167 36.3556 7.91467 36.3556 7.394V0.838H37.1366V7.328C37.1366 7.67267 37.2173 7.93667 37.3786 8.12C37.5399 8.296 37.7819 8.384 38.1046 8.384C38.3099 8.384 38.4859 8.351 38.6326 8.285L38.6876 8.934C38.4603 9.01467 38.2256 9.055 37.9836 9.055ZM44.9227 3.214V9H44.1747V7.856C43.94 8.24467 43.6284 8.54167 43.2397 8.747C42.8584 8.95233 42.4257 9.055 41.9417 9.055C41.399 9.055 40.9077 8.93033 40.4677 8.681C40.0277 8.43167 39.683 8.08333 39.4337 7.636C39.1844 7.18867 39.0597 6.679 39.0597 6.107C39.0597 5.535 39.1844 5.02533 39.4337 4.578C39.683 4.13067 40.0277 3.786 40.4677 3.544C40.9077 3.29467 41.399 3.17 41.9417 3.17C42.411 3.17 42.8327 3.269 43.2067 3.467C43.588 3.65767 43.8997 3.94 44.1417 4.314V3.214H44.9227ZM42.0077 8.362C42.411 8.362 42.774 8.27033 43.0967 8.087C43.4267 7.89633 43.6834 7.62867 43.8667 7.284C44.0574 6.93933 44.1527 6.547 44.1527 6.107C44.1527 5.667 44.0574 5.27467 43.8667 4.93C43.6834 4.58533 43.4267 4.32133 43.0967 4.138C42.774 3.94733 42.411 3.852 42.0077 3.852C41.597 3.852 41.2267 3.94733 40.8967 4.138C40.574 4.32133 40.3174 4.58533 40.1267 4.93C39.9434 5.27467 39.8517 5.667 39.8517 6.107C39.8517 6.547 39.9434 6.93933 40.1267 7.284C40.3174 7.62867 40.574 7.89633 40.8967 8.087C41.2267 8.27033 41.597 8.362 42.0077 8.362ZM49.9468 8.648C49.8001 8.78 49.6205 8.88267 49.4078 8.956C49.1951 9.022 48.9715 9.055 48.7368 9.055C48.1941 9.055 47.7761 8.90833 47.4828 8.615C47.1895 8.32167 47.0428 7.90733 47.0428 7.372V1.949H47.8238V3.214H49.5728V3.874H47.8238V7.328C47.8238 7.67267 47.9081 7.93667 48.0768 8.12C48.2455 8.296 48.4911 8.384 48.8138 8.384C49.1658 8.384 49.4518 8.285 49.6718 8.087L49.9468 8.648ZM53.6333 8.362C53.9927 8.362 54.3227 8.29967 54.6233 8.175C54.9313 8.043 55.1917 7.85233 55.4043 7.603L55.8443 8.109C55.5877 8.417 55.2687 8.65167 54.8873 8.813C54.506 8.97433 54.0843 9.055 53.6223 9.055C53.0283 9.055 52.5003 8.93033 52.0383 8.681C51.5763 8.42433 51.217 8.07233 50.9603 7.625C50.7037 7.17767 50.5753 6.67167 50.5753 6.107C50.5753 5.54233 50.6963 5.03633 50.9383 4.589C51.1877 4.14167 51.5287 3.79333 51.9613 3.544C52.394 3.29467 52.8853 3.17 53.4353 3.17C53.9487 3.17 54.4107 3.28733 54.8213 3.522C55.2393 3.75667 55.5693 4.083 55.8113 4.501C56.0607 4.919 56.1927 5.39567 56.2073 5.931L51.4553 6.855C51.602 7.32433 51.866 7.69467 52.2473 7.966C52.636 8.23 53.098 8.362 53.6333 8.362ZM53.4353 3.841C53.032 3.841 52.669 3.93633 52.3463 4.127C52.031 4.31033 51.7817 4.57067 51.5983 4.908C51.4223 5.238 51.3343 5.61933 51.3343 6.052C51.3343 6.162 51.338 6.24267 51.3453 6.294L55.4263 5.502C55.3383 5.018 55.1147 4.622 54.7553 4.314C54.396 3.99867 53.956 3.841 53.4353 3.841ZM60.6759 3.214H61.4569V9H60.6759V3.214ZM61.0719 1.949C60.9106 1.949 60.7749 1.894 60.6649 1.784C60.5549 1.674 60.4999 1.542 60.4999 1.388C60.4999 1.24133 60.5549 1.113 60.6649 1.003C60.7749 0.892999 60.9106 0.838 61.0719 0.838C61.2332 0.838 61.3689 0.892999 61.4789 1.003C61.5889 1.10567 61.6439 1.23033 61.6439 1.377C61.6439 1.53833 61.5889 1.674 61.4789 1.784C61.3689 1.894 61.2332 1.949 61.0719 1.949ZM66.028 9.055C65.456 9.055 64.9427 8.93033 64.488 8.681C64.0407 8.43167 63.6887 8.08333 63.432 7.636C63.1753 7.18133 63.047 6.67167 63.047 6.107C63.047 5.54233 63.1753 5.03633 63.432 4.589C63.6887 4.14167 64.0407 3.79333 64.488 3.544C64.9427 3.29467 65.456 3.17 66.028 3.17C66.5267 3.17 66.9703 3.269 67.359 3.467C67.755 3.65767 68.0667 3.94 68.294 4.314L67.711 4.71C67.5203 4.424 67.2783 4.21133 66.985 4.072C66.6917 3.92533 66.3727 3.852 66.028 3.852C65.61 3.852 65.2323 3.94733 64.895 4.138C64.565 4.32133 64.3047 4.58533 64.114 4.93C63.9307 5.27467 63.839 5.667 63.839 6.107C63.839 6.55433 63.9307 6.95033 64.114 7.295C64.3047 7.63233 64.565 7.89633 64.895 8.087C65.2323 8.27033 65.61 8.362 66.028 8.362C66.3727 8.362 66.6917 8.29233 66.985 8.153C67.2783 8.01367 67.5203 7.801 67.711 7.515L68.294 7.911C68.0667 8.285 67.755 8.571 67.359 8.769C66.963 8.95967 66.5193 9.055 66.028 9.055ZM72.2066 8.362C72.5659 8.362 72.8959 8.29967 73.1966 8.175C73.5046 8.043 73.7649 7.85233 73.9776 7.603L74.4176 8.109C74.1609 8.417 73.8419 8.65167 73.4606 8.813C73.0792 8.97433 72.6576 9.055 72.1956 9.055C71.6016 9.055 71.0736 8.93033 70.6116 8.681C70.1496 8.42433 69.7902 8.07233 69.5336 7.625C69.2769 7.17767 69.1486 6.67167 69.1486 6.107C69.1486 5.54233 69.2696 5.03633 69.5116 4.589C69.7609 4.14167 70.1019 3.79333 70.5346 3.544C70.9672 3.29467 71.4586 3.17 72.0086 3.17C72.5219 3.17 72.9839 3.28733 73.3946 3.522C73.8126 3.75667 74.1426 4.083 74.3846 4.501C74.6339 4.919 74.7659 5.39567 74.7806 5.931L70.0286 6.855C70.1752 7.32433 70.4392 7.69467 70.8206 7.966C71.2092 8.23 71.6712 8.362 72.2066 8.362ZM72.0086 3.841C71.6052 3.841 71.2422 3.93633 70.9196 4.127C70.6042 4.31033 70.3549 4.57067 70.1716 4.908C69.9956 5.238 69.9076 5.61933 69.9076 6.052C69.9076 6.162 69.9112 6.24267 69.9186 6.294L73.9996 5.502C73.9116 5.018 73.6879 4.622 73.3286 4.314C72.9692 3.99867 72.5292 3.841 72.0086 3.841ZM3.487 22.055C2.915 22.055 2.40167 21.9303 1.947 21.681C1.49967 21.4317 1.14767 21.0833 0.891 20.636C0.634333 20.1813 0.506 19.6717 0.506 19.107C0.506 18.5423 0.634333 18.0363 0.891 17.589C1.14767 17.1417 1.49967 16.7933 1.947 16.544C2.40167 16.2947 2.915 16.17 3.487 16.17C3.98567 16.17 4.42933 16.269 4.818 16.467C5.214 16.6577 5.52567 16.94 5.753 17.314L5.17 17.71C4.97933 17.424 4.73733 17.2113 4.444 17.072C4.15067 16.9253 3.83167 16.852 3.487 16.852C3.069 16.852 2.69133 16.9473 2.354 17.138C2.024 17.3213 1.76367 17.5853 1.573 17.93C1.38967 18.2747 1.298 18.667 1.298 19.107C1.298 19.5543 1.38967 19.9503 1.573 20.295C1.76367 20.6323 2.024 20.8963 2.354 21.087C2.69133 21.2703 3.069 21.362 3.487 21.362C3.83167 21.362 4.15067 21.2923 4.444 21.153C4.73733 21.0137 4.97933 20.801 5.17 20.515L5.753 20.911C5.52567 21.285 5.214 21.571 4.818 21.769C4.422 21.9597 3.97833 22.055 3.487 22.055ZM8.03524 17.347C8.21858 16.9583 8.48991 16.665 8.84924 16.467C9.21591 16.269 9.66691 16.17 10.2022 16.17V16.929L10.0152 16.918C9.40658 16.918 8.92991 17.105 8.58524 17.479C8.24058 17.853 8.06824 18.3773 8.06824 19.052V22H7.28724V16.214H8.03524V17.347ZM14.0376 21.362C14.397 21.362 14.727 21.2997 15.0276 21.175C15.3356 21.043 15.596 20.8523 15.8086 20.603L16.2486 21.109C15.992 21.417 15.673 21.6517 15.2916 21.813C14.9103 21.9743 14.4886 22.055 14.0266 22.055C13.4326 22.055 12.9046 21.9303 12.4426 21.681C11.9806 21.4243 11.6213 21.0723 11.3646 20.625C11.108 20.1777 10.9796 19.6717 10.9796 19.107C10.9796 18.5423 11.1006 18.0363 11.3426 17.589C11.592 17.1417 11.933 16.7933 12.3656 16.544C12.7983 16.2947 13.2896 16.17 13.8396 16.17C14.353 16.17 14.815 16.2873 15.2256 16.522C15.6436 16.7567 15.9736 17.083 16.2156 17.501C16.465 17.919 16.597 18.3957 16.6116 18.931L11.8596 19.855C12.0063 20.3243 12.2703 20.6947 12.6516 20.966C13.0403 21.23 13.5023 21.362 14.0376 21.362ZM13.8396 16.841C13.4363 16.841 13.0733 16.9363 12.7506 17.127C12.4353 17.3103 12.186 17.5707 12.0026 17.908C11.8266 18.238 11.7386 18.6193 11.7386 19.052C11.7386 19.162 11.7423 19.2427 11.7496 19.294L15.8306 18.502C15.7426 18.018 15.519 17.622 15.1596 17.314C14.8003 16.9987 14.3603 16.841 13.8396 16.841ZM23.4813 16.214V22H22.7333V20.856C22.4986 21.2447 22.187 21.5417 21.7983 21.747C21.417 21.9523 20.9843 22.055 20.5003 22.055C19.9576 22.055 19.4663 21.9303 19.0263 21.681C18.5863 21.4317 18.2416 21.0833 17.9923 20.636C17.743 20.1887 17.6183 19.679 17.6183 19.107C17.6183 18.535 17.743 18.0253 17.9923 17.578C18.2416 17.1307 18.5863 16.786 19.0263 16.544C19.4663 16.2947 19.9576 16.17 20.5003 16.17C20.9696 16.17 21.3913 16.269 21.7653 16.467C22.1466 16.6577 22.4583 16.94 22.7003 17.314V16.214H23.4813ZM20.5663 21.362C20.9696 21.362 21.3326 21.2703 21.6553 21.087C21.9853 20.8963 22.242 20.6287 22.4253 20.284C22.616 19.9393 22.7113 19.547 22.7113 19.107C22.7113 18.667 22.616 18.2747 22.4253 17.93C22.242 17.5853 21.9853 17.3213 21.6553 17.138C21.3326 16.9473 20.9696 16.852 20.5663 16.852C20.1556 16.852 19.7853 16.9473 19.4553 17.138C19.1326 17.3213 18.876 17.5853 18.6853 17.93C18.502 18.2747 18.4103 18.667 18.4103 19.107C18.4103 19.547 18.502 19.9393 18.6853 20.284C18.876 20.6287 19.1326 20.8963 19.4553 21.087C19.7853 21.2703 20.1556 21.362 20.5663 21.362ZM32.8724 16.17C33.5984 16.17 34.1667 16.379 34.5774 16.797C34.9954 17.215 35.2044 17.831 35.2044 18.645V22H34.4234V18.722C34.4234 18.1207 34.2767 17.6623 33.9834 17.347C33.6974 17.0317 33.2904 16.874 32.7624 16.874C32.1611 16.874 31.6881 17.061 31.3434 17.435C30.9987 17.8017 30.8264 18.3113 30.8264 18.964V22H30.0454V18.722C30.0454 18.1207 29.8987 17.6623 29.6054 17.347C29.3194 17.0317 28.9087 16.874 28.3734 16.874C27.7794 16.874 27.3064 17.061 26.9544 17.435C26.6097 17.8017 26.4374 18.3113 26.4374 18.964V22H25.6564V16.214H26.4044V17.27C26.6097 16.918 26.8957 16.6467 27.2624 16.456C27.629 16.2653 28.0507 16.17 28.5274 16.17C29.0114 16.17 29.4294 16.2727 29.7814 16.478C30.1407 16.6833 30.4084 16.9877 30.5844 17.391C30.797 17.0097 31.1014 16.7127 31.4974 16.5C31.9007 16.28 32.3591 16.17 32.8724 16.17ZM45.5583 16.214V21.296C45.5583 22.2787 45.3163 23.0047 44.8323 23.474C44.3556 23.9507 43.6333 24.189 42.6653 24.189C42.13 24.189 41.6203 24.1083 41.1363 23.947C40.6596 23.793 40.271 23.5767 39.9703 23.298L40.3663 22.704C40.645 22.9533 40.9823 23.1477 41.3783 23.287C41.7816 23.4263 42.2033 23.496 42.6433 23.496C43.3766 23.496 43.9156 23.3237 44.2603 22.979C44.605 22.6417 44.7773 22.1137 44.7773 21.395V20.658C44.5353 21.0247 44.2163 21.3033 43.8203 21.494C43.4316 21.6847 42.999 21.78 42.5223 21.78C41.9796 21.78 41.4846 21.6627 41.0373 21.428C40.5973 21.186 40.249 20.8523 39.9923 20.427C39.743 19.9943 39.6183 19.5067 39.6183 18.964C39.6183 18.4213 39.743 17.9373 39.9923 17.512C40.249 17.0867 40.5973 16.7567 41.0373 16.522C41.4773 16.2873 41.9723 16.17 42.5223 16.17C43.0136 16.17 43.4573 16.269 43.8533 16.467C44.2493 16.665 44.5683 16.951 44.8103 17.325V16.214H45.5583ZM42.5993 21.087C43.0173 21.087 43.395 20.999 43.7323 20.823C44.0696 20.6397 44.33 20.3867 44.5133 20.064C44.704 19.7413 44.7993 19.3747 44.7993 18.964C44.7993 18.5533 44.704 18.1903 44.5133 17.875C44.33 17.5523 44.0696 17.303 43.7323 17.127C43.4023 16.9437 43.0246 16.852 42.5993 16.852C42.1813 16.852 41.8036 16.94 41.4663 17.116C41.1363 17.292 40.876 17.5413 40.6853 17.864C40.502 18.1867 40.4103 18.5533 40.4103 18.964C40.4103 19.3747 40.502 19.7413 40.6853 20.064C40.876 20.3867 41.1363 20.6397 41.4663 20.823C41.8036 20.999 42.1813 21.087 42.5993 21.087ZM53.0223 16.214V22H52.2743V20.856C52.0397 21.2447 51.728 21.5417 51.3393 21.747C50.958 21.9523 50.5253 22.055 50.0413 22.055C49.4987 22.055 49.0073 21.9303 48.5673 21.681C48.1273 21.4317 47.7827 21.0833 47.5333 20.636C47.284 20.1887 47.1593 19.679 47.1593 19.107C47.1593 18.535 47.284 18.0253 47.5333 17.578C47.7827 17.1307 48.1273 16.786 48.5673 16.544C49.0073 16.2947 49.4987 16.17 50.0413 16.17C50.5107 16.17 50.9323 16.269 51.3063 16.467C51.6877 16.6577 51.9993 16.94 52.2413 17.314V16.214H53.0223ZM50.1073 21.362C50.5107 21.362 50.8737 21.2703 51.1963 21.087C51.5263 20.8963 51.783 20.6287 51.9663 20.284C52.157 19.9393 52.2523 19.547 52.2523 19.107C52.2523 18.667 52.157 18.2747 51.9663 17.93C51.783 17.5853 51.5263 17.3213 51.1963 17.138C50.8737 16.9473 50.5107 16.852 50.1073 16.852C49.6967 16.852 49.3263 16.9473 48.9963 17.138C48.6737 17.3213 48.417 17.5853 48.2263 17.93C48.043 18.2747 47.9513 18.667 47.9513 19.107C47.9513 19.547 48.043 19.9393 48.2263 20.284C48.417 20.6287 48.6737 20.8963 48.9963 21.087C49.3263 21.2703 49.6967 21.362 50.1073 21.362ZM55.9454 17.347C56.1287 16.9583 56.4001 16.665 56.7594 16.467C57.1261 16.269 57.5771 16.17 58.1124 16.17V16.929L57.9254 16.918C57.3167 16.918 56.8401 17.105 56.4954 17.479C56.1507 17.853 55.9784 18.3773 55.9784 19.052V22H55.1974V16.214H55.9454V17.347ZM62.4745 16.17C63.2005 16.17 63.7762 16.3827 64.2015 16.808C64.6342 17.226 64.8505 17.8383 64.8505 18.645V22H64.0695V18.722C64.0695 18.1207 63.9192 17.6623 63.6185 17.347C63.3178 17.0317 62.8888 16.874 62.3315 16.874C61.7082 16.874 61.2132 17.061 60.8465 17.435C60.4872 17.8017 60.3075 18.3113 60.3075 18.964V22H59.5265V16.214H60.2745V17.281C60.4872 16.929 60.7805 16.6577 61.1545 16.467C61.5358 16.269 61.9758 16.17 62.4745 16.17ZM66.9708 16.214H67.7518V22H66.9708V16.214ZM67.3668 14.949C67.2055 14.949 67.0698 14.894 66.9598 14.784C66.8498 14.674 66.7948 14.542 66.7948 14.388C66.7948 14.2413 66.8498 14.113 66.9598 14.003C67.0698 13.893 67.2055 13.838 67.3668 13.838C67.5282 13.838 67.6638 13.893 67.7738 14.003C67.8838 14.1057 67.9388 14.2303 67.9388 14.377C67.9388 14.5383 67.8838 14.674 67.7738 14.784C67.6638 14.894 67.5282 14.949 67.3668 14.949ZM71.4759 22.055C71.0066 22.055 70.5556 21.989 70.1229 21.857C69.6976 21.7177 69.3639 21.5453 69.1219 21.34L69.4739 20.724C69.7159 20.9147 70.0203 21.0723 70.3869 21.197C70.7536 21.3143 71.1349 21.373 71.5309 21.373C72.0589 21.373 72.4476 21.2923 72.6969 21.131C72.9536 20.9623 73.0819 20.7277 73.0819 20.427C73.0819 20.2143 73.0123 20.0493 72.8729 19.932C72.7336 19.8073 72.5576 19.7157 72.3449 19.657C72.1323 19.591 71.8499 19.5287 71.4979 19.47C71.0286 19.382 70.6509 19.294 70.3649 19.206C70.0789 19.1107 69.8333 18.953 69.6279 18.733C69.4299 18.513 69.3309 18.2087 69.3309 17.82C69.3309 17.336 69.5326 16.94 69.9359 16.632C70.3393 16.324 70.9003 16.17 71.6189 16.17C71.9929 16.17 72.3669 16.2213 72.7409 16.324C73.1149 16.4193 73.4229 16.5477 73.6649 16.709L73.3239 17.336C72.8473 17.006 72.2789 16.841 71.6189 16.841C71.1203 16.841 70.7426 16.929 70.4859 17.105C70.2366 17.281 70.1119 17.512 70.1119 17.798C70.1119 18.018 70.1816 18.194 70.3209 18.326C70.4676 18.458 70.6473 18.557 70.8599 18.623C71.0726 18.6817 71.3659 18.744 71.7399 18.81C72.2019 18.898 72.5723 18.986 72.8509 19.074C73.1296 19.162 73.3679 19.3123 73.5659 19.525C73.7639 19.7377 73.8629 20.031 73.8629 20.405C73.8629 20.911 73.6503 21.3143 73.2249 21.615C72.8069 21.9083 72.2239 22.055 71.4759 22.055ZM78.2548 16.17C78.9808 16.17 79.5564 16.3827 79.9818 16.808C80.4144 17.226 80.6308 17.8383 80.6308 18.645V22H79.8498V18.722C79.8498 18.1207 79.6994 17.6623 79.3988 17.347C79.0981 17.0317 78.6691 16.874 78.1118 16.874C77.4884 16.874 76.9934 17.061 76.6268 17.435C76.2674 17.8017 76.0878 18.3113 76.0878 18.964V22H75.3068V13.838H76.0878V17.226C76.3004 16.8887 76.5938 16.6283 76.9678 16.445C77.3418 16.2617 77.7708 16.17 78.2548 16.17ZM85.2476 21.362C85.6069 21.362 85.9369 21.2997 86.2376 21.175C86.5456 21.043 86.8059 20.8523 87.0186 20.603L87.4586 21.109C87.2019 21.417 86.8829 21.6517 86.5016 21.813C86.1203 21.9743 85.6986 22.055 85.2366 22.055C84.6426 22.055 84.1146 21.9303 83.6526 21.681C83.1906 21.4243 82.8313 21.0723 82.5746 20.625C82.3179 20.1777 82.1896 19.6717 82.1896 19.107C82.1896 18.5423 82.3106 18.0363 82.5526 17.589C82.8019 17.1417 83.1429 16.7933 83.5756 16.544C84.0083 16.2947 84.4996 16.17 85.0496 16.17C85.5629 16.17 86.0249 16.2873 86.4356 16.522C86.8536 16.7567 87.1836 17.083 87.4256 17.501C87.6749 17.919 87.8069 18.3957 87.8216 18.931L83.0696 19.855C83.2163 20.3243 83.4803 20.6947 83.8616 20.966C84.2503 21.23 84.7123 21.362 85.2476 21.362ZM85.0496 16.841C84.6463 16.841 84.2833 16.9363 83.9606 17.127C83.6453 17.3103 83.3959 17.5707 83.2126 17.908C83.0366 18.238 82.9486 18.6193 82.9486 19.052C82.9486 19.162 82.9523 19.2427 82.9596 19.294L87.0406 18.502C86.9526 18.018 86.7289 17.622 86.3696 17.314C86.0103 16.9987 85.5703 16.841 85.0496 16.841ZM94.6913 13.838V22H93.9433V20.856C93.7086 21.2447 93.3969 21.5417 93.0083 21.747C92.6269 21.9523 92.1943 22.055 91.7103 22.055C91.1676 22.055 90.6763 21.9303 90.2363 21.681C89.7963 21.4317 89.4516 21.0833 89.2023 20.636C88.9529 20.1887 88.8283 19.679 88.8283 19.107C88.8283 18.535 88.9529 18.0253 89.2023 17.578C89.4516 17.1307 89.7963 16.786 90.2363 16.544C90.6763 16.2947 91.1676 16.17 91.7103 16.17C92.1796 16.17 92.6013 16.269 92.9753 16.467C93.3566 16.6577 93.6683 16.94 93.9103 17.314V13.838H94.6913ZM91.7763 21.362C92.1796 21.362 92.5426 21.2703 92.8653 21.087C93.1953 20.8963 93.4519 20.6287 93.6353 20.284C93.8259 19.9393 93.9213 19.547 93.9213 19.107C93.9213 18.667 93.8259 18.2747 93.6353 17.93C93.4519 17.5853 93.1953 17.3213 92.8653 17.138C92.5426 16.9473 92.1796 16.852 91.7763 16.852C91.3656 16.852 90.9953 16.9473 90.6653 17.138C90.3426 17.3213 90.0859 17.5853 89.8953 17.93C89.7119 18.2747 89.6203 18.667 89.6203 19.107C89.6203 19.547 89.7119 19.9393 89.8953 20.284C90.0859 20.6287 90.3426 20.8963 90.6653 21.087C90.9953 21.2703 91.3656 21.362 91.7763 21.362ZM10.01 29.214V32.415C10.01 33.273 9.80467 33.9293 9.394 34.384C8.98333 34.8313 8.37833 35.055 7.579 35.055C7.073 35.055 6.64767 34.9597 6.303 34.769C5.96567 34.571 5.70533 34.2593 5.522 33.834C5.33867 34.252 5.07833 34.56 4.741 34.758C4.40367 34.956 3.97833 35.055 3.465 35.055C2.66567 35.055 2.06067 34.8313 1.65 34.384C1.23933 33.9293 1.034 33.273 1.034 32.415V29.214H1.815V32.349C1.815 33.031 1.947 33.537 2.211 33.867C2.475 34.1897 2.893 34.351 3.465 34.351C4.02967 34.351 4.44767 34.186 4.719 33.856C4.99767 33.526 5.137 33.0163 5.137 32.327V29.214H5.918V32.327C5.918 33.0163 6.05367 33.526 6.325 33.856C6.59633 34.186 7.018 34.351 7.59 34.351C8.14733 34.351 8.558 34.1897 8.822 33.867C9.09333 33.537 9.229 33.031 9.229 32.349V29.214H10.01ZM12.132 29.214H12.913V35H12.132V29.214ZM12.528 27.949C12.3666 27.949 12.231 27.894 12.121 27.784C12.011 27.674 11.956 27.542 11.956 27.388C11.956 27.2413 12.011 27.113 12.121 27.003C12.231 26.893 12.3666 26.838 12.528 26.838C12.6893 26.838 12.825 26.893 12.935 27.003C13.045 27.1057 13.1 27.2303 13.1 27.377C13.1 27.5383 13.045 27.674 12.935 27.784C12.825 27.894 12.6893 27.949 12.528 27.949ZM17.9351 34.648C17.7884 34.78 17.6087 34.8827 17.3961 34.956C17.1834 35.022 16.9597 35.055 16.7251 35.055C16.1824 35.055 15.7644 34.9083 15.4711 34.615C15.1777 34.3217 15.0311 33.9073 15.0311 33.372V27.949H15.8121V29.214H17.5611V29.874H15.8121V33.328C15.8121 33.6727 15.8964 33.9367 16.0651 34.12C16.2337 34.296 16.4794 34.384 16.8021 34.384C17.1541 34.384 17.4401 34.285 17.6601 34.087L17.9351 34.648ZM22.2987 29.17C23.0247 29.17 23.6004 29.3827 24.0257 29.808C24.4584 30.226 24.6747 30.8383 24.6747 31.645V35H23.8937V31.722C23.8937 31.1207 23.7434 30.6623 23.4427 30.347C23.1421 30.0317 22.7131 29.874 22.1557 29.874C21.5324 29.874 21.0374 30.061 20.6707 30.435C20.3114 30.8017 20.1317 31.3113 20.1317 31.964V35H19.3507V26.838H20.1317V30.226C20.3444 29.8887 20.6377 29.6283 21.0117 29.445C21.3857 29.2617 21.8147 29.17 22.2987 29.17ZM32.072 35.055C31.5 35.055 30.9866 34.9303 30.532 34.681C30.0846 34.4317 29.7326 34.0833 29.476 33.636C29.2193 33.1813 29.091 32.6717 29.091 32.107C29.091 31.5423 29.2193 31.0363 29.476 30.589C29.7326 30.1417 30.0846 29.7933 30.532 29.544C30.9866 29.2947 31.5 29.17 32.072 29.17C32.5706 29.17 33.0143 29.269 33.403 29.467C33.799 29.6577 34.1106 29.94 34.338 30.314L33.755 30.71C33.5643 30.424 33.3223 30.2113 33.029 30.072C32.7356 29.9253 32.4166 29.852 32.072 29.852C31.654 29.852 31.2763 29.9473 30.939 30.138C30.609 30.3213 30.3486 30.5853 30.158 30.93C29.9746 31.2747 29.883 31.667 29.883 32.107C29.883 32.5543 29.9746 32.9503 30.158 33.295C30.3486 33.6323 30.609 33.8963 30.939 34.087C31.2763 34.2703 31.654 34.362 32.072 34.362C32.4166 34.362 32.7356 34.2923 33.029 34.153C33.3223 34.0137 33.5643 33.801 33.755 33.515L34.338 33.911C34.1106 34.285 33.799 34.571 33.403 34.769C33.007 34.9597 32.5633 35.055 32.072 35.055ZM38.7343 29.17C39.4603 29.17 40.0359 29.3827 40.4613 29.808C40.8939 30.226 41.1103 30.8383 41.1103 31.645V35H40.3293V31.722C40.3293 31.1207 40.1789 30.6623 39.8783 30.347C39.5776 30.0317 39.1486 29.874 38.5913 29.874C37.9679 29.874 37.4729 30.061 37.1063 30.435C36.7469 30.8017 36.5673 31.3113 36.5673 31.964V35H35.7863V26.838H36.5673V30.226C36.7799 29.8887 37.0733 29.6283 37.4473 29.445C37.8213 29.2617 38.2503 29.17 38.7343 29.17ZM45.6171 35.055C45.0598 35.055 44.5574 34.9303 44.1101 34.681C43.6628 34.4243 43.3108 34.0723 43.0541 33.625C42.7974 33.1777 42.6691 32.6717 42.6691 32.107C42.6691 31.5423 42.7974 31.0363 43.0541 30.589C43.3108 30.1417 43.6628 29.7933 44.1101 29.544C44.5574 29.2947 45.0598 29.17 45.6171 29.17C46.1744 29.17 46.6768 29.2947 47.1241 29.544C47.5714 29.7933 47.9198 30.1417 48.1691 30.589C48.4258 31.0363 48.5541 31.5423 48.5541 32.107C48.5541 32.6717 48.4258 33.1777 48.1691 33.625C47.9198 34.0723 47.5714 34.4243 47.1241 34.681C46.6768 34.9303 46.1744 35.055 45.6171 35.055ZM45.6171 34.362C46.0278 34.362 46.3944 34.2703 46.7171 34.087C47.0471 33.8963 47.3038 33.6287 47.4871 33.284C47.6704 32.9393 47.7621 32.547 47.7621 32.107C47.7621 31.667 47.6704 31.2747 47.4871 30.93C47.3038 30.5853 47.0471 30.3213 46.7171 30.138C46.3944 29.9473 46.0278 29.852 45.6171 29.852C45.2064 29.852 44.8361 29.9473 44.5061 30.138C44.1834 30.3213 43.9268 30.5853 43.7361 30.93C43.5528 31.2747 43.4611 31.667 43.4611 32.107C43.4611 32.547 43.5528 32.9393 43.7361 33.284C43.9268 33.6287 44.1834 33.8963 44.5061 34.087C44.8361 34.2703 45.2064 34.362 45.6171 34.362ZM52.5466 35.055C51.9746 35.055 51.4612 34.9303 51.0066 34.681C50.5592 34.4317 50.2072 34.0833 49.9506 33.636C49.6939 33.1813 49.5656 32.6717 49.5656 32.107C49.5656 31.5423 49.6939 31.0363 49.9506 30.589C50.2072 30.1417 50.5592 29.7933 51.0066 29.544C51.4612 29.2947 51.9746 29.17 52.5466 29.17C53.0452 29.17 53.4889 29.269 53.8776 29.467C54.2736 29.6577 54.5852 29.94 54.8126 30.314L54.2296 30.71C54.0389 30.424 53.7969 30.2113 53.5036 30.072C53.2102 29.9253 52.8912 29.852 52.5466 29.852C52.1286 29.852 51.7509 29.9473 51.4136 30.138C51.0836 30.3213 50.8232 30.5853 50.6326 30.93C50.4492 31.2747 50.3576 31.667 50.3576 32.107C50.3576 32.5543 50.4492 32.9503 50.6326 33.295C50.8232 33.6323 51.0836 33.8963 51.4136 34.087C51.7509 34.2703 52.1286 34.362 52.5466 34.362C52.8912 34.362 53.2102 34.2923 53.5036 34.153C53.7969 34.0137 54.0389 33.801 54.2296 33.515L54.8126 33.911C54.5852 34.285 54.2736 34.571 53.8776 34.769C53.4816 34.9597 53.0379 35.055 52.5466 35.055ZM58.6151 35.055C58.0578 35.055 57.5555 34.9303 57.1081 34.681C56.6608 34.4243 56.3088 34.0723 56.0521 33.625C55.7955 33.1777 55.6671 32.6717 55.6671 32.107C55.6671 31.5423 55.7955 31.0363 56.0521 30.589C56.3088 30.1417 56.6608 29.7933 57.1081 29.544C57.5555 29.2947 58.0578 29.17 58.6151 29.17C59.1725 29.17 59.6748 29.2947 60.1221 29.544C60.5695 29.7933 60.9178 30.1417 61.1671 30.589C61.4238 31.0363 61.5521 31.5423 61.5521 32.107C61.5521 32.6717 61.4238 33.1777 61.1671 33.625C60.9178 34.0723 60.5695 34.4243 60.1221 34.681C59.6748 34.9303 59.1725 35.055 58.6151 35.055ZM58.6151 34.362C59.0258 34.362 59.3925 34.2703 59.7151 34.087C60.0451 33.8963 60.3018 33.6287 60.4851 33.284C60.6685 32.9393 60.7601 32.547 60.7601 32.107C60.7601 31.667 60.6685 31.2747 60.4851 30.93C60.3018 30.5853 60.0451 30.3213 59.7151 30.138C59.3925 29.9473 59.0258 29.852 58.6151 29.852C58.2045 29.852 57.8341 29.9473 57.5041 30.138C57.1815 30.3213 56.9248 30.5853 56.7341 30.93C56.5508 31.2747 56.4591 31.667 56.4591 32.107C56.4591 32.547 56.5508 32.9393 56.7341 33.284C56.9248 33.6287 57.1815 33.8963 57.5041 34.087C57.8341 34.2703 58.2045 34.362 58.6151 34.362ZM64.7746 35.055C64.254 35.055 63.8506 34.9083 63.5646 34.615C63.286 34.3217 63.1466 33.9147 63.1466 33.394V26.838H63.9276V33.328C63.9276 33.6727 64.0083 33.9367 64.1696 34.12C64.331 34.296 64.573 34.384 64.8956 34.384C65.101 34.384 65.277 34.351 65.4236 34.285L65.4786 34.934C65.2513 35.0147 65.0166 35.055 64.7746 35.055ZM71.7137 29.214V35H70.9657V33.856C70.7311 34.2447 70.4194 34.5417 70.0307 34.747C69.6494 34.9523 69.2167 35.055 68.7327 35.055C68.1901 35.055 67.6987 34.9303 67.2587 34.681C66.8187 34.4317 66.4741 34.0833 66.2247 33.636C65.9754 33.1887 65.8507 32.679 65.8507 32.107C65.8507 31.535 65.9754 31.0253 66.2247 30.578C66.4741 30.1307 66.8187 29.786 67.2587 29.544C67.6987 29.2947 68.1901 29.17 68.7327 29.17C69.2021 29.17 69.6237 29.269 69.9977 29.467C70.3791 29.6577 70.6907 29.94 70.9327 30.314V29.214H71.7137ZM68.7987 34.362C69.2021 34.362 69.5651 34.2703 69.8877 34.087C70.2177 33.8963 70.4744 33.6287 70.6577 33.284C70.8484 32.9393 70.9437 32.547 70.9437 32.107C70.9437 31.667 70.8484 31.2747 70.6577 30.93C70.4744 30.5853 70.2177 30.3213 69.8877 30.138C69.5651 29.9473 69.2021 29.852 68.7987 29.852C68.3881 29.852 68.0177 29.9473 67.6877 30.138C67.3651 30.3213 67.1084 30.5853 66.9177 30.93C66.7344 31.2747 66.6427 31.667 66.6427 32.107C66.6427 32.547 66.7344 32.9393 66.9177 33.284C67.1084 33.6287 67.3651 33.8963 67.6877 34.087C68.0177 34.2703 68.3881 34.362 68.7987 34.362ZM76.7378 34.648C76.5911 34.78 76.4115 34.8827 76.1988 34.956C75.9861 35.022 75.7625 35.055 75.5278 35.055C74.9851 35.055 74.5671 34.9083 74.2738 34.615C73.9805 34.3217 73.8338 33.9073 73.8338 33.372V27.949H74.6148V29.214H76.3638V29.874H74.6148V33.328C74.6148 33.6727 74.6991 33.9367 74.8678 34.12C75.0365 34.296 75.2821 34.384 75.6048 34.384C75.9568 34.384 76.2428 34.285 76.4628 34.087L76.7378 34.648ZM80.4244 34.362C80.7837 34.362 81.1137 34.2997 81.4144 34.175C81.7224 34.043 81.9827 33.8523 82.1954 33.603L82.6354 34.109C82.3787 34.417 82.0597 34.6517 81.6784 34.813C81.297 34.9743 80.8754 35.055 80.4134 35.055C79.8194 35.055 79.2914 34.9303 78.8294 34.681C78.3674 34.4243 78.008 34.0723 77.7514 33.625C77.4947 33.1777 77.3664 32.6717 77.3664 32.107C77.3664 31.5423 77.4874 31.0363 77.7294 30.589C77.9787 30.1417 78.3197 29.7933 78.7524 29.544C79.185 29.2947 79.6764 29.17 80.2264 29.17C80.7397 29.17 81.2017 29.2873 81.6124 29.522C82.0304 29.7567 82.3604 30.083 82.6024 30.501C82.8517 30.919 82.9837 31.3957 82.9984 31.931L78.2464 32.855C78.393 33.3243 78.657 33.6947 79.0384 33.966C79.427 34.23 79.889 34.362 80.4244 34.362ZM80.2264 29.841C79.823 29.841 79.46 29.9363 79.1374 30.127C78.822 30.3103 78.5727 30.5707 78.3894 30.908C78.2134 31.238 78.1254 31.6193 78.1254 32.052C78.1254 32.162 78.129 32.2427 78.1364 32.294L82.2174 31.502C82.1294 31.018 81.9057 30.622 81.5464 30.314C81.187 29.9987 80.747 29.841 80.2264 29.841ZM2.64 48.055C2.17067 48.055 1.71967 47.989 1.287 47.857C0.861667 47.7177 0.528 47.5453 0.286 47.34L0.638 46.724C0.88 46.9147 1.18433 47.0723 1.551 47.197C1.91767 47.3143 2.299 47.373 2.695 47.373C3.223 47.373 3.61167 47.2923 3.861 47.131C4.11767 46.9623 4.246 46.7277 4.246 46.427C4.246 46.2143 4.17633 46.0493 4.037 45.932C3.89767 45.8073 3.72167 45.7157 3.509 45.657C3.29633 45.591 3.014 45.5287 2.662 45.47C2.19267 45.382 1.815 45.294 1.529 45.206C1.243 45.1107 0.997333 44.953 0.792 44.733C0.594 44.513 0.495 44.2087 0.495 43.82C0.495 43.336 0.696667 42.94 1.1 42.632C1.50333 42.324 2.06433 42.17 2.783 42.17C3.157 42.17 3.531 42.2213 3.905 42.324C4.279 42.4193 4.587 42.5477 4.829 42.709L4.488 43.336C4.01133 43.006 3.443 42.841 2.783 42.841C2.28433 42.841 1.90667 42.929 1.65 43.105C1.40067 43.281 1.276 43.512 1.276 43.798C1.276 44.018 1.34567 44.194 1.485 44.326C1.63167 44.458 1.81133 44.557 2.024 44.623C2.23667 44.6817 2.53 44.744 2.904 44.81C3.366 44.898 3.73633 44.986 4.015 45.074C4.29367 45.162 4.532 45.3123 4.73 45.525C4.928 45.7377 5.027 46.031 5.027 46.405C5.027 46.911 4.81433 47.3143 4.389 47.615C3.971 47.9083 3.388 48.055 2.64 48.055ZM11.7508 42.214V48H11.0028V46.856C10.7682 47.2447 10.4565 47.5417 10.0678 47.747C9.6865 47.9523 9.25384 48.055 8.76984 48.055C8.22717 48.055 7.73584 47.9303 7.29584 47.681C6.85584 47.4317 6.51117 47.0833 6.26184 46.636C6.0125 46.1887 5.88784 45.679 5.88784 45.107C5.88784 44.535 6.0125 44.0253 6.26184 43.578C6.51117 43.1307 6.85584 42.786 7.29584 42.544C7.73584 42.2947 8.22717 42.17 8.76984 42.17C9.23917 42.17 9.66084 42.269 10.0348 42.467C10.4162 42.6577 10.7278 42.94 10.9698 43.314V42.214H11.7508ZM8.83584 47.362C9.23917 47.362 9.60217 47.2703 9.92484 47.087C10.2548 46.8963 10.5115 46.6287 10.6948 46.284C10.8855 45.9393 10.9808 45.547 10.9808 45.107C10.9808 44.667 10.8855 44.2747 10.6948 43.93C10.5115 43.5853 10.2548 43.3213 9.92484 43.138C9.60217 42.9473 9.23917 42.852 8.83584 42.852C8.42517 42.852 8.05484 42.9473 7.72484 43.138C7.40217 43.3213 7.1455 43.5853 6.95484 43.93C6.7715 44.2747 6.67984 44.667 6.67984 45.107C6.67984 45.547 6.7715 45.9393 6.95484 46.284C7.1455 46.6287 7.40217 46.8963 7.72484 47.087C8.05484 47.2703 8.42517 47.362 8.83584 47.362ZM19.1399 42.214V48H18.3919V46.944C18.1866 47.296 17.9042 47.571 17.5449 47.769C17.1856 47.9597 16.7749 48.055 16.3129 48.055C15.5576 48.055 14.9599 47.846 14.5199 47.428C14.0872 47.0027 13.8709 46.383 13.8709 45.569V42.214H14.6519V45.492C14.6519 46.1007 14.8022 46.5627 15.1029 46.878C15.4036 47.1933 15.8326 47.351 16.3899 47.351C16.9986 47.351 17.4789 47.1677 17.8309 46.801C18.1829 46.427 18.3589 45.91 18.3589 45.25V42.214H19.1399ZM22.8783 48.055C22.4089 48.055 21.9579 47.989 21.5253 47.857C21.0999 47.7177 20.7663 47.5453 20.5243 47.34L20.8763 46.724C21.1183 46.9147 21.4226 47.0723 21.7893 47.197C22.1559 47.3143 22.5373 47.373 22.9333 47.373C23.4613 47.373 23.8499 47.2923 24.0993 47.131C24.3559 46.9623 24.4843 46.7277 24.4843 46.427C24.4843 46.2143 24.4146 46.0493 24.2753 45.932C24.1359 45.8073 23.9599 45.7157 23.7473 45.657C23.5346 45.591 23.2523 45.5287 22.9003 45.47C22.4309 45.382 22.0533 45.294 21.7673 45.206C21.4813 45.1107 21.2356 44.953 21.0303 44.733C20.8323 44.513 20.7333 44.2087 20.7333 43.82C20.7333 43.336 20.9349 42.94 21.3383 42.632C21.7416 42.324 22.3026 42.17 23.0213 42.17C23.3953 42.17 23.7693 42.2213 24.1433 42.324C24.5173 42.4193 24.8253 42.5477 25.0673 42.709L24.7263 43.336C24.2496 43.006 23.6813 42.841 23.0213 42.841C22.5226 42.841 22.1449 42.929 21.8883 43.105C21.6389 43.281 21.5143 43.512 21.5143 43.798C21.5143 44.018 21.5839 44.194 21.7233 44.326C21.8699 44.458 22.0496 44.557 22.2623 44.623C22.4749 44.6817 22.7683 44.744 23.1423 44.81C23.6043 44.898 23.9746 44.986 24.2533 45.074C24.5319 45.162 24.7703 45.3123 24.9683 45.525C25.1663 45.7377 25.2653 46.031 25.2653 46.405C25.2653 46.911 25.0526 47.3143 24.6273 47.615C24.2093 47.9083 23.6263 48.055 22.8783 48.055ZM29.1841 47.362C29.5435 47.362 29.8735 47.2997 30.1741 47.175C30.4821 47.043 30.7425 46.8523 30.9551 46.603L31.3951 47.109C31.1385 47.417 30.8195 47.6517 30.4381 47.813C30.0568 47.9743 29.6351 48.055 29.1731 48.055C28.5791 48.055 28.0511 47.9303 27.5891 47.681C27.1271 47.4243 26.7678 47.0723 26.5111 46.625C26.2545 46.1777 26.1261 45.6717 26.1261 45.107C26.1261 44.5423 26.2471 44.0363 26.4891 43.589C26.7385 43.1417 27.0795 42.7933 27.5121 42.544C27.9448 42.2947 28.4361 42.17 28.9861 42.17C29.4995 42.17 29.9615 42.2873 30.3721 42.522C30.7901 42.7567 31.1201 43.083 31.3621 43.501C31.6115 43.919 31.7435 44.3957 31.7581 44.931L27.0061 45.855C27.1528 46.3243 27.4168 46.6947 27.7981 46.966C28.1868 47.23 28.6488 47.362 29.1841 47.362ZM28.9861 42.841C28.5828 42.841 28.2198 42.9363 27.8971 43.127C27.5818 43.3103 27.3325 43.5707 27.1491 43.908C26.9731 44.238 26.8851 44.6193 26.8851 45.052C26.8851 45.162 26.8888 45.2427 26.8961 45.294L30.9771 44.502C30.8891 44.018 30.6655 43.622 30.3061 43.314C29.9468 42.9987 29.5068 42.841 28.9861 42.841ZM33.4248 48.055C33.2635 48.055 33.1241 47.9963 33.0068 47.879C32.8968 47.7617 32.8418 47.6187 32.8418 47.45C32.8418 47.2813 32.8968 47.142 33.0068 47.032C33.1241 46.9147 33.2635 46.856 33.4248 46.856C33.5861 46.856 33.7255 46.9147 33.8428 47.032C33.9601 47.142 34.0188 47.2813 34.0188 47.45C34.0188 47.6187 33.9601 47.7617 33.8428 47.879C33.7255 47.9963 33.5861 48.055 33.4248 48.055Z" fill="black"/>
</svg>
