<svg width="79" height="79" viewBox="0 0 79 79" fill="none" xmlns="http://www.w3.org/2000/svg">
<path fill-rule="evenodd" clip-rule="evenodd" d="M14.3516 24.5087C18.2014 20.6589 23.4228 18.4961 28.8672 18.4961V18.5031H37.6647V59.5595H28.8669V59.5525C23.4226 59.5525 18.2013 57.3897 14.3516 53.54C10.5018 49.6902 8.33899 44.4687 8.33899 39.0243C8.33899 33.5799 10.5018 28.3585 14.3516 24.5087Z" fill="#00FFFF"/>
<circle cx="37.6643" cy="39.0399" r="19.0619" fill="#051B34" stroke="#00FFFF" stroke-width="2.9326"/>
<path d="M48.9238 45.9175C48.2014 47.099 47.2976 48.1594 46.2455 49.0598" stroke="#00FFFF" stroke-width="2.9326" stroke-linecap="round"/>
<path d="M33.5858 26.4755C35.5664 25.8319 37.6713 25.6663 39.7282 25.9921C41.7852 26.3178 43.7358 27.1258 45.4206 28.3499C47.1055 29.574 48.4767 31.1795 49.4222 33.0351C50.3676 34.8907 50.8605 36.9437 50.8605 39.0263" stroke="#00FFFF" stroke-width="2.9326" stroke-linecap="round"/>
<g filter="url(#filter0_f_19249_35872)">
<circle cx="39.2615" cy="39.9136" r="12.7495" fill="#00FFFF"/>
<circle cx="39.2615" cy="39.9136" r="11.8388" stroke="#00FFFF" stroke-opacity="0.5" stroke-width="1.82136"/>
<path d="M48.9573 45.8366C48.3353 46.854 47.557 47.7672 46.651 48.5426" stroke="#00FFFF" stroke-opacity="0.5" stroke-width="2.52535" stroke-linecap="round"/>
<path d="M35.7493 29.0923C37.4549 28.5381 39.2675 28.3955 41.0388 28.676C42.8101 28.9566 44.4898 29.6523 45.9407 30.7065C47.3915 31.7606 48.5723 33.1431 49.3865 34.741C50.2007 36.3389 50.6251 38.1068 50.6251 39.9002" stroke="#00FFFF" stroke-opacity="0.5" stroke-width="2.52535" stroke-linecap="round"/>
</g>
<defs>
<filter id="filter0_f_19249_35872" x="0.273098" y="0.925198" width="77.9768" height="77.9777" filterUnits="userSpaceOnUse" color-interpolation-filters="sRGB">
<feFlood flood-opacity="0" result="BackgroundImageFix"/>
<feBlend mode="normal" in="SourceGraphic" in2="BackgroundImageFix" result="shape"/>
<feGaussianBlur stdDeviation="13.1194" result="effect1_foregroundBlur_19249_35872"/>
</filter>
</defs>
</svg>
