<svg width="235" height="235" viewBox="0 0 235 235" fill="none" xmlns="http://www.w3.org/2000/svg">
<path d="M86.584 53.4346H112.977V176.604H86.583V176.571C70.2502 176.571 54.5862 170.083 43.0371 158.534C31.4879 146.985 25 131.32 25 114.987C25 98.6541 31.4879 82.9898 43.0371 71.4404C54.5864 59.8912 70.2509 53.4024 86.584 53.4023V53.4346Z" fill="#00FFFF"/>
<circle cx="112.976" cy="115.042" r="57.1858" fill="#051B34" stroke="#00FFFF" stroke-width="8.79781"/>
<path d="M146.754 135.674C144.587 139.219 141.876 142.4 138.72 145.101" stroke="#00FFFF" stroke-width="8.79781" stroke-linecap="round"/>
<path d="M100.74 77.3483C106.682 75.4176 112.997 74.9207 119.168 75.898C125.339 76.8754 131.19 79.2993 136.245 82.9717C141.299 86.644 145.413 91.4604 148.25 97.0272C151.086 102.594 152.565 108.753 152.565 115.001" stroke="#00FFFF" stroke-width="8.79781" stroke-linecap="round"/>
<g filter="url(#filter0_f_19267_35841)">
<circle cx="117.767" cy="117.655" r="38.2486" fill="#00FFFF"/>
<circle cx="117.767" cy="117.655" r="35.5165" stroke="#00FFFF" stroke-opacity="0.5" stroke-width="5.46408"/>
<path d="M146.855 135.424C144.989 138.476 142.654 141.216 139.936 143.542" stroke="#00FFFF" stroke-opacity="0.5" stroke-width="7.57606" stroke-linecap="round"/>
<path d="M107.231 85.191C112.348 83.5285 117.785 83.1005 123.099 83.9421C128.413 84.7838 133.452 86.8711 137.805 90.0334C142.158 93.1958 145.7 97.3434 148.143 102.137C150.585 106.931 151.858 112.235 151.858 117.615" stroke="#00FFFF" stroke-opacity="0.5" stroke-width="7.57606" stroke-linecap="round"/>
</g>
<defs>
<filter id="filter0_f_19267_35841" x="0.802269" y="0.689659" width="233.93" height="233.929" filterUnits="userSpaceOnUse" color-interpolation-filters="sRGB">
<feFlood flood-opacity="0" result="BackgroundImageFix"/>
<feBlend mode="normal" in="SourceGraphic" in2="BackgroundImageFix" result="shape"/>
<feGaussianBlur stdDeviation="39.3583" result="effect1_foregroundBlur_19267_35841"/>
</filter>
</defs>
</svg>
