<svg width="294" height="294" viewBox="0 0 294 294" fill="none" xmlns="http://www.w3.org/2000/svg">
<circle cx="125" cy="144" r="94" fill="#D9D9D9"/>
<path d="M108.186 66.2051H141.265V220.577H108.185V220.539C87.714 220.539 68.0814 212.408 53.6064 197.933C39.1316 183.458 31.0001 163.825 31 143.354C31 122.884 39.1314 103.251 53.6064 88.7754C68.0816 74.3002 87.7146 66.168 108.186 66.168V66.2051Z" fill="#00FFFF"/>
<circle cx="141.263" cy="143.424" r="71.6728" fill="#051B34" stroke="#00FFFF" stroke-width="11.0266"/>
<path d="M183.599 169.283C180.883 173.725 177.484 177.712 173.529 181.098" stroke="#00FFFF" stroke-width="11.0266" stroke-linecap="round"/>
<path d="M125.928 96.1801C133.375 93.7604 141.289 93.1375 149.024 94.3625C156.758 95.5874 164.092 98.6254 170.427 103.228C176.762 107.831 181.918 113.867 185.473 120.844C189.028 127.821 190.881 135.541 190.881 143.371" stroke="#00FFFF" stroke-width="11.0266" stroke-linecap="round"/>
<g filter="url(#filter0_f_19263_35840)">
<circle cx="147.268" cy="146.7" r="47.9382" fill="#00FFFF"/>
<circle cx="147.268" cy="146.7" r="44.5141" stroke="#00FFFF" stroke-opacity="0.5" stroke-width="6.84832"/>
<path d="M183.725 168.971C181.386 172.797 178.459 176.23 175.053 179.146" stroke="#00FFFF" stroke-opacity="0.5" stroke-width="9.49533" stroke-linecap="round"/>
<path d="M134.063 106.011C140.476 103.927 147.291 103.391 153.951 104.446C160.611 105.5 166.927 108.117 172.382 112.08C177.838 116.044 182.277 121.242 185.339 127.25C188.4 133.258 189.996 139.905 189.996 146.649" stroke="#00FFFF" stroke-opacity="0.5" stroke-width="9.49533" stroke-linecap="round"/>
</g>
<defs>
<filter id="filter0_f_19263_35840" x="0.672127" y="0.103584" width="293.193" height="293.191" filterUnits="userSpaceOnUse" color-interpolation-filters="sRGB">
<feFlood flood-opacity="0" result="BackgroundImageFix"/>
<feBlend mode="normal" in="SourceGraphic" in2="BackgroundImageFix" result="shape"/>
<feGaussianBlur stdDeviation="49.3291" result="effect1_foregroundBlur_19263_35840"/>
</filter>
</defs>
</svg>
