<svg width="150" height="150" viewBox="0 0 150 150" fill="none" xmlns="http://www.w3.org/2000/svg">
<g clip-path="url(#clip0_19267_35841)">
<rect width="150" height="150" fill="white"/>
<path d="M61.584 13.4346H87.9766V136.604H61.583V136.571C45.2502 136.571 29.5862 130.083 18.0371 118.534C6.48789 106.985 -1.23312e-06 91.3205 0 74.9873C2.22286e-05 58.6541 6.48786 42.9898 18.0371 31.4404C29.5864 19.8912 45.2509 13.4024 61.584 13.4023V13.4346Z" fill="#00FFFF"/>
<circle cx="87.9758" cy="75.0417" r="57.1858" fill="#051B34" stroke="#00FFFF" stroke-width="8.79781"/>
<path d="M121.754 95.6744C119.587 99.2188 116.876 102.4 113.72 105.101" stroke="#00FFFF" stroke-width="8.79781" stroke-linecap="round"/>
<path d="M75.7404 37.3483C81.6824 35.4176 87.9969 34.9207 94.1677 35.898C100.339 36.8754 106.19 39.2993 111.245 42.9717C116.299 46.644 120.413 51.4604 123.25 57.0272C126.086 62.594 127.565 68.753 127.565 75.0008" stroke="#00FFFF" stroke-width="8.79781" stroke-linecap="round"/>
<g filter="url(#filter0_f_19267_35841)">
<circle cx="92.7674" cy="77.6548" r="38.2486" fill="#00FFFF"/>
<circle cx="92.7674" cy="77.6548" r="35.5165" stroke="#00FFFF" stroke-opacity="0.5" stroke-width="5.46408"/>
<path d="M121.855 95.4238C119.989 98.4761 117.654 101.216 114.936 103.542" stroke="#00FFFF" stroke-opacity="0.5" stroke-width="7.57606" stroke-linecap="round"/>
<path d="M82.231 45.191C87.3478 43.5285 92.7854 43.1005 98.0993 43.9421C103.413 44.7838 108.452 46.8711 112.805 50.0334C117.158 53.1958 120.7 57.3434 123.143 62.1371C125.585 66.9308 126.858 72.2345 126.858 77.6147" stroke="#00FFFF" stroke-opacity="0.5" stroke-width="7.57606" stroke-linecap="round"/>
</g>
</g>
<defs>
<filter id="filter0_f_19267_35841" x="-24.1977" y="-39.3103" width="233.93" height="233.929" filterUnits="userSpaceOnUse" color-interpolation-filters="sRGB">
<feFlood flood-opacity="0" result="BackgroundImageFix"/>
<feBlend mode="normal" in="SourceGraphic" in2="BackgroundImageFix" result="shape"/>
<feGaussianBlur stdDeviation="39.3583" result="effect1_foregroundBlur_19267_35841"/>
</filter>
<clipPath id="clip0_19267_35841">
<rect width="150" height="150" fill="white"/>
</clipPath>
</defs>
</svg>
