<svg width="154" height="16" viewBox="0 0 154 16" fill="none" xmlns="http://www.w3.org/2000/svg">
<path d="M3.84352 12.2421C4.17088 12.5122 4.51229 12.7591 4.8618 13C5.21206 12.7623 5.55181 12.5094 5.88008 12.2421C6.4273 11.7928 6.9423 11.3056 7.42127 10.7841C8.52543 9.57675 9.7236 7.82651 9.7236 5.8618C9.7236 5.22334 9.59784 4.59113 9.35352 4.00127C9.10919 3.41141 8.75107 2.87545 8.29961 2.42399C7.84815 1.97253 7.31219 1.61441 6.72233 1.37008C6.13247 1.12575 5.50026 1 4.8618 1C4.22334 1 3.59113 1.12575 3.00127 1.37008C2.41141 1.61441 1.87545 1.97253 1.42399 2.42399C0.972528 2.87545 0.614411 3.41141 0.370082 4.00127C0.125754 4.59113 -9.5138e-09 5.22334 0 5.8618C0 7.82651 1.19816 9.57621 2.30233 10.7841C2.78128 11.3058 3.29628 11.7926 3.84352 12.2421ZM4.8618 7.61745C4.39617 7.61745 3.94962 7.43248 3.62037 7.10323C3.29112 6.77398 3.10615 6.32743 3.10615 5.8618C3.10615 5.39617 3.29112 4.94962 3.62037 4.62037C3.94962 4.29112 4.39617 4.10615 4.8618 4.10615C5.32743 4.10615 5.77398 4.29112 6.10323 4.62037C6.43248 4.94962 6.61745 5.39617 6.61745 5.8618C6.61745 6.32743 6.43248 6.77398 6.10323 7.10323C5.77398 7.43248 5.32743 7.61745 4.8618 7.61745Z" fill="#999999"/>
<path d="M22.6494 10.0439C22.5599 10.1764 22.4059 10.325 22.1875 10.4897C21.9727 10.6545 21.6808 10.7995 21.312 10.9248C20.9432 11.0465 20.4795 11.1074 19.9209 11.1074C19.3014 11.1074 18.7518 10.9624 18.272 10.6724C17.7957 10.3787 17.4215 9.96159 17.1494 9.4209C16.8809 8.88021 16.7466 8.23926 16.7466 7.49805V6.63867C16.7466 5.90462 16.8683 5.27083 17.1118 4.7373C17.3589 4.20378 17.7098 3.79378 18.1646 3.50732C18.6229 3.21729 19.1707 3.07227 19.8081 3.07227C20.3953 3.07227 20.8877 3.17432 21.2852 3.37842C21.6862 3.57894 21.9977 3.85645 22.2197 4.21094C22.4453 4.56185 22.5868 4.95931 22.644 5.40332H21.8813C21.8312 5.09896 21.7292 4.81966 21.5752 4.56543C21.4212 4.30762 21.201 4.10173 20.9146 3.94775C20.6281 3.7902 20.2593 3.71143 19.8081 3.71143C19.3104 3.71143 18.8896 3.83317 18.5459 4.07666C18.2057 4.31657 17.9479 4.65495 17.7725 5.0918C17.6006 5.52865 17.5146 6.04069 17.5146 6.62793V7.49805C17.5146 8.10319 17.6149 8.62777 17.8154 9.07178C18.016 9.51579 18.2952 9.85954 18.6533 10.103C19.015 10.3465 19.4375 10.4683 19.9209 10.4683C20.3112 10.4683 20.6388 10.4325 20.9038 10.3608C21.1688 10.2892 21.38 10.2033 21.5376 10.103C21.6987 10.0028 21.8151 9.90788 21.8867 9.81836V7.86865H19.8672V7.23486H22.6494V10.0439ZM25.0771 11H24.3359V5.18848H25.061L25.0771 6.13916V11ZM27.0591 5.82764C26.9803 5.81331 26.9069 5.80436 26.8389 5.80078C26.7708 5.79362 26.6938 5.79004 26.6079 5.79004C26.257 5.79004 25.9616 5.8724 25.7217 6.03711C25.4854 6.19824 25.3027 6.41846 25.1738 6.69775C25.0485 6.97705 24.9769 7.29036 24.959 7.6377L24.7065 7.74512C24.7065 7.2474 24.7746 6.79801 24.9106 6.39697C25.0503 5.99593 25.2616 5.67725 25.5444 5.44092C25.8309 5.20101 26.1961 5.08105 26.6401 5.08105C26.7153 5.08105 26.7959 5.08822 26.8818 5.10254C26.9678 5.11686 27.0304 5.13298 27.0698 5.15088L27.0591 5.82764ZM30.3462 11.1074C29.8341 11.1074 29.3794 10.9857 28.9819 10.7422C28.5881 10.4987 28.2801 10.1639 28.0581 9.73779C27.8361 9.30811 27.7251 8.81934 27.7251 8.27148V8.03516C27.7251 7.43001 27.8415 6.90723 28.0742 6.4668C28.307 6.02279 28.6131 5.68083 28.9927 5.44092C29.3758 5.20101 29.7876 5.08105 30.228 5.08105C30.7401 5.08105 31.168 5.19922 31.5117 5.43555C31.859 5.66829 32.1187 5.98877 32.2905 6.39697C32.466 6.8016 32.5537 7.2653 32.5537 7.78809V8.19629H28.1709V7.57861H31.8125V7.50879C31.8018 7.20085 31.7391 6.90902 31.6245 6.6333C31.5099 6.35758 31.3381 6.13379 31.1089 5.96191C30.8797 5.78646 30.5861 5.69873 30.228 5.69873C29.8807 5.69873 29.5745 5.79541 29.3096 5.98877C29.0446 6.18213 28.8369 6.45426 28.6865 6.80518C28.5397 7.15609 28.4663 7.56608 28.4663 8.03516V8.27148C28.4663 8.67969 28.5451 9.05208 28.7026 9.38867C28.8638 9.72526 29.0876 9.99382 29.374 10.1943C29.6641 10.3949 30.0007 10.4951 30.3838 10.4951C30.7275 10.4951 31.0283 10.4289 31.2861 10.2964C31.5475 10.1639 31.7803 9.96517 31.9844 9.7002L32.4409 10.0493C32.2547 10.3322 31.9933 10.5793 31.6567 10.7905C31.3201 11.0018 30.8833 11.1074 30.3462 11.1074ZM36.0825 11.1074C35.5705 11.1074 35.1157 10.9857 34.7183 10.7422C34.3244 10.4987 34.0164 10.1639 33.7944 9.73779C33.5724 9.30811 33.4614 8.81934 33.4614 8.27148V8.03516C33.4614 7.43001 33.5778 6.90723 33.8105 6.4668C34.0433 6.02279 34.3494 5.68083 34.729 5.44092C35.1121 5.20101 35.5239 5.08105 35.9644 5.08105C36.4764 5.08105 36.9043 5.19922 37.248 5.43555C37.5954 5.66829 37.855 5.98877 38.0269 6.39697C38.2023 6.8016 38.29 7.2653 38.29 7.78809V8.19629H33.9072V7.57861H37.5488V7.50879C37.5381 7.20085 37.4754 6.90902 37.3608 6.6333C37.2463 6.35758 37.0744 6.13379 36.8452 5.96191C36.616 5.78646 36.3224 5.69873 35.9644 5.69873C35.617 5.69873 35.3109 5.79541 35.0459 5.98877C34.7809 6.18213 34.5732 6.45426 34.4229 6.80518C34.276 7.15609 34.2026 7.56608 34.2026 8.03516V8.27148C34.2026 8.67969 34.2814 9.05208 34.439 9.38867C34.6001 9.72526 34.8239 9.99382 35.1104 10.1943C35.4004 10.3949 35.737 10.4951 36.1201 10.4951C36.4639 10.4951 36.7646 10.4289 37.0225 10.2964C37.2839 10.1639 37.5166 9.96517 37.7207 9.7002L38.1772 10.0493C37.991 10.3322 37.7297 10.5793 37.3931 10.7905C37.0565 11.0018 36.6196 11.1074 36.0825 11.1074ZM40.2666 11H39.5254V5.18848H40.2344L40.2666 6.4292V11ZM39.7778 7.64844C39.7993 7.1722 39.9085 6.74072 40.1055 6.354C40.3024 5.9637 40.571 5.65397 40.9111 5.4248C41.2549 5.19564 41.6523 5.08105 42.1035 5.08105C42.4902 5.08105 42.8215 5.15267 43.0972 5.2959C43.3765 5.43913 43.5895 5.6665 43.7363 5.97803C43.8867 6.28955 43.9619 6.69954 43.9619 7.20801V11H43.2207V7.20264C43.2207 6.83024 43.167 6.53483 43.0596 6.31641C42.9557 6.09798 42.8053 5.94401 42.6084 5.85449C42.415 5.76139 42.1823 5.71484 41.9102 5.71484C41.6201 5.71484 41.3641 5.77751 41.1421 5.90283C40.9201 6.02816 40.7321 6.19287 40.5781 6.39697C40.4242 6.60107 40.306 6.82308 40.2236 7.06299C40.1449 7.3029 40.1037 7.53743 40.1001 7.7666L39.7778 7.64844ZM48.5811 5.18848H49.0967L48.8657 6.32178L47.3833 11H46.8784L47.1577 9.72168L48.5811 5.18848ZM47.0718 9.75928L47.2866 11H46.7656L45.0791 5.18848H45.8311L47.0718 9.75928ZM51.9541 5.18848H52.7061L51.0195 11H50.4985L50.751 9.73779L51.9541 5.18848ZM50.606 9.67871L50.9014 11H50.3965L48.8818 6.31641L48.667 5.18848H49.2041L50.606 9.67871ZM54.3335 3.10449C54.4839 3.10449 54.6021 3.15104 54.688 3.24414C54.7775 3.33366 54.8223 3.44466 54.8223 3.57715C54.8223 3.70247 54.7775 3.81169 54.688 3.90479C54.6021 3.9943 54.4839 4.03906 54.3335 4.03906C54.1795 4.03906 54.0596 3.9943 53.9736 3.90479C53.8913 3.81169 53.8501 3.70247 53.8501 3.57715C53.8501 3.44824 53.8913 3.33724 53.9736 3.24414C54.0596 3.15104 54.1795 3.10449 54.3335 3.10449ZM54.7041 11H53.9683V5.18848H54.7041V11ZM58.6304 11.1074C58.0789 11.1074 57.6152 10.9785 57.2393 10.7207C56.8669 10.4593 56.5876 10.1102 56.4014 9.67334C56.2152 9.23291 56.1221 8.74414 56.1221 8.20703V7.98145C56.1221 7.44076 56.2152 6.95199 56.4014 6.51514C56.5911 6.07829 56.8722 5.73096 57.2446 5.47314C57.617 5.21175 58.0771 5.08105 58.625 5.08105C59.0511 5.08105 59.4307 5.16699 59.7637 5.33887C60.1003 5.51074 60.367 5.75244 60.564 6.06396C60.7645 6.37549 60.8737 6.74072 60.8916 7.15967H60.1826C60.1647 6.86247 60.0859 6.60465 59.9463 6.38623C59.8066 6.16781 59.6222 5.99951 59.3931 5.88135C59.1675 5.7596 58.9115 5.69873 58.625 5.69873C58.1953 5.69873 57.8516 5.80794 57.5938 6.02637C57.3359 6.24121 57.1497 6.5223 57.0352 6.86963C56.9206 7.21696 56.8633 7.58757 56.8633 7.98145V8.20703C56.8633 8.60091 56.9188 8.97331 57.0298 9.32422C57.1444 9.67155 57.3306 9.95264 57.5884 10.1675C57.8498 10.3823 58.1971 10.4897 58.6304 10.4897C58.8918 10.4897 59.1353 10.4396 59.3608 10.3394C59.59 10.2355 59.7798 10.0869 59.9302 9.89355C60.0806 9.7002 60.1647 9.46566 60.1826 9.18994H60.8916C60.8737 9.5516 60.7591 9.87744 60.5479 10.1675C60.3402 10.4575 60.068 10.6867 59.7314 10.855C59.3984 11.0233 59.0314 11.1074 58.6304 11.1074ZM62.8789 11H62.1377V2.75H62.8789V11ZM62.3901 7.64844C62.4116 7.1722 62.5208 6.74072 62.7178 6.354C62.9147 5.9637 63.1833 5.65397 63.5234 5.4248C63.8672 5.19564 64.2646 5.08105 64.7158 5.08105C65.1025 5.08105 65.4338 5.15267 65.7095 5.2959C65.9888 5.43913 66.2018 5.6665 66.3486 5.97803C66.499 6.28955 66.5742 6.69954 66.5742 7.20801V11H65.833V7.20264C65.833 6.83024 65.7793 6.53483 65.6719 6.31641C65.568 6.09798 65.4176 5.94401 65.2207 5.85449C65.0273 5.76139 64.7946 5.71484 64.5225 5.71484C64.2324 5.71484 63.9764 5.77751 63.7544 5.90283C63.5324 6.02816 63.3444 6.19287 63.1904 6.39697C63.0365 6.60107 62.9183 6.82308 62.8359 7.06299C62.7572 7.3029 62.716 7.53743 62.7124 7.7666L62.3901 7.64844ZM75.9199 3.17969H76.7524L73.8521 11H73.2397L73.5029 9.97412L75.9199 3.17969ZM73.4707 9.97412L73.7446 11H73.1323L70.2319 3.17969H71.0645L73.4707 9.97412ZM78.1919 3.10449C78.3423 3.10449 78.4604 3.15104 78.5464 3.24414C78.6359 3.33366 78.6807 3.44466 78.6807 3.57715C78.6807 3.70247 78.6359 3.81169 78.5464 3.90479C78.4604 3.9943 78.3423 4.03906 78.1919 4.03906C78.0379 4.03906 77.918 3.9943 77.832 3.90479C77.7497 3.81169 77.7085 3.70247 77.7085 3.57715C77.7085 3.44824 77.7497 3.33724 77.832 3.24414C77.918 3.15104 78.0379 3.10449 78.1919 3.10449ZM78.5625 11H77.8267V5.18848H78.5625V11ZM81.1138 11H80.3726V2.75H81.1138V11ZM83.6382 11H82.897V2.75H83.6382V11ZM88.8481 6.97705C88.8481 6.57959 88.7264 6.26628 88.4829 6.03711C88.2394 5.80794 87.8867 5.69336 87.4248 5.69336C87.1383 5.69336 86.8841 5.74349 86.6621 5.84375C86.4401 5.94043 86.2664 6.07292 86.1411 6.24121C86.0158 6.40951 85.9531 6.59391 85.9531 6.79443H85.2119C85.2119 6.50439 85.305 6.22868 85.4912 5.96729C85.681 5.70589 85.9442 5.49284 86.2808 5.32812C86.6174 5.16341 87.0112 5.08105 87.4624 5.08105C87.8778 5.08105 88.2448 5.15267 88.5635 5.2959C88.8857 5.43555 89.1364 5.64681 89.3154 5.92969C89.498 6.20898 89.5894 6.56169 89.5894 6.98779V9.77002C89.5894 9.96696 89.6055 10.1746 89.6377 10.3931C89.6699 10.6079 89.7147 10.7869 89.772 10.9302V11H88.9878C88.9448 10.8747 88.9108 10.7153 88.8857 10.522C88.8607 10.3286 88.8481 10.1442 88.8481 9.96875V6.97705ZM89.0039 8.13184H87.8276C87.1938 8.13184 86.6997 8.23926 86.3452 8.4541C85.9943 8.66895 85.8188 8.97152 85.8188 9.36182C85.8188 9.66618 85.9299 9.92578 86.1519 10.1406C86.3739 10.3519 86.68 10.4575 87.0703 10.4575C87.4105 10.4575 87.7113 10.3931 87.9727 10.2642C88.2376 10.1317 88.4525 9.96159 88.6172 9.75391C88.7855 9.54264 88.8947 9.32064 88.9448 9.08789L89.2617 9.49072C89.2223 9.65902 89.1418 9.83626 89.02 10.0225C88.9019 10.2087 88.7461 10.3841 88.5527 10.5488C88.3594 10.7135 88.1302 10.8478 87.8652 10.9517C87.6038 11.0555 87.3084 11.1074 86.979 11.1074C86.5959 11.1074 86.2611 11.0358 85.9746 10.8926C85.6882 10.7458 85.4661 10.5452 85.3086 10.291C85.1546 10.0368 85.0776 9.75391 85.0776 9.44238C85.0776 8.85514 85.314 8.3986 85.7866 8.07275C86.2593 7.74333 86.9038 7.57861 87.7202 7.57861H89.0039V8.13184ZM93.3975 13.3096C93.1683 13.3096 92.9248 13.2738 92.667 13.2021C92.4092 13.1341 92.1639 13.0249 91.9312 12.8745C91.6984 12.7277 91.4997 12.5397 91.335 12.3105L91.7432 11.8701C91.9795 12.1602 92.2301 12.3696 92.4951 12.4985C92.7637 12.631 93.0465 12.6973 93.3438 12.6973C93.8737 12.6973 94.2855 12.5415 94.5791 12.23C94.8727 11.9185 95.0195 11.4834 95.0195 10.9248V6.4668L95.0786 5.18848H95.7661V10.8926C95.7661 11.3975 95.6676 11.8307 95.4707 12.1924C95.2738 12.554 94.9963 12.8298 94.6382 13.0195C94.2837 13.2129 93.8701 13.3096 93.3975 13.3096ZM93.2686 11.1074C92.8066 11.1074 92.4074 10.9821 92.0708 10.7314C91.7342 10.4772 91.4746 10.1281 91.292 9.68408C91.1094 9.24007 91.0181 8.72982 91.0181 8.15332V8.04053C91.0181 7.44255 91.1094 6.92155 91.292 6.47754C91.4746 6.03353 91.7342 5.68978 92.0708 5.44629C92.4074 5.2028 92.8102 5.08105 93.2793 5.08105C93.6266 5.08105 93.9328 5.14014 94.1978 5.2583C94.4627 5.37288 94.6883 5.5376 94.8745 5.75244C95.0643 5.96729 95.2165 6.2251 95.3311 6.52588C95.4492 6.82666 95.5352 7.16146 95.5889 7.53027V8.7334C95.5316 9.19889 95.4098 9.61068 95.2236 9.96875C95.0374 10.3232 94.7814 10.6025 94.4556 10.8066C94.1333 11.0072 93.7376 11.1074 93.2686 11.1074ZM93.4243 10.4683C93.7824 10.4683 94.0796 10.3984 94.3159 10.2588C94.5522 10.1191 94.742 9.93294 94.8853 9.7002C95.0285 9.46387 95.1359 9.20785 95.2075 8.93213V7.3584C95.1646 7.16862 95.1019 6.97705 95.0195 6.78369C94.9408 6.59033 94.8315 6.41309 94.6919 6.25195C94.5558 6.09082 94.384 5.96191 94.1763 5.86523C93.9722 5.76497 93.7251 5.71484 93.4351 5.71484C93.0483 5.71484 92.7314 5.81868 92.4844 6.02637C92.2373 6.23047 92.0547 6.50977 91.9365 6.86426C91.8219 7.21517 91.7646 7.60726 91.7646 8.04053V8.15332C91.7646 8.58659 91.8219 8.97868 91.9365 9.32959C92.0547 9.67692 92.2355 9.95443 92.479 10.1621C92.7261 10.3662 93.0412 10.4683 93.4243 10.4683ZM99.687 11.1074C99.175 11.1074 98.7202 10.9857 98.3228 10.7422C97.9289 10.4987 97.6209 10.1639 97.3989 9.73779C97.1769 9.30811 97.0659 8.81934 97.0659 8.27148V8.03516C97.0659 7.43001 97.1823 6.90723 97.415 6.4668C97.6478 6.02279 97.9539 5.68083 98.3335 5.44092C98.7166 5.20101 99.1284 5.08105 99.5688 5.08105C100.081 5.08105 100.509 5.19922 100.853 5.43555C101.2 5.66829 101.459 5.98877 101.631 6.39697C101.807 6.8016 101.895 7.2653 101.895 7.78809V8.19629H97.5117V7.57861H101.153V7.50879C101.143 7.20085 101.08 6.90902 100.965 6.6333C100.851 6.35758 100.679 6.13379 100.45 5.96191C100.221 5.78646 99.9269 5.69873 99.5688 5.69873C99.2215 5.69873 98.9154 5.79541 98.6504 5.98877C98.3854 6.18213 98.1777 6.45426 98.0273 6.80518C97.8805 7.15609 97.8071 7.56608 97.8071 8.03516V8.27148C97.8071 8.67969 97.8859 9.05208 98.0435 9.38867C98.2046 9.72526 98.4284 9.99382 98.7148 10.1943C99.0049 10.3949 99.3415 10.4951 99.7246 10.4951C100.068 10.4951 100.369 10.4289 100.627 10.2964C100.888 10.1639 101.121 9.96517 101.325 9.7002L101.782 10.0493C101.596 10.3322 101.334 10.5793 100.998 10.7905C100.661 11.0018 100.224 11.1074 99.687 11.1074ZM103.833 10.7046C103.833 11.0304 103.762 11.3545 103.619 11.6768C103.475 11.999 103.277 12.2694 103.022 12.4878L102.587 12.1816C102.702 12.0312 102.797 11.8791 102.872 11.7251C102.947 11.5747 103.005 11.4172 103.044 11.2524C103.083 11.0877 103.103 10.9105 103.103 10.7207V9.94189H103.833V10.7046ZM113.979 11H113.211L108.872 4.48486V11H108.104V3.17969H108.872L113.222 9.7002V3.17969H113.979V11ZM118.078 11.1074C117.566 11.1074 117.111 10.9857 116.713 10.7422C116.319 10.4987 116.012 10.1639 115.79 9.73779C115.568 9.30811 115.457 8.81934 115.457 8.27148V8.03516C115.457 7.43001 115.573 6.90723 115.806 6.4668C116.038 6.02279 116.345 5.68083 116.724 5.44092C117.107 5.20101 117.519 5.08105 117.959 5.08105C118.472 5.08105 118.899 5.19922 119.243 5.43555C119.59 5.66829 119.85 5.98877 120.022 6.39697C120.197 6.8016 120.285 7.2653 120.285 7.78809V8.19629H115.902V7.57861H119.544V7.50879C119.533 7.20085 119.471 6.90902 119.356 6.6333C119.241 6.35758 119.069 6.13379 118.84 5.96191C118.611 5.78646 118.318 5.69873 117.959 5.69873C117.612 5.69873 117.306 5.79541 117.041 5.98877C116.776 6.18213 116.568 6.45426 116.418 6.80518C116.271 7.15609 116.198 7.56608 116.198 8.03516V8.27148C116.198 8.67969 116.277 9.05208 116.434 9.38867C116.595 9.72526 116.819 9.99382 117.105 10.1943C117.396 10.3949 117.732 10.4951 118.115 10.4951C118.459 10.4951 118.76 10.4289 119.018 10.2964C119.279 10.1639 119.512 9.96517 119.716 9.7002L120.172 10.0493C119.986 10.3322 119.725 10.5793 119.388 10.7905C119.052 11.0018 118.615 11.1074 118.078 11.1074ZM124.518 5.18848H125.033L124.802 6.32178L123.32 11H122.815L123.094 9.72168L124.518 5.18848ZM123.008 9.75928L123.223 11H122.702L121.016 5.18848H121.768L123.008 9.75928ZM127.891 5.18848H128.643L126.956 11H126.435L126.688 9.73779L127.891 5.18848ZM126.542 9.67871L126.838 11H126.333L124.818 6.31641L124.604 5.18848H125.141L126.542 9.67871ZM134.98 7.35303L137.274 3.17969H138.149L135.367 8.06201V11H134.594V8.06201L131.812 3.17969H132.708L134.98 7.35303ZM138.423 8.01367C138.423 7.4515 138.531 6.9502 138.746 6.50977C138.96 6.06576 139.263 5.71663 139.653 5.4624C140.044 5.20817 140.502 5.08105 141.028 5.08105C141.562 5.08105 142.024 5.20817 142.414 5.4624C142.804 5.71663 143.105 6.06576 143.316 6.50977C143.531 6.9502 143.639 7.4515 143.639 8.01367V8.1748C143.639 8.73698 143.531 9.24007 143.316 9.68408C143.105 10.1245 142.804 10.4718 142.414 10.7261C142.027 10.9803 141.569 11.1074 141.039 11.1074C140.509 11.1074 140.047 10.9803 139.653 10.7261C139.263 10.4718 138.96 10.1245 138.746 9.68408C138.531 9.24007 138.423 8.73698 138.423 8.1748V8.01367ZM139.17 8.1748C139.17 8.58659 139.24 8.96973 139.379 9.32422C139.523 9.67513 139.732 9.95801 140.008 10.1729C140.287 10.3841 140.631 10.4897 141.039 10.4897C141.444 10.4897 141.784 10.3841 142.06 10.1729C142.335 9.95801 142.543 9.67513 142.683 9.32422C142.826 8.96973 142.897 8.58659 142.897 8.1748V8.01367C142.897 7.60547 142.826 7.22591 142.683 6.875C142.539 6.52409 142.33 6.24121 142.054 6.02637C141.778 5.80794 141.437 5.69873 141.028 5.69873C140.624 5.69873 140.284 5.80794 140.008 6.02637C139.732 6.24121 139.523 6.52409 139.379 6.875C139.24 7.22591 139.17 7.60547 139.17 8.01367V8.1748ZM145.69 11H144.949V5.18848H145.674L145.69 6.13916V11ZM147.672 5.82764C147.594 5.81331 147.52 5.80436 147.452 5.80078C147.384 5.79362 147.307 5.79004 147.221 5.79004C146.87 5.79004 146.575 5.8724 146.335 6.03711C146.099 6.19824 145.916 6.41846 145.787 6.69775C145.662 6.97705 145.59 7.29036 145.572 7.6377L145.32 7.74512C145.32 7.2474 145.388 6.79801 145.524 6.39697C145.664 5.99593 145.875 5.67725 146.158 5.44092C146.444 5.20101 146.809 5.08105 147.253 5.08105C147.329 5.08105 147.409 5.08822 147.495 5.10254C147.581 5.11686 147.644 5.13298 147.683 5.15088L147.672 5.82764ZM149.413 11H148.666V2.75H149.413V11ZM150.369 7.88477L149.133 9.09863L149.042 8.35742L149.998 7.29932L152.104 5.18848H153.027L150.369 7.88477ZM150.041 8.0459L150.444 7.40137L153.258 11H152.372L150.041 8.0459Z" fill="#999999"/>
</svg>
