<svg width="96" height="51" viewBox="0 0 96 51" fill="none" xmlns="http://www.w3.org/2000/svg">
<path d="M9.493 1.234C10.373 1.234 11.0587 1.487 11.55 1.993C12.0413 2.499 12.287 3.23233 12.287 4.193V9H11.484V4.215C11.484 3.467 11.2933 2.906 10.912 2.532C10.538 2.15067 10.0247 1.96 9.372 1.96C8.68267 1.96 8.14367 2.16167 7.755 2.565C7.36633 2.961 7.172 3.56967 7.172 4.391V9H6.369V4.215C6.369 3.467 6.18567 2.906 5.819 2.532C5.45233 2.15067 4.94267 1.96 4.29 1.96C3.59333 1.96 3.047 2.16167 2.651 2.565C2.26233 2.961 2.068 3.56967 2.068 4.391V9H1.254V1.3H2.035V2.587C2.24767 2.147 2.563 1.81333 2.981 1.586C3.399 1.35133 3.894 1.234 4.466 1.234C5.06733 1.234 5.58067 1.36233 6.006 1.619C6.43867 1.86833 6.75033 2.22033 6.941 2.675C7.161 2.20567 7.491 1.85 7.931 1.608C8.37833 1.35867 8.899 1.234 9.493 1.234ZM19.8504 3.214V9H19.1024V7.856C18.8678 8.24467 18.5561 8.54167 18.1674 8.747C17.7861 8.95233 17.3534 9.055 16.8694 9.055C16.3268 9.055 15.8354 8.93033 15.3954 8.681C14.9554 8.43167 14.6108 8.08333 14.3614 7.636C14.1121 7.18867 13.9874 6.679 13.9874 6.107C13.9874 5.535 14.1121 5.02533 14.3614 4.578C14.6108 4.13067 14.9554 3.786 15.3954 3.544C15.8354 3.29467 16.3268 3.17 16.8694 3.17C17.3388 3.17 17.7604 3.269 18.1344 3.467C18.5158 3.65767 18.8274 3.94 19.0694 4.314V3.214H19.8504ZM16.9354 8.362C17.3388 8.362 17.7018 8.27033 18.0244 8.087C18.3544 7.89633 18.6111 7.62867 18.7944 7.284C18.9851 6.93933 19.0804 6.547 19.0804 6.107C19.0804 5.667 18.9851 5.27467 18.7944 4.93C18.6111 4.58533 18.3544 4.32133 18.0244 4.138C17.7018 3.94733 17.3388 3.852 16.9354 3.852C16.5248 3.852 16.1544 3.94733 15.8244 4.138C15.5018 4.32133 15.2451 4.58533 15.0544 4.93C14.8711 5.27467 14.7794 5.667 14.7794 6.107C14.7794 6.547 14.8711 6.93933 15.0544 7.284C15.2451 7.62867 15.5018 7.89633 15.8244 8.087C16.1544 8.27033 16.5248 8.362 16.9354 8.362ZM24.9735 3.17C25.6995 3.17 26.2752 3.38267 26.7005 3.808C27.1332 4.226 27.3495 4.83833 27.3495 5.645V9H26.5685V5.722C26.5685 5.12067 26.4182 4.66233 26.1175 4.347C25.8169 4.03167 25.3879 3.874 24.8305 3.874C24.2072 3.874 23.7122 4.061 23.3455 4.435C22.9862 4.80167 22.8065 5.31133 22.8065 5.964V9H22.0255V3.214H22.7735V4.281C22.9862 3.929 23.2795 3.65767 23.6535 3.467C24.0349 3.269 24.4749 3.17 24.9735 3.17ZM34.8483 3.214V8.296C34.8483 9.27867 34.6063 10.0047 34.1223 10.474C33.6457 10.9507 32.9233 11.189 31.9553 11.189C31.42 11.189 30.9103 11.1083 30.4263 10.947C29.9497 10.793 29.561 10.5767 29.2603 10.298L29.6563 9.704C29.935 9.95333 30.2723 10.1477 30.6683 10.287C31.0717 10.4263 31.4933 10.496 31.9333 10.496C32.6667 10.496 33.2057 10.3237 33.5503 9.979C33.895 9.64167 34.0673 9.11367 34.0673 8.395V7.658C33.8253 8.02467 33.5063 8.30333 33.1103 8.494C32.7217 8.68467 32.289 8.78 31.8123 8.78C31.2697 8.78 30.7747 8.66267 30.3273 8.428C29.8873 8.186 29.539 7.85233 29.2823 7.427C29.033 6.99433 28.9083 6.50667 28.9083 5.964C28.9083 5.42133 29.033 4.93733 29.2823 4.512C29.539 4.08667 29.8873 3.75667 30.3273 3.522C30.7673 3.28733 31.2623 3.17 31.8123 3.17C32.3037 3.17 32.7473 3.269 33.1433 3.467C33.5393 3.665 33.8583 3.951 34.1003 4.325V3.214H34.8483ZM31.8893 8.087C32.3073 8.087 32.685 7.999 33.0223 7.823C33.3597 7.63967 33.62 7.38667 33.8033 7.064C33.994 6.74133 34.0893 6.37467 34.0893 5.964C34.0893 5.55333 33.994 5.19033 33.8033 4.875C33.62 4.55233 33.3597 4.303 33.0223 4.127C32.6923 3.94367 32.3147 3.852 31.8893 3.852C31.4713 3.852 31.0937 3.94 30.7563 4.116C30.4263 4.292 30.166 4.54133 29.9753 4.864C29.792 5.18667 29.7003 5.55333 29.7003 5.964C29.7003 6.37467 29.792 6.74133 29.9753 7.064C30.166 7.38667 30.4263 7.63967 30.7563 7.823C31.0937 7.999 31.4713 8.087 31.8893 8.087ZM39.3974 9.055C38.84 9.055 38.3377 8.93033 37.8904 8.681C37.443 8.42433 37.091 8.07233 36.8344 7.625C36.5777 7.17767 36.4494 6.67167 36.4494 6.107C36.4494 5.54233 36.5777 5.03633 36.8344 4.589C37.091 4.14167 37.443 3.79333 37.8904 3.544C38.3377 3.29467 38.84 3.17 39.3974 3.17C39.9547 3.17 40.457 3.29467 40.9044 3.544C41.3517 3.79333 41.7 4.14167 41.9494 4.589C42.206 5.03633 42.3344 5.54233 42.3344 6.107C42.3344 6.67167 42.206 7.17767 41.9494 7.625C41.7 8.07233 41.3517 8.42433 40.9044 8.681C40.457 8.93033 39.9547 9.055 39.3974 9.055ZM39.3974 8.362C39.808 8.362 40.1747 8.27033 40.4974 8.087C40.8274 7.89633 41.084 7.62867 41.2674 7.284C41.4507 6.93933 41.5424 6.547 41.5424 6.107C41.5424 5.667 41.4507 5.27467 41.2674 4.93C41.084 4.58533 40.8274 4.32133 40.4974 4.138C40.1747 3.94733 39.808 3.852 39.3974 3.852C38.9867 3.852 38.6164 3.94733 38.2864 4.138C37.9637 4.32133 37.707 4.58533 37.5164 4.93C37.333 5.27467 37.2414 5.667 37.2414 6.107C37.2414 6.547 37.333 6.93933 37.5164 7.284C37.707 7.62867 37.9637 7.89633 38.2864 8.087C38.6164 8.27033 38.9867 8.362 39.3974 8.362ZM46.8078 3.214H47.5888V9H46.8078V3.214ZM47.2038 1.949C47.0424 1.949 46.9068 1.894 46.7968 1.784C46.6868 1.674 46.6318 1.542 46.6318 1.388C46.6318 1.24133 46.6868 1.113 46.7968 1.003C46.9068 0.892999 47.0424 0.838 47.2038 0.838C47.3651 0.838 47.5008 0.892999 47.6108 1.003C47.7208 1.10567 47.7758 1.23033 47.7758 1.377C47.7758 1.53833 47.7208 1.674 47.6108 1.784C47.5008 1.894 47.3651 1.949 47.2038 1.949ZM52.1599 9.055C51.5879 9.055 51.0745 8.93033 50.6199 8.681C50.1725 8.43167 49.8205 8.08333 49.5639 7.636C49.3072 7.18133 49.1789 6.67167 49.1789 6.107C49.1789 5.54233 49.3072 5.03633 49.5639 4.589C49.8205 4.14167 50.1725 3.79333 50.6199 3.544C51.0745 3.29467 51.5879 3.17 52.1599 3.17C52.6585 3.17 53.1022 3.269 53.4909 3.467C53.8869 3.65767 54.1985 3.94 54.4259 4.314L53.8429 4.71C53.6522 4.424 53.4102 4.21133 53.1169 4.072C52.8235 3.92533 52.5045 3.852 52.1599 3.852C51.7419 3.852 51.3642 3.94733 51.0269 4.138C50.6969 4.32133 50.4365 4.58533 50.2459 4.93C50.0625 5.27467 49.9709 5.667 49.9709 6.107C49.9709 6.55433 50.0625 6.95033 50.2459 7.295C50.4365 7.63233 50.6969 7.89633 51.0269 8.087C51.3642 8.27033 51.7419 8.362 52.1599 8.362C52.5045 8.362 52.8235 8.29233 53.1169 8.153C53.4102 8.01367 53.6522 7.801 53.8429 7.515L54.4259 7.911C54.1985 8.285 53.8869 8.571 53.4909 8.769C53.0949 8.95967 52.6512 9.055 52.1599 9.055ZM58.3384 8.362C58.6977 8.362 59.0277 8.29967 59.3284 8.175C59.6364 8.043 59.8967 7.85233 60.1094 7.603L60.5494 8.109C60.2927 8.417 59.9737 8.65167 59.5924 8.813C59.2111 8.97433 58.7894 9.055 58.3274 9.055C57.7334 9.055 57.2054 8.93033 56.7434 8.681C56.2814 8.42433 55.9221 8.07233 55.6654 7.625C55.4087 7.17767 55.2804 6.67167 55.2804 6.107C55.2804 5.54233 55.4014 5.03633 55.6434 4.589C55.8927 4.14167 56.2337 3.79333 56.6664 3.544C57.0991 3.29467 57.5904 3.17 58.1404 3.17C58.6537 3.17 59.1157 3.28733 59.5264 3.522C59.9444 3.75667 60.2744 4.083 60.5164 4.501C60.7657 4.919 60.8977 5.39567 60.9124 5.931L56.1604 6.855C56.3071 7.32433 56.5711 7.69467 56.9524 7.966C57.3411 8.23 57.8031 8.362 58.3384 8.362ZM58.1404 3.841C57.7371 3.841 57.3741 3.93633 57.0514 4.127C56.7361 4.31033 56.4867 4.57067 56.3034 4.908C56.1274 5.238 56.0394 5.61933 56.0394 6.052C56.0394 6.162 56.0431 6.24267 56.0504 6.294L60.1314 5.502C60.0434 5.018 59.8197 4.622 59.4604 4.314C59.1011 3.99867 58.6611 3.841 58.1404 3.841ZM3.487 22.055C2.915 22.055 2.40167 21.9303 1.947 21.681C1.49967 21.4317 1.14767 21.0833 0.891 20.636C0.634333 20.1813 0.506 19.6717 0.506 19.107C0.506 18.5423 0.634333 18.0363 0.891 17.589C1.14767 17.1417 1.49967 16.7933 1.947 16.544C2.40167 16.2947 2.915 16.17 3.487 16.17C3.98567 16.17 4.42933 16.269 4.818 16.467C5.214 16.6577 5.52567 16.94 5.753 17.314L5.17 17.71C4.97933 17.424 4.73733 17.2113 4.444 17.072C4.15067 16.9253 3.83167 16.852 3.487 16.852C3.069 16.852 2.69133 16.9473 2.354 17.138C2.024 17.3213 1.76367 17.5853 1.573 17.93C1.38967 18.2747 1.298 18.667 1.298 19.107C1.298 19.5543 1.38967 19.9503 1.573 20.295C1.76367 20.6323 2.024 20.8963 2.354 21.087C2.69133 21.2703 3.069 21.362 3.487 21.362C3.83167 21.362 4.15067 21.2923 4.444 21.153C4.73733 21.0137 4.97933 20.801 5.17 20.515L5.753 20.911C5.52567 21.285 5.214 21.571 4.818 21.769C4.422 21.9597 3.97833 22.055 3.487 22.055ZM8.03524 17.347C8.21858 16.9583 8.48991 16.665 8.84924 16.467C9.21591 16.269 9.66691 16.17 10.2022 16.17V16.929L10.0152 16.918C9.40658 16.918 8.92991 17.105 8.58524 17.479C8.24058 17.853 8.06824 18.3773 8.06824 19.052V22H7.28724V16.214H8.03524V17.347ZM14.0376 21.362C14.397 21.362 14.727 21.2997 15.0276 21.175C15.3356 21.043 15.596 20.8523 15.8086 20.603L16.2486 21.109C15.992 21.417 15.673 21.6517 15.2916 21.813C14.9103 21.9743 14.4886 22.055 14.0266 22.055C13.4326 22.055 12.9046 21.9303 12.4426 21.681C11.9806 21.4243 11.6213 21.0723 11.3646 20.625C11.108 20.1777 10.9796 19.6717 10.9796 19.107C10.9796 18.5423 11.1006 18.0363 11.3426 17.589C11.592 17.1417 11.933 16.7933 12.3656 16.544C12.7983 16.2947 13.2896 16.17 13.8396 16.17C14.353 16.17 14.815 16.2873 15.2256 16.522C15.6436 16.7567 15.9736 17.083 16.2156 17.501C16.465 17.919 16.597 18.3957 16.6116 18.931L11.8596 19.855C12.0063 20.3243 12.2703 20.6947 12.6516 20.966C13.0403 21.23 13.5023 21.362 14.0376 21.362ZM13.8396 16.841C13.4363 16.841 13.0733 16.9363 12.7506 17.127C12.4353 17.3103 12.186 17.5707 12.0026 17.908C11.8266 18.238 11.7386 18.6193 11.7386 19.052C11.7386 19.162 11.7423 19.2427 11.7496 19.294L15.8306 18.502C15.7426 18.018 15.519 17.622 15.1596 17.314C14.8003 16.9987 14.3603 16.841 13.8396 16.841ZM23.4813 16.214V22H22.7333V20.856C22.4986 21.2447 22.187 21.5417 21.7983 21.747C21.417 21.9523 20.9843 22.055 20.5003 22.055C19.9576 22.055 19.4663 21.9303 19.0263 21.681C18.5863 21.4317 18.2416 21.0833 17.9923 20.636C17.743 20.1887 17.6183 19.679 17.6183 19.107C17.6183 18.535 17.743 18.0253 17.9923 17.578C18.2416 17.1307 18.5863 16.786 19.0263 16.544C19.4663 16.2947 19.9576 16.17 20.5003 16.17C20.9696 16.17 21.3913 16.269 21.7653 16.467C22.1466 16.6577 22.4583 16.94 22.7003 17.314V16.214H23.4813ZM20.5663 21.362C20.9696 21.362 21.3326 21.2703 21.6553 21.087C21.9853 20.8963 22.242 20.6287 22.4253 20.284C22.616 19.9393 22.7113 19.547 22.7113 19.107C22.7113 18.667 22.616 18.2747 22.4253 17.93C22.242 17.5853 21.9853 17.3213 21.6553 17.138C21.3326 16.9473 20.9696 16.852 20.5663 16.852C20.1556 16.852 19.7853 16.9473 19.4553 17.138C19.1326 17.3213 18.876 17.5853 18.6853 17.93C18.502 18.2747 18.4103 18.667 18.4103 19.107C18.4103 19.547 18.502 19.9393 18.6853 20.284C18.876 20.6287 19.1326 20.8963 19.4553 21.087C19.7853 21.2703 20.1556 21.362 20.5663 21.362ZM32.8724 16.17C33.5984 16.17 34.1667 16.379 34.5774 16.797C34.9954 17.215 35.2044 17.831 35.2044 18.645V22H34.4234V18.722C34.4234 18.1207 34.2767 17.6623 33.9834 17.347C33.6974 17.0317 33.2904 16.874 32.7624 16.874C32.1611 16.874 31.6881 17.061 31.3434 17.435C30.9987 17.8017 30.8264 18.3113 30.8264 18.964V22H30.0454V18.722C30.0454 18.1207 29.8987 17.6623 29.6054 17.347C29.3194 17.0317 28.9087 16.874 28.3734 16.874C27.7794 16.874 27.3064 17.061 26.9544 17.435C26.6097 17.8017 26.4374 18.3113 26.4374 18.964V22H25.6564V16.214H26.4044V17.27C26.6097 16.918 26.8957 16.6467 27.2624 16.456C27.629 16.2653 28.0507 16.17 28.5274 16.17C29.0114 16.17 29.4294 16.2727 29.7814 16.478C30.1407 16.6833 30.4084 16.9877 30.5844 17.391C30.797 17.0097 31.1014 16.7127 31.4974 16.5C31.9007 16.28 32.3591 16.17 32.8724 16.17ZM47.4173 16.17C48.1433 16.17 48.7116 16.379 49.1223 16.797C49.5403 17.215 49.7493 17.831 49.7493 18.645V22H48.9683V18.722C48.9683 18.1207 48.8216 17.6623 48.5283 17.347C48.2423 17.0317 47.8353 16.874 47.3073 16.874C46.706 16.874 46.233 17.061 45.8883 17.435C45.5436 17.8017 45.3713 18.3113 45.3713 18.964V22H44.5903V18.722C44.5903 18.1207 44.4436 17.6623 44.1503 17.347C43.8643 17.0317 43.4536 16.874 42.9183 16.874C42.3243 16.874 41.8513 17.061 41.4993 17.435C41.1546 17.8017 40.9823 18.3113 40.9823 18.964V22H40.2013V16.214H40.9493V17.27C41.1546 16.918 41.4406 16.6467 41.8073 16.456C42.174 16.2653 42.5956 16.17 43.0723 16.17C43.5563 16.17 43.9743 16.2727 44.3263 16.478C44.6856 16.6833 44.9533 16.9877 45.1293 17.391C45.342 17.0097 45.6463 16.7127 46.0423 16.5C46.4456 16.28 46.904 16.17 47.4173 16.17ZM51.8673 16.214H52.6483V22H51.8673V16.214ZM52.2633 14.949C52.102 14.949 51.9663 14.894 51.8563 14.784C51.7463 14.674 51.6913 14.542 51.6913 14.388C51.6913 14.2413 51.7463 14.113 51.8563 14.003C51.9663 13.893 52.102 13.838 52.2633 13.838C52.4247 13.838 52.5603 13.893 52.6703 14.003C52.7803 14.1057 52.8353 14.2303 52.8353 14.377C52.8353 14.5383 52.7803 14.674 52.6703 14.784C52.5603 14.894 52.4247 14.949 52.2633 14.949ZM58.5064 22L56.6694 19.58L54.8214 22H53.9414L56.2294 19.03L54.0514 16.214H54.9314L56.6694 18.48L58.4074 16.214H59.2654L57.0874 19.03L59.3974 22H58.5064ZM62.9683 21.362C63.3276 21.362 63.6576 21.2997 63.9583 21.175C64.2663 21.043 64.5266 20.8523 64.7393 20.603L65.1793 21.109C64.9226 21.417 64.6036 21.6517 64.2223 21.813C63.841 21.9743 63.4193 22.055 62.9573 22.055C62.3633 22.055 61.8353 21.9303 61.3733 21.681C60.9113 21.4243 60.552 21.0723 60.2953 20.625C60.0386 20.1777 59.9103 19.6717 59.9103 19.107C59.9103 18.5423 60.0313 18.0363 60.2733 17.589C60.5226 17.1417 60.8636 16.7933 61.2963 16.544C61.729 16.2947 62.2203 16.17 62.7703 16.17C63.2836 16.17 63.7456 16.2873 64.1563 16.522C64.5743 16.7567 64.9043 17.083 65.1463 17.501C65.3956 17.919 65.5276 18.3957 65.5423 18.931L60.7903 19.855C60.937 20.3243 61.201 20.6947 61.5823 20.966C61.971 21.23 62.433 21.362 62.9683 21.362ZM62.7703 16.841C62.367 16.841 62.004 16.9363 61.6813 17.127C61.366 17.3103 61.1166 17.5707 60.9333 17.908C60.7573 18.238 60.6693 18.6193 60.6693 19.052C60.6693 19.162 60.673 19.2427 60.6803 19.294L64.7613 18.502C64.6733 18.018 64.4496 17.622 64.0903 17.314C63.731 16.9987 63.291 16.841 62.7703 16.841ZM72.412 13.838V22H71.664V20.856C71.4293 21.2447 71.1176 21.5417 70.729 21.747C70.3476 21.9523 69.915 22.055 69.431 22.055C68.8883 22.055 68.397 21.9303 67.957 21.681C67.517 21.4317 67.1723 21.0833 66.923 20.636C66.6736 20.1887 66.549 19.679 66.549 19.107C66.549 18.535 66.6736 18.0253 66.923 17.578C67.1723 17.1307 67.517 16.786 67.957 16.544C68.397 16.2947 68.8883 16.17 69.431 16.17C69.9003 16.17 70.322 16.269 70.696 16.467C71.0773 16.6577 71.389 16.94 71.631 17.314V13.838H72.412ZM69.497 21.362C69.9003 21.362 70.2633 21.2703 70.586 21.087C70.916 20.8963 71.1726 20.6287 71.356 20.284C71.5466 19.9393 71.642 19.547 71.642 19.107C71.642 18.667 71.5466 18.2747 71.356 17.93C71.1726 17.5853 70.916 17.3213 70.586 17.138C70.2633 16.9473 69.9003 16.852 69.497 16.852C69.0863 16.852 68.716 16.9473 68.386 17.138C68.0633 17.3213 67.8066 17.5853 67.616 17.93C67.4326 18.2747 67.341 18.667 67.341 19.107C67.341 19.547 67.4326 19.9393 67.616 20.284C67.8066 20.6287 68.0633 20.8963 68.386 21.087C68.716 21.2703 69.0863 21.362 69.497 21.362ZM10.01 29.214V32.415C10.01 33.273 9.80467 33.9293 9.394 34.384C8.98333 34.8313 8.37833 35.055 7.579 35.055C7.073 35.055 6.64767 34.9597 6.303 34.769C5.96567 34.571 5.70533 34.2593 5.522 33.834C5.33867 34.252 5.07833 34.56 4.741 34.758C4.40367 34.956 3.97833 35.055 3.465 35.055C2.66567 35.055 2.06067 34.8313 1.65 34.384C1.23933 33.9293 1.034 33.273 1.034 32.415V29.214H1.815V32.349C1.815 33.031 1.947 33.537 2.211 33.867C2.475 34.1897 2.893 34.351 3.465 34.351C4.02967 34.351 4.44767 34.186 4.719 33.856C4.99767 33.526 5.137 33.0163 5.137 32.327V29.214H5.918V32.327C5.918 33.0163 6.05367 33.526 6.325 33.856C6.59633 34.186 7.018 34.351 7.59 34.351C8.14733 34.351 8.558 34.1897 8.822 33.867C9.09333 33.537 9.229 33.031 9.229 32.349V29.214H10.01ZM12.132 29.214H12.913V35H12.132V29.214ZM12.528 27.949C12.3666 27.949 12.231 27.894 12.121 27.784C12.011 27.674 11.956 27.542 11.956 27.388C11.956 27.2413 12.011 27.113 12.121 27.003C12.231 26.893 12.3666 26.838 12.528 26.838C12.6893 26.838 12.825 26.893 12.935 27.003C13.045 27.1057 13.1 27.2303 13.1 27.377C13.1 27.5383 13.045 27.674 12.935 27.784C12.825 27.894 12.6893 27.949 12.528 27.949ZM17.9351 34.648C17.7884 34.78 17.6087 34.8827 17.3961 34.956C17.1834 35.022 16.9597 35.055 16.7251 35.055C16.1824 35.055 15.7644 34.9083 15.4711 34.615C15.1777 34.3217 15.0311 33.9073 15.0311 33.372V27.949H15.8121V29.214H17.5611V29.874H15.8121V33.328C15.8121 33.6727 15.8964 33.9367 16.0651 34.12C16.2337 34.296 16.4794 34.384 16.8021 34.384C17.1541 34.384 17.4401 34.285 17.6601 34.087L17.9351 34.648ZM22.2987 29.17C23.0247 29.17 23.6004 29.3827 24.0257 29.808C24.4584 30.226 24.6747 30.8383 24.6747 31.645V35H23.8937V31.722C23.8937 31.1207 23.7434 30.6623 23.4427 30.347C23.1421 30.0317 22.7131 29.874 22.1557 29.874C21.5324 29.874 21.0374 30.061 20.6707 30.435C20.3114 30.8017 20.1317 31.3113 20.1317 31.964V35H19.3507V26.838H20.1317V30.226C20.3444 29.8887 20.6377 29.6283 21.0117 29.445C21.3857 29.2617 21.8147 29.17 22.2987 29.17ZM31.225 35.055C30.7556 35.055 30.3046 34.989 29.872 34.857C29.4466 34.7177 29.113 34.5453 28.871 34.34L29.223 33.724C29.465 33.9147 29.7693 34.0723 30.136 34.197C30.5026 34.3143 30.884 34.373 31.28 34.373C31.808 34.373 32.1966 34.2923 32.446 34.131C32.7026 33.9623 32.831 33.7277 32.831 33.427C32.831 33.2143 32.7613 33.0493 32.622 32.932C32.4826 32.8073 32.3066 32.7157 32.094 32.657C31.8813 32.591 31.599 32.5287 31.247 32.47C30.7776 32.382 30.4 32.294 30.114 32.206C29.828 32.1107 29.5823 31.953 29.377 31.733C29.179 31.513 29.08 31.2087 29.08 30.82C29.08 30.336 29.2816 29.94 29.685 29.632C30.0883 29.324 30.6493 29.17 31.368 29.17C31.742 29.17 32.116 29.2213 32.49 29.324C32.864 29.4193 33.172 29.5477 33.414 29.709L33.073 30.336C32.5963 30.006 32.028 29.841 31.368 29.841C30.8693 29.841 30.4916 29.929 30.235 30.105C29.9856 30.281 29.861 30.512 29.861 30.798C29.861 31.018 29.9306 31.194 30.07 31.326C30.2166 31.458 30.3963 31.557 30.609 31.623C30.8216 31.6817 31.115 31.744 31.489 31.81C31.951 31.898 32.3213 31.986 32.6 32.074C32.8786 32.162 33.117 32.3123 33.315 32.525C33.513 32.7377 33.612 33.031 33.612 33.405C33.612 33.911 33.3993 34.3143 32.974 34.615C32.556 34.9083 31.973 35.055 31.225 35.055ZM42.2718 29.17C42.9978 29.17 43.5661 29.379 43.9768 29.797C44.3948 30.215 44.6038 30.831 44.6038 31.645V35H43.8228V31.722C43.8228 31.1207 43.6761 30.6623 43.3828 30.347C43.0968 30.0317 42.6898 29.874 42.1618 29.874C41.5605 29.874 41.0875 30.061 40.7428 30.435C40.3981 30.8017 40.2258 31.3113 40.2258 31.964V35H39.4448V31.722C39.4448 31.1207 39.2981 30.6623 39.0048 30.347C38.7188 30.0317 38.3081 29.874 37.7728 29.874C37.1788 29.874 36.7058 30.061 36.3538 30.435C36.0091 30.8017 35.8368 31.3113 35.8368 31.964V35H35.0558V29.214H35.8038V30.27C36.0091 29.918 36.2951 29.6467 36.6618 29.456C37.0285 29.2653 37.4501 29.17 37.9268 29.17C38.4108 29.17 38.8288 29.2727 39.1808 29.478C39.5401 29.6833 39.8078 29.9877 39.9838 30.391C40.1965 30.0097 40.5008 29.7127 40.8968 29.5C41.3001 29.28 41.7585 29.17 42.2718 29.17ZM52.0233 29.214V35H51.2753V33.856C51.0406 34.2447 50.729 34.5417 50.3403 34.747C49.959 34.9523 49.5263 35.055 49.0423 35.055C48.4996 35.055 48.0083 34.9303 47.5683 34.681C47.1283 34.4317 46.7836 34.0833 46.5343 33.636C46.285 33.1887 46.1603 32.679 46.1603 32.107C46.1603 31.535 46.285 31.0253 46.5343 30.578C46.7836 30.1307 47.1283 29.786 47.5683 29.544C48.0083 29.2947 48.4996 29.17 49.0423 29.17C49.5116 29.17 49.9333 29.269 50.3073 29.467C50.6886 29.6577 51.0003 29.94 51.2423 30.314V29.214H52.0233ZM49.1083 34.362C49.5116 34.362 49.8746 34.2703 50.1973 34.087C50.5273 33.8963 50.784 33.6287 50.9673 33.284C51.158 32.9393 51.2533 32.547 51.2533 32.107C51.2533 31.667 51.158 31.2747 50.9673 30.93C50.784 30.5853 50.5273 30.3213 50.1973 30.138C49.8746 29.9473 49.5116 29.852 49.1083 29.852C48.6976 29.852 48.3273 29.9473 47.9973 30.138C47.6746 30.3213 47.418 30.5853 47.2273 30.93C47.044 31.2747 46.9523 31.667 46.9523 32.107C46.9523 32.547 47.044 32.9393 47.2273 33.284C47.418 33.6287 47.6746 33.8963 47.9973 34.087C48.3273 34.2703 48.6976 34.362 49.1083 34.362ZM55.8264 35.055C55.3057 35.055 54.9024 34.9083 54.6164 34.615C54.3377 34.3217 54.1984 33.9147 54.1984 33.394V26.838H54.9794V33.328C54.9794 33.6727 55.06 33.9367 55.2214 34.12C55.3827 34.296 55.6247 34.384 55.9474 34.384C56.1527 34.384 56.3287 34.351 56.4754 34.285L56.5304 34.934C56.303 35.0147 56.0684 35.055 55.8264 35.055ZM59.2209 35.055C58.7002 35.055 58.2969 34.9083 58.0109 34.615C57.7322 34.3217 57.5929 33.9147 57.5929 33.394V26.838H58.3739V33.328C58.3739 33.6727 58.4546 33.9367 58.6159 34.12C58.7772 34.296 59.0192 34.384 59.3419 34.384C59.5472 34.384 59.7232 34.351 59.8699 34.285L59.9249 34.934C59.6976 35.0147 59.4629 35.055 59.2209 35.055ZM66.2643 35.055C65.6923 35.055 65.179 34.9303 64.7243 34.681C64.277 34.4317 63.925 34.0833 63.6683 33.636C63.4117 33.1813 63.2833 32.6717 63.2833 32.107C63.2833 31.5423 63.4117 31.0363 63.6683 30.589C63.925 30.1417 64.277 29.7933 64.7243 29.544C65.179 29.2947 65.6923 29.17 66.2643 29.17C66.763 29.17 67.2067 29.269 67.5953 29.467C67.9913 29.6577 68.303 29.94 68.5303 30.314L67.9473 30.71C67.7567 30.424 67.5147 30.2113 67.2213 30.072C66.928 29.9253 66.609 29.852 66.2643 29.852C65.8463 29.852 65.4687 29.9473 65.1313 30.138C64.8013 30.3213 64.541 30.5853 64.3503 30.93C64.167 31.2747 64.0753 31.667 64.0753 32.107C64.0753 32.5543 64.167 32.9503 64.3503 33.295C64.541 33.6323 64.8013 33.8963 65.1313 34.087C65.4687 34.2703 65.8463 34.362 66.2643 34.362C66.609 34.362 66.928 34.2923 67.2213 34.153C67.5147 34.0137 67.7567 33.801 67.9473 33.515L68.5303 33.911C68.303 34.285 67.9913 34.571 67.5953 34.769C67.1993 34.9597 66.7557 35.055 66.2643 35.055ZM75.2786 29.214V35H74.5306V33.944C74.3253 34.296 74.0429 34.571 73.6836 34.769C73.3243 34.9597 72.9136 35.055 72.4516 35.055C71.6963 35.055 71.0986 34.846 70.6586 34.428C70.2259 34.0027 70.0096 33.383 70.0096 32.569V29.214H70.7906V32.492C70.7906 33.1007 70.9409 33.5627 71.2416 33.878C71.5423 34.1933 71.9713 34.351 72.5286 34.351C73.1373 34.351 73.6176 34.1677 73.9696 33.801C74.3216 33.427 74.4976 32.91 74.4976 32.25V29.214H75.2786ZM80.447 29.17C80.9896 29.17 81.481 29.2947 81.921 29.544C82.361 29.786 82.7056 30.1307 82.955 30.578C83.2043 31.0253 83.329 31.535 83.329 32.107C83.329 32.679 83.2043 33.1887 82.955 33.636C82.7056 34.0833 82.361 34.4317 81.921 34.681C81.481 34.9303 80.9896 35.055 80.447 35.055C79.963 35.055 79.5266 34.9523 79.138 34.747C78.7566 34.5417 78.4486 34.2447 78.214 33.856V35H77.466V26.838H78.247V30.314C78.489 29.94 78.797 29.6577 79.171 29.467C79.5523 29.269 79.9776 29.17 80.447 29.17ZM80.392 34.362C80.7953 34.362 81.162 34.2703 81.492 34.087C81.822 33.8963 82.0786 33.6287 82.262 33.284C82.4526 32.9393 82.548 32.547 82.548 32.107C82.548 31.667 82.4526 31.2747 82.262 30.93C82.0786 30.5853 81.822 30.3213 81.492 30.138C81.162 29.9473 80.7953 29.852 80.392 29.852C79.9813 29.852 79.611 29.9473 79.281 30.138C78.9583 30.3213 78.7016 30.5853 78.511 30.93C78.3276 31.2747 78.236 31.667 78.236 32.107C78.236 32.547 78.3276 32.9393 78.511 33.284C78.7016 33.6287 78.9583 33.8963 79.281 34.087C79.611 34.2703 79.9813 34.362 80.392 34.362ZM87.396 34.362C87.7554 34.362 88.0854 34.2997 88.386 34.175C88.694 34.043 88.9544 33.8523 89.167 33.603L89.607 34.109C89.3504 34.417 89.0314 34.6517 88.65 34.813C88.2687 34.9743 87.847 35.055 87.385 35.055C86.791 35.055 86.263 34.9303 85.801 34.681C85.339 34.4243 84.9797 34.0723 84.723 33.625C84.4664 33.1777 84.338 32.6717 84.338 32.107C84.338 31.5423 84.459 31.0363 84.701 30.589C84.9504 30.1417 85.2914 29.7933 85.724 29.544C86.1567 29.2947 86.648 29.17 87.198 29.17C87.7114 29.17 88.1734 29.2873 88.584 29.522C89.002 29.7567 89.332 30.083 89.574 30.501C89.8234 30.919 89.9554 31.3957 89.97 31.931L85.218 32.855C85.3647 33.3243 85.6287 33.6947 86.01 33.966C86.3987 34.23 86.8607 34.362 87.396 34.362ZM87.198 29.841C86.7947 29.841 86.4317 29.9363 86.109 30.127C85.7937 30.3103 85.5444 30.5707 85.361 30.908C85.185 31.238 85.097 31.6193 85.097 32.052C85.097 32.162 85.1007 32.2427 85.108 32.294L89.189 31.502C89.101 31.018 88.8774 30.622 88.518 30.314C88.1587 29.9987 87.7187 29.841 87.198 29.841ZM93.1107 35.055C92.6414 35.055 92.1904 34.989 91.7577 34.857C91.3324 34.7177 90.9987 34.5453 90.7567 34.34L91.1087 33.724C91.3507 33.9147 91.655 34.0723 92.0217 34.197C92.3884 34.3143 92.7697 34.373 93.1657 34.373C93.6937 34.373 94.0824 34.2923 94.3317 34.131C94.5884 33.9623 94.7167 33.7277 94.7167 33.427C94.7167 33.2143 94.647 33.0493 94.5077 32.932C94.3684 32.8073 94.1924 32.7157 93.9797 32.657C93.767 32.591 93.4847 32.5287 93.1327 32.47C92.6634 32.382 92.2857 32.294 91.9997 32.206C91.7137 32.1107 91.468 31.953 91.2627 31.733C91.0647 31.513 90.9657 31.2087 90.9657 30.82C90.9657 30.336 91.1674 29.94 91.5707 29.632C91.974 29.324 92.535 29.17 93.2537 29.17C93.6277 29.17 94.0017 29.2213 94.3757 29.324C94.7497 29.4193 95.0577 29.5477 95.2997 29.709L94.9587 30.336C94.482 30.006 93.9137 29.841 93.2537 29.841C92.755 29.841 92.3774 29.929 92.1207 30.105C91.8714 30.281 91.7467 30.512 91.7467 30.798C91.7467 31.018 91.8164 31.194 91.9557 31.326C92.1024 31.458 92.282 31.557 92.4947 31.623C92.7074 31.6817 93.0007 31.744 93.3747 31.81C93.8367 31.898 94.207 31.986 94.4857 32.074C94.7644 32.162 95.0027 32.3123 95.2007 32.525C95.3987 32.7377 95.4977 33.031 95.4977 33.405C95.4977 33.911 95.285 34.3143 94.8597 34.615C94.4417 34.9083 93.8587 35.055 93.1107 35.055ZM3.454 48.055C2.89667 48.055 2.39433 47.9303 1.947 47.681C1.49967 47.4243 1.14767 47.0723 0.891 46.625C0.634333 46.1777 0.506 45.6717 0.506 45.107C0.506 44.5423 0.634333 44.0363 0.891 43.589C1.14767 43.1417 1.49967 42.7933 1.947 42.544C2.39433 42.2947 2.89667 42.17 3.454 42.17C4.01133 42.17 4.51367 42.2947 4.961 42.544C5.40833 42.7933 5.75667 43.1417 6.006 43.589C6.26267 44.0363 6.391 44.5423 6.391 45.107C6.391 45.6717 6.26267 46.1777 6.006 46.625C5.75667 47.0723 5.40833 47.4243 4.961 47.681C4.51367 47.9303 4.01133 48.055 3.454 48.055ZM3.454 47.362C3.86467 47.362 4.23133 47.2703 4.554 47.087C4.884 46.8963 5.14067 46.6287 5.324 46.284C5.50733 45.9393 5.599 45.547 5.599 45.107C5.599 44.667 5.50733 44.2747 5.324 43.93C5.14067 43.5853 4.884 43.3213 4.554 43.138C4.23133 42.9473 3.86467 42.852 3.454 42.852C3.04333 42.852 2.673 42.9473 2.343 43.138C2.02033 43.3213 1.76367 43.5853 1.573 43.93C1.38967 44.2747 1.298 44.667 1.298 45.107C1.298 45.547 1.38967 45.9393 1.573 46.284C1.76367 46.6287 2.02033 46.8963 2.343 47.087C2.673 47.2703 3.04333 47.362 3.454 47.362ZM9.76748 40.443C9.43015 40.443 9.17348 40.5347 8.99748 40.718C8.82882 40.9013 8.74448 41.1727 8.74448 41.532V42.214H10.5265V42.874H8.76648V48H7.98548V41.499C7.98548 40.971 8.13582 40.553 8.43648 40.245C8.74448 39.937 9.17715 39.783 9.73448 39.783C9.95448 39.783 10.1672 39.816 10.3725 39.882C10.5778 39.9407 10.7502 40.0287 10.8895 40.146L10.6255 40.729C10.3982 40.5383 10.1122 40.443 9.76748 40.443ZM16.245 40.443C15.9077 40.443 15.651 40.5347 15.475 40.718C15.3064 40.9013 15.222 41.1727 15.222 41.532V42.214H17.004V42.874H15.244V48H14.463V41.499C14.463 40.971 14.6134 40.553 14.914 40.245C15.222 39.937 15.6547 39.783 16.212 39.783C16.432 39.783 16.6447 39.816 16.85 39.882C17.0554 39.9407 17.2277 40.0287 17.367 40.146L17.103 40.729C16.8757 40.5383 16.5897 40.443 16.245 40.443ZM19.6905 43.347C19.8738 42.9583 20.1452 42.665 20.5045 42.467C20.8712 42.269 21.3222 42.17 21.8575 42.17V42.929L21.6705 42.918C21.0618 42.918 20.5852 43.105 20.2405 43.479C19.8958 43.853 19.7235 44.3773 19.7235 45.052V48H18.9425V42.214H19.6905V43.347ZM25.6929 47.362C26.0522 47.362 26.3822 47.2997 26.6829 47.175C26.9909 47.043 27.2512 46.8523 27.4639 46.603L27.9039 47.109C27.6472 47.417 27.3282 47.6517 26.9469 47.813C26.5656 47.9743 26.1439 48.055 25.6819 48.055C25.0879 48.055 24.5599 47.9303 24.0979 47.681C23.6359 47.4243 23.2766 47.0723 23.0199 46.625C22.7632 46.1777 22.6349 45.6717 22.6349 45.107C22.6349 44.5423 22.7559 44.0363 22.9979 43.589C23.2472 43.1417 23.5882 42.7933 24.0209 42.544C24.4536 42.2947 24.9449 42.17 25.4949 42.17C26.0082 42.17 26.4702 42.2873 26.8809 42.522C27.2989 42.7567 27.6289 43.083 27.8709 43.501C28.1202 43.919 28.2522 44.3957 28.2669 44.931L23.5149 45.855C23.6616 46.3243 23.9256 46.6947 24.3069 46.966C24.6956 47.23 25.1576 47.362 25.6929 47.362ZM25.4949 42.841C25.0916 42.841 24.7286 42.9363 24.4059 43.127C24.0906 43.3103 23.8412 43.5707 23.6579 43.908C23.4819 44.238 23.3939 44.6193 23.3939 45.052C23.3939 45.162 23.3976 45.2427 23.4049 45.294L27.4859 44.502C27.3979 44.018 27.1742 43.622 26.8149 43.314C26.4556 42.9987 26.0156 42.841 25.4949 42.841ZM31.4076 48.055C30.9382 48.055 30.4872 47.989 30.0546 47.857C29.6292 47.7177 29.2956 47.5453 29.0536 47.34L29.4056 46.724C29.6476 46.9147 29.9519 47.0723 30.3186 47.197C30.6852 47.3143 31.0666 47.373 31.4626 47.373C31.9906 47.373 32.3792 47.2923 32.6286 47.131C32.8852 46.9623 33.0136 46.7277 33.0136 46.427C33.0136 46.2143 32.9439 46.0493 32.8046 45.932C32.6652 45.8073 32.4892 45.7157 32.2766 45.657C32.0639 45.591 31.7816 45.5287 31.4296 45.47C30.9602 45.382 30.5826 45.294 30.2966 45.206C30.0106 45.1107 29.7649 44.953 29.5596 44.733C29.3616 44.513 29.2626 44.2087 29.2626 43.82C29.2626 43.336 29.4642 42.94 29.8676 42.632C30.2709 42.324 30.8319 42.17 31.5506 42.17C31.9246 42.17 32.2986 42.2213 32.6726 42.324C33.0466 42.4193 33.3546 42.5477 33.5966 42.709L33.2556 43.336C32.7789 43.006 32.2106 42.841 31.5506 42.841C31.0519 42.841 30.6742 42.929 30.4176 43.105C30.1682 43.281 30.0436 43.512 30.0436 43.798C30.0436 44.018 30.1132 44.194 30.2526 44.326C30.3992 44.458 30.5789 44.557 30.7916 44.623C31.0042 44.6817 31.2976 44.744 31.6716 44.81C32.1336 44.898 32.5039 44.986 32.7826 45.074C33.0612 45.162 33.2996 45.3123 33.4976 45.525C33.6956 45.7377 33.7946 46.031 33.7946 46.405C33.7946 46.911 33.5819 47.3143 33.1566 47.615C32.7386 47.9083 32.1556 48.055 31.4076 48.055ZM38.1864 42.17C38.9124 42.17 39.4881 42.3827 39.9134 42.808C40.3461 43.226 40.5624 43.8383 40.5624 44.645V48H39.7814V44.722C39.7814 44.1207 39.6311 43.6623 39.3304 43.347C39.0297 43.0317 38.6007 42.874 38.0434 42.874C37.4201 42.874 36.9251 43.061 36.5584 43.435C36.1991 43.8017 36.0194 44.3113 36.0194 44.964V48H35.2384V39.838H36.0194V43.226C36.2321 42.8887 36.5254 42.6283 36.8994 42.445C37.2734 42.2617 37.7024 42.17 38.1864 42.17ZM52.7777 42.17C53.5037 42.17 54.072 42.379 54.4827 42.797C54.9007 43.215 55.1097 43.831 55.1097 44.645V48H54.3287V44.722C54.3287 44.1207 54.182 43.6623 53.8887 43.347C53.6027 43.0317 53.1957 42.874 52.6677 42.874C52.0663 42.874 51.5933 43.061 51.2487 43.435C50.904 43.8017 50.7317 44.3113 50.7317 44.964V48H49.9507V44.722C49.9507 44.1207 49.804 43.6623 49.5107 43.347C49.2247 43.0317 48.814 42.874 48.2787 42.874C47.6847 42.874 47.2117 43.061 46.8597 43.435C46.515 43.8017 46.3427 44.3113 46.3427 44.964V48H45.5617V42.214H46.3097V43.27C46.515 42.918 46.801 42.6467 47.1677 42.456C47.5343 42.2653 47.956 42.17 48.4327 42.17C48.9167 42.17 49.3347 42.2727 49.6867 42.478C50.046 42.6833 50.3137 42.9877 50.4897 43.391C50.7023 43.0097 51.0067 42.7127 51.4027 42.5C51.806 42.28 52.2643 42.17 52.7777 42.17ZM62.5292 42.214V48H61.7812V46.856C61.5465 47.2447 61.2348 47.5417 60.8462 47.747C60.4648 47.9523 60.0322 48.055 59.5482 48.055C59.0055 48.055 58.5142 47.9303 58.0742 47.681C57.6342 47.4317 57.2895 47.0833 57.0402 46.636C56.7908 46.1887 56.6662 45.679 56.6662 45.107C56.6662 44.535 56.7908 44.0253 57.0402 43.578C57.2895 43.1307 57.6342 42.786 58.0742 42.544C58.5142 42.2947 59.0055 42.17 59.5482 42.17C60.0175 42.17 60.4392 42.269 60.8132 42.467C61.1945 42.6577 61.5062 42.94 61.7482 43.314V42.214H62.5292ZM59.6142 47.362C60.0175 47.362 60.3805 47.2703 60.7032 47.087C61.0332 46.8963 61.2898 46.6287 61.4732 46.284C61.6638 45.9393 61.7592 45.547 61.7592 45.107C61.7592 44.667 61.6638 44.2747 61.4732 43.93C61.2898 43.5853 61.0332 43.3213 60.7032 43.138C60.3805 42.9473 60.0175 42.852 59.6142 42.852C59.2035 42.852 58.8332 42.9473 58.5032 43.138C58.1805 43.3213 57.9238 43.5853 57.7332 43.93C57.5498 44.2747 57.4582 44.667 57.4582 45.107C57.4582 45.547 57.5498 45.9393 57.7332 46.284C57.9238 46.6287 58.1805 46.8963 58.5032 47.087C58.8332 47.2703 59.2035 47.362 59.6142 47.362ZM67.6522 42.17C68.3782 42.17 68.9539 42.3827 69.3792 42.808C69.8119 43.226 70.0282 43.8383 70.0282 44.645V48H69.2472V44.722C69.2472 44.1207 69.0969 43.6623 68.7962 43.347C68.4956 43.0317 68.0666 42.874 67.5092 42.874C66.8859 42.874 66.3909 43.061 66.0242 43.435C65.6649 43.8017 65.4852 44.3113 65.4852 44.964V48H64.7042V42.214H65.4522V43.281C65.6649 42.929 65.9582 42.6577 66.3322 42.467C66.7136 42.269 67.1536 42.17 67.6522 42.17ZM77.5271 42.214V47.296C77.5271 48.2787 77.2851 49.0047 76.8011 49.474C76.3244 49.9507 75.6021 50.189 74.6341 50.189C74.0987 50.189 73.5891 50.1083 73.1051 49.947C72.6284 49.793 72.2397 49.5767 71.9391 49.298L72.3351 48.704C72.6137 48.9533 72.9511 49.1477 73.3471 49.287C73.7504 49.4263 74.1721 49.496 74.6121 49.496C75.3454 49.496 75.8844 49.3237 76.2291 48.979C76.5737 48.6417 76.7461 48.1137 76.7461 47.395V46.658C76.5041 47.0247 76.1851 47.3033 75.7891 47.494C75.4004 47.6847 74.9677 47.78 74.4911 47.78C73.9484 47.78 73.4534 47.6627 73.0061 47.428C72.5661 47.186 72.2177 46.8523 71.9611 46.427C71.7117 45.9943 71.5871 45.5067 71.5871 44.964C71.5871 44.4213 71.7117 43.9373 71.9611 43.512C72.2177 43.0867 72.5661 42.7567 73.0061 42.522C73.4461 42.2873 73.9411 42.17 74.4911 42.17C74.9824 42.17 75.4261 42.269 75.8221 42.467C76.2181 42.665 76.5371 42.951 76.7791 43.325V42.214H77.5271ZM74.5681 47.087C74.9861 47.087 75.3637 46.999 75.7011 46.823C76.0384 46.6397 76.2987 46.3867 76.4821 46.064C76.6727 45.7413 76.7681 45.3747 76.7681 44.964C76.7681 44.5533 76.6727 44.1903 76.4821 43.875C76.2987 43.5523 76.0384 43.303 75.7011 43.127C75.3711 42.9437 74.9934 42.852 74.5681 42.852C74.1501 42.852 73.7724 42.94 73.4351 43.116C73.1051 43.292 72.8447 43.5413 72.6541 43.864C72.4707 44.1867 72.3791 44.5533 72.3791 44.964C72.3791 45.3747 72.4707 45.7413 72.6541 46.064C72.8447 46.3867 73.1051 46.6397 73.4351 46.823C73.7724 46.999 74.1501 47.087 74.5681 47.087ZM82.0761 48.055C81.5187 48.055 81.0164 47.9303 80.5691 47.681C80.1217 47.4243 79.7697 47.0723 79.5131 46.625C79.2564 46.1777 79.1281 45.6717 79.1281 45.107C79.1281 44.5423 79.2564 44.0363 79.5131 43.589C79.7697 43.1417 80.1217 42.7933 80.5691 42.544C81.0164 42.2947 81.5187 42.17 82.0761 42.17C82.6334 42.17 83.1357 42.2947 83.5831 42.544C84.0304 42.7933 84.3787 43.1417 84.6281 43.589C84.8847 44.0363 85.0131 44.5423 85.0131 45.107C85.0131 45.6717 84.8847 46.1777 84.6281 46.625C84.3787 47.0723 84.0304 47.4243 83.5831 47.681C83.1357 47.9303 82.6334 48.055 82.0761 48.055ZM82.0761 47.362C82.4867 47.362 82.8534 47.2703 83.1761 47.087C83.5061 46.8963 83.7627 46.6287 83.9461 46.284C84.1294 45.9393 84.2211 45.547 84.2211 45.107C84.2211 44.667 84.1294 44.2747 83.9461 43.93C83.7627 43.5853 83.5061 43.3213 83.1761 43.138C82.8534 42.9473 82.4867 42.852 82.0761 42.852C81.6654 42.852 81.2951 42.9473 80.9651 43.138C80.6424 43.3213 80.3857 43.5853 80.1951 43.93C80.0117 44.2747 79.9201 44.667 79.9201 45.107C79.9201 45.547 80.0117 45.9393 80.1951 46.284C80.3857 46.6287 80.6424 46.8963 80.9651 47.087C81.2951 47.2703 81.6654 47.362 82.0761 47.362ZM86.5234 48.055C86.3621 48.055 86.2228 47.9963 86.1054 47.879C85.9954 47.7617 85.9404 47.6187 85.9404 47.45C85.9404 47.2813 85.9954 47.142 86.1054 47.032C86.2228 46.9147 86.3621 46.856 86.5234 46.856C86.6848 46.856 86.8241 46.9147 86.9414 47.032C87.0588 47.142 87.1174 47.2813 87.1174 47.45C87.1174 47.6187 87.0588 47.7617 86.9414 47.879C86.8241 47.9963 86.6848 48.055 86.5234 48.055Z" fill="black"/>
</svg>
