<svg width="120" height="16" viewBox="0 0 120 16" fill="none" xmlns="http://www.w3.org/2000/svg">
<path d="M3.84352 12.2421C4.17088 12.5122 4.51229 12.7591 4.8618 13C5.21206 12.7623 5.55181 12.5094 5.88008 12.2421C6.4273 11.7928 6.9423 11.3056 7.42127 10.7841C8.52543 9.57675 9.7236 7.82651 9.7236 5.8618C9.7236 5.22334 9.59784 4.59113 9.35352 4.00127C9.10919 3.41141 8.75107 2.87545 8.29961 2.42399C7.84815 1.97253 7.31219 1.61441 6.72233 1.37008C6.13247 1.12575 5.50026 1 4.8618 1C4.22334 1 3.59113 1.12575 3.00127 1.37008C2.41141 1.61441 1.87545 1.97253 1.42399 2.42399C0.972528 2.87545 0.614411 3.41141 0.370082 4.00127C0.125754 4.59113 -9.5138e-09 5.22334 0 5.8618C0 7.82651 1.19816 9.57621 2.30233 10.7841C2.78128 11.3058 3.29628 11.7926 3.84352 12.2421ZM4.8618 7.61745C4.39617 7.61745 3.94962 7.43248 3.62037 7.10323C3.29112 6.77398 3.10615 6.32743 3.10615 5.8618C3.10615 5.39617 3.29112 4.94962 3.62037 4.62037C3.94962 4.29112 4.39617 4.10615 4.8618 4.10615C5.32743 4.10615 5.77398 4.29112 6.10323 4.62037C6.43248 4.94962 6.61745 5.39617 6.61745 5.8618C6.61745 6.32743 6.43248 6.77398 6.10323 7.10323C5.77398 7.43248 5.32743 7.61745 4.8618 7.61745Z" fill="#999999"/>
<path d="M17.9712 3.17969L20.7642 9.94189L23.5679 3.17969H24.3252L21.0596 11H20.4741L17.2085 3.17969H17.9712ZM17.6382 3.17969L17.7295 7.68066V11H16.9668V3.17969H17.6382ZM24.5723 3.17969V11H23.8096V7.68066L23.9009 3.17969H24.5723ZM29.8735 6.97705C29.8735 6.57959 29.7518 6.26628 29.5083 6.03711C29.2648 5.80794 28.9121 5.69336 28.4502 5.69336C28.1637 5.69336 27.9095 5.74349 27.6875 5.84375C27.4655 5.94043 27.2918 6.07292 27.1665 6.24121C27.0412 6.40951 26.9785 6.59391 26.9785 6.79443H26.2373C26.2373 6.50439 26.3304 6.22868 26.5166 5.96729C26.7064 5.70589 26.9696 5.49284 27.3062 5.32812C27.6427 5.16341 28.0366 5.08105 28.4878 5.08105C28.9032 5.08105 29.2702 5.15267 29.5889 5.2959C29.9111 5.43555 30.1618 5.64681 30.3408 5.92969C30.5234 6.20898 30.6147 6.56169 30.6147 6.98779V9.77002C30.6147 9.96696 30.6309 10.1746 30.6631 10.3931C30.6953 10.6079 30.7401 10.7869 30.7974 10.9302V11H30.0132C29.9702 10.8747 29.9362 10.7153 29.9111 10.522C29.8861 10.3286 29.8735 10.1442 29.8735 9.96875V6.97705ZM30.0293 8.13184H28.853C28.2192 8.13184 27.7251 8.23926 27.3706 8.4541C27.0197 8.66895 26.8442 8.97152 26.8442 9.36182C26.8442 9.66618 26.9552 9.92578 27.1772 10.1406C27.3993 10.3519 27.7054 10.4575 28.0957 10.4575C28.4359 10.4575 28.7367 10.3931 28.998 10.2642C29.263 10.1317 29.4779 9.96159 29.6426 9.75391C29.8109 9.54264 29.9201 9.32064 29.9702 9.08789L30.2871 9.49072C30.2477 9.65902 30.1672 9.83626 30.0454 10.0225C29.9272 10.2087 29.7715 10.3841 29.5781 10.5488C29.3848 10.7135 29.1556 10.8478 28.8906 10.9517C28.6292 11.0555 28.3338 11.1074 28.0044 11.1074C27.6213 11.1074 27.2865 11.0358 27 10.8926C26.7135 10.7458 26.4915 10.5452 26.334 10.291C26.18 10.0368 26.103 9.75391 26.103 9.44238C26.103 8.85514 26.3394 8.3986 26.812 8.07275C27.2847 7.74333 27.9292 7.57861 28.7456 7.57861H30.0293V8.13184ZM33.0371 11H32.2959V5.18848H33.0049L33.0371 6.4292V11ZM32.5483 7.64844C32.5698 7.1722 32.679 6.74072 32.876 6.354C33.0729 5.9637 33.3415 5.65397 33.6816 5.4248C34.0254 5.19564 34.4229 5.08105 34.874 5.08105C35.2607 5.08105 35.592 5.15267 35.8677 5.2959C36.147 5.43913 36.36 5.6665 36.5068 5.97803C36.6572 6.28955 36.7324 6.69954 36.7324 7.20801V11H35.9912V7.20264C35.9912 6.83024 35.9375 6.53483 35.8301 6.31641C35.7262 6.09798 35.5758 5.94401 35.3789 5.85449C35.1855 5.76139 34.9528 5.71484 34.6807 5.71484C34.3906 5.71484 34.1346 5.77751 33.9126 5.90283C33.6906 6.02816 33.5026 6.19287 33.3486 6.39697C33.1947 6.60107 33.0765 6.82308 32.9941 7.06299C32.9154 7.3029 32.8742 7.53743 32.8706 7.7666L32.5483 7.64844ZM39.0957 11H38.3545V2.75H39.0957V11ZM38.6069 7.64844C38.6284 7.1722 38.7376 6.74072 38.9346 6.354C39.1315 5.9637 39.4001 5.65397 39.7402 5.4248C40.084 5.19564 40.4814 5.08105 40.9326 5.08105C41.3193 5.08105 41.6506 5.15267 41.9263 5.2959C42.2056 5.43913 42.4186 5.6665 42.5654 5.97803C42.7158 6.28955 42.791 6.69954 42.791 7.20801V11H42.0498V7.20264C42.0498 6.83024 41.9961 6.53483 41.8887 6.31641C41.7848 6.09798 41.6344 5.94401 41.4375 5.85449C41.2441 5.76139 41.0114 5.71484 40.7393 5.71484C40.4492 5.71484 40.1932 5.77751 39.9712 5.90283C39.7492 6.02816 39.5612 6.19287 39.4072 6.39697C39.2533 6.60107 39.1351 6.82308 39.0527 7.06299C38.974 7.3029 38.9328 7.53743 38.9292 7.7666L38.6069 7.64844ZM47.9097 6.97705C47.9097 6.57959 47.7879 6.26628 47.5444 6.03711C47.3009 5.80794 46.9482 5.69336 46.4863 5.69336C46.1999 5.69336 45.9456 5.74349 45.7236 5.84375C45.5016 5.94043 45.328 6.07292 45.2026 6.24121C45.0773 6.40951 45.0146 6.59391 45.0146 6.79443H44.2734C44.2734 6.50439 44.3665 6.22868 44.5527 5.96729C44.7425 5.70589 45.0057 5.49284 45.3423 5.32812C45.6789 5.16341 46.0728 5.08105 46.5239 5.08105C46.9393 5.08105 47.3063 5.15267 47.625 5.2959C47.9473 5.43555 48.1979 5.64681 48.377 5.92969C48.5596 6.20898 48.6509 6.56169 48.6509 6.98779V9.77002C48.6509 9.96696 48.667 10.1746 48.6992 10.3931C48.7314 10.6079 48.7762 10.7869 48.8335 10.9302V11H48.0493C48.0063 10.8747 47.9723 10.7153 47.9473 10.522C47.9222 10.3286 47.9097 10.1442 47.9097 9.96875V6.97705ZM48.0654 8.13184H46.8892C46.2554 8.13184 45.7612 8.23926 45.4067 8.4541C45.0558 8.66895 44.8804 8.97152 44.8804 9.36182C44.8804 9.66618 44.9914 9.92578 45.2134 10.1406C45.4354 10.3519 45.7415 10.4575 46.1318 10.4575C46.472 10.4575 46.7728 10.3931 47.0342 10.2642C47.2992 10.1317 47.514 9.96159 47.6787 9.75391C47.847 9.54264 47.9562 9.32064 48.0063 9.08789L48.3232 9.49072C48.2839 9.65902 48.2033 9.83626 48.0815 10.0225C47.9634 10.2087 47.8076 10.3841 47.6143 10.5488C47.4209 10.7135 47.1917 10.8478 46.9268 10.9517C46.6654 11.0555 46.37 11.1074 46.0405 11.1074C45.6574 11.1074 45.3226 11.0358 45.0361 10.8926C44.7497 10.7458 44.5277 10.5452 44.3701 10.291C44.2161 10.0368 44.1392 9.75391 44.1392 9.44238C44.1392 8.85514 44.3755 8.3986 44.8481 8.07275C45.3208 7.74333 45.9653 7.57861 46.7817 7.57861H48.0654V8.13184ZM52.5986 5.77393H49.623V5.18848H52.5986V5.77393ZM51.4277 3.7168V9.57666C51.4277 9.83089 51.4618 10.0225 51.5298 10.1514C51.5978 10.2767 51.6873 10.3608 51.7983 10.4038C51.9093 10.4432 52.0275 10.4629 52.1528 10.4629C52.2459 10.4629 52.3372 10.4575 52.4268 10.4468C52.5163 10.4325 52.5933 10.4199 52.6577 10.4092L52.6738 11.0161C52.5951 11.0412 52.493 11.0627 52.3677 11.0806C52.2424 11.0985 52.1099 11.1074 51.9702 11.1074C51.7267 11.1074 51.5065 11.0609 51.3096 10.9678C51.1162 10.8747 50.964 10.7171 50.853 10.4951C50.742 10.2695 50.6865 9.96338 50.6865 9.57666V3.7168H51.4277ZM56.1543 5.77393H53.1787V5.18848H56.1543V5.77393ZM54.9834 3.7168V9.57666C54.9834 9.83089 55.0174 10.0225 55.0854 10.1514C55.1535 10.2767 55.243 10.3608 55.354 10.4038C55.465 10.4432 55.5832 10.4629 55.7085 10.4629C55.8016 10.4629 55.8929 10.4575 55.9824 10.4468C56.0719 10.4325 56.1489 10.4199 56.2134 10.4092L56.2295 11.0161C56.1507 11.0412 56.0487 11.0627 55.9233 11.0806C55.798 11.0985 55.6655 11.1074 55.5259 11.1074C55.2824 11.1074 55.0622 11.0609 54.8652 10.9678C54.6719 10.8747 54.5197 10.7171 54.4087 10.4951C54.2977 10.2695 54.2422 9.96338 54.2422 9.57666V3.7168H54.9834ZM60.9507 6.97705C60.9507 6.57959 60.8289 6.26628 60.5854 6.03711C60.342 5.80794 59.9893 5.69336 59.5273 5.69336C59.2409 5.69336 58.9867 5.74349 58.7646 5.84375C58.5426 5.94043 58.369 6.07292 58.2437 6.24121C58.1183 6.40951 58.0557 6.59391 58.0557 6.79443H57.3145C57.3145 6.50439 57.4076 6.22868 57.5938 5.96729C57.7835 5.70589 58.0467 5.49284 58.3833 5.32812C58.7199 5.16341 59.1138 5.08105 59.5649 5.08105C59.9803 5.08105 60.3473 5.15267 60.666 5.2959C60.9883 5.43555 61.2389 5.64681 61.418 5.92969C61.6006 6.20898 61.6919 6.56169 61.6919 6.98779V9.77002C61.6919 9.96696 61.708 10.1746 61.7402 10.3931C61.7725 10.6079 61.8172 10.7869 61.8745 10.9302V11H61.0903C61.0474 10.8747 61.0133 10.7153 60.9883 10.522C60.9632 10.3286 60.9507 10.1442 60.9507 9.96875V6.97705ZM61.1064 8.13184H59.9302C59.2964 8.13184 58.8022 8.23926 58.4478 8.4541C58.0968 8.66895 57.9214 8.97152 57.9214 9.36182C57.9214 9.66618 58.0324 9.92578 58.2544 10.1406C58.4764 10.3519 58.7826 10.4575 59.1729 10.4575C59.513 10.4575 59.8138 10.3931 60.0752 10.2642C60.3402 10.1317 60.555 9.96159 60.7197 9.75391C60.888 9.54264 60.9972 9.32064 61.0474 9.08789L61.3643 9.49072C61.3249 9.65902 61.2443 9.83626 61.1226 10.0225C61.0044 10.2087 60.8486 10.3841 60.6553 10.5488C60.4619 10.7135 60.2327 10.8478 59.9678 10.9517C59.7064 11.0555 59.411 11.1074 59.0815 11.1074C58.6984 11.1074 58.3636 11.0358 58.0771 10.8926C57.7907 10.7458 57.5687 10.5452 57.4111 10.291C57.2572 10.0368 57.1802 9.75391 57.1802 9.44238C57.1802 8.85514 57.4165 8.3986 57.8892 8.07275C58.3618 7.74333 59.0063 7.57861 59.8228 7.57861H61.1064V8.13184ZM64.1143 11H63.373V5.18848H64.082L64.1143 6.4292V11ZM63.6255 7.64844C63.647 7.1722 63.7562 6.74072 63.9531 6.354C64.1501 5.9637 64.4186 5.65397 64.7588 5.4248C65.1025 5.19564 65.5 5.08105 65.9512 5.08105C66.3379 5.08105 66.6691 5.15267 66.9448 5.2959C67.2241 5.43913 67.4372 5.6665 67.584 5.97803C67.7344 6.28955 67.8096 6.69954 67.8096 7.20801V11H67.0684V7.20264C67.0684 6.83024 67.0146 6.53483 66.9072 6.31641C66.8034 6.09798 66.653 5.94401 66.4561 5.85449C66.2627 5.76139 66.0299 5.71484 65.7578 5.71484C65.4678 5.71484 65.2118 5.77751 64.9897 5.90283C64.7677 6.02816 64.5798 6.19287 64.4258 6.39697C64.2718 6.60107 64.1536 6.82308 64.0713 7.06299C63.9925 7.3029 63.9513 7.53743 63.9478 7.7666L63.6255 7.64844ZM70.1353 10.7046C70.1353 11.0304 70.0636 11.3545 69.9204 11.6768C69.7772 11.999 69.5785 12.2694 69.3242 12.4878L68.8892 12.1816C69.0037 12.0312 69.0986 11.8791 69.1738 11.7251C69.249 11.5747 69.3063 11.4172 69.3457 11.2524C69.3851 11.0877 69.4048 10.9105 69.4048 10.7207V9.94189H70.1353V10.7046ZM80.2812 11H79.5132L75.1733 4.48486V11H74.4053V3.17969H75.1733L79.5239 9.7002V3.17969H80.2812V11ZM84.3794 11.1074C83.8674 11.1074 83.4126 10.9857 83.0151 10.7422C82.6213 10.4987 82.3133 10.1639 82.0913 9.73779C81.8693 9.30811 81.7583 8.81934 81.7583 8.27148V8.03516C81.7583 7.43001 81.8747 6.90723 82.1074 6.4668C82.3402 6.02279 82.6463 5.68083 83.0259 5.44092C83.409 5.20101 83.8208 5.08105 84.2612 5.08105C84.7733 5.08105 85.2012 5.19922 85.5449 5.43555C85.8923 5.66829 86.1519 5.98877 86.3237 6.39697C86.4992 6.8016 86.5869 7.2653 86.5869 7.78809V8.19629H82.2041V7.57861H85.8457V7.50879C85.835 7.20085 85.7723 6.90902 85.6577 6.6333C85.5431 6.35758 85.3713 6.13379 85.1421 5.96191C84.9129 5.78646 84.6193 5.69873 84.2612 5.69873C83.9139 5.69873 83.6077 5.79541 83.3428 5.98877C83.0778 6.18213 82.8701 6.45426 82.7197 6.80518C82.5729 7.15609 82.4995 7.56608 82.4995 8.03516V8.27148C82.4995 8.67969 82.5783 9.05208 82.7358 9.38867C82.897 9.72526 83.1208 9.99382 83.4072 10.1943C83.6973 10.3949 84.0339 10.4951 84.417 10.4951C84.7607 10.4951 85.0615 10.4289 85.3193 10.2964C85.5807 10.1639 85.8135 9.96517 86.0176 9.7002L86.4741 10.0493C86.2879 10.3322 86.0265 10.5793 85.6899 10.7905C85.3534 11.0018 84.9165 11.1074 84.3794 11.1074ZM90.8193 5.18848H91.335L91.104 6.32178L89.6216 11H89.1167L89.396 9.72168L90.8193 5.18848ZM89.3101 9.75928L89.5249 11H89.0039L87.3174 5.18848H88.0693L89.3101 9.75928ZM94.1924 5.18848H94.9443L93.2578 11H92.7368L92.9893 9.73779L94.1924 5.18848ZM92.8442 9.67871L93.1396 11H92.6348L91.1201 6.31641L90.9053 5.18848H91.4424L92.8442 9.67871ZM101.282 7.35303L103.576 3.17969H104.451L101.669 8.06201V11H100.896V8.06201L98.1133 3.17969H99.0103L101.282 7.35303ZM104.725 8.01367C104.725 7.4515 104.833 6.9502 105.047 6.50977C105.262 6.06576 105.565 5.71663 105.955 5.4624C106.345 5.20817 106.804 5.08105 107.33 5.08105C107.864 5.08105 108.326 5.20817 108.716 5.4624C109.106 5.71663 109.407 6.06576 109.618 6.50977C109.833 6.9502 109.94 7.4515 109.94 8.01367V8.1748C109.94 8.73698 109.833 9.24007 109.618 9.68408C109.407 10.1245 109.106 10.4718 108.716 10.7261C108.329 10.9803 107.871 11.1074 107.341 11.1074C106.811 11.1074 106.349 10.9803 105.955 10.7261C105.565 10.4718 105.262 10.1245 105.047 9.68408C104.833 9.24007 104.725 8.73698 104.725 8.1748V8.01367ZM105.472 8.1748C105.472 8.58659 105.542 8.96973 105.681 9.32422C105.824 9.67513 106.034 9.95801 106.31 10.1729C106.589 10.3841 106.933 10.4897 107.341 10.4897C107.745 10.4897 108.086 10.3841 108.361 10.1729C108.637 9.95801 108.845 9.67513 108.984 9.32422C109.128 8.96973 109.199 8.58659 109.199 8.1748V8.01367C109.199 7.60547 109.128 7.22591 108.984 6.875C108.841 6.52409 108.632 6.24121 108.356 6.02637C108.08 5.80794 107.738 5.69873 107.33 5.69873C106.925 5.69873 106.585 5.80794 106.31 6.02637C106.034 6.24121 105.824 6.52409 105.681 6.875C105.542 7.22591 105.472 7.60547 105.472 8.01367V8.1748ZM111.992 11H111.251V5.18848H111.976L111.992 6.13916V11ZM113.974 5.82764C113.895 5.81331 113.822 5.80436 113.754 5.80078C113.686 5.79362 113.609 5.79004 113.523 5.79004C113.172 5.79004 112.877 5.8724 112.637 6.03711C112.4 6.19824 112.218 6.41846 112.089 6.69775C111.964 6.97705 111.892 7.29036 111.874 7.6377L111.622 7.74512C111.622 7.2474 111.69 6.79801 111.826 6.39697C111.965 5.99593 112.177 5.67725 112.459 5.44092C112.746 5.20101 113.111 5.08105 113.555 5.08105C113.63 5.08105 113.711 5.08822 113.797 5.10254C113.883 5.11686 113.945 5.13298 113.985 5.15088L113.974 5.82764ZM115.714 11H114.968V2.75H115.714V11ZM116.67 7.88477L115.435 9.09863L115.344 8.35742L116.3 7.29932L118.405 5.18848H119.329L116.67 7.88477ZM116.343 8.0459L116.746 7.40137L119.56 11H118.674L116.343 8.0459Z" fill="#999999"/>
</svg>
