<svg id="menu" width="50" height="50" viewBox="0 0 300 300" fill="none" xmlns="http://www.w3.org/2000/svg">

       <path d="M132.867 187.75H204.998" stroke="#CACACA" stroke-width="11" stroke-linecap="round"/>

       <path d="M132.867 149.895H204.998" stroke="#CACACA" stroke-width="11" stroke-linecap="round"/>

       <path d="M132.867 112.023H204.998" stroke="#CACACA" stroke-width="11" stroke-linecap="round"/>

       <path d="M106.018 198.778C112.102 198.778 117.035 193.845 117.035 187.76C117.035 181.675 112.102 176.742 106.018 176.742C99.9327 176.742 95 181.675 95 187.76C95 193.845 99.9327 198.778 106.018 198.778Z" fill="#CACACA"/>

       <path d="M106.018 160.907C112.102 160.907 117.035 155.974 117.035 149.889C117.035 143.804 112.102 138.871 106.018 138.871C99.9327 138.871 95 143.804 95 149.889C95 155.974 99.9327 160.907 106.018 160.907Z" fill="#CACACA"/>

       <path d="M106.018 123.036C112.102 123.036 117.035 118.103 117.035 112.018C117.035 105.933 112.102 101 106.018 101C99.9327 101 95 105.933 95 112.018C95 118.103 99.9327 123.036 106.018 123.036Z" fill="#CACACA"/>

       </svg>