<svg width="137" height="16" viewBox="0 0 137 16" fill="none" xmlns="http://www.w3.org/2000/svg">
<path d="M3.84352 12.2421C4.17088 12.5122 4.51229 12.7591 4.8618 13C5.21206 12.7623 5.55181 12.5094 5.88008 12.2421C6.4273 11.7928 6.9423 11.3056 7.42127 10.7841C8.52543 9.57675 9.7236 7.82651 9.7236 5.8618C9.7236 5.22334 9.59784 4.59113 9.35352 4.00127C9.10919 3.41141 8.75107 2.87545 8.29961 2.42399C7.84815 1.97253 7.31219 1.61441 6.72233 1.37008C6.13247 1.12575 5.50026 1 4.8618 1C4.22334 1 3.59113 1.12575 3.00127 1.37008C2.41141 1.61441 1.87545 1.97253 1.42399 2.42399C0.972528 2.87545 0.614411 3.41141 0.370082 4.00127C0.125754 4.59113 -9.5138e-09 5.22334 0 5.8618C0 7.82651 1.19816 9.57621 2.30233 10.7841C2.78128 11.3058 3.29628 11.7926 3.84352 12.2421ZM4.8618 7.61745C4.39617 7.61745 3.94962 7.43248 3.62037 7.10323C3.29112 6.77398 3.10615 6.32743 3.10615 5.8618C3.10615 5.39617 3.29112 4.94962 3.62037 4.62037C3.94962 4.29112 4.39617 4.10615 4.8618 4.10615C5.32743 4.10615 5.77398 4.29112 6.10323 4.62037C6.43248 4.94962 6.61745 5.39617 6.61745 5.8618C6.61745 6.32743 6.43248 6.77398 6.10323 7.10323C5.77398 7.43248 5.32743 7.61745 4.8618 7.61745Z" fill="#999999"/>
<path d="M17.9712 3.17969L20.7642 9.94189L23.5679 3.17969H24.3252L21.0596 11H20.4741L17.2085 3.17969H17.9712ZM17.6382 3.17969L17.7295 7.68066V11H16.9668V3.17969H17.6382ZM24.5723 3.17969V11H23.8096V7.68066L23.9009 3.17969H24.5723ZM26.8228 3.10449C26.9731 3.10449 27.0913 3.15104 27.1772 3.24414C27.2668 3.33366 27.3115 3.44466 27.3115 3.57715C27.3115 3.70247 27.2668 3.81169 27.1772 3.90479C27.0913 3.9943 26.9731 4.03906 26.8228 4.03906C26.6688 4.03906 26.5488 3.9943 26.4629 3.90479C26.3805 3.81169 26.3394 3.70247 26.3394 3.57715C26.3394 3.44824 26.3805 3.33724 26.4629 3.24414C26.5488 3.15104 26.6688 3.10449 26.8228 3.10449ZM27.1934 11H26.4575V5.18848H27.1934V11ZM30.9209 11.1074C30.4626 11.1074 30.0651 10.9821 29.7285 10.7314C29.3919 10.4772 29.1305 10.1281 28.9443 9.68408C28.7617 9.24007 28.6704 8.72982 28.6704 8.15332V8.04053C28.6704 7.44255 28.7617 6.92155 28.9443 6.47754C29.1305 6.03353 29.3919 5.68978 29.7285 5.44629C30.0687 5.2028 30.4697 5.08105 30.9316 5.08105C31.3936 5.08105 31.7821 5.18311 32.0972 5.38721C32.4159 5.59131 32.6683 5.87598 32.8545 6.24121C33.0443 6.60645 33.1714 7.03613 33.2358 7.53027V8.7334C33.1785 9.19889 33.0568 9.61068 32.8706 9.96875C32.688 10.3232 32.4355 10.6025 32.1133 10.8066C31.791 11.0072 31.3936 11.1074 30.9209 11.1074ZM31.0713 10.4683C31.4294 10.4683 31.7284 10.3984 31.9683 10.2588C32.2082 10.1191 32.3997 9.93294 32.543 9.7002C32.6898 9.46387 32.7972 9.20785 32.8652 8.93213V7.3584C32.8258 7.16862 32.765 6.97705 32.6826 6.78369C32.6003 6.59033 32.4893 6.41309 32.3496 6.25195C32.2135 6.09082 32.0417 5.96191 31.834 5.86523C31.6263 5.76497 31.3757 5.71484 31.082 5.71484C30.6989 5.71484 30.3838 5.81868 30.1367 6.02637C29.8896 6.23047 29.707 6.50977 29.5889 6.86426C29.4743 7.21517 29.417 7.60726 29.417 8.04053V8.15332C29.417 8.58659 29.4743 8.97868 29.5889 9.32959C29.707 9.67692 29.8879 9.95443 30.1313 10.1621C30.3784 10.3662 30.6917 10.4683 31.0713 10.4683ZM32.7256 11L32.6665 9.87207V2.75H33.4131V11H32.7256ZM37.334 5.77393H34.3584V5.18848H37.334V5.77393ZM36.1631 3.7168V9.57666C36.1631 9.83089 36.1971 10.0225 36.2651 10.1514C36.3332 10.2767 36.4227 10.3608 36.5337 10.4038C36.6447 10.4432 36.7629 10.4629 36.8882 10.4629C36.9813 10.4629 37.0726 10.4575 37.1621 10.4468C37.2516 10.4325 37.3286 10.4199 37.3931 10.4092L37.4092 11.0161C37.3304 11.0412 37.2284 11.0627 37.103 11.0806C36.9777 11.0985 36.8452 11.1074 36.7056 11.1074C36.4621 11.1074 36.2419 11.0609 36.0449 10.9678C35.8516 10.8747 35.6994 10.7171 35.5884 10.4951C35.4774 10.2695 35.4219 9.96338 35.4219 9.57666V3.7168H36.1631ZM38.1558 8.01367C38.1558 7.4515 38.2632 6.9502 38.478 6.50977C38.6929 6.06576 38.9954 5.71663 39.3857 5.4624C39.776 5.20817 40.2344 5.08105 40.7607 5.08105C41.2943 5.08105 41.7562 5.20817 42.1465 5.4624C42.5368 5.71663 42.8376 6.06576 43.0488 6.50977C43.2637 6.9502 43.3711 7.4515 43.3711 8.01367V8.1748C43.3711 8.73698 43.2637 9.24007 43.0488 9.68408C42.8376 10.1245 42.5368 10.4718 42.1465 10.7261C41.7598 10.9803 41.3014 11.1074 40.7715 11.1074C40.2415 11.1074 39.7796 10.9803 39.3857 10.7261C38.9954 10.4718 38.6929 10.1245 38.478 9.68408C38.2632 9.24007 38.1558 8.73698 38.1558 8.1748V8.01367ZM38.9023 8.1748C38.9023 8.58659 38.9722 8.96973 39.1118 9.32422C39.255 9.67513 39.4645 9.95801 39.7402 10.1729C40.0195 10.3841 40.3633 10.4897 40.7715 10.4897C41.1761 10.4897 41.5163 10.3841 41.792 10.1729C42.0677 9.95801 42.2754 9.67513 42.415 9.32422C42.5583 8.96973 42.6299 8.58659 42.6299 8.1748V8.01367C42.6299 7.60547 42.5583 7.22591 42.415 6.875C42.2718 6.52409 42.0623 6.24121 41.7866 6.02637C41.5109 5.80794 41.1689 5.69873 40.7607 5.69873C40.3561 5.69873 40.016 5.80794 39.7402 6.02637C39.4645 6.24121 39.255 6.52409 39.1118 6.875C38.9722 7.22591 38.9023 7.60547 38.9023 8.01367V8.1748ZM47.6787 5.18848H48.1943L47.9634 6.32178L46.481 11H45.9761L46.2554 9.72168L47.6787 5.18848ZM46.1694 9.75928L46.3843 11H45.8633L44.1768 5.18848H44.9287L46.1694 9.75928ZM51.0518 5.18848H51.8037L50.1172 11H49.5962L49.8486 9.73779L51.0518 5.18848ZM49.7036 9.67871L49.999 11H49.4941L47.9795 6.31641L47.7646 5.18848H48.3018L49.7036 9.67871ZM53.7158 11H52.9746V5.18848H53.6836L53.7158 6.4292V11ZM53.2271 7.64844C53.2485 7.1722 53.3577 6.74072 53.5547 6.354C53.7516 5.9637 54.0202 5.65397 54.3604 5.4248C54.7041 5.19564 55.1016 5.08105 55.5527 5.08105C55.9395 5.08105 56.2707 5.15267 56.5464 5.2959C56.8257 5.43913 57.0387 5.6665 57.1855 5.97803C57.3359 6.28955 57.4111 6.69954 57.4111 7.20801V11H56.6699V7.20264C56.6699 6.83024 56.6162 6.53483 56.5088 6.31641C56.4049 6.09798 56.2546 5.94401 56.0576 5.85449C55.8643 5.76139 55.6315 5.71484 55.3594 5.71484C55.0693 5.71484 54.8133 5.77751 54.5913 5.90283C54.3693 6.02816 54.1813 6.19287 54.0273 6.39697C53.8734 6.60107 53.7552 6.82308 53.6729 7.06299C53.5941 7.3029 53.5529 7.53743 53.5493 7.7666L53.2271 7.64844ZM65.543 3.17969H66.1392L65.7041 4.99512L63.937 11H63.3516L63.8833 8.85693L65.543 3.17969ZM63.3945 8.79248L63.8027 11H63.2119L61.2407 3.17969H62.0195L63.3945 8.79248ZM69.6948 3.17969H70.4736L68.5078 11H67.917L68.3413 8.78711L69.6948 3.17969ZM67.8418 8.85693L68.3628 11H67.7827L66.0532 4.99512L65.6235 3.17969H66.2144L67.8418 8.85693ZM73.8628 11.1074C73.3507 11.1074 72.896 10.9857 72.4985 10.7422C72.1047 10.4987 71.7967 10.1639 71.5747 9.73779C71.3527 9.30811 71.2417 8.81934 71.2417 8.27148V8.03516C71.2417 7.43001 71.3581 6.90723 71.5908 6.4668C71.8236 6.02279 72.1297 5.68083 72.5093 5.44092C72.8924 5.20101 73.3042 5.08105 73.7446 5.08105C74.2567 5.08105 74.6846 5.19922 75.0283 5.43555C75.3757 5.66829 75.6353 5.98877 75.8071 6.39697C75.9826 6.8016 76.0703 7.2653 76.0703 7.78809V8.19629H71.6875V7.57861H75.3291V7.50879C75.3184 7.20085 75.2557 6.90902 75.1411 6.6333C75.0265 6.35758 74.8547 6.13379 74.6255 5.96191C74.3963 5.78646 74.1027 5.69873 73.7446 5.69873C73.3973 5.69873 73.0911 5.79541 72.8262 5.98877C72.5612 6.18213 72.3535 6.45426 72.2031 6.80518C72.0563 7.15609 71.9829 7.56608 71.9829 8.03516V8.27148C71.9829 8.67969 72.0617 9.05208 72.2192 9.38867C72.3804 9.72526 72.6042 9.99382 72.8906 10.1943C73.1807 10.3949 73.5173 10.4951 73.9004 10.4951C74.2441 10.4951 74.5449 10.4289 74.8027 10.2964C75.0641 10.1639 75.2969 9.96517 75.501 9.7002L75.9575 10.0493C75.7713 10.3322 75.5099 10.5793 75.1733 10.7905C74.8368 11.0018 74.3999 11.1074 73.8628 11.1074ZM79.3306 11.1074C78.8328 11.1074 78.4121 11.0233 78.0684 10.855C77.7246 10.6867 77.465 10.4665 77.2896 10.1943C77.1141 9.9222 77.0264 9.63216 77.0264 9.32422H77.7676C77.7891 9.61784 77.8804 9.85059 78.0415 10.0225C78.2026 10.1908 78.3996 10.3107 78.6323 10.3823C78.8651 10.4539 79.0978 10.4897 79.3306 10.4897C79.6421 10.4897 79.9035 10.445 80.1147 10.3555C80.3296 10.2624 80.4907 10.1406 80.5981 9.99023C80.7056 9.83984 80.7593 9.67692 80.7593 9.50146C80.7593 9.34749 80.7217 9.19889 80.6465 9.05566C80.5713 8.90885 80.4263 8.77458 80.2114 8.65283C80.0002 8.53109 79.6851 8.42546 79.2661 8.33594C78.8364 8.24642 78.4676 8.13542 78.1597 8.00293C77.8553 7.86686 77.6226 7.69499 77.4614 7.4873C77.3003 7.27604 77.2197 7.01107 77.2197 6.69238C77.2197 6.39876 77.3039 6.13021 77.4722 5.88672C77.644 5.64323 77.8857 5.44808 78.1973 5.30127C78.5088 5.15446 78.8758 5.08105 79.2983 5.08105C79.7495 5.08105 80.1362 5.15804 80.4585 5.31201C80.7843 5.46598 81.0332 5.67546 81.2051 5.94043C81.377 6.2054 81.4629 6.50439 81.4629 6.8374H80.7217C80.7217 6.55094 80.5981 6.28955 80.3511 6.05322C80.1076 5.81689 79.7567 5.69873 79.2983 5.69873C78.9832 5.69873 78.7272 5.74707 78.5303 5.84375C78.3333 5.94043 78.1883 6.06396 78.0952 6.21436C78.0057 6.36117 77.9609 6.51335 77.9609 6.6709C77.9609 6.83203 77.9985 6.97705 78.0737 7.10596C78.1525 7.23128 78.2975 7.34408 78.5088 7.44434C78.7236 7.5446 79.0387 7.64128 79.4541 7.73438C79.9268 7.8418 80.3135 7.9707 80.6143 8.12109C80.915 8.2679 81.1388 8.45052 81.2856 8.66895C81.4325 8.88379 81.5059 9.14697 81.5059 9.4585C81.5059 9.78076 81.4163 10.0672 81.2373 10.3179C81.0583 10.5649 80.8058 10.7583 80.48 10.8979C80.1541 11.0376 79.771 11.1074 79.3306 11.1074ZM85.1797 5.77393H82.2041V5.18848H85.1797V5.77393ZM84.0088 3.7168V9.57666C84.0088 9.83089 84.0428 10.0225 84.1108 10.1514C84.1789 10.2767 84.2684 10.3608 84.3794 10.4038C84.4904 10.4432 84.6086 10.4629 84.7339 10.4629C84.827 10.4629 84.9183 10.4575 85.0078 10.4468C85.0973 10.4325 85.1743 10.4199 85.2388 10.4092L85.2549 11.0161C85.1761 11.0412 85.0741 11.0627 84.9487 11.0806C84.8234 11.0985 84.6909 11.1074 84.5513 11.1074C84.3078 11.1074 84.0876 11.0609 83.8906 10.9678C83.6973 10.8747 83.5451 10.7171 83.4341 10.4951C83.3231 10.2695 83.2676 9.96338 83.2676 9.57666V3.7168H84.0088ZM87.1724 10.7046C87.1724 11.0304 87.1007 11.3545 86.9575 11.6768C86.8143 11.999 86.6156 12.2694 86.3613 12.4878L85.9263 12.1816C86.0409 12.0312 86.1357 11.8791 86.2109 11.7251C86.2861 11.5747 86.3434 11.4172 86.3828 11.2524C86.4222 11.0877 86.4419 10.9105 86.4419 10.7207V9.94189H87.1724V10.7046ZM97.3184 11H96.5503L92.2104 4.48486V11H91.4424V3.17969H92.2104L96.561 9.7002V3.17969H97.3184V11ZM101.417 11.1074C100.904 11.1074 100.45 10.9857 100.052 10.7422C99.6584 10.4987 99.3504 10.1639 99.1284 9.73779C98.9064 9.30811 98.7954 8.81934 98.7954 8.27148V8.03516C98.7954 7.43001 98.9118 6.90723 99.1445 6.4668C99.3773 6.02279 99.6834 5.68083 100.063 5.44092C100.446 5.20101 100.858 5.08105 101.298 5.08105C101.81 5.08105 102.238 5.19922 102.582 5.43555C102.929 5.66829 103.189 5.98877 103.361 6.39697C103.536 6.8016 103.624 7.2653 103.624 7.78809V8.19629H99.2412V7.57861H102.883V7.50879C102.872 7.20085 102.809 6.90902 102.695 6.6333C102.58 6.35758 102.408 6.13379 102.179 5.96191C101.95 5.78646 101.656 5.69873 101.298 5.69873C100.951 5.69873 100.645 5.79541 100.38 5.98877C100.115 6.18213 99.9072 6.45426 99.7568 6.80518C99.61 7.15609 99.5366 7.56608 99.5366 8.03516V8.27148C99.5366 8.67969 99.6154 9.05208 99.7729 9.38867C99.9341 9.72526 100.158 9.99382 100.444 10.1943C100.734 10.3949 101.071 10.4951 101.454 10.4951C101.798 10.4951 102.099 10.4289 102.356 10.2964C102.618 10.1639 102.851 9.96517 103.055 9.7002L103.511 10.0493C103.325 10.3322 103.064 10.5793 102.727 10.7905C102.39 11.0018 101.954 11.1074 101.417 11.1074ZM107.856 5.18848H108.372L108.141 6.32178L106.659 11H106.154L106.433 9.72168L107.856 5.18848ZM106.347 9.75928L106.562 11H106.041L104.354 5.18848H105.106L106.347 9.75928ZM111.229 5.18848H111.981L110.295 11H109.774L110.026 9.73779L111.229 5.18848ZM109.881 9.67871L110.177 11H109.672L108.157 6.31641L107.942 5.18848H108.479L109.881 9.67871ZM118.319 7.35303L120.613 3.17969H121.488L118.706 8.06201V11H117.933V8.06201L115.15 3.17969H116.047L118.319 7.35303ZM121.762 8.01367C121.762 7.4515 121.87 6.9502 122.084 6.50977C122.299 6.06576 122.602 5.71663 122.992 5.4624C123.382 5.20817 123.841 5.08105 124.367 5.08105C124.901 5.08105 125.363 5.20817 125.753 5.4624C126.143 5.71663 126.444 6.06576 126.655 6.50977C126.87 6.9502 126.978 7.4515 126.978 8.01367V8.1748C126.978 8.73698 126.87 9.24007 126.655 9.68408C126.444 10.1245 126.143 10.4718 125.753 10.7261C125.366 10.9803 124.908 11.1074 124.378 11.1074C123.848 11.1074 123.386 10.9803 122.992 10.7261C122.602 10.4718 122.299 10.1245 122.084 9.68408C121.87 9.24007 121.762 8.73698 121.762 8.1748V8.01367ZM122.509 8.1748C122.509 8.58659 122.579 8.96973 122.718 9.32422C122.861 9.67513 123.071 9.95801 123.347 10.1729C123.626 10.3841 123.97 10.4897 124.378 10.4897C124.783 10.4897 125.123 10.3841 125.398 10.1729C125.674 9.95801 125.882 9.67513 126.021 9.32422C126.165 8.96973 126.236 8.58659 126.236 8.1748V8.01367C126.236 7.60547 126.165 7.22591 126.021 6.875C125.878 6.52409 125.669 6.24121 125.393 6.02637C125.117 5.80794 124.775 5.69873 124.367 5.69873C123.963 5.69873 123.622 5.80794 123.347 6.02637C123.071 6.24121 122.861 6.52409 122.718 6.875C122.579 7.22591 122.509 7.60547 122.509 8.01367V8.1748ZM129.029 11H128.288V5.18848H129.013L129.029 6.13916V11ZM131.011 5.82764C130.932 5.81331 130.859 5.80436 130.791 5.80078C130.723 5.79362 130.646 5.79004 130.56 5.79004C130.209 5.79004 129.914 5.8724 129.674 6.03711C129.438 6.19824 129.255 6.41846 129.126 6.69775C129.001 6.97705 128.929 7.29036 128.911 7.6377L128.659 7.74512C128.659 7.2474 128.727 6.79801 128.863 6.39697C129.002 5.99593 129.214 5.67725 129.497 5.44092C129.783 5.20101 130.148 5.08105 130.592 5.08105C130.667 5.08105 130.748 5.08822 130.834 5.10254C130.92 5.11686 130.983 5.13298 131.022 5.15088L131.011 5.82764ZM132.751 11H132.005V2.75H132.751V11ZM133.708 7.88477L132.472 9.09863L132.381 8.35742L133.337 7.29932L135.442 5.18848H136.366L133.708 7.88477ZM133.38 8.0459L133.783 7.40137L136.597 11H135.711L133.38 8.0459Z" fill="#999999"/>
</svg>
