<svg width="99" height="51" viewBox="0 0 99 51" fill="none" xmlns="http://www.w3.org/2000/svg">
<path d="M9.493 1.234C10.373 1.234 11.0587 1.487 11.55 1.993C12.0413 2.499 12.287 3.23233 12.287 4.193V9H11.484V4.215C11.484 3.467 11.2933 2.906 10.912 2.532C10.538 2.15067 10.0247 1.96 9.372 1.96C8.68267 1.96 8.14367 2.16167 7.755 2.565C7.36633 2.961 7.172 3.56967 7.172 4.391V9H6.369V4.215C6.369 3.467 6.18567 2.906 5.819 2.532C5.45233 2.15067 4.94267 1.96 4.29 1.96C3.59333 1.96 3.047 2.16167 2.651 2.565C2.26233 2.961 2.068 3.56967 2.068 4.391V9H1.254V1.3H2.035V2.587C2.24767 2.147 2.563 1.81333 2.981 1.586C3.399 1.35133 3.894 1.234 4.466 1.234C5.06733 1.234 5.58067 1.36233 6.006 1.619C6.43867 1.86833 6.75033 2.22033 6.941 2.675C7.161 2.20567 7.491 1.85 7.931 1.608C8.37833 1.35867 8.899 1.234 9.493 1.234ZM14.5704 3.214H15.3514V9H14.5704V3.214ZM14.9664 1.949C14.8051 1.949 14.6694 1.894 14.5594 1.784C14.4494 1.674 14.3944 1.542 14.3944 1.388C14.3944 1.24133 14.4494 1.113 14.5594 1.003C14.6694 0.892999 14.8051 0.838 14.9664 0.838C15.1278 0.838 15.2634 0.892999 15.3734 1.003C15.4834 1.10567 15.5384 1.23033 15.5384 1.377C15.5384 1.53833 15.4834 1.674 15.3734 1.784C15.2634 1.894 15.1278 1.949 14.9664 1.949ZM20.4725 3.17C21.1985 3.17 21.7742 3.38267 22.1995 3.808C22.6322 4.226 22.8485 4.83833 22.8485 5.645V9H22.0675V5.722C22.0675 5.12067 21.9172 4.66233 21.6165 4.347C21.3159 4.03167 20.8869 3.874 20.3295 3.874C19.7062 3.874 19.2112 4.061 18.8445 4.435C18.4852 4.80167 18.3055 5.31133 18.3055 5.964V9H17.5245V3.214H18.2725V4.281C18.4852 3.929 18.7785 3.65767 19.1525 3.467C19.5339 3.269 19.9739 3.17 20.4725 3.17ZM27.8179 8.648C27.6712 8.78 27.4915 8.88267 27.2789 8.956C27.0662 9.022 26.8425 9.055 26.6079 9.055C26.0652 9.055 25.6472 8.90833 25.3539 8.615C25.0605 8.32167 24.9139 7.90733 24.9139 7.372V1.949H25.6949V3.214H27.4439V3.874H25.6949V7.328C25.6949 7.67267 25.7792 7.93667 25.9479 8.12C26.1165 8.296 26.3622 8.384 26.6849 8.384C27.0369 8.384 27.3229 8.285 27.5429 8.087L27.8179 8.648ZM32.1124 3.214H32.8934V9H32.1124V3.214ZM32.5084 1.949C32.3471 1.949 32.2114 1.894 32.1014 1.784C31.9914 1.674 31.9364 1.542 31.9364 1.388C31.9364 1.24133 31.9914 1.113 32.1014 1.003C32.2114 0.892999 32.3471 0.838 32.5084 0.838C32.6698 0.838 32.8054 0.892999 32.9154 1.003C33.0254 1.10567 33.0804 1.23033 33.0804 1.377C33.0804 1.53833 33.0254 1.674 32.9154 1.784C32.8054 1.894 32.6698 1.949 32.5084 1.949ZM37.4645 9.055C36.8925 9.055 36.3792 8.93033 35.9245 8.681C35.4772 8.43167 35.1252 8.08333 34.8685 7.636C34.6119 7.18133 34.4835 6.67167 34.4835 6.107C34.4835 5.54233 34.6119 5.03633 34.8685 4.589C35.1252 4.14167 35.4772 3.79333 35.9245 3.544C36.3792 3.29467 36.8925 3.17 37.4645 3.17C37.9632 3.17 38.4069 3.269 38.7955 3.467C39.1915 3.65767 39.5032 3.94 39.7305 4.314L39.1475 4.71C38.9569 4.424 38.7149 4.21133 38.4215 4.072C38.1282 3.92533 37.8092 3.852 37.4645 3.852C37.0465 3.852 36.6689 3.94733 36.3315 4.138C36.0015 4.32133 35.7412 4.58533 35.5505 4.93C35.3672 5.27467 35.2755 5.667 35.2755 6.107C35.2755 6.55433 35.3672 6.95033 35.5505 7.295C35.7412 7.63233 36.0015 7.89633 36.3315 8.087C36.6689 8.27033 37.0465 8.362 37.4645 8.362C37.8092 8.362 38.1282 8.29233 38.4215 8.153C38.7149 8.01367 38.9569 7.801 39.1475 7.515L39.7305 7.911C39.5032 8.285 39.1915 8.571 38.7955 8.769C38.3995 8.95967 37.9559 9.055 37.4645 9.055ZM43.6431 8.362C44.0024 8.362 44.3324 8.29967 44.6331 8.175C44.9411 8.043 45.2014 7.85233 45.4141 7.603L45.8541 8.109C45.5974 8.417 45.2784 8.65167 44.8971 8.813C44.5158 8.97433 44.0941 9.055 43.6321 9.055C43.0381 9.055 42.5101 8.93033 42.0481 8.681C41.5861 8.42433 41.2268 8.07233 40.9701 7.625C40.7134 7.17767 40.5851 6.67167 40.5851 6.107C40.5851 5.54233 40.7061 5.03633 40.9481 4.589C41.1974 4.14167 41.5384 3.79333 41.9711 3.544C42.4038 3.29467 42.8951 3.17 43.4451 3.17C43.9584 3.17 44.4204 3.28733 44.8311 3.522C45.2491 3.75667 45.5791 4.083 45.8211 4.501C46.0704 4.919 46.2024 5.39567 46.2171 5.931L41.4651 6.855C41.6118 7.32433 41.8758 7.69467 42.2571 7.966C42.6458 8.23 43.1078 8.362 43.6431 8.362ZM43.4451 3.841C43.0418 3.841 42.6788 3.93633 42.3561 4.127C42.0408 4.31033 41.7914 4.57067 41.6081 4.908C41.4321 5.238 41.3441 5.61933 41.3441 6.052C41.3441 6.162 41.3478 6.24267 41.3551 6.294L45.4361 5.502C45.3481 5.018 45.1244 4.622 44.7651 4.314C44.4058 3.99867 43.9658 3.841 43.4451 3.841ZM53.0837 9.055C52.5117 9.055 51.9983 8.93033 51.5437 8.681C51.0963 8.43167 50.7443 8.08333 50.4877 7.636C50.231 7.18133 50.1027 6.67167 50.1027 6.107C50.1027 5.54233 50.231 5.03633 50.4877 4.589C50.7443 4.14167 51.0963 3.79333 51.5437 3.544C51.9983 3.29467 52.5117 3.17 53.0837 3.17C53.5823 3.17 54.026 3.269 54.4147 3.467C54.8107 3.65767 55.1223 3.94 55.3497 4.314L54.7667 4.71C54.576 4.424 54.334 4.21133 54.0407 4.072C53.7473 3.92533 53.4283 3.852 53.0837 3.852C52.6657 3.852 52.288 3.94733 51.9507 4.138C51.6207 4.32133 51.3603 4.58533 51.1697 4.93C50.9863 5.27467 50.8947 5.667 50.8947 6.107C50.8947 6.55433 50.9863 6.95033 51.1697 7.295C51.3603 7.63233 51.6207 7.89633 51.9507 8.087C52.288 8.27033 52.6657 8.362 53.0837 8.362C53.4283 8.362 53.7473 8.29233 54.0407 8.153C54.334 8.01367 54.576 7.801 54.7667 7.515L55.3497 7.911C55.1223 8.285 54.8107 8.571 54.4147 8.769C54.0187 8.95967 53.575 9.055 53.0837 9.055ZM57.6319 4.347C57.8153 3.95833 58.0866 3.665 58.4459 3.467C58.8126 3.269 59.2636 3.17 59.7989 3.17V3.929L59.6119 3.918C59.0033 3.918 58.5266 4.105 58.1819 4.479C57.8373 4.853 57.6649 5.37733 57.6649 6.052V9H56.8839V3.214H57.6319V4.347ZM63.6343 8.362C63.9936 8.362 64.3236 8.29967 64.6243 8.175C64.9323 8.043 65.1926 7.85233 65.4053 7.603L65.8453 8.109C65.5886 8.417 65.2696 8.65167 64.8883 8.813C64.507 8.97433 64.0853 9.055 63.6233 9.055C63.0293 9.055 62.5013 8.93033 62.0393 8.681C61.5773 8.42433 61.218 8.07233 60.9613 7.625C60.7046 7.17767 60.5763 6.67167 60.5763 6.107C60.5763 5.54233 60.6973 5.03633 60.9393 4.589C61.1886 4.14167 61.5296 3.79333 61.9623 3.544C62.395 3.29467 62.8863 3.17 63.4363 3.17C63.9496 3.17 64.4116 3.28733 64.8223 3.522C65.2403 3.75667 65.5703 4.083 65.8123 4.501C66.0616 4.919 66.1936 5.39567 66.2083 5.931L61.4563 6.855C61.603 7.32433 61.867 7.69467 62.2483 7.966C62.637 8.23 63.099 8.362 63.6343 8.362ZM63.4363 3.841C63.033 3.841 62.67 3.93633 62.3473 4.127C62.032 4.31033 61.7826 4.57067 61.5993 4.908C61.4233 5.238 61.3353 5.61933 61.3353 6.052C61.3353 6.162 61.339 6.24267 61.3463 6.294L65.4273 5.502C65.3393 5.018 65.1156 4.622 64.7563 4.314C64.397 3.99867 63.957 3.841 63.4363 3.841ZM73.078 3.214V9H72.33V7.856C72.0953 8.24467 71.7837 8.54167 71.395 8.747C71.0137 8.95233 70.581 9.055 70.097 9.055C69.5543 9.055 69.063 8.93033 68.623 8.681C68.183 8.43167 67.8383 8.08333 67.589 7.636C67.3397 7.18867 67.215 6.679 67.215 6.107C67.215 5.535 67.3397 5.02533 67.589 4.578C67.8383 4.13067 68.183 3.786 68.623 3.544C69.063 3.29467 69.5543 3.17 70.097 3.17C70.5663 3.17 70.988 3.269 71.362 3.467C71.7433 3.65767 72.055 3.94 72.297 4.314V3.214H73.078ZM70.163 8.362C70.5663 8.362 70.9293 8.27033 71.252 8.087C71.582 7.89633 71.8387 7.62867 72.022 7.284C72.2127 6.93933 72.308 6.547 72.308 6.107C72.308 5.667 72.2127 5.27467 72.022 4.93C71.8387 4.58533 71.582 4.32133 71.252 4.138C70.9293 3.94733 70.5663 3.852 70.163 3.852C69.7523 3.852 69.382 3.94733 69.052 4.138C68.7293 4.32133 68.4727 4.58533 68.282 4.93C68.0987 5.27467 68.007 5.667 68.007 6.107C68.007 6.547 68.0987 6.93933 68.282 7.284C68.4727 7.62867 68.7293 7.89633 69.052 8.087C69.382 8.27033 69.7523 8.362 70.163 8.362ZM82.4691 3.17C83.1951 3.17 83.7634 3.379 84.1741 3.797C84.5921 4.215 84.8011 4.831 84.8011 5.645V9H84.0201V5.722C84.0201 5.12067 83.8734 4.66233 83.5801 4.347C83.2941 4.03167 82.8871 3.874 82.3591 3.874C81.7577 3.874 81.2847 4.061 80.9401 4.435C80.5954 4.80167 80.4231 5.31133 80.4231 5.964V9H79.6421V5.722C79.6421 5.12067 79.4954 4.66233 79.2021 4.347C78.9161 4.03167 78.5054 3.874 77.9701 3.874C77.3761 3.874 76.9031 4.061 76.5511 4.435C76.2064 4.80167 76.0341 5.31133 76.0341 5.964V9H75.2531V3.214H76.0011V4.27C76.2064 3.918 76.4924 3.64667 76.8591 3.456C77.2257 3.26533 77.6474 3.17 78.1241 3.17C78.6081 3.17 79.0261 3.27267 79.3781 3.478C79.7374 3.68333 80.0051 3.98767 80.1811 4.391C80.3937 4.00967 80.6981 3.71267 81.0941 3.5C81.4974 3.28 81.9557 3.17 82.4691 3.17ZM3.938 21.648C3.79133 21.78 3.61167 21.8827 3.399 21.956C3.18633 22.022 2.96267 22.055 2.728 22.055C2.18533 22.055 1.76733 21.9083 1.474 21.615C1.18067 21.3217 1.034 20.9073 1.034 20.372V14.949H1.815V16.214H3.564V16.874H1.815V20.328C1.815 20.6727 1.89933 20.9367 2.068 21.12C2.23667 21.296 2.48233 21.384 2.805 21.384C3.157 21.384 3.443 21.285 3.663 21.087L3.938 21.648ZM7.51455 22.055C6.95721 22.055 6.45488 21.9303 6.00755 21.681C5.56021 21.4243 5.20821 21.0723 4.95155 20.625C4.69488 20.1777 4.56655 19.6717 4.56655 19.107C4.56655 18.5423 4.69488 18.0363 4.95155 17.589C5.20821 17.1417 5.56021 16.7933 6.00755 16.544C6.45488 16.2947 6.95721 16.17 7.51455 16.17C8.07188 16.17 8.57421 16.2947 9.02155 16.544C9.46888 16.7933 9.81721 17.1417 10.0665 17.589C10.3232 18.0363 10.4515 18.5423 10.4515 19.107C10.4515 19.6717 10.3232 20.1777 10.0665 20.625C9.81721 21.0723 9.46888 21.4243 9.02155 21.681C8.57421 21.9303 8.07188 22.055 7.51455 22.055ZM7.51455 21.362C7.92521 21.362 8.29188 21.2703 8.61455 21.087C8.94455 20.8963 9.20121 20.6287 9.38455 20.284C9.56788 19.9393 9.65955 19.547 9.65955 19.107C9.65955 18.667 9.56788 18.2747 9.38455 17.93C9.20121 17.5853 8.94455 17.3213 8.61455 17.138C8.29188 16.9473 7.92521 16.852 7.51455 16.852C7.10388 16.852 6.73355 16.9473 6.40355 17.138C6.08088 17.3213 5.82421 17.5853 5.63355 17.93C5.45021 18.2747 5.35855 18.667 5.35855 19.107C5.35855 19.547 5.45021 19.9393 5.63355 20.284C5.82421 20.6287 6.08088 20.8963 6.40355 21.087C6.73355 21.2703 7.10388 21.362 7.51455 21.362ZM15.027 16.17C15.5697 16.17 16.061 16.2947 16.501 16.544C16.941 16.786 17.2857 17.1307 17.535 17.578C17.7844 18.0253 17.909 18.535 17.909 19.107C17.909 19.6863 17.7844 20.1997 17.535 20.647C17.2857 21.0943 16.941 21.4427 16.501 21.692C16.0684 21.934 15.577 22.055 15.027 22.055C14.5577 22.055 14.1324 21.9597 13.751 21.769C13.377 21.571 13.069 21.285 12.827 20.911V24.134H12.046V16.214H12.794V17.358C13.0287 16.9767 13.3367 16.6833 13.718 16.478C14.1067 16.2727 14.543 16.17 15.027 16.17ZM14.972 21.362C15.3754 21.362 15.742 21.2703 16.072 21.087C16.402 20.8963 16.6587 20.6287 16.842 20.284C17.0327 19.9393 17.128 19.547 17.128 19.107C17.128 18.667 17.0327 18.2783 16.842 17.941C16.6587 17.5963 16.402 17.3287 16.072 17.138C15.742 16.9473 15.3754 16.852 14.972 16.852C14.5614 16.852 14.191 16.9473 13.861 17.138C13.5384 17.3287 13.2817 17.5963 13.091 17.941C12.9077 18.2783 12.816 18.667 12.816 19.107C12.816 19.547 12.9077 19.9393 13.091 20.284C13.2817 20.6287 13.5384 20.8963 13.861 21.087C14.191 21.2703 14.5614 21.362 14.972 21.362ZM22.4821 16.17C23.0248 16.17 23.5161 16.2947 23.9561 16.544C24.3961 16.786 24.7408 17.1307 24.9901 17.578C25.2394 18.0253 25.3641 18.535 25.3641 19.107C25.3641 19.6863 25.2394 20.1997 24.9901 20.647C24.7408 21.0943 24.3961 21.4427 23.9561 21.692C23.5234 21.934 23.0321 22.055 22.4821 22.055C22.0128 22.055 21.5874 21.9597 21.2061 21.769C20.8321 21.571 20.5241 21.285 20.2821 20.911V24.134H19.5011V16.214H20.2491V17.358C20.4838 16.9767 20.7918 16.6833 21.1731 16.478C21.5618 16.2727 21.9981 16.17 22.4821 16.17ZM22.4271 21.362C22.8304 21.362 23.1971 21.2703 23.5271 21.087C23.8571 20.8963 24.1138 20.6287 24.2971 20.284C24.4878 19.9393 24.5831 19.547 24.5831 19.107C24.5831 18.667 24.4878 18.2783 24.2971 17.941C24.1138 17.5963 23.8571 17.3287 23.5271 17.138C23.1971 16.9473 22.8304 16.852 22.4271 16.852C22.0164 16.852 21.6461 16.9473 21.3161 17.138C20.9934 17.3287 20.7368 17.5963 20.5461 17.941C20.3628 18.2783 20.2711 18.667 20.2711 19.107C20.2711 19.547 20.3628 19.9393 20.5461 20.284C20.7368 20.6287 20.9934 20.8963 21.3161 21.087C21.6461 21.2703 22.0164 21.362 22.4271 21.362ZM29.4312 21.362C29.7905 21.362 30.1205 21.2997 30.4212 21.175C30.7292 21.043 30.9895 20.8523 31.2022 20.603L31.6422 21.109C31.3855 21.417 31.0665 21.6517 30.6852 21.813C30.3039 21.9743 29.8822 22.055 29.4202 22.055C28.8262 22.055 28.2982 21.9303 27.8362 21.681C27.3742 21.4243 27.0149 21.0723 26.7582 20.625C26.5015 20.1777 26.3732 19.6717 26.3732 19.107C26.3732 18.5423 26.4942 18.0363 26.7362 17.589C26.9855 17.1417 27.3265 16.7933 27.7592 16.544C28.1919 16.2947 28.6832 16.17 29.2332 16.17C29.7465 16.17 30.2085 16.2873 30.6192 16.522C31.0372 16.7567 31.3672 17.083 31.6092 17.501C31.8585 17.919 31.9905 18.3957 32.0052 18.931L27.2532 19.855C27.3999 20.3243 27.6639 20.6947 28.0452 20.966C28.4339 21.23 28.8959 21.362 29.4312 21.362ZM29.2332 16.841C28.8299 16.841 28.4669 16.9363 28.1442 17.127C27.8289 17.3103 27.5795 17.5707 27.3962 17.908C27.2202 18.238 27.1322 18.6193 27.1322 19.052C27.1322 19.162 27.1359 19.2427 27.1432 19.294L31.2242 18.502C31.1362 18.018 30.9125 17.622 30.5532 17.314C30.1939 16.9987 29.7539 16.841 29.2332 16.841ZM38.8749 13.838V22H38.1269V20.856C37.8922 21.2447 37.5805 21.5417 37.1919 21.747C36.8105 21.9523 36.3779 22.055 35.8939 22.055C35.3512 22.055 34.8599 21.9303 34.4199 21.681C33.9799 21.4317 33.6352 21.0833 33.3859 20.636C33.1365 20.1887 33.0119 19.679 33.0119 19.107C33.0119 18.535 33.1365 18.0253 33.3859 17.578C33.6352 17.1307 33.9799 16.786 34.4199 16.544C34.8599 16.2947 35.3512 16.17 35.8939 16.17C36.3632 16.17 36.7849 16.269 37.1589 16.467C37.5402 16.6577 37.8519 16.94 38.0939 17.314V13.838H38.8749ZM35.9599 21.362C36.3632 21.362 36.7262 21.2703 37.0489 21.087C37.3789 20.8963 37.6355 20.6287 37.8189 20.284C38.0095 19.9393 38.1049 19.547 38.1049 19.107C38.1049 18.667 38.0095 18.2747 37.8189 17.93C37.6355 17.5853 37.3789 17.3213 37.0489 17.138C36.7262 16.9473 36.3632 16.852 35.9599 16.852C35.5492 16.852 35.1789 16.9473 34.8489 17.138C34.5262 17.3213 34.2695 17.5853 34.0789 17.93C33.8955 18.2747 33.8039 18.667 33.8039 19.107C33.8039 19.547 33.8955 19.9393 34.0789 20.284C34.2695 20.6287 34.5262 20.8963 34.8489 21.087C35.1789 21.2703 35.5492 21.362 35.9599 21.362ZM52.8498 16.214V19.415C52.8498 20.273 52.6445 20.9293 52.2338 21.384C51.8232 21.8313 51.2182 22.055 50.4188 22.055C49.9128 22.055 49.4875 21.9597 49.1428 21.769C48.8055 21.571 48.5452 21.2593 48.3618 20.834C48.1785 21.252 47.9182 21.56 47.5808 21.758C47.2435 21.956 46.8182 22.055 46.3048 22.055C45.5055 22.055 44.9005 21.8313 44.4898 21.384C44.0792 20.9293 43.8738 20.273 43.8738 19.415V16.214H44.6548V19.349C44.6548 20.031 44.7868 20.537 45.0508 20.867C45.3148 21.1897 45.7328 21.351 46.3048 21.351C46.8695 21.351 47.2875 21.186 47.5588 20.856C47.8375 20.526 47.9768 20.0163 47.9768 19.327V16.214H48.7578V19.327C48.7578 20.0163 48.8935 20.526 49.1648 20.856C49.4362 21.186 49.8578 21.351 50.4298 21.351C50.9872 21.351 51.3978 21.1897 51.6618 20.867C51.9332 20.537 52.0688 20.031 52.0688 19.349V16.214H52.8498ZM54.9718 16.214H55.7528V22H54.9718V16.214ZM55.3678 14.949C55.2065 14.949 55.0708 14.894 54.9608 14.784C54.8508 14.674 54.7958 14.542 54.7958 14.388C54.7958 14.2413 54.8508 14.113 54.9608 14.003C55.0708 13.893 55.2065 13.838 55.3678 13.838C55.5291 13.838 55.6648 13.893 55.7748 14.003C55.8848 14.1057 55.9398 14.2303 55.9398 14.377C55.9398 14.5383 55.8848 14.674 55.7748 14.784C55.6648 14.894 55.5291 14.949 55.3678 14.949ZM60.7749 21.648C60.6282 21.78 60.4486 21.8827 60.2359 21.956C60.0232 22.022 59.7996 22.055 59.5649 22.055C59.0222 22.055 58.6042 21.9083 58.3109 21.615C58.0176 21.3217 57.8709 20.9073 57.8709 20.372V14.949H58.6519V16.214H60.4009V16.874H58.6519V20.328C58.6519 20.6727 58.7362 20.9367 58.9049 21.12C59.0736 21.296 59.3192 21.384 59.6419 21.384C59.9939 21.384 60.2799 21.285 60.4999 21.087L60.7749 21.648ZM65.1386 16.17C65.8646 16.17 66.4402 16.3827 66.8656 16.808C67.2982 17.226 67.5146 17.8383 67.5146 18.645V22H66.7336V18.722C66.7336 18.1207 66.5832 17.6623 66.2826 17.347C65.9819 17.0317 65.5529 16.874 64.9956 16.874C64.3722 16.874 63.8772 17.061 63.5106 17.435C63.1512 17.8017 62.9716 18.3113 62.9716 18.964V22H62.1906V13.838H62.9716V17.226C63.1842 16.8887 63.4776 16.6283 63.8516 16.445C64.2256 16.2617 64.6546 16.17 65.1386 16.17ZM74.2958 14.443C73.9585 14.443 73.7018 14.5347 73.5258 14.718C73.3571 14.9013 73.2728 15.1727 73.2728 15.532V16.214H75.0548V16.874H73.2948V22H72.5138V15.499C72.5138 14.971 72.6641 14.553 72.9648 14.245C73.2728 13.937 73.7055 13.783 74.2628 13.783C74.4828 13.783 74.6955 13.816 74.9008 13.882C75.1061 13.9407 75.2785 14.0287 75.4178 14.146L75.1538 14.729C74.9265 14.5383 74.6405 14.443 74.2958 14.443ZM77.7413 17.347C77.9246 16.9583 78.196 16.665 78.5553 16.467C78.922 16.269 79.373 16.17 79.9083 16.17V16.929L79.7213 16.918C79.1126 16.918 78.636 17.105 78.2913 17.479C77.9466 17.853 77.7743 18.3773 77.7743 19.052V22H76.9933V16.214H77.7413V17.347ZM83.7437 21.362C84.103 21.362 84.433 21.2997 84.7337 21.175C85.0417 21.043 85.302 20.8523 85.5147 20.603L85.9547 21.109C85.698 21.417 85.379 21.6517 84.9977 21.813C84.6164 21.9743 84.1947 22.055 83.7327 22.055C83.1387 22.055 82.6107 21.9303 82.1487 21.681C81.6867 21.4243 81.3274 21.0723 81.0707 20.625C80.814 20.1777 80.6857 19.6717 80.6857 19.107C80.6857 18.5423 80.8067 18.0363 81.0487 17.589C81.298 17.1417 81.639 16.7933 82.0717 16.544C82.5044 16.2947 82.9957 16.17 83.5457 16.17C84.059 16.17 84.521 16.2873 84.9317 16.522C85.3497 16.7567 85.6797 17.083 85.9217 17.501C86.171 17.919 86.303 18.3957 86.3177 18.931L81.5657 19.855C81.7124 20.3243 81.9764 20.6947 82.3577 20.966C82.7464 21.23 83.2084 21.362 83.7437 21.362ZM83.5457 16.841C83.1424 16.841 82.7794 16.9363 82.4567 17.127C82.1414 17.3103 81.892 17.5707 81.7087 17.908C81.5327 18.238 81.4447 18.6193 81.4447 19.052C81.4447 19.162 81.4484 19.2427 81.4557 19.294L85.5367 18.502C85.4487 18.018 85.225 17.622 84.8657 17.314C84.5064 16.9987 84.0664 16.841 83.5457 16.841ZM89.4584 22.055C88.989 22.055 88.538 21.989 88.1054 21.857C87.68 21.7177 87.3464 21.5453 87.1044 21.34L87.4564 20.724C87.6984 20.9147 88.0027 21.0723 88.3694 21.197C88.736 21.3143 89.1174 21.373 89.5134 21.373C90.0414 21.373 90.43 21.2923 90.6794 21.131C90.936 20.9623 91.0644 20.7277 91.0644 20.427C91.0644 20.2143 90.9947 20.0493 90.8554 19.932C90.716 19.8073 90.54 19.7157 90.3274 19.657C90.1147 19.591 89.8324 19.5287 89.4804 19.47C89.011 19.382 88.6334 19.294 88.3474 19.206C88.0614 19.1107 87.8157 18.953 87.6104 18.733C87.4124 18.513 87.3134 18.2087 87.3134 17.82C87.3134 17.336 87.515 16.94 87.9184 16.632C88.3217 16.324 88.8827 16.17 89.6014 16.17C89.9754 16.17 90.3494 16.2213 90.7234 16.324C91.0974 16.4193 91.4054 16.5477 91.6474 16.709L91.3064 17.336C90.8297 17.006 90.2614 16.841 89.6014 16.841C89.1027 16.841 88.725 16.929 88.4684 17.105C88.219 17.281 88.0944 17.512 88.0944 17.798C88.0944 18.018 88.164 18.194 88.3034 18.326C88.45 18.458 88.6297 18.557 88.8424 18.623C89.055 18.6817 89.3484 18.744 89.7224 18.81C90.1844 18.898 90.5547 18.986 90.8334 19.074C91.112 19.162 91.3504 19.3123 91.5484 19.525C91.7464 19.7377 91.8454 20.031 91.8454 20.405C91.8454 20.911 91.6327 21.3143 91.2074 21.615C90.7894 21.9083 90.2064 22.055 89.4584 22.055ZM96.2372 16.17C96.9632 16.17 97.5389 16.3827 97.9642 16.808C98.3969 17.226 98.6132 17.8383 98.6132 18.645V22H97.8322V18.722C97.8322 18.1207 97.6819 17.6623 97.3812 17.347C97.0805 17.0317 96.6515 16.874 96.0942 16.874C95.4709 16.874 94.9759 17.061 94.6092 17.435C94.2499 17.8017 94.0702 18.3113 94.0702 18.964V22H93.2892V13.838H94.0702V17.226C94.2829 16.8887 94.5762 16.6283 94.9502 16.445C95.3242 16.2617 95.7532 16.17 96.2372 16.17ZM8.305 29.17C9.031 29.17 9.59933 29.379 10.01 29.797C10.428 30.215 10.637 30.831 10.637 31.645V35H9.856V31.722C9.856 31.1207 9.70933 30.6623 9.416 30.347C9.13 30.0317 8.723 29.874 8.195 29.874C7.59367 29.874 7.12067 30.061 6.776 30.435C6.43133 30.8017 6.259 31.3113 6.259 31.964V35H5.478V31.722C5.478 31.1207 5.33133 30.6623 5.038 30.347C4.752 30.0317 4.34133 29.874 3.806 29.874C3.212 29.874 2.739 30.061 2.387 30.435C2.04233 30.8017 1.87 31.3113 1.87 31.964V35H1.089V29.214H1.837V30.27C2.04233 29.918 2.32833 29.6467 2.695 29.456C3.06167 29.2653 3.48333 29.17 3.96 29.17C4.444 29.17 4.862 29.2727 5.214 29.478C5.57333 29.6833 5.841 29.9877 6.017 30.391C6.22967 30.0097 6.534 29.7127 6.93 29.5C7.33333 29.28 7.79167 29.17 8.305 29.17ZM12.755 29.214H13.536V35H12.755V29.214ZM13.151 27.949C12.9897 27.949 12.854 27.894 12.744 27.784C12.634 27.674 12.579 27.542 12.579 27.388C12.579 27.2413 12.634 27.113 12.744 27.003C12.854 26.893 12.9897 26.838 13.151 26.838C13.3123 26.838 13.448 26.893 13.558 27.003C13.668 27.1057 13.723 27.2303 13.723 27.377C13.723 27.5383 13.668 27.674 13.558 27.784C13.448 27.894 13.3123 27.949 13.151 27.949ZM18.6571 29.17C19.3831 29.17 19.9588 29.3827 20.3841 29.808C20.8168 30.226 21.0331 30.8383 21.0331 31.645V35H20.2521V31.722C20.2521 31.1207 20.1018 30.6623 19.8011 30.347C19.5005 30.0317 19.0715 29.874 18.5141 29.874C17.8908 29.874 17.3958 30.061 17.0291 30.435C16.6698 30.8017 16.4901 31.3113 16.4901 31.964V35H15.7091V29.214H16.4571V30.281C16.6698 29.929 16.9631 29.6577 17.3371 29.467C17.7185 29.269 18.1585 29.17 18.6571 29.17ZM26.0025 34.648C25.8558 34.78 25.6761 34.8827 25.4635 34.956C25.2508 35.022 25.0271 35.055 24.7925 35.055C24.2498 35.055 23.8318 34.9083 23.5385 34.615C23.2451 34.3217 23.0985 33.9073 23.0985 33.372V27.949H23.8795V29.214H25.6285V29.874H23.8795V33.328C23.8795 33.6727 23.9638 33.9367 24.1325 34.12C24.3011 34.296 24.5468 34.384 24.8695 34.384C25.2215 34.384 25.5075 34.285 25.7275 34.087L26.0025 34.648ZM31.925 35.055C31.4043 35.055 31.001 34.9083 30.715 34.615C30.4363 34.3217 30.297 33.9147 30.297 33.394V26.838H31.078V33.328C31.078 33.6727 31.1587 33.9367 31.32 34.12C31.4813 34.296 31.7233 34.384 32.046 34.384C32.2513 34.384 32.4273 34.351 32.574 34.285L32.629 34.934C32.4017 35.0147 32.167 35.055 31.925 35.055ZM36.0591 34.362C36.4185 34.362 36.7485 34.2997 37.0491 34.175C37.3571 34.043 37.6175 33.8523 37.8301 33.603L38.2701 34.109C38.0135 34.417 37.6945 34.6517 37.3131 34.813C36.9318 34.9743 36.5101 35.055 36.0481 35.055C35.4541 35.055 34.9261 34.9303 34.4641 34.681C34.0021 34.4243 33.6428 34.0723 33.3861 33.625C33.1295 33.1777 33.0011 32.6717 33.0011 32.107C33.0011 31.5423 33.1221 31.0363 33.3641 30.589C33.6135 30.1417 33.9545 29.7933 34.3871 29.544C34.8198 29.2947 35.3111 29.17 35.8611 29.17C36.3745 29.17 36.8365 29.2873 37.2471 29.522C37.6651 29.7567 37.9951 30.083 38.2371 30.501C38.4865 30.919 38.6185 31.3957 38.6331 31.931L33.8811 32.855C34.0278 33.3243 34.2918 33.6947 34.6731 33.966C35.0618 34.23 35.5238 34.362 36.0591 34.362ZM35.8611 29.841C35.4578 29.841 35.0948 29.9363 34.7721 30.127C34.4568 30.3103 34.2075 30.5707 34.0241 30.908C33.8481 31.238 33.7601 31.6193 33.7601 32.052C33.7601 32.162 33.7638 32.2427 33.7711 32.294L37.8521 31.502C37.7641 31.018 37.5405 30.622 37.1811 30.314C36.8218 29.9987 36.3818 29.841 35.8611 29.841ZM45.5028 29.214V35H44.7548V33.856C44.5201 34.2447 44.2085 34.5417 43.8198 34.747C43.4385 34.9523 43.0058 35.055 42.5218 35.055C41.9791 35.055 41.4878 34.9303 41.0478 34.681C40.6078 34.4317 40.2631 34.0833 40.0138 33.636C39.7645 33.1887 39.6398 32.679 39.6398 32.107C39.6398 31.535 39.7645 31.0253 40.0138 30.578C40.2631 30.1307 40.6078 29.786 41.0478 29.544C41.4878 29.2947 41.9791 29.17 42.5218 29.17C42.9911 29.17 43.4128 29.269 43.7868 29.467C44.1681 29.6577 44.4798 29.94 44.7218 30.314V29.214H45.5028ZM42.5878 34.362C42.9911 34.362 43.3541 34.2703 43.6768 34.087C44.0068 33.8963 44.2635 33.6287 44.4468 33.284C44.6375 32.9393 44.7328 32.547 44.7328 32.107C44.7328 31.667 44.6375 31.2747 44.4468 30.93C44.2635 30.5853 44.0068 30.3213 43.6768 30.138C43.3541 29.9473 42.9911 29.852 42.5878 29.852C42.1771 29.852 41.8068 29.9473 41.4768 30.138C41.1541 30.3213 40.8975 30.5853 40.7068 30.93C40.5235 31.2747 40.4318 31.667 40.4318 32.107C40.4318 32.547 40.5235 32.9393 40.7068 33.284C40.8975 33.6287 41.1541 33.8963 41.4768 34.087C41.8068 34.2703 42.1771 34.362 42.5878 34.362ZM52.5399 29.214L49.9659 35H49.1629L46.5999 29.214H47.4139L49.5809 34.142L51.7699 29.214H52.5399ZM55.9536 34.362C56.313 34.362 56.643 34.2997 56.9436 34.175C57.2516 34.043 57.512 33.8523 57.7246 33.603L58.1646 34.109C57.908 34.417 57.589 34.6517 57.2076 34.813C56.8263 34.9743 56.4046 35.055 55.9426 35.055C55.3486 35.055 54.8206 34.9303 54.3586 34.681C53.8966 34.4243 53.5373 34.0723 53.2806 33.625C53.024 33.1777 52.8956 32.6717 52.8956 32.107C52.8956 31.5423 53.0166 31.0363 53.2586 30.589C53.508 30.1417 53.849 29.7933 54.2816 29.544C54.7143 29.2947 55.2056 29.17 55.7556 29.17C56.269 29.17 56.731 29.2873 57.1416 29.522C57.5596 29.7567 57.8896 30.083 58.1316 30.501C58.381 30.919 58.513 31.3957 58.5276 31.931L53.7756 32.855C53.9223 33.3243 54.1863 33.6947 54.5676 33.966C54.9563 34.23 55.4183 34.362 55.9536 34.362ZM55.7556 29.841C55.3523 29.841 54.9893 29.9363 54.6666 30.127C54.3513 30.3103 54.102 30.5707 53.9186 30.908C53.7426 31.238 53.6546 31.6193 53.6546 32.052C53.6546 32.162 53.6583 32.2427 53.6656 32.294L57.7466 31.502C57.6586 31.018 57.435 30.622 57.0756 30.314C56.7163 29.9987 56.2763 29.841 55.7556 29.841ZM61.6683 35.055C61.199 35.055 60.748 34.989 60.3153 34.857C59.89 34.7177 59.5563 34.5453 59.3143 34.34L59.6663 33.724C59.9083 33.9147 60.2127 34.0723 60.5793 34.197C60.946 34.3143 61.3273 34.373 61.7233 34.373C62.2513 34.373 62.64 34.2923 62.8893 34.131C63.146 33.9623 63.2743 33.7277 63.2743 33.427C63.2743 33.2143 63.2047 33.0493 63.0653 32.932C62.926 32.8073 62.75 32.7157 62.5373 32.657C62.3247 32.591 62.0423 32.5287 61.6903 32.47C61.221 32.382 60.8433 32.294 60.5573 32.206C60.2713 32.1107 60.0257 31.953 59.8203 31.733C59.6223 31.513 59.5233 31.2087 59.5233 30.82C59.5233 30.336 59.725 29.94 60.1283 29.632C60.5317 29.324 61.0927 29.17 61.8113 29.17C62.1853 29.17 62.5593 29.2213 62.9333 29.324C63.3073 29.4193 63.6153 29.5477 63.8573 29.709L63.5163 30.336C63.0397 30.006 62.4713 29.841 61.8113 29.841C61.3127 29.841 60.935 29.929 60.6783 30.105C60.429 30.281 60.3043 30.512 60.3043 30.798C60.3043 31.018 60.374 31.194 60.5133 31.326C60.66 31.458 60.8397 31.557 61.0523 31.623C61.265 31.6817 61.5583 31.744 61.9323 31.81C62.3943 31.898 62.7647 31.986 63.0433 32.074C63.322 32.162 63.5603 32.3123 63.7583 32.525C63.9563 32.7377 64.0553 33.031 64.0553 33.405C64.0553 33.911 63.8427 34.3143 63.4173 34.615C62.9993 34.9083 62.4163 35.055 61.6683 35.055ZM73.6581 29.214V35H72.9101V33.856C72.6754 34.2447 72.3637 34.5417 71.9751 34.747C71.5937 34.9523 71.1611 35.055 70.6771 35.055C70.1344 35.055 69.6431 34.9303 69.2031 34.681C68.7631 34.4317 68.4184 34.0833 68.1691 33.636C67.9197 33.1887 67.7951 32.679 67.7951 32.107C67.7951 31.535 67.9197 31.0253 68.1691 30.578C68.4184 30.1307 68.7631 29.786 69.2031 29.544C69.6431 29.2947 70.1344 29.17 70.6771 29.17C71.1464 29.17 71.5681 29.269 71.9421 29.467C72.3234 29.6577 72.6351 29.94 72.8771 30.314V29.214H73.6581ZM70.7431 34.362C71.1464 34.362 71.5094 34.2703 71.8321 34.087C72.1621 33.8963 72.4187 33.6287 72.6021 33.284C72.7927 32.9393 72.8881 32.547 72.8881 32.107C72.8881 31.667 72.7927 31.2747 72.6021 30.93C72.4187 30.5853 72.1621 30.3213 71.8321 30.138C71.5094 29.9473 71.1464 29.852 70.7431 29.852C70.3324 29.852 69.9621 29.9473 69.6321 30.138C69.3094 30.3213 69.0527 30.5853 68.8621 30.93C68.6787 31.2747 68.5871 31.667 68.5871 32.107C68.5871 32.547 68.6787 32.9393 68.8621 33.284C69.0527 33.6287 69.3094 33.8963 69.6321 34.087C69.9621 34.2703 70.3324 34.362 70.7431 34.362ZM78.7811 29.17C79.5071 29.17 80.0828 29.3827 80.5081 29.808C80.9408 30.226 81.1571 30.8383 81.1571 31.645V35H80.3761V31.722C80.3761 31.1207 80.2258 30.6623 79.9251 30.347C79.6245 30.0317 79.1955 29.874 78.6381 29.874C78.0148 29.874 77.5198 30.061 77.1531 30.435C76.7938 30.8017 76.6141 31.3113 76.6141 31.964V35H75.8331V29.214H76.5811V30.281C76.7938 29.929 77.0871 29.6577 77.4611 29.467C77.8425 29.269 78.2825 29.17 78.7811 29.17ZM88.579 26.838V35H87.831V33.856C87.5963 34.2447 87.2846 34.5417 86.896 34.747C86.5146 34.9523 86.082 35.055 85.598 35.055C85.0553 35.055 84.564 34.9303 84.124 34.681C83.684 34.4317 83.3393 34.0833 83.09 33.636C82.8406 33.1887 82.716 32.679 82.716 32.107C82.716 31.535 82.8406 31.0253 83.09 30.578C83.3393 30.1307 83.684 29.786 84.124 29.544C84.564 29.2947 85.0553 29.17 85.598 29.17C86.0673 29.17 86.489 29.269 86.863 29.467C87.2443 29.6577 87.556 29.94 87.798 30.314V26.838H88.579ZM85.664 34.362C86.0673 34.362 86.4303 34.2703 86.753 34.087C87.083 33.8963 87.3396 33.6287 87.523 33.284C87.7136 32.9393 87.809 32.547 87.809 32.107C87.809 31.667 87.7136 31.2747 87.523 30.93C87.3396 30.5853 87.083 30.3213 86.753 30.138C86.4303 29.9473 86.0673 29.852 85.664 29.852C85.2533 29.852 84.883 29.9473 84.553 30.138C84.2303 30.3213 83.9736 30.5853 83.783 30.93C83.5996 31.2747 83.508 31.667 83.508 32.107C83.508 32.547 83.5996 32.9393 83.783 33.284C83.9736 33.6287 84.2303 33.8963 84.553 34.087C84.883 34.2703 85.2533 34.362 85.664 34.362ZM3.487 48.055C2.915 48.055 2.40167 47.9303 1.947 47.681C1.49967 47.4317 1.14767 47.0833 0.891 46.636C0.634333 46.1813 0.506 45.6717 0.506 45.107C0.506 44.5423 0.634333 44.0363 0.891 43.589C1.14767 43.1417 1.49967 42.7933 1.947 42.544C2.40167 42.2947 2.915 42.17 3.487 42.17C3.98567 42.17 4.42933 42.269 4.818 42.467C5.214 42.6577 5.52567 42.94 5.753 43.314L5.17 43.71C4.97933 43.424 4.73733 43.2113 4.444 43.072C4.15067 42.9253 3.83167 42.852 3.487 42.852C3.069 42.852 2.69133 42.9473 2.354 43.138C2.024 43.3213 1.76367 43.5853 1.573 43.93C1.38967 44.2747 1.298 44.667 1.298 45.107C1.298 45.5543 1.38967 45.9503 1.573 46.295C1.76367 46.6323 2.024 46.8963 2.354 47.087C2.69133 47.2703 3.069 47.362 3.487 47.362C3.83167 47.362 4.15067 47.2923 4.444 47.153C4.73733 47.0137 4.97933 46.801 5.17 46.515L5.753 46.911C5.52567 47.285 5.214 47.571 4.818 47.769C4.422 47.9597 3.97833 48.055 3.487 48.055ZM10.1493 42.17C10.8753 42.17 11.451 42.3827 11.8763 42.808C12.309 43.226 12.5253 43.8383 12.5253 44.645V48H11.7443V44.722C11.7443 44.1207 11.594 43.6623 11.2933 43.347C10.9926 43.0317 10.5636 42.874 10.0063 42.874C9.38297 42.874 8.88797 43.061 8.5213 43.435C8.16197 43.8017 7.9823 44.3113 7.9823 44.964V48H7.2013V39.838H7.9823V43.226C8.19497 42.8887 8.4883 42.6283 8.8623 42.445C9.2363 42.2617 9.6653 42.17 10.1493 42.17ZM17.0321 48.055C16.4748 48.055 15.9725 47.9303 15.5251 47.681C15.0778 47.4243 14.7258 47.0723 14.4691 46.625C14.2125 46.1777 14.0841 45.6717 14.0841 45.107C14.0841 44.5423 14.2125 44.0363 14.4691 43.589C14.7258 43.1417 15.0778 42.7933 15.5251 42.544C15.9725 42.2947 16.4748 42.17 17.0321 42.17C17.5895 42.17 18.0918 42.2947 18.5391 42.544C18.9865 42.7933 19.3348 43.1417 19.5841 43.589C19.8408 44.0363 19.9691 44.5423 19.9691 45.107C19.9691 45.6717 19.8408 46.1777 19.5841 46.625C19.3348 47.0723 18.9865 47.4243 18.5391 47.681C18.0918 47.9303 17.5895 48.055 17.0321 48.055ZM17.0321 47.362C17.4428 47.362 17.8095 47.2703 18.1321 47.087C18.4621 46.8963 18.7188 46.6287 18.9021 46.284C19.0855 45.9393 19.1771 45.547 19.1771 45.107C19.1771 44.667 19.0855 44.2747 18.9021 43.93C18.7188 43.5853 18.4621 43.3213 18.1321 43.138C17.8095 42.9473 17.4428 42.852 17.0321 42.852C16.6215 42.852 16.2511 42.9473 15.9211 43.138C15.5985 43.3213 15.3418 43.5853 15.1511 43.93C14.9678 44.2747 14.8761 44.667 14.8761 45.107C14.8761 45.547 14.9678 45.9393 15.1511 46.284C15.3418 46.6287 15.5985 46.8963 15.9211 47.087C16.2511 47.2703 16.6215 47.362 17.0321 47.362ZM23.9616 48.055C23.3896 48.055 22.8763 47.9303 22.4216 47.681C21.9743 47.4317 21.6223 47.0833 21.3656 46.636C21.1089 46.1813 20.9806 45.6717 20.9806 45.107C20.9806 44.5423 21.1089 44.0363 21.3656 43.589C21.6223 43.1417 21.9743 42.7933 22.4216 42.544C22.8763 42.2947 23.3896 42.17 23.9616 42.17C24.4603 42.17 24.9039 42.269 25.2926 42.467C25.6886 42.6577 26.0003 42.94 26.2276 43.314L25.6446 43.71C25.4539 43.424 25.2119 43.2113 24.9186 43.072C24.6253 42.9253 24.3063 42.852 23.9616 42.852C23.5436 42.852 23.1659 42.9473 22.8286 43.138C22.4986 43.3213 22.2383 43.5853 22.0476 43.93C21.8643 44.2747 21.7726 44.667 21.7726 45.107C21.7726 45.5543 21.8643 45.9503 22.0476 46.295C22.2383 46.6323 22.4986 46.8963 22.8286 47.087C23.1659 47.2703 23.5436 47.362 23.9616 47.362C24.3063 47.362 24.6253 47.2923 24.9186 47.153C25.2119 47.0137 25.4539 46.801 25.6446 46.515L26.2276 46.911C26.0003 47.285 25.6886 47.571 25.2926 47.769C24.8966 47.9597 24.4529 48.055 23.9616 48.055ZM30.0302 48.055C29.4728 48.055 28.9705 47.9303 28.5232 47.681C28.0758 47.4243 27.7238 47.0723 27.4672 46.625C27.2105 46.1777 27.0822 45.6717 27.0822 45.107C27.0822 44.5423 27.2105 44.0363 27.4672 43.589C27.7238 43.1417 28.0758 42.7933 28.5232 42.544C28.9705 42.2947 29.4728 42.17 30.0302 42.17C30.5875 42.17 31.0898 42.2947 31.5372 42.544C31.9845 42.7933 32.3328 43.1417 32.5822 43.589C32.8388 44.0363 32.9672 44.5423 32.9672 45.107C32.9672 45.6717 32.8388 46.1777 32.5822 46.625C32.3328 47.0723 31.9845 47.4243 31.5372 47.681C31.0898 47.9303 30.5875 48.055 30.0302 48.055ZM30.0302 47.362C30.4408 47.362 30.8075 47.2703 31.1302 47.087C31.4602 46.8963 31.7168 46.6287 31.9002 46.284C32.0835 45.9393 32.1752 45.547 32.1752 45.107C32.1752 44.667 32.0835 44.2747 31.9002 43.93C31.7168 43.5853 31.4602 43.3213 31.1302 43.138C30.8075 42.9473 30.4408 42.852 30.0302 42.852C29.6195 42.852 29.2492 42.9473 28.9192 43.138C28.5965 43.3213 28.3398 43.5853 28.1492 43.93C27.9658 44.2747 27.8742 44.667 27.8742 45.107C27.8742 45.547 27.9658 45.9393 28.1492 46.284C28.3398 46.6287 28.5965 46.8963 28.9192 47.087C29.2492 47.2703 29.6195 47.362 30.0302 47.362ZM36.1897 48.055C35.669 48.055 35.2657 47.9083 34.9797 47.615C34.701 47.3217 34.5617 46.9147 34.5617 46.394V39.838H35.3427V46.328C35.3427 46.6727 35.4233 46.9367 35.5847 47.12C35.746 47.296 35.988 47.384 36.3107 47.384C36.516 47.384 36.692 47.351 36.8387 47.285L36.8937 47.934C36.6663 48.0147 36.4317 48.055 36.1897 48.055ZM43.1288 42.214V48H42.3808V46.856C42.1461 47.2447 41.8344 47.5417 41.4458 47.747C41.0644 47.9523 40.6318 48.055 40.1478 48.055C39.6051 48.055 39.1138 47.9303 38.6738 47.681C38.2338 47.4317 37.8891 47.0833 37.6398 46.636C37.3904 46.1887 37.2658 45.679 37.2658 45.107C37.2658 44.535 37.3904 44.0253 37.6398 43.578C37.8891 43.1307 38.2338 42.786 38.6738 42.544C39.1138 42.2947 39.6051 42.17 40.1478 42.17C40.6171 42.17 41.0388 42.269 41.4128 42.467C41.7941 42.6577 42.1058 42.94 42.3478 43.314V42.214H43.1288ZM40.2138 47.362C40.6171 47.362 40.9801 47.2703 41.3028 47.087C41.6328 46.8963 41.8894 46.6287 42.0728 46.284C42.2634 45.9393 42.3588 45.547 42.3588 45.107C42.3588 44.667 42.2634 44.2747 42.0728 43.93C41.8894 43.5853 41.6328 43.3213 41.3028 43.138C40.9801 42.9473 40.6171 42.852 40.2138 42.852C39.8031 42.852 39.4328 42.9473 39.1028 43.138C38.7801 43.3213 38.5234 43.5853 38.3328 43.93C38.1494 44.2747 38.0578 44.667 38.0578 45.107C38.0578 45.547 38.1494 45.9393 38.3328 46.284C38.5234 46.6287 38.7801 46.8963 39.1028 47.087C39.4328 47.2703 39.8031 47.362 40.2138 47.362ZM48.1528 47.648C48.0062 47.78 47.8265 47.8827 47.6138 47.956C47.4012 48.022 47.1775 48.055 46.9428 48.055C46.4002 48.055 45.9822 47.9083 45.6888 47.615C45.3955 47.3217 45.2488 46.9073 45.2488 46.372V40.949H46.0298V42.214H47.7788V42.874H46.0298V46.328C46.0298 46.6727 46.1142 46.9367 46.2828 47.12C46.4515 47.296 46.6972 47.384 47.0198 47.384C47.3718 47.384 47.6578 47.285 47.8778 47.087L48.1528 47.648ZM51.8394 47.362C52.1987 47.362 52.5287 47.2997 52.8294 47.175C53.1374 47.043 53.3977 46.8523 53.6104 46.603L54.0504 47.109C53.7937 47.417 53.4747 47.6517 53.0934 47.813C52.7121 47.9743 52.2904 48.055 51.8284 48.055C51.2344 48.055 50.7064 47.9303 50.2444 47.681C49.7824 47.4243 49.4231 47.0723 49.1664 46.625C48.9097 46.1777 48.7814 45.6717 48.7814 45.107C48.7814 44.5423 48.9024 44.0363 49.1444 43.589C49.3937 43.1417 49.7347 42.7933 50.1674 42.544C50.6001 42.2947 51.0914 42.17 51.6414 42.17C52.1547 42.17 52.6167 42.2873 53.0274 42.522C53.4454 42.7567 53.7754 43.083 54.0174 43.501C54.2667 43.919 54.3987 44.3957 54.4134 44.931L49.6614 45.855C49.8081 46.3243 50.0721 46.6947 50.4534 46.966C50.8421 47.23 51.3041 47.362 51.8394 47.362ZM51.6414 42.841C51.2381 42.841 50.8751 42.9363 50.5524 43.127C50.2371 43.3103 49.9877 43.5707 49.8044 43.908C49.6284 44.238 49.5404 44.6193 49.5404 45.052C49.5404 45.162 49.5441 45.2427 49.5514 45.294L53.6324 44.502C53.5444 44.018 53.3207 43.622 52.9614 43.314C52.6021 42.9987 52.1621 42.841 51.6414 42.841ZM61.28 48.055C60.708 48.055 60.1946 47.9303 59.74 47.681C59.2926 47.4317 58.9406 47.0833 58.684 46.636C58.4273 46.1813 58.299 45.6717 58.299 45.107C58.299 44.5423 58.4273 44.0363 58.684 43.589C58.9406 43.1417 59.2926 42.7933 59.74 42.544C60.1946 42.2947 60.708 42.17 61.28 42.17C61.7786 42.17 62.2223 42.269 62.611 42.467C63.007 42.6577 63.3186 42.94 63.546 43.314L62.963 43.71C62.7723 43.424 62.5303 43.2113 62.237 43.072C61.9436 42.9253 61.6246 42.852 61.28 42.852C60.862 42.852 60.4843 42.9473 60.147 43.138C59.817 43.3213 59.5566 43.5853 59.366 43.93C59.1826 44.2747 59.091 44.667 59.091 45.107C59.091 45.5543 59.1826 45.9503 59.366 46.295C59.5566 46.6323 59.817 46.8963 60.147 47.087C60.4843 47.2703 60.862 47.362 61.28 47.362C61.6246 47.362 61.9436 47.2923 62.237 47.153C62.5303 47.0137 62.7723 46.801 62.963 46.515L63.546 46.911C63.3186 47.285 63.007 47.571 62.611 47.769C62.215 47.9597 61.7713 48.055 61.28 48.055ZM67.9423 42.17C68.6683 42.17 69.2439 42.3827 69.6693 42.808C70.1019 43.226 70.3183 43.8383 70.3183 44.645V48H69.5373V44.722C69.5373 44.1207 69.3869 43.6623 69.0863 43.347C68.7856 43.0317 68.3566 42.874 67.7993 42.874C67.1759 42.874 66.6809 43.061 66.3143 43.435C65.9549 43.8017 65.7753 44.3113 65.7753 44.964V48H64.9943V39.838H65.7753V43.226C65.9879 42.8887 66.2813 42.6283 66.6553 42.445C67.0293 42.2617 67.4583 42.17 67.9423 42.17ZM72.4386 42.214H73.2196V48H72.4386V42.214ZM72.8346 40.949C72.6733 40.949 72.5376 40.894 72.4276 40.784C72.3176 40.674 72.2626 40.542 72.2626 40.388C72.2626 40.2413 72.3176 40.113 72.4276 40.003C72.5376 39.893 72.6733 39.838 72.8346 39.838C72.9959 39.838 73.1316 39.893 73.2416 40.003C73.3516 40.1057 73.4066 40.2303 73.4066 40.377C73.4066 40.5383 73.3516 40.674 73.2416 40.784C73.1316 40.894 72.9959 40.949 72.8346 40.949ZM78.3737 42.17C78.9164 42.17 79.4077 42.2947 79.8477 42.544C80.2877 42.786 80.6324 43.1307 80.8817 43.578C81.131 44.0253 81.2557 44.535 81.2557 45.107C81.2557 45.6863 81.131 46.1997 80.8817 46.647C80.6324 47.0943 80.2877 47.4427 79.8477 47.692C79.415 47.934 78.9237 48.055 78.3737 48.055C77.9044 48.055 77.479 47.9597 77.0977 47.769C76.7237 47.571 76.4157 47.285 76.1737 46.911V50.134H75.3927V42.214H76.1407V43.358C76.3754 42.9767 76.6834 42.6833 77.0647 42.478C77.4534 42.2727 77.8897 42.17 78.3737 42.17ZM78.3187 47.362C78.722 47.362 79.0887 47.2703 79.4187 47.087C79.7487 46.8963 80.0054 46.6287 80.1887 46.284C80.3794 45.9393 80.4747 45.547 80.4747 45.107C80.4747 44.667 80.3794 44.2783 80.1887 43.941C80.0054 43.5963 79.7487 43.3287 79.4187 43.138C79.0887 42.9473 78.722 42.852 78.3187 42.852C77.908 42.852 77.5377 42.9473 77.2077 43.138C76.885 43.3287 76.6284 43.5963 76.4377 43.941C76.2544 44.2783 76.1627 44.667 76.1627 45.107C76.1627 45.547 76.2544 45.9393 76.4377 46.284C76.6284 46.6287 76.885 46.8963 77.2077 47.087C77.5377 47.2703 77.908 47.362 78.3187 47.362ZM84.3988 48.055C83.9295 48.055 83.4785 47.989 83.0458 47.857C82.6205 47.7177 82.2868 47.5453 82.0448 47.34L82.3968 46.724C82.6388 46.9147 82.9431 47.0723 83.3098 47.197C83.6765 47.3143 84.0578 47.373 84.4538 47.373C84.9818 47.373 85.3705 47.2923 85.6198 47.131C85.8765 46.9623 86.0048 46.7277 86.0048 46.427C86.0048 46.2143 85.9351 46.0493 85.7958 45.932C85.6565 45.8073 85.4805 45.7157 85.2678 45.657C85.0551 45.591 84.7728 45.5287 84.4208 45.47C83.9515 45.382 83.5738 45.294 83.2878 45.206C83.0018 45.1107 82.7561 44.953 82.5508 44.733C82.3528 44.513 82.2538 44.2087 82.2538 43.82C82.2538 43.336 82.4555 42.94 82.8588 42.632C83.2621 42.324 83.8231 42.17 84.5418 42.17C84.9158 42.17 85.2898 42.2213 85.6638 42.324C86.0378 42.4193 86.3458 42.5477 86.5878 42.709L86.2468 43.336C85.7701 43.006 85.2018 42.841 84.5418 42.841C84.0431 42.841 83.6655 42.929 83.4088 43.105C83.1595 43.281 83.0348 43.512 83.0348 43.798C83.0348 44.018 83.1045 44.194 83.2438 44.326C83.3905 44.458 83.5701 44.557 83.7828 44.623C83.9955 44.6817 84.2888 44.744 84.6628 44.81C85.1248 44.898 85.4951 44.986 85.7738 45.074C86.0525 45.162 86.2908 45.3123 86.4888 45.525C86.6868 45.7377 86.7858 46.031 86.7858 46.405C86.7858 46.911 86.5731 47.3143 86.1478 47.615C85.7298 47.9083 85.1468 48.055 84.3988 48.055ZM88.3066 48.055C88.1453 48.055 88.006 47.9963 87.8886 47.879C87.7786 47.7617 87.7236 47.6187 87.7236 47.45C87.7236 47.2813 87.7786 47.142 87.8886 47.032C88.006 46.9147 88.1453 46.856 88.3066 46.856C88.468 46.856 88.6073 46.9147 88.7246 47.032C88.842 47.142 88.9006 47.2813 88.9006 47.45C88.9006 47.6187 88.842 47.7617 88.7246 47.879C88.6073 47.9963 88.468 48.055 88.3066 48.055Z" fill="black"/>
</svg>
