<svg width="97" height="49" viewBox="0 0 97 49" fill="none" xmlns="http://www.w3.org/2000/svg">
<path d="M4.136 1.3C5.11867 1.3 5.88867 1.53467 6.446 2.004C7.00333 2.47333 7.282 3.11867 7.282 3.94C7.282 4.76133 7.00333 5.40667 6.446 5.876C5.88867 6.338 5.11867 6.569 4.136 6.569H2.068V9H1.254V1.3H4.136ZM4.114 5.854C4.87667 5.854 5.45967 5.689 5.863 5.359C6.26633 5.02167 6.468 4.54867 6.468 3.94C6.468 3.31667 6.26633 2.84 5.863 2.51C5.45967 2.17267 4.87667 2.004 4.114 2.004H2.068V5.854H4.114ZM11.3199 8.362C11.6792 8.362 12.0092 8.29967 12.3099 8.175C12.6179 8.043 12.8782 7.85233 13.0909 7.603L13.5309 8.109C13.2742 8.417 12.9552 8.65167 12.5739 8.813C12.1925 8.97433 11.7709 9.055 11.3089 9.055C10.7149 9.055 10.1869 8.93033 9.72486 8.681C9.26286 8.42433 8.90353 8.07233 8.64686 7.625C8.39019 7.17767 8.26186 6.67167 8.26186 6.107C8.26186 5.54233 8.38286 5.03633 8.62486 4.589C8.87419 4.14167 9.21519 3.79333 9.64786 3.544C10.0805 3.29467 10.5719 3.17 11.1219 3.17C11.6352 3.17 12.0972 3.28733 12.5079 3.522C12.9259 3.75667 13.2559 4.083 13.4979 4.501C13.7472 4.919 13.8792 5.39567 13.8939 5.931L9.14186 6.855C9.28853 7.32433 9.55253 7.69467 9.93386 7.966C10.3225 8.23 10.7845 8.362 11.3199 8.362ZM11.1219 3.841C10.7185 3.841 10.3555 3.93633 10.0329 4.127C9.71753 4.31033 9.46819 4.57067 9.28486 4.908C9.10886 5.238 9.02086 5.61933 9.02086 6.052C9.02086 6.162 9.02453 6.24267 9.03186 6.294L13.1129 5.502C13.0249 5.018 12.8012 4.622 12.4419 4.314C12.0825 3.99867 11.6425 3.841 11.1219 3.841ZM20.7635 3.214V9H20.0155V7.856C19.7809 8.24467 19.4692 8.54167 19.0805 8.747C18.6992 8.95233 18.2665 9.055 17.7825 9.055C17.2399 9.055 16.7485 8.93033 16.3085 8.681C15.8685 8.43167 15.5239 8.08333 15.2745 7.636C15.0252 7.18867 14.9005 6.679 14.9005 6.107C14.9005 5.535 15.0252 5.02533 15.2745 4.578C15.5239 4.13067 15.8685 3.786 16.3085 3.544C16.7485 3.29467 17.2399 3.17 17.7825 3.17C18.2519 3.17 18.6735 3.269 19.0475 3.467C19.4289 3.65767 19.7405 3.94 19.9825 4.314V3.214H20.7635ZM17.8485 8.362C18.2519 8.362 18.6149 8.27033 18.9375 8.087C19.2675 7.89633 19.5242 7.62867 19.7075 7.284C19.8982 6.93933 19.9935 6.547 19.9935 6.107C19.9935 5.667 19.8982 5.27467 19.7075 4.93C19.5242 4.58533 19.2675 4.32133 18.9375 4.138C18.6149 3.94733 18.2519 3.852 17.8485 3.852C17.4379 3.852 17.0675 3.94733 16.7375 4.138C16.4149 4.32133 16.1582 4.58533 15.9675 4.93C15.7842 5.27467 15.6925 5.667 15.6925 6.107C15.6925 6.547 15.7842 6.93933 15.9675 7.284C16.1582 7.62867 16.4149 7.89633 16.7375 8.087C17.0675 8.27033 17.4379 8.362 17.8485 8.362ZM25.8866 3.17C26.6126 3.17 27.1883 3.38267 27.6136 3.808C28.0463 4.226 28.2626 4.83833 28.2626 5.645V9H27.4816V5.722C27.4816 5.12067 27.3313 4.66233 27.0306 4.347C26.7299 4.03167 26.3009 3.874 25.7436 3.874C25.1203 3.874 24.6253 4.061 24.2586 4.435C23.8993 4.80167 23.7196 5.31133 23.7196 5.964V9H22.9386V3.214H23.6866V4.281C23.8993 3.929 24.1926 3.65767 24.5666 3.467C24.9479 3.269 25.3879 3.17 25.8866 3.17ZM35.5969 3.214V9H34.8489V7.944C34.6436 8.296 34.3613 8.571 34.0019 8.769C33.6426 8.95967 33.2319 9.055 32.7699 9.055C32.0146 9.055 31.4169 8.846 30.9769 8.428C30.5443 8.00267 30.3279 7.383 30.3279 6.569V3.214H31.1089V6.492C31.1089 7.10067 31.2593 7.56267 31.5599 7.878C31.8606 8.19333 32.2896 8.351 32.8469 8.351C33.4556 8.351 33.9359 8.16767 34.2879 7.801C34.6399 7.427 34.8159 6.91 34.8159 6.25V3.214H35.5969ZM40.6333 8.648C40.4866 8.78 40.307 8.88267 40.0943 8.956C39.8816 9.022 39.658 9.055 39.4233 9.055C38.8806 9.055 38.4626 8.90833 38.1693 8.615C37.876 8.32167 37.7293 7.90733 37.7293 7.372V1.949H38.5103V3.214H40.2593V3.874H38.5103V7.328C38.5103 7.67267 38.5946 7.93667 38.7633 8.12C38.932 8.296 39.1776 8.384 39.5003 8.384C39.8523 8.384 40.1383 8.285 40.3583 8.087L40.6333 8.648ZM49.9439 5.029C50.4499 5.139 50.8385 5.359 51.1099 5.689C51.3885 6.01167 51.5279 6.42967 51.5279 6.943C51.5279 7.603 51.2822 8.11267 50.7909 8.472C50.3069 8.824 49.5882 9 48.6349 9H45.0929V1.3H48.4149C49.2729 1.3 49.9365 1.47233 50.4059 1.817C50.8825 2.16167 51.1209 2.64933 51.1209 3.28C51.1209 3.70533 51.0145 4.06833 50.8019 4.369C50.5965 4.66233 50.3105 4.88233 49.9439 5.029ZM45.9069 1.971V4.765H48.3599C48.9832 4.765 49.4635 4.64767 49.8009 4.413C50.1382 4.171 50.3069 3.82267 50.3069 3.368C50.3069 2.91333 50.1382 2.56867 49.8009 2.334C49.4635 2.092 48.9832 1.971 48.3599 1.971H45.9069ZM48.6239 8.329C49.3132 8.329 49.8339 8.21167 50.1859 7.977C50.5379 7.74233 50.7139 7.37567 50.7139 6.877C50.7139 5.91633 50.0172 5.436 48.6239 5.436H45.9069V8.329H48.6239ZM58.4348 3.214V9H57.6868V7.944C57.4815 8.296 57.1992 8.571 56.8398 8.769C56.4805 8.95967 56.0698 9.055 55.6078 9.055C54.8525 9.055 54.2548 8.846 53.8148 8.428C53.3822 8.00267 53.1658 7.383 53.1658 6.569V3.214H53.9468V6.492C53.9468 7.10067 54.0972 7.56267 54.3978 7.878C54.6985 8.19333 55.1275 8.351 55.6848 8.351C56.2935 8.351 56.7738 8.16767 57.1258 7.801C57.4778 7.427 57.6538 6.91 57.6538 6.25V3.214H58.4348ZM63.4712 8.648C63.3245 8.78 63.1449 8.88267 62.9322 8.956C62.7195 9.022 62.4959 9.055 62.2612 9.055C61.7185 9.055 61.3005 8.90833 61.0072 8.615C60.7139 8.32167 60.5672 7.90733 60.5672 7.372V1.949H61.3482V3.214H63.0972V3.874H61.3482V7.328C61.3482 7.67267 61.4325 7.93667 61.6012 8.12C61.7699 8.296 62.0155 8.384 62.3382 8.384C62.6902 8.384 62.9762 8.285 63.1962 8.087L63.4712 8.648ZM67.7359 8.648C67.5892 8.78 67.4095 8.88267 67.1969 8.956C66.9842 9.022 66.7605 9.055 66.5259 9.055C65.9832 9.055 65.5652 8.90833 65.2719 8.615C64.9785 8.32167 64.8319 7.90733 64.8319 7.372V1.949H65.6129V3.214H67.3619V3.874H65.6129V7.328C65.6129 7.67267 65.6972 7.93667 65.8659 8.12C66.0345 8.296 66.2802 8.384 66.6029 8.384C66.9549 8.384 67.2409 8.285 67.4609 8.087L67.7359 8.648ZM71.4224 8.362C71.7817 8.362 72.1117 8.29967 72.4124 8.175C72.7204 8.043 72.9807 7.85233 73.1934 7.603L73.6334 8.109C73.3767 8.417 73.0577 8.65167 72.6764 8.813C72.2951 8.97433 71.8734 9.055 71.4114 9.055C70.8174 9.055 70.2894 8.93033 69.8274 8.681C69.3654 8.42433 69.0061 8.07233 68.7494 7.625C68.4927 7.17767 68.3644 6.67167 68.3644 6.107C68.3644 5.54233 68.4854 5.03633 68.7274 4.589C68.9767 4.14167 69.3177 3.79333 69.7504 3.544C70.1831 3.29467 70.6744 3.17 71.2244 3.17C71.7377 3.17 72.1997 3.28733 72.6104 3.522C73.0284 3.75667 73.3584 4.083 73.6004 4.501C73.8497 4.919 73.9817 5.39567 73.9964 5.931L69.2444 6.855C69.3911 7.32433 69.6551 7.69467 70.0364 7.966C70.4251 8.23 70.8871 8.362 71.4224 8.362ZM71.2244 3.841C70.8211 3.841 70.4581 3.93633 70.1354 4.127C69.8201 4.31033 69.5707 4.57067 69.3874 4.908C69.2114 5.238 69.1234 5.61933 69.1234 6.052C69.1234 6.162 69.1271 6.24267 69.1344 6.294L73.2154 5.502C73.1274 5.018 72.9037 4.622 72.5444 4.314C72.1851 3.99867 71.7451 3.841 71.2244 3.841ZM76.3341 4.347C76.5174 3.95833 76.7887 3.665 77.1481 3.467C77.5147 3.269 77.9657 3.17 78.5011 3.17V3.929L78.3141 3.918C77.7054 3.918 77.2287 4.105 76.8841 4.479C76.5394 4.853 76.3671 5.37733 76.3671 6.052V9H75.5861V3.214H76.3341V4.347ZM82.88 3.214H83.661V9H82.88V3.214ZM83.276 1.949C83.1147 1.949 82.979 1.894 82.869 1.784C82.759 1.674 82.704 1.542 82.704 1.388C82.704 1.24133 82.759 1.113 82.869 1.003C82.979 0.892999 83.1147 0.838 83.276 0.838C83.4373 0.838 83.573 0.892999 83.683 1.003C83.793 1.10567 83.848 1.23033 83.848 1.377C83.848 1.53833 83.793 1.674 83.683 1.784C83.573 1.894 83.4373 1.949 83.276 1.949ZM88.2321 9.055C87.6601 9.055 87.1468 8.93033 86.6921 8.681C86.2448 8.43167 85.8928 8.08333 85.6361 7.636C85.3795 7.18133 85.2511 6.67167 85.2511 6.107C85.2511 5.54233 85.3795 5.03633 85.6361 4.589C85.8928 4.14167 86.2448 3.79333 86.6921 3.544C87.1468 3.29467 87.6601 3.17 88.2321 3.17C88.7308 3.17 89.1745 3.269 89.5631 3.467C89.9591 3.65767 90.2708 3.94 90.4981 4.314L89.9151 4.71C89.7245 4.424 89.4825 4.21133 89.1891 4.072C88.8958 3.92533 88.5768 3.852 88.2321 3.852C87.8141 3.852 87.4365 3.94733 87.0991 4.138C86.7691 4.32133 86.5088 4.58533 86.3181 4.93C86.1348 5.27467 86.0431 5.667 86.0431 6.107C86.0431 6.55433 86.1348 6.95033 86.3181 7.295C86.5088 7.63233 86.7691 7.89633 87.0991 8.087C87.4365 8.27033 87.8141 8.362 88.2321 8.362C88.5768 8.362 88.8958 8.29233 89.1891 8.153C89.4825 8.01367 89.7245 7.801 89.9151 7.515L90.4981 7.911C90.2708 8.285 89.9591 8.571 89.5631 8.769C89.1671 8.95967 88.7235 9.055 88.2321 9.055ZM94.4107 8.362C94.77 8.362 95.1 8.29967 95.4007 8.175C95.7087 8.043 95.969 7.85233 96.1817 7.603L96.6217 8.109C96.365 8.417 96.046 8.65167 95.6647 8.813C95.2833 8.97433 94.8617 9.055 94.3997 9.055C93.8057 9.055 93.2777 8.93033 92.8157 8.681C92.3537 8.42433 91.9943 8.07233 91.7377 7.625C91.481 7.17767 91.3527 6.67167 91.3527 6.107C91.3527 5.54233 91.4737 5.03633 91.7157 4.589C91.965 4.14167 92.306 3.79333 92.7387 3.544C93.1713 3.29467 93.6627 3.17 94.2127 3.17C94.726 3.17 95.188 3.28733 95.5987 3.522C96.0167 3.75667 96.3467 4.083 96.5887 4.501C96.838 4.919 96.97 5.39567 96.9847 5.931L92.2327 6.855C92.3793 7.32433 92.6433 7.69467 93.0247 7.966C93.4133 8.23 93.8753 8.362 94.4107 8.362ZM94.2127 3.841C93.8093 3.841 93.4463 3.93633 93.1237 4.127C92.8083 4.31033 92.559 4.57067 92.3757 4.908C92.1997 5.238 92.1117 5.61933 92.1117 6.052C92.1117 6.162 92.1153 6.24267 92.1227 6.294L96.2037 5.502C96.1157 5.018 95.892 4.622 95.5327 4.314C95.1733 3.99867 94.7333 3.841 94.2127 3.841ZM3.487 22.055C2.915 22.055 2.40167 21.9303 1.947 21.681C1.49967 21.4317 1.14767 21.0833 0.891 20.636C0.634333 20.1813 0.506 19.6717 0.506 19.107C0.506 18.5423 0.634333 18.0363 0.891 17.589C1.14767 17.1417 1.49967 16.7933 1.947 16.544C2.40167 16.2947 2.915 16.17 3.487 16.17C3.98567 16.17 4.42933 16.269 4.818 16.467C5.214 16.6577 5.52567 16.94 5.753 17.314L5.17 17.71C4.97933 17.424 4.73733 17.2113 4.444 17.072C4.15067 16.9253 3.83167 16.852 3.487 16.852C3.069 16.852 2.69133 16.9473 2.354 17.138C2.024 17.3213 1.76367 17.5853 1.573 17.93C1.38967 18.2747 1.298 18.667 1.298 19.107C1.298 19.5543 1.38967 19.9503 1.573 20.295C1.76367 20.6323 2.024 20.8963 2.354 21.087C2.69133 21.2703 3.069 21.362 3.487 21.362C3.83167 21.362 4.15067 21.2923 4.444 21.153C4.73733 21.0137 4.97933 20.801 5.17 20.515L5.753 20.911C5.52567 21.285 5.214 21.571 4.818 21.769C4.422 21.9597 3.97833 22.055 3.487 22.055ZM8.03524 17.347C8.21858 16.9583 8.48991 16.665 8.84924 16.467C9.21591 16.269 9.66691 16.17 10.2022 16.17V16.929L10.0152 16.918C9.40658 16.918 8.92991 17.105 8.58524 17.479C8.24058 17.853 8.06824 18.3773 8.06824 19.052V22H7.28724V16.214H8.03524V17.347ZM14.0376 21.362C14.397 21.362 14.727 21.2997 15.0276 21.175C15.3356 21.043 15.596 20.8523 15.8086 20.603L16.2486 21.109C15.992 21.417 15.673 21.6517 15.2916 21.813C14.9103 21.9743 14.4886 22.055 14.0266 22.055C13.4326 22.055 12.9046 21.9303 12.4426 21.681C11.9806 21.4243 11.6213 21.0723 11.3646 20.625C11.108 20.1777 10.9796 19.6717 10.9796 19.107C10.9796 18.5423 11.1006 18.0363 11.3426 17.589C11.592 17.1417 11.933 16.7933 12.3656 16.544C12.7983 16.2947 13.2896 16.17 13.8396 16.17C14.353 16.17 14.815 16.2873 15.2256 16.522C15.6436 16.7567 15.9736 17.083 16.2156 17.501C16.465 17.919 16.597 18.3957 16.6116 18.931L11.8596 19.855C12.0063 20.3243 12.2703 20.6947 12.6516 20.966C13.0403 21.23 13.5023 21.362 14.0376 21.362ZM13.8396 16.841C13.4363 16.841 13.0733 16.9363 12.7506 17.127C12.4353 17.3103 12.186 17.5707 12.0026 17.908C11.8266 18.238 11.7386 18.6193 11.7386 19.052C11.7386 19.162 11.7423 19.2427 11.7496 19.294L15.8306 18.502C15.7426 18.018 15.519 17.622 15.1596 17.314C14.8003 16.9987 14.3603 16.841 13.8396 16.841ZM23.4813 16.214V22H22.7333V20.856C22.4986 21.2447 22.187 21.5417 21.7983 21.747C21.417 21.9523 20.9843 22.055 20.5003 22.055C19.9576 22.055 19.4663 21.9303 19.0263 21.681C18.5863 21.4317 18.2416 21.0833 17.9923 20.636C17.743 20.1887 17.6183 19.679 17.6183 19.107C17.6183 18.535 17.743 18.0253 17.9923 17.578C18.2416 17.1307 18.5863 16.786 19.0263 16.544C19.4663 16.2947 19.9576 16.17 20.5003 16.17C20.9696 16.17 21.3913 16.269 21.7653 16.467C22.1466 16.6577 22.4583 16.94 22.7003 17.314V16.214H23.4813ZM20.5663 21.362C20.9696 21.362 21.3326 21.2703 21.6553 21.087C21.9853 20.8963 22.242 20.6287 22.4253 20.284C22.616 19.9393 22.7113 19.547 22.7113 19.107C22.7113 18.667 22.616 18.2747 22.4253 17.93C22.242 17.5853 21.9853 17.3213 21.6553 17.138C21.3326 16.9473 20.9696 16.852 20.5663 16.852C20.1556 16.852 19.7853 16.9473 19.4553 17.138C19.1326 17.3213 18.876 17.5853 18.6853 17.93C18.502 18.2747 18.4103 18.667 18.4103 19.107C18.4103 19.547 18.502 19.9393 18.6853 20.284C18.876 20.6287 19.1326 20.8963 19.4553 21.087C19.7853 21.2703 20.1556 21.362 20.5663 21.362ZM32.8724 16.17C33.5984 16.17 34.1667 16.379 34.5774 16.797C34.9954 17.215 35.2044 17.831 35.2044 18.645V22H34.4234V18.722C34.4234 18.1207 34.2767 17.6623 33.9834 17.347C33.6974 17.0317 33.2904 16.874 32.7624 16.874C32.1611 16.874 31.6881 17.061 31.3434 17.435C30.9987 17.8017 30.8264 18.3113 30.8264 18.964V22H30.0454V18.722C30.0454 18.1207 29.8987 17.6623 29.6054 17.347C29.3194 17.0317 28.9087 16.874 28.3734 16.874C27.7794 16.874 27.3064 17.061 26.9544 17.435C26.6097 17.8017 26.4374 18.3113 26.4374 18.964V22H25.6564V16.214H26.4044V17.27C26.6097 16.918 26.8957 16.6467 27.2624 16.456C27.629 16.2653 28.0507 16.17 28.5274 16.17C29.0114 16.17 29.4294 16.2727 29.7814 16.478C30.1407 16.6833 30.4084 16.9877 30.5844 17.391C30.797 17.0097 31.1014 16.7127 31.4974 16.5C31.9007 16.28 32.3591 16.17 32.8724 16.17ZM43.0503 21.648C42.9036 21.78 42.724 21.8827 42.5113 21.956C42.2986 22.022 42.075 22.055 41.8403 22.055C41.2976 22.055 40.8796 21.9083 40.5863 21.615C40.293 21.3217 40.1463 20.9073 40.1463 20.372V14.949H40.9273V16.214H42.6763V16.874H40.9273V20.328C40.9273 20.6727 41.0116 20.9367 41.1803 21.12C41.349 21.296 41.5946 21.384 41.9173 21.384C42.2693 21.384 42.5553 21.285 42.7753 21.087L43.0503 21.648ZM46.6269 22.055C46.0695 22.055 45.5672 21.9303 45.1199 21.681C44.6725 21.4243 44.3205 21.0723 44.0639 20.625C43.8072 20.1777 43.6789 19.6717 43.6789 19.107C43.6789 18.5423 43.8072 18.0363 44.0639 17.589C44.3205 17.1417 44.6725 16.7933 45.1199 16.544C45.5672 16.2947 46.0695 16.17 46.6269 16.17C47.1842 16.17 47.6865 16.2947 48.1339 16.544C48.5812 16.7933 48.9295 17.1417 49.1789 17.589C49.4355 18.0363 49.5639 18.5423 49.5639 19.107C49.5639 19.6717 49.4355 20.1777 49.1789 20.625C48.9295 21.0723 48.5812 21.4243 48.1339 21.681C47.6865 21.9303 47.1842 22.055 46.6269 22.055ZM46.6269 21.362C47.0375 21.362 47.4042 21.2703 47.7269 21.087C48.0569 20.8963 48.3135 20.6287 48.4969 20.284C48.6802 19.9393 48.7719 19.547 48.7719 19.107C48.7719 18.667 48.6802 18.2747 48.4969 17.93C48.3135 17.5853 48.0569 17.3213 47.7269 17.138C47.4042 16.9473 47.0375 16.852 46.6269 16.852C46.2162 16.852 45.8459 16.9473 45.5159 17.138C45.1932 17.3213 44.9365 17.5853 44.7459 17.93C44.5625 18.2747 44.4709 18.667 44.4709 19.107C44.4709 19.547 44.5625 19.9393 44.7459 20.284C44.9365 20.6287 45.1932 20.8963 45.5159 21.087C45.8459 21.2703 46.2162 21.362 46.6269 21.362ZM54.1393 16.17C54.682 16.17 55.1733 16.2947 55.6133 16.544C56.0533 16.786 56.398 17.1307 56.6473 17.578C56.8967 18.0253 57.0213 18.535 57.0213 19.107C57.0213 19.6863 56.8967 20.1997 56.6473 20.647C56.398 21.0943 56.0533 21.4427 55.6133 21.692C55.1807 21.934 54.6893 22.055 54.1393 22.055C53.67 22.055 53.2447 21.9597 52.8633 21.769C52.4893 21.571 52.1813 21.285 51.9393 20.911V24.134H51.1583V16.214H51.9063V17.358C52.141 16.9767 52.449 16.6833 52.8303 16.478C53.219 16.2727 53.6553 16.17 54.1393 16.17ZM54.0843 21.362C54.4877 21.362 54.8543 21.2703 55.1843 21.087C55.5143 20.8963 55.771 20.6287 55.9543 20.284C56.145 19.9393 56.2403 19.547 56.2403 19.107C56.2403 18.667 56.145 18.2783 55.9543 17.941C55.771 17.5963 55.5143 17.3287 55.1843 17.138C54.8543 16.9473 54.4877 16.852 54.0843 16.852C53.6737 16.852 53.3033 16.9473 52.9733 17.138C52.6507 17.3287 52.394 17.5963 52.2033 17.941C52.02 18.2783 51.9283 18.667 51.9283 19.107C51.9283 19.547 52.02 19.9393 52.2033 20.284C52.394 20.6287 52.6507 20.8963 52.9733 21.087C53.3033 21.2703 53.6737 21.362 54.0843 21.362ZM61.5944 16.17C62.1371 16.17 62.6284 16.2947 63.0684 16.544C63.5084 16.786 63.8531 17.1307 64.1024 17.578C64.3517 18.0253 64.4764 18.535 64.4764 19.107C64.4764 19.6863 64.3517 20.1997 64.1024 20.647C63.8531 21.0943 63.5084 21.4427 63.0684 21.692C62.6357 21.934 62.1444 22.055 61.5944 22.055C61.1251 22.055 60.6997 21.9597 60.3184 21.769C59.9444 21.571 59.6364 21.285 59.3944 20.911V24.134H58.6134V16.214H59.3614V17.358C59.5961 16.9767 59.9041 16.6833 60.2854 16.478C60.6741 16.2727 61.1104 16.17 61.5944 16.17ZM61.5394 21.362C61.9427 21.362 62.3094 21.2703 62.6394 21.087C62.9694 20.8963 63.2261 20.6287 63.4094 20.284C63.6001 19.9393 63.6954 19.547 63.6954 19.107C63.6954 18.667 63.6001 18.2783 63.4094 17.941C63.2261 17.5963 62.9694 17.3287 62.6394 17.138C62.3094 16.9473 61.9427 16.852 61.5394 16.852C61.1287 16.852 60.7584 16.9473 60.4284 17.138C60.1057 17.3287 59.8491 17.5963 59.6584 17.941C59.4751 18.2783 59.3834 18.667 59.3834 19.107C59.3834 19.547 59.4751 19.9393 59.6584 20.284C59.8491 20.6287 60.1057 20.8963 60.4284 21.087C60.7584 21.2703 61.1287 21.362 61.5394 21.362ZM68.5435 21.362C68.9028 21.362 69.2328 21.2997 69.5335 21.175C69.8415 21.043 70.1018 20.8523 70.3145 20.603L70.7545 21.109C70.4978 21.417 70.1788 21.6517 69.7975 21.813C69.4162 21.9743 68.9945 22.055 68.5325 22.055C67.9385 22.055 67.4105 21.9303 66.9485 21.681C66.4865 21.4243 66.1272 21.0723 65.8705 20.625C65.6138 20.1777 65.4855 19.6717 65.4855 19.107C65.4855 18.5423 65.6065 18.0363 65.8485 17.589C66.0978 17.1417 66.4388 16.7933 66.8715 16.544C67.3042 16.2947 67.7955 16.17 68.3455 16.17C68.8588 16.17 69.3208 16.2873 69.7315 16.522C70.1495 16.7567 70.4795 17.083 70.7215 17.501C70.9708 17.919 71.1028 18.3957 71.1175 18.931L66.3655 19.855C66.5122 20.3243 66.7762 20.6947 67.1575 20.966C67.5462 21.23 68.0082 21.362 68.5435 21.362ZM68.3455 16.841C67.9422 16.841 67.5792 16.9363 67.2565 17.127C66.9412 17.3103 66.6918 17.5707 66.5085 17.908C66.3325 18.238 66.2445 18.6193 66.2445 19.052C66.2445 19.162 66.2482 19.2427 66.2555 19.294L70.3365 18.502C70.2485 18.018 70.0248 17.622 69.6655 17.314C69.3062 16.9987 68.8662 16.841 68.3455 16.841ZM77.9872 13.838V22H77.2392V20.856C77.0045 21.2447 76.6928 21.5417 76.3042 21.747C75.9228 21.9523 75.4902 22.055 75.0062 22.055C74.4635 22.055 73.9722 21.9303 73.5322 21.681C73.0922 21.4317 72.7475 21.0833 72.4982 20.636C72.2488 20.1887 72.1242 19.679 72.1242 19.107C72.1242 18.535 72.2488 18.0253 72.4982 17.578C72.7475 17.1307 73.0922 16.786 73.5322 16.544C73.9722 16.2947 74.4635 16.17 75.0062 16.17C75.4755 16.17 75.8972 16.269 76.2712 16.467C76.6525 16.6577 76.9642 16.94 77.2062 17.314V13.838H77.9872ZM75.0722 21.362C75.4755 21.362 75.8385 21.2703 76.1612 21.087C76.4912 20.8963 76.7478 20.6287 76.9312 20.284C77.1218 19.9393 77.2172 19.547 77.2172 19.107C77.2172 18.667 77.1218 18.2747 76.9312 17.93C76.7478 17.5853 76.4912 17.3213 76.1612 17.138C75.8385 16.9473 75.4755 16.852 75.0722 16.852C74.6615 16.852 74.2912 16.9473 73.9612 17.138C73.6385 17.3213 73.3818 17.5853 73.1912 17.93C73.0078 18.2747 72.9162 18.667 72.9162 19.107C72.9162 19.547 73.0078 19.9393 73.1912 20.284C73.3818 20.6287 73.6385 20.8963 73.9612 21.087C74.2912 21.2703 74.6615 21.362 75.0722 21.362ZM10.01 29.214V32.415C10.01 33.273 9.80467 33.9293 9.394 34.384C8.98333 34.8313 8.37833 35.055 7.579 35.055C7.073 35.055 6.64767 34.9597 6.303 34.769C5.96567 34.571 5.70533 34.2593 5.522 33.834C5.33867 34.252 5.07833 34.56 4.741 34.758C4.40367 34.956 3.97833 35.055 3.465 35.055C2.66567 35.055 2.06067 34.8313 1.65 34.384C1.23933 33.9293 1.034 33.273 1.034 32.415V29.214H1.815V32.349C1.815 33.031 1.947 33.537 2.211 33.867C2.475 34.1897 2.893 34.351 3.465 34.351C4.02967 34.351 4.44767 34.186 4.719 33.856C4.99767 33.526 5.137 33.0163 5.137 32.327V29.214H5.918V32.327C5.918 33.0163 6.05367 33.526 6.325 33.856C6.59633 34.186 7.018 34.351 7.59 34.351C8.14733 34.351 8.558 34.1897 8.822 33.867C9.09333 33.537 9.229 33.031 9.229 32.349V29.214H10.01ZM12.132 29.214H12.913V35H12.132V29.214ZM12.528 27.949C12.3666 27.949 12.231 27.894 12.121 27.784C12.011 27.674 11.956 27.542 11.956 27.388C11.956 27.2413 12.011 27.113 12.121 27.003C12.231 26.893 12.3666 26.838 12.528 26.838C12.6893 26.838 12.825 26.893 12.935 27.003C13.045 27.1057 13.1 27.2303 13.1 27.377C13.1 27.5383 13.045 27.674 12.935 27.784C12.825 27.894 12.6893 27.949 12.528 27.949ZM17.9351 34.648C17.7884 34.78 17.6087 34.8827 17.3961 34.956C17.1834 35.022 16.9597 35.055 16.7251 35.055C16.1824 35.055 15.7644 34.9083 15.4711 34.615C15.1777 34.3217 15.0311 33.9073 15.0311 33.372V27.949H15.8121V29.214H17.5611V29.874H15.8121V33.328C15.8121 33.6727 15.8964 33.9367 16.0651 34.12C16.2337 34.296 16.4794 34.384 16.8021 34.384C17.1541 34.384 17.4401 34.285 17.6601 34.087L17.9351 34.648ZM22.2987 29.17C23.0247 29.17 23.6004 29.3827 24.0257 29.808C24.4584 30.226 24.6747 30.8383 24.6747 31.645V35H23.8937V31.722C23.8937 31.1207 23.7434 30.6623 23.4427 30.347C23.1421 30.0317 22.7131 29.874 22.1557 29.874C21.5324 29.874 21.0374 30.061 20.6707 30.435C20.3114 30.8017 20.1317 31.3113 20.1317 31.964V35H19.3507V26.838H20.1317V30.226C20.3444 29.8887 20.6377 29.6283 21.0117 29.445C21.3857 29.2617 21.8147 29.17 22.2987 29.17ZM32.655 29.17C33.1976 29.17 33.689 29.2947 34.129 29.544C34.569 29.786 34.9136 30.1307 35.163 30.578C35.4123 31.0253 35.537 31.535 35.537 32.107C35.537 32.6863 35.4123 33.1997 35.163 33.647C34.9136 34.0943 34.569 34.4427 34.129 34.692C33.6963 34.934 33.205 35.055 32.655 35.055C32.1856 35.055 31.7603 34.9597 31.379 34.769C31.005 34.571 30.697 34.285 30.455 33.911V37.134H29.674V29.214H30.422V30.358C30.6566 29.9767 30.9646 29.6833 31.346 29.478C31.7346 29.2727 32.171 29.17 32.655 29.17ZM32.6 34.362C33.0033 34.362 33.37 34.2703 33.7 34.087C34.03 33.8963 34.2866 33.6287 34.47 33.284C34.6606 32.9393 34.756 32.547 34.756 32.107C34.756 31.667 34.6606 31.2783 34.47 30.941C34.2866 30.5963 34.03 30.3287 33.7 30.138C33.37 29.9473 33.0033 29.852 32.6 29.852C32.1893 29.852 31.819 29.9473 31.489 30.138C31.1663 30.3287 30.9096 30.5963 30.719 30.941C30.5356 31.2783 30.444 31.667 30.444 32.107C30.444 32.547 30.5356 32.9393 30.719 33.284C30.9096 33.6287 31.1663 33.8963 31.489 34.087C31.819 34.2703 32.1893 34.362 32.6 34.362ZM39.604 34.362C39.9634 34.362 40.2934 34.2997 40.594 34.175C40.902 34.043 41.1624 33.8523 41.375 33.603L41.815 34.109C41.5584 34.417 41.2394 34.6517 40.858 34.813C40.4767 34.9743 40.055 35.055 39.593 35.055C38.999 35.055 38.471 34.9303 38.009 34.681C37.547 34.4243 37.1877 34.0723 36.931 33.625C36.6744 33.1777 36.546 32.6717 36.546 32.107C36.546 31.5423 36.667 31.0363 36.909 30.589C37.1584 30.1417 37.4994 29.7933 37.932 29.544C38.3647 29.2947 38.856 29.17 39.406 29.17C39.9194 29.17 40.3814 29.2873 40.792 29.522C41.21 29.7567 41.54 30.083 41.782 30.501C42.0314 30.919 42.1634 31.3957 42.178 31.931L37.426 32.855C37.5727 33.3243 37.8367 33.6947 38.218 33.966C38.6067 34.23 39.0687 34.362 39.604 34.362ZM39.406 29.841C39.0027 29.841 38.6397 29.9363 38.317 30.127C38.0017 30.3103 37.7524 30.5707 37.569 30.908C37.393 31.238 37.305 31.6193 37.305 32.052C37.305 32.162 37.3087 32.2427 37.316 32.294L41.397 31.502C41.309 31.018 41.0854 30.622 40.726 30.314C40.3667 29.9987 39.9267 29.841 39.406 29.841ZM49.0477 29.214V35H48.2997V33.856C48.065 34.2447 47.7534 34.5417 47.3647 34.747C46.9834 34.9523 46.5507 35.055 46.0667 35.055C45.524 35.055 45.0327 34.9303 44.5927 34.681C44.1527 34.4317 43.808 34.0833 43.5587 33.636C43.3094 33.1887 43.1847 32.679 43.1847 32.107C43.1847 31.535 43.3094 31.0253 43.5587 30.578C43.808 30.1307 44.1527 29.786 44.5927 29.544C45.0327 29.2947 45.524 29.17 46.0667 29.17C46.536 29.17 46.9577 29.269 47.3317 29.467C47.713 29.6577 48.0247 29.94 48.2667 30.314V29.214H49.0477ZM46.1327 34.362C46.536 34.362 46.899 34.2703 47.2217 34.087C47.5517 33.8963 47.8084 33.6287 47.9917 33.284C48.1824 32.9393 48.2777 32.547 48.2777 32.107C48.2777 31.667 48.1824 31.2747 47.9917 30.93C47.8084 30.5853 47.5517 30.3213 47.2217 30.138C46.899 29.9473 46.536 29.852 46.1327 29.852C45.722 29.852 45.3517 29.9473 45.0217 30.138C44.699 30.3213 44.4424 30.5853 44.2517 30.93C44.0684 31.2747 43.9767 31.667 43.9767 32.107C43.9767 32.547 44.0684 32.9393 44.2517 33.284C44.4424 33.6287 44.699 33.8963 45.0217 34.087C45.3517 34.2703 45.722 34.362 46.1327 34.362ZM54.1708 29.17C54.8968 29.17 55.4725 29.3827 55.8978 29.808C56.3305 30.226 56.5468 30.8383 56.5468 31.645V35H55.7658V31.722C55.7658 31.1207 55.6155 30.6623 55.3148 30.347C55.0141 30.0317 54.5851 29.874 54.0278 29.874C53.4045 29.874 52.9095 30.061 52.5428 30.435C52.1835 30.8017 52.0038 31.3113 52.0038 31.964V35H51.2228V29.214H51.9708V30.281C52.1835 29.929 52.4768 29.6577 52.8508 29.467C53.2321 29.269 53.6721 29.17 54.1708 29.17ZM63.8811 29.214V35H63.1331V33.944C62.9278 34.296 62.6455 34.571 62.2861 34.769C61.9268 34.9597 61.5161 35.055 61.0541 35.055C60.2988 35.055 59.7011 34.846 59.2611 34.428C58.8285 34.0027 58.6121 33.383 58.6121 32.569V29.214H59.3931V32.492C59.3931 33.1007 59.5435 33.5627 59.8441 33.878C60.1448 34.1933 60.5738 34.351 61.1311 34.351C61.7398 34.351 62.2201 34.1677 62.5721 33.801C62.9241 33.427 63.1001 32.91 63.1001 32.25V29.214H63.8811ZM68.9175 34.648C68.7708 34.78 68.5912 34.8827 68.3785 34.956C68.1658 35.022 67.9422 35.055 67.7075 35.055C67.1648 35.055 66.7468 34.9083 66.4535 34.615C66.1602 34.3217 66.0135 33.9073 66.0135 33.372V27.949H66.7945V29.214H68.5435V29.874H66.7945V33.328C66.7945 33.6727 66.8788 33.9367 67.0475 34.12C67.2162 34.296 67.4618 34.384 67.7845 34.384C68.1365 34.384 68.4225 34.285 68.6425 34.087L68.9175 34.648ZM4.07 42.17C4.61267 42.17 5.104 42.2947 5.544 42.544C5.984 42.786 6.32867 43.1307 6.578 43.578C6.82733 44.0253 6.952 44.535 6.952 45.107C6.952 45.679 6.82733 46.1887 6.578 46.636C6.32867 47.0833 5.984 47.4317 5.544 47.681C5.104 47.9303 4.61267 48.055 4.07 48.055C3.586 48.055 3.14967 47.9523 2.761 47.747C2.37967 47.5417 2.07167 47.2447 1.837 46.856V48H1.089V39.838H1.87V43.314C2.112 42.94 2.42 42.6577 2.794 42.467C3.17533 42.269 3.60067 42.17 4.07 42.17ZM4.015 47.362C4.41833 47.362 4.785 47.2703 5.115 47.087C5.445 46.8963 5.70167 46.6287 5.885 46.284C6.07567 45.9393 6.171 45.547 6.171 45.107C6.171 44.667 6.07567 44.2747 5.885 43.93C5.70167 43.5853 5.445 43.3213 5.115 43.138C4.785 42.9473 4.41833 42.852 4.015 42.852C3.60433 42.852 3.234 42.9473 2.904 43.138C2.58133 43.3213 2.32467 43.5853 2.134 43.93C1.95067 44.2747 1.859 44.667 1.859 45.107C1.859 45.547 1.95067 45.9393 2.134 46.284C2.32467 46.6287 2.58133 46.8963 2.904 47.087C3.234 47.2703 3.60433 47.362 4.015 47.362ZM13.7581 42.214V48H13.0101V46.944C12.8047 47.296 12.5224 47.571 12.1631 47.769C11.8037 47.9597 11.3931 48.055 10.9311 48.055C10.1757 48.055 9.57808 47.846 9.13808 47.428C8.70541 47.0027 8.48908 46.383 8.48908 45.569V42.214H9.27008V45.492C9.27008 46.1007 9.42041 46.5627 9.72108 46.878C10.0217 47.1933 10.4507 47.351 11.0081 47.351C11.6167 47.351 12.0971 47.1677 12.4491 46.801C12.8011 46.427 12.9771 45.91 12.9771 45.25V42.214H13.7581ZM18.7944 47.648C18.6478 47.78 18.4681 47.8827 18.2554 47.956C18.0428 48.022 17.8191 48.055 17.5844 48.055C17.0418 48.055 16.6238 47.9083 16.3304 47.615C16.0371 47.3217 15.8904 46.9073 15.8904 46.372V40.949H16.6714V42.214H18.4204V42.874H16.6714V46.328C16.6714 46.6727 16.7558 46.9367 16.9244 47.12C17.0931 47.296 17.3388 47.384 17.6614 47.384C18.0134 47.384 18.2994 47.285 18.5194 47.087L18.7944 47.648ZM23.0591 47.648C22.9124 47.78 22.7328 47.8827 22.5201 47.956C22.3074 48.022 22.0838 48.055 21.8491 48.055C21.3064 48.055 20.8884 47.9083 20.5951 47.615C20.3018 47.3217 20.1551 46.9073 20.1551 46.372V40.949H20.9361V42.214H22.6851V42.874H20.9361V46.328C20.9361 46.6727 21.0204 46.9367 21.1891 47.12C21.3578 47.296 21.6034 47.384 21.9261 47.384C22.2781 47.384 22.5641 47.285 22.7841 47.087L23.0591 47.648ZM26.7456 47.362C27.105 47.362 27.435 47.2997 27.7356 47.175C28.0436 47.043 28.304 46.8523 28.5166 46.603L28.9566 47.109C28.7 47.417 28.381 47.6517 27.9996 47.813C27.6183 47.9743 27.1966 48.055 26.7346 48.055C26.1406 48.055 25.6126 47.9303 25.1506 47.681C24.6886 47.4243 24.3293 47.0723 24.0726 46.625C23.816 46.1777 23.6876 45.6717 23.6876 45.107C23.6876 44.5423 23.8086 44.0363 24.0506 43.589C24.3 43.1417 24.641 42.7933 25.0736 42.544C25.5063 42.2947 25.9976 42.17 26.5476 42.17C27.061 42.17 27.523 42.2873 27.9336 42.522C28.3516 42.7567 28.6816 43.083 28.9236 43.501C29.173 43.919 29.305 44.3957 29.3196 44.931L24.5676 45.855C24.7143 46.3243 24.9783 46.6947 25.3596 46.966C25.7483 47.23 26.2103 47.362 26.7456 47.362ZM26.5476 42.841C26.1443 42.841 25.7813 42.9363 25.4586 43.127C25.1433 43.3103 24.894 43.5707 24.7106 43.908C24.5346 44.238 24.4466 44.6193 24.4466 45.052C24.4466 45.162 24.4503 45.2427 24.4576 45.294L28.5386 44.502C28.4506 44.018 28.227 43.622 27.8676 43.314C27.5083 42.9987 27.0683 42.841 26.5476 42.841ZM31.6573 43.347C31.8406 42.9583 32.112 42.665 32.4713 42.467C32.838 42.269 33.289 42.17 33.8243 42.17V42.929L33.6373 42.918C33.0286 42.918 32.552 43.105 32.2073 43.479C31.8626 43.853 31.6903 44.3773 31.6903 45.052V48H30.9093V42.214H31.6573V43.347ZM39.7543 48.055C39.2849 48.055 38.8339 47.989 38.4013 47.857C37.9759 47.7177 37.6423 47.5453 37.4003 47.34L37.7523 46.724C37.9943 46.9147 38.2986 47.0723 38.6653 47.197C39.0319 47.3143 39.4133 47.373 39.8093 47.373C40.3373 47.373 40.7259 47.2923 40.9753 47.131C41.2319 46.9623 41.3603 46.7277 41.3603 46.427C41.3603 46.2143 41.2906 46.0493 41.1513 45.932C41.0119 45.8073 40.8359 45.7157 40.6233 45.657C40.4106 45.591 40.1283 45.5287 39.7763 45.47C39.3069 45.382 38.9293 45.294 38.6433 45.206C38.3573 45.1107 38.1116 44.953 37.9063 44.733C37.7083 44.513 37.6093 44.2087 37.6093 43.82C37.6093 43.336 37.8109 42.94 38.2143 42.632C38.6176 42.324 39.1786 42.17 39.8973 42.17C40.2713 42.17 40.6453 42.2213 41.0193 42.324C41.3933 42.4193 41.7013 42.5477 41.9433 42.709L41.6023 43.336C41.1256 43.006 40.5573 42.841 39.8973 42.841C39.3986 42.841 39.0209 42.929 38.7643 43.105C38.5149 43.281 38.3903 43.512 38.3903 43.798C38.3903 44.018 38.4599 44.194 38.5993 44.326C38.7459 44.458 38.9256 44.557 39.1383 44.623C39.3509 44.6817 39.6443 44.744 40.0183 44.81C40.4803 44.898 40.8506 44.986 41.1293 45.074C41.4079 45.162 41.6463 45.3123 41.8443 45.525C42.0423 45.7377 42.1413 46.031 42.1413 46.405C42.1413 46.911 41.9286 47.3143 41.5033 47.615C41.0853 47.9083 40.5023 48.055 39.7543 48.055ZM48.8651 42.214V48H48.1171V46.856C47.8824 47.2447 47.5708 47.5417 47.1821 47.747C46.8008 47.9523 46.3681 48.055 45.8841 48.055C45.3414 48.055 44.8501 47.9303 44.4101 47.681C43.9701 47.4317 43.6254 47.0833 43.3761 46.636C43.1268 46.1887 43.0021 45.679 43.0021 45.107C43.0021 44.535 43.1268 44.0253 43.3761 43.578C43.6254 43.1307 43.9701 42.786 44.4101 42.544C44.8501 42.2947 45.3414 42.17 45.8841 42.17C46.3534 42.17 46.7751 42.269 47.1491 42.467C47.5304 42.6577 47.8421 42.94 48.0841 43.314V42.214H48.8651ZM45.9501 47.362C46.3534 47.362 46.7164 47.2703 47.0391 47.087C47.3691 46.8963 47.6258 46.6287 47.8091 46.284C47.9998 45.9393 48.0951 45.547 48.0951 45.107C48.0951 44.667 47.9998 44.2747 47.8091 43.93C47.6258 43.5853 47.3691 43.3213 47.0391 43.138C46.7164 42.9473 46.3534 42.852 45.9501 42.852C45.5394 42.852 45.1691 42.9473 44.8391 43.138C44.5164 43.3213 44.2598 43.5853 44.0691 43.93C43.8858 44.2747 43.7941 44.667 43.7941 45.107C43.7941 45.547 43.8858 45.9393 44.0691 46.284C44.2598 46.6287 44.5164 46.8963 44.8391 47.087C45.1691 47.2703 45.5394 47.362 45.9501 47.362ZM56.2542 42.214V48H55.5062V46.944C55.3008 47.296 55.0185 47.571 54.6592 47.769C54.2998 47.9597 53.8892 48.055 53.4272 48.055C52.6718 48.055 52.0742 47.846 51.6342 47.428C51.2015 47.0027 50.9852 46.383 50.9852 45.569V42.214H51.7662V45.492C51.7662 46.1007 51.9165 46.5627 52.2172 46.878C52.5178 47.1933 52.9468 47.351 53.5042 47.351C54.1128 47.351 54.5932 47.1677 54.9452 46.801C55.2972 46.427 55.4732 45.91 55.4732 45.25V42.214H56.2542ZM60.8395 48.055C60.2675 48.055 59.7542 47.9303 59.2995 47.681C58.8522 47.4317 58.5002 47.0833 58.2435 46.636C57.9869 46.1813 57.8585 45.6717 57.8585 45.107C57.8585 44.5423 57.9869 44.0363 58.2435 43.589C58.5002 43.1417 58.8522 42.7933 59.2995 42.544C59.7542 42.2947 60.2675 42.17 60.8395 42.17C61.3382 42.17 61.7819 42.269 62.1705 42.467C62.5665 42.6577 62.8782 42.94 63.1055 43.314L62.5225 43.71C62.3319 43.424 62.0899 43.2113 61.7965 43.072C61.5032 42.9253 61.1842 42.852 60.8395 42.852C60.4215 42.852 60.0439 42.9473 59.7065 43.138C59.3765 43.3213 59.1162 43.5853 58.9255 43.93C58.7422 44.2747 58.6505 44.667 58.6505 45.107C58.6505 45.5543 58.7422 45.9503 58.9255 46.295C59.1162 46.6323 59.3765 46.8963 59.7065 47.087C60.0439 47.2703 60.4215 47.362 60.8395 47.362C61.1842 47.362 61.5032 47.2923 61.7965 47.153C62.0899 47.0137 62.3319 46.801 62.5225 46.515L63.1055 46.911C62.8782 47.285 62.5665 47.571 62.1705 47.769C61.7745 47.9597 61.3309 48.055 60.8395 48.055ZM67.0181 47.362C67.3774 47.362 67.7074 47.2997 68.0081 47.175C68.3161 47.043 68.5764 46.8523 68.7891 46.603L69.2291 47.109C68.9724 47.417 68.6534 47.6517 68.2721 47.813C67.8908 47.9743 67.4691 48.055 67.0071 48.055C66.4131 48.055 65.8851 47.9303 65.4231 47.681C64.9611 47.4243 64.6018 47.0723 64.3451 46.625C64.0884 46.1777 63.9601 45.6717 63.9601 45.107C63.9601 44.5423 64.0811 44.0363 64.3231 43.589C64.5724 43.1417 64.9134 42.7933 65.3461 42.544C65.7788 42.2947 66.2701 42.17 66.8201 42.17C67.3334 42.17 67.7954 42.2873 68.2061 42.522C68.6241 42.7567 68.9541 43.083 69.1961 43.501C69.4454 43.919 69.5774 44.3957 69.5921 44.931L64.8401 45.855C64.9868 46.3243 65.2508 46.6947 65.6321 46.966C66.0208 47.23 66.4828 47.362 67.0181 47.362ZM66.8201 42.841C66.4168 42.841 66.0538 42.9363 65.7311 43.127C65.4158 43.3103 65.1664 43.5707 64.9831 43.908C64.8071 44.238 64.7191 44.6193 64.7191 45.052C64.7191 45.162 64.7228 45.2427 64.7301 45.294L68.8111 44.502C68.7231 44.018 68.4994 43.622 68.1401 43.314C67.7808 42.9987 67.3408 42.841 66.8201 42.841ZM71.2588 48.055C71.0974 48.055 70.9581 47.9963 70.8408 47.879C70.7308 47.7617 70.6758 47.6187 70.6758 47.45C70.6758 47.2813 70.7308 47.142 70.8408 47.032C70.9581 46.9147 71.0974 46.856 71.2588 46.856C71.4201 46.856 71.5594 46.9147 71.6768 47.032C71.7941 47.142 71.8528 47.2813 71.8528 47.45C71.8528 47.6187 71.7941 47.7617 71.6768 47.879C71.5594 47.9963 71.4201 48.055 71.2588 48.055Z" fill="black"/>
</svg>
