<svg id="personal" width="50" height="50" viewBox="0 0 300 300" fill="none" xmlns="http://www.w3.org/2000/svg">
       <path d="M149.644 166.816C136.213 166.816 123.331 169.242 113.833 173.558C104.336 177.875 99 183.73 99 189.835V191.413C99 198.916 105.083 204.999 112.587 204.999H149.644" stroke="#CACACA" stroke-width="11" stroke-linecap="round"/>
       <path d="M149.64 150.245C134.383 150.245 122.016 137.878 122.016 122.623C122.016 107.367 134.383 95 149.64 95" stroke="#CACACA" stroke-width="11" stroke-linecap="round"/>
       <path d="M149.945 166.816C163.377 166.816 176.259 169.242 185.756 173.558C195.254 177.875 200.59 183.73 200.59 189.835V191.413C200.59 198.916 194.506 204.999 187.003 204.999H149.945" stroke="#CACACA" stroke-width="11" stroke-linecap="round"/>
       <path d="M149.945 150.245C165.202 150.245 177.569 137.878 177.569 122.623C177.569 107.367 165.202 95 149.945 95" stroke="#CACACA" stroke-width="11" stroke-linecap="round"/>
       </svg>