<svg width="104" height="49" viewBox="0 0 104 49" fill="none" xmlns="http://www.w3.org/2000/svg">
<path d="M4.136 1.3C5.11867 1.3 5.88867 1.53467 6.446 2.004C7.00333 2.47333 7.282 3.11867 7.282 3.94C7.282 4.76133 7.00333 5.40667 6.446 5.876C5.88867 6.338 5.11867 6.569 4.136 6.569H2.068V9H1.254V1.3H4.136ZM4.114 5.854C4.87667 5.854 5.45967 5.689 5.863 5.359C6.26633 5.02167 6.468 4.54867 6.468 3.94C6.468 3.31667 6.26633 2.84 5.863 2.51C5.45967 2.17267 4.87667 2.004 4.114 2.004H2.068V5.854H4.114ZM8.7267 3.214H9.5077V9H8.7267V3.214ZM9.1227 1.949C8.96136 1.949 8.8257 1.894 8.7157 1.784C8.6057 1.674 8.5507 1.542 8.5507 1.388C8.5507 1.24133 8.6057 1.113 8.7157 1.003C8.8257 0.892999 8.96136 0.838 9.1227 0.838C9.28403 0.838 9.4197 0.892999 9.5297 1.003C9.6397 1.10567 9.6947 1.23033 9.6947 1.377C9.6947 1.53833 9.6397 1.674 9.5297 1.784C9.4197 1.894 9.28403 1.949 9.1227 1.949ZM13.2318 9.055C12.7625 9.055 12.3115 8.989 11.8788 8.857C11.4535 8.71767 11.1198 8.54533 10.8778 8.34L11.2298 7.724C11.4718 7.91467 11.7761 8.07233 12.1428 8.197C12.5095 8.31433 12.8908 8.373 13.2868 8.373C13.8148 8.373 14.2035 8.29233 14.4528 8.131C14.7095 7.96233 14.8378 7.72767 14.8378 7.427C14.8378 7.21433 14.7681 7.04933 14.6288 6.932C14.4895 6.80733 14.3135 6.71567 14.1008 6.657C13.8881 6.591 13.6058 6.52867 13.2538 6.47C12.7845 6.382 12.4068 6.294 12.1208 6.206C11.8348 6.11067 11.5891 5.953 11.3838 5.733C11.1858 5.513 11.0868 5.20867 11.0868 4.82C11.0868 4.336 11.2885 3.94 11.6918 3.632C12.0951 3.324 12.6561 3.17 13.3748 3.17C13.7488 3.17 14.1228 3.22133 14.4968 3.324C14.8708 3.41933 15.1788 3.54767 15.4208 3.709L15.0798 4.336C14.6031 4.006 14.0348 3.841 13.3748 3.841C12.8761 3.841 12.4985 3.929 12.2418 4.105C11.9925 4.281 11.8678 4.512 11.8678 4.798C11.8678 5.018 11.9375 5.194 12.0768 5.326C12.2235 5.458 12.4031 5.557 12.6158 5.623C12.8285 5.68167 13.1218 5.744 13.4958 5.81C13.9578 5.898 14.3281 5.986 14.6068 6.074C14.8855 6.162 15.1238 6.31233 15.3218 6.525C15.5198 6.73767 15.6188 7.031 15.6188 7.405C15.6188 7.911 15.4061 8.31433 14.9808 8.615C14.5628 8.90833 13.9798 9.055 13.2318 9.055ZM19.9116 8.648C19.765 8.78 19.5853 8.88267 19.3726 8.956C19.16 9.022 18.9363 9.055 18.7016 9.055C18.159 9.055 17.741 8.90833 17.4476 8.615C17.1543 8.32167 17.0076 7.90733 17.0076 7.372V1.949H17.7886V3.214H19.5376V3.874H17.7886V7.328C17.7886 7.67267 17.873 7.93667 18.0416 8.12C18.2103 8.296 18.456 8.384 18.7786 8.384C19.1306 8.384 19.4166 8.285 19.6366 8.087L19.9116 8.648ZM26.4032 3.214V9H25.6552V7.856C25.4205 8.24467 25.1088 8.54167 24.7202 8.747C24.3388 8.95233 23.9062 9.055 23.4222 9.055C22.8795 9.055 22.3882 8.93033 21.9482 8.681C21.5082 8.43167 21.1635 8.08333 20.9142 7.636C20.6648 7.18867 20.5402 6.679 20.5402 6.107C20.5402 5.535 20.6648 5.02533 20.9142 4.578C21.1635 4.13067 21.5082 3.786 21.9482 3.544C22.3882 3.29467 22.8795 3.17 23.4222 3.17C23.8915 3.17 24.3132 3.269 24.6872 3.467C25.0685 3.65767 25.3802 3.94 25.6222 4.314V3.214H26.4032ZM23.4882 8.362C23.8915 8.362 24.2545 8.27033 24.5772 8.087C24.9072 7.89633 25.1638 7.62867 25.3472 7.284C25.5378 6.93933 25.6332 6.547 25.6332 6.107C25.6332 5.667 25.5378 5.27467 25.3472 4.93C25.1638 4.58533 24.9072 4.32133 24.5772 4.138C24.2545 3.94733 23.8915 3.852 23.4882 3.852C23.0775 3.852 22.7072 3.94733 22.3772 4.138C22.0545 4.32133 21.7978 4.58533 21.6072 4.93C21.4238 5.27467 21.3322 5.667 21.3322 6.107C21.3322 6.547 21.4238 6.93933 21.6072 7.284C21.7978 7.62867 22.0545 7.89633 22.3772 8.087C22.7072 8.27033 23.0775 8.362 23.4882 8.362ZM30.9763 9.055C30.4043 9.055 29.8909 8.93033 29.4363 8.681C28.9889 8.43167 28.6369 8.08333 28.3803 7.636C28.1236 7.18133 27.9953 6.67167 27.9953 6.107C27.9953 5.54233 28.1236 5.03633 28.3803 4.589C28.6369 4.14167 28.9889 3.79333 29.4363 3.544C29.8909 3.29467 30.4043 3.17 30.9763 3.17C31.4749 3.17 31.9186 3.269 32.3073 3.467C32.7033 3.65767 33.0149 3.94 33.2423 4.314L32.6593 4.71C32.4686 4.424 32.2266 4.21133 31.9333 4.072C31.6399 3.92533 31.3209 3.852 30.9763 3.852C30.5583 3.852 30.1806 3.94733 29.8433 4.138C29.5133 4.32133 29.2529 4.58533 29.0623 4.93C28.8789 5.27467 28.7873 5.667 28.7873 6.107C28.7873 6.55433 28.8789 6.95033 29.0623 7.295C29.2529 7.63233 29.5133 7.89633 29.8433 8.087C30.1806 8.27033 30.5583 8.362 30.9763 8.362C31.3209 8.362 31.6399 8.29233 31.9333 8.153C32.2266 8.01367 32.4686 7.801 32.6593 7.515L33.2423 7.911C33.0149 8.285 32.7033 8.571 32.3073 8.769C31.9113 8.95967 31.4676 9.055 30.9763 9.055ZM37.6386 3.17C38.3646 3.17 38.9402 3.38267 39.3656 3.808C39.7982 4.226 40.0146 4.83833 40.0146 5.645V9H39.2336V5.722C39.2336 5.12067 39.0832 4.66233 38.7826 4.347C38.4819 4.03167 38.0529 3.874 37.4956 3.874C36.8722 3.874 36.3772 4.061 36.0106 4.435C35.6512 4.80167 35.4716 5.31133 35.4716 5.964V9H34.6906V0.838H35.4716V4.226C35.6842 3.88867 35.9776 3.62833 36.3516 3.445C36.7256 3.26167 37.1546 3.17 37.6386 3.17ZM42.1349 3.214H42.9159V9H42.1349V3.214ZM42.5309 1.949C42.3696 1.949 42.2339 1.894 42.1239 1.784C42.0139 1.674 41.9589 1.542 41.9589 1.388C41.9589 1.24133 42.0139 1.113 42.1239 1.003C42.2339 0.892999 42.3696 0.838 42.5309 0.838C42.6922 0.838 42.8279 0.892999 42.9379 1.003C43.0479 1.10567 43.1029 1.23033 43.1029 1.377C43.1029 1.53833 43.0479 1.674 42.9379 1.784C42.8279 1.894 42.6922 1.949 42.5309 1.949ZM47.454 9.055C46.8967 9.055 46.3943 8.93033 45.947 8.681C45.4997 8.42433 45.1477 8.07233 44.891 7.625C44.6343 7.17767 44.506 6.67167 44.506 6.107C44.506 5.54233 44.6343 5.03633 44.891 4.589C45.1477 4.14167 45.4997 3.79333 45.947 3.544C46.3943 3.29467 46.8967 3.17 47.454 3.17C48.0113 3.17 48.5137 3.29467 48.961 3.544C49.4083 3.79333 49.7567 4.14167 50.006 4.589C50.2627 5.03633 50.391 5.54233 50.391 6.107C50.391 6.67167 50.2627 7.17767 50.006 7.625C49.7567 8.07233 49.4083 8.42433 48.961 8.681C48.5137 8.93033 48.0113 9.055 47.454 9.055ZM47.454 8.362C47.8647 8.362 48.2313 8.27033 48.554 8.087C48.884 7.89633 49.1407 7.62867 49.324 7.284C49.5073 6.93933 49.599 6.547 49.599 6.107C49.599 5.667 49.5073 5.27467 49.324 4.93C49.1407 4.58533 48.884 4.32133 48.554 4.138C48.2313 3.94733 47.8647 3.852 47.454 3.852C47.0433 3.852 46.673 3.94733 46.343 4.138C46.0203 4.32133 45.7637 4.58533 45.573 4.93C45.3897 5.27467 45.298 5.667 45.298 6.107C45.298 6.547 45.3897 6.93933 45.573 7.284C45.7637 7.62867 46.0203 7.89633 46.343 8.087C46.673 8.27033 47.0433 8.362 47.454 8.362ZM54.8644 3.214H55.6454V9H54.8644V3.214ZM55.2604 1.949C55.0991 1.949 54.9634 1.894 54.8534 1.784C54.7434 1.674 54.6884 1.542 54.6884 1.388C54.6884 1.24133 54.7434 1.113 54.8534 1.003C54.9634 0.892999 55.0991 0.838 55.2604 0.838C55.4217 0.838 55.5574 0.892999 55.6674 1.003C55.7774 1.10567 55.8324 1.23033 55.8324 1.377C55.8324 1.53833 55.7774 1.674 55.6674 1.784C55.5574 1.894 55.4217 1.949 55.2604 1.949ZM60.2165 9.055C59.6445 9.055 59.1312 8.93033 58.6765 8.681C58.2292 8.43167 57.8772 8.08333 57.6205 7.636C57.3638 7.18133 57.2355 6.67167 57.2355 6.107C57.2355 5.54233 57.3638 5.03633 57.6205 4.589C57.8772 4.14167 58.2292 3.79333 58.6765 3.544C59.1312 3.29467 59.6445 3.17 60.2165 3.17C60.7152 3.17 61.1588 3.269 61.5475 3.467C61.9435 3.65767 62.2552 3.94 62.4825 4.314L61.8995 4.71C61.7088 4.424 61.4668 4.21133 61.1735 4.072C60.8802 3.92533 60.5612 3.852 60.2165 3.852C59.7985 3.852 59.4208 3.94733 59.0835 4.138C58.7535 4.32133 58.4932 4.58533 58.3025 4.93C58.1192 5.27467 58.0275 5.667 58.0275 6.107C58.0275 6.55433 58.1192 6.95033 58.3025 7.295C58.4932 7.63233 58.7535 7.89633 59.0835 8.087C59.4208 8.27033 59.7985 8.362 60.2165 8.362C60.5612 8.362 60.8802 8.29233 61.1735 8.153C61.4668 8.01367 61.7088 7.801 61.8995 7.515L62.4825 7.911C62.2552 8.285 61.9435 8.571 61.5475 8.769C61.1515 8.95967 60.7078 9.055 60.2165 9.055ZM66.3951 8.362C66.7544 8.362 67.0844 8.29967 67.3851 8.175C67.6931 8.043 67.9534 7.85233 68.1661 7.603L68.6061 8.109C68.3494 8.417 68.0304 8.65167 67.6491 8.813C67.2677 8.97433 66.8461 9.055 66.3841 9.055C65.7901 9.055 65.2621 8.93033 64.8001 8.681C64.3381 8.42433 63.9787 8.07233 63.7221 7.625C63.4654 7.17767 63.3371 6.67167 63.3371 6.107C63.3371 5.54233 63.4581 5.03633 63.7001 4.589C63.9494 4.14167 64.2904 3.79333 64.7231 3.544C65.1557 3.29467 65.6471 3.17 66.1971 3.17C66.7104 3.17 67.1724 3.28733 67.5831 3.522C68.0011 3.75667 68.3311 4.083 68.5731 4.501C68.8224 4.919 68.9544 5.39567 68.9691 5.931L64.2171 6.855C64.3637 7.32433 64.6277 7.69467 65.0091 7.966C65.3977 8.23 65.8597 8.362 66.3951 8.362ZM66.1971 3.841C65.7937 3.841 65.4307 3.93633 65.1081 4.127C64.7927 4.31033 64.5434 4.57067 64.3601 4.908C64.1841 5.238 64.0961 5.61933 64.0961 6.052C64.0961 6.162 64.0997 6.24267 64.1071 6.294L68.1881 5.502C68.1001 5.018 67.8764 4.622 67.5171 4.314C67.1577 3.99867 66.7177 3.841 66.1971 3.841ZM3.487 22.055C2.915 22.055 2.40167 21.9303 1.947 21.681C1.49967 21.4317 1.14767 21.0833 0.891 20.636C0.634333 20.1813 0.506 19.6717 0.506 19.107C0.506 18.5423 0.634333 18.0363 0.891 17.589C1.14767 17.1417 1.49967 16.7933 1.947 16.544C2.40167 16.2947 2.915 16.17 3.487 16.17C3.98567 16.17 4.42933 16.269 4.818 16.467C5.214 16.6577 5.52567 16.94 5.753 17.314L5.17 17.71C4.97933 17.424 4.73733 17.2113 4.444 17.072C4.15067 16.9253 3.83167 16.852 3.487 16.852C3.069 16.852 2.69133 16.9473 2.354 17.138C2.024 17.3213 1.76367 17.5853 1.573 17.93C1.38967 18.2747 1.298 18.667 1.298 19.107C1.298 19.5543 1.38967 19.9503 1.573 20.295C1.76367 20.6323 2.024 20.8963 2.354 21.087C2.69133 21.2703 3.069 21.362 3.487 21.362C3.83167 21.362 4.15067 21.2923 4.444 21.153C4.73733 21.0137 4.97933 20.801 5.17 20.515L5.753 20.911C5.52567 21.285 5.214 21.571 4.818 21.769C4.422 21.9597 3.97833 22.055 3.487 22.055ZM8.03524 17.347C8.21858 16.9583 8.48991 16.665 8.84924 16.467C9.21591 16.269 9.66691 16.17 10.2022 16.17V16.929L10.0152 16.918C9.40658 16.918 8.92991 17.105 8.58524 17.479C8.24058 17.853 8.06824 18.3773 8.06824 19.052V22H7.28724V16.214H8.03524V17.347ZM14.0376 21.362C14.397 21.362 14.727 21.2997 15.0276 21.175C15.3356 21.043 15.596 20.8523 15.8086 20.603L16.2486 21.109C15.992 21.417 15.673 21.6517 15.2916 21.813C14.9103 21.9743 14.4886 22.055 14.0266 22.055C13.4326 22.055 12.9046 21.9303 12.4426 21.681C11.9806 21.4243 11.6213 21.0723 11.3646 20.625C11.108 20.1777 10.9796 19.6717 10.9796 19.107C10.9796 18.5423 11.1006 18.0363 11.3426 17.589C11.592 17.1417 11.933 16.7933 12.3656 16.544C12.7983 16.2947 13.2896 16.17 13.8396 16.17C14.353 16.17 14.815 16.2873 15.2256 16.522C15.6436 16.7567 15.9736 17.083 16.2156 17.501C16.465 17.919 16.597 18.3957 16.6116 18.931L11.8596 19.855C12.0063 20.3243 12.2703 20.6947 12.6516 20.966C13.0403 21.23 13.5023 21.362 14.0376 21.362ZM13.8396 16.841C13.4363 16.841 13.0733 16.9363 12.7506 17.127C12.4353 17.3103 12.186 17.5707 12.0026 17.908C11.8266 18.238 11.7386 18.6193 11.7386 19.052C11.7386 19.162 11.7423 19.2427 11.7496 19.294L15.8306 18.502C15.7426 18.018 15.519 17.622 15.1596 17.314C14.8003 16.9987 14.3603 16.841 13.8396 16.841ZM23.4813 16.214V22H22.7333V20.856C22.4986 21.2447 22.187 21.5417 21.7983 21.747C21.417 21.9523 20.9843 22.055 20.5003 22.055C19.9576 22.055 19.4663 21.9303 19.0263 21.681C18.5863 21.4317 18.2416 21.0833 17.9923 20.636C17.743 20.1887 17.6183 19.679 17.6183 19.107C17.6183 18.535 17.743 18.0253 17.9923 17.578C18.2416 17.1307 18.5863 16.786 19.0263 16.544C19.4663 16.2947 19.9576 16.17 20.5003 16.17C20.9696 16.17 21.3913 16.269 21.7653 16.467C22.1466 16.6577 22.4583 16.94 22.7003 17.314V16.214H23.4813ZM20.5663 21.362C20.9696 21.362 21.3326 21.2703 21.6553 21.087C21.9853 20.8963 22.242 20.6287 22.4253 20.284C22.616 19.9393 22.7113 19.547 22.7113 19.107C22.7113 18.667 22.616 18.2747 22.4253 17.93C22.242 17.5853 21.9853 17.3213 21.6553 17.138C21.3326 16.9473 20.9696 16.852 20.5663 16.852C20.1556 16.852 19.7853 16.9473 19.4553 17.138C19.1326 17.3213 18.876 17.5853 18.6853 17.93C18.502 18.2747 18.4103 18.667 18.4103 19.107C18.4103 19.547 18.502 19.9393 18.6853 20.284C18.876 20.6287 19.1326 20.8963 19.4553 21.087C19.7853 21.2703 20.1556 21.362 20.5663 21.362ZM32.8724 16.17C33.5984 16.17 34.1667 16.379 34.5774 16.797C34.9954 17.215 35.2044 17.831 35.2044 18.645V22H34.4234V18.722C34.4234 18.1207 34.2767 17.6623 33.9834 17.347C33.6974 17.0317 33.2904 16.874 32.7624 16.874C32.1611 16.874 31.6881 17.061 31.3434 17.435C30.9987 17.8017 30.8264 18.3113 30.8264 18.964V22H30.0454V18.722C30.0454 18.1207 29.8987 17.6623 29.6054 17.347C29.3194 17.0317 28.9087 16.874 28.3734 16.874C27.7794 16.874 27.3064 17.061 26.9544 17.435C26.6097 17.8017 26.4374 18.3113 26.4374 18.964V22H25.6564V16.214H26.4044V17.27C26.6097 16.918 26.8957 16.6467 27.2624 16.456C27.629 16.2653 28.0507 16.17 28.5274 16.17C29.0114 16.17 29.4294 16.2727 29.7814 16.478C30.1407 16.6833 30.4084 16.9877 30.5844 17.391C30.797 17.0097 31.1014 16.7127 31.4974 16.5C31.9007 16.28 32.3591 16.17 32.8724 16.17ZM45.5583 16.214V21.296C45.5583 22.2787 45.3163 23.0047 44.8323 23.474C44.3556 23.9507 43.6333 24.189 42.6653 24.189C42.13 24.189 41.6203 24.1083 41.1363 23.947C40.6596 23.793 40.271 23.5767 39.9703 23.298L40.3663 22.704C40.645 22.9533 40.9823 23.1477 41.3783 23.287C41.7816 23.4263 42.2033 23.496 42.6433 23.496C43.3766 23.496 43.9156 23.3237 44.2603 22.979C44.605 22.6417 44.7773 22.1137 44.7773 21.395V20.658C44.5353 21.0247 44.2163 21.3033 43.8203 21.494C43.4316 21.6847 42.999 21.78 42.5223 21.78C41.9796 21.78 41.4846 21.6627 41.0373 21.428C40.5973 21.186 40.249 20.8523 39.9923 20.427C39.743 19.9943 39.6183 19.5067 39.6183 18.964C39.6183 18.4213 39.743 17.9373 39.9923 17.512C40.249 17.0867 40.5973 16.7567 41.0373 16.522C41.4773 16.2873 41.9723 16.17 42.5223 16.17C43.0136 16.17 43.4573 16.269 43.8533 16.467C44.2493 16.665 44.5683 16.951 44.8103 17.325V16.214H45.5583ZM42.5993 21.087C43.0173 21.087 43.395 20.999 43.7323 20.823C44.0696 20.6397 44.33 20.3867 44.5133 20.064C44.704 19.7413 44.7993 19.3747 44.7993 18.964C44.7993 18.5533 44.704 18.1903 44.5133 17.875C44.33 17.5523 44.0696 17.303 43.7323 17.127C43.4023 16.9437 43.0246 16.852 42.5993 16.852C42.1813 16.852 41.8036 16.94 41.4663 17.116C41.1363 17.292 40.876 17.5413 40.6853 17.864C40.502 18.1867 40.4103 18.5533 40.4103 18.964C40.4103 19.3747 40.502 19.7413 40.6853 20.064C40.876 20.3867 41.1363 20.6397 41.4663 20.823C41.8036 20.999 42.1813 21.087 42.5993 21.087ZM53.0223 16.214V22H52.2743V20.856C52.0397 21.2447 51.728 21.5417 51.3393 21.747C50.958 21.9523 50.5253 22.055 50.0413 22.055C49.4987 22.055 49.0073 21.9303 48.5673 21.681C48.1273 21.4317 47.7827 21.0833 47.5333 20.636C47.284 20.1887 47.1593 19.679 47.1593 19.107C47.1593 18.535 47.284 18.0253 47.5333 17.578C47.7827 17.1307 48.1273 16.786 48.5673 16.544C49.0073 16.2947 49.4987 16.17 50.0413 16.17C50.5107 16.17 50.9323 16.269 51.3063 16.467C51.6877 16.6577 51.9993 16.94 52.2413 17.314V16.214H53.0223ZM50.1073 21.362C50.5107 21.362 50.8737 21.2703 51.1963 21.087C51.5263 20.8963 51.783 20.6287 51.9663 20.284C52.157 19.9393 52.2523 19.547 52.2523 19.107C52.2523 18.667 52.157 18.2747 51.9663 17.93C51.783 17.5853 51.5263 17.3213 51.1963 17.138C50.8737 16.9473 50.5107 16.852 50.1073 16.852C49.6967 16.852 49.3263 16.9473 48.9963 17.138C48.6737 17.3213 48.417 17.5853 48.2263 17.93C48.043 18.2747 47.9513 18.667 47.9513 19.107C47.9513 19.547 48.043 19.9393 48.2263 20.284C48.417 20.6287 48.6737 20.8963 48.9963 21.087C49.3263 21.2703 49.6967 21.362 50.1073 21.362ZM55.9454 17.347C56.1287 16.9583 56.4001 16.665 56.7594 16.467C57.1261 16.269 57.5771 16.17 58.1124 16.17V16.929L57.9254 16.918C57.3167 16.918 56.8401 17.105 56.4954 17.479C56.1507 17.853 55.9784 18.3773 55.9784 19.052V22H55.1974V16.214H55.9454V17.347ZM62.4745 16.17C63.2005 16.17 63.7762 16.3827 64.2015 16.808C64.6342 17.226 64.8505 17.8383 64.8505 18.645V22H64.0695V18.722C64.0695 18.1207 63.9192 17.6623 63.6185 17.347C63.3178 17.0317 62.8888 16.874 62.3315 16.874C61.7082 16.874 61.2132 17.061 60.8465 17.435C60.4872 17.8017 60.3075 18.3113 60.3075 18.964V22H59.5265V16.214H60.2745V17.281C60.4872 16.929 60.7805 16.6577 61.1545 16.467C61.5358 16.269 61.9758 16.17 62.4745 16.17ZM66.9708 16.214H67.7518V22H66.9708V16.214ZM67.3668 14.949C67.2055 14.949 67.0698 14.894 66.9598 14.784C66.8498 14.674 66.7948 14.542 66.7948 14.388C66.7948 14.2413 66.8498 14.113 66.9598 14.003C67.0698 13.893 67.2055 13.838 67.3668 13.838C67.5282 13.838 67.6638 13.893 67.7738 14.003C67.8838 14.1057 67.9388 14.2303 67.9388 14.377C67.9388 14.5383 67.8838 14.674 67.7738 14.784C67.6638 14.894 67.5282 14.949 67.3668 14.949ZM71.4759 22.055C71.0066 22.055 70.5556 21.989 70.1229 21.857C69.6976 21.7177 69.3639 21.5453 69.1219 21.34L69.4739 20.724C69.7159 20.9147 70.0203 21.0723 70.3869 21.197C70.7536 21.3143 71.1349 21.373 71.5309 21.373C72.0589 21.373 72.4476 21.2923 72.6969 21.131C72.9536 20.9623 73.0819 20.7277 73.0819 20.427C73.0819 20.2143 73.0123 20.0493 72.8729 19.932C72.7336 19.8073 72.5576 19.7157 72.3449 19.657C72.1323 19.591 71.8499 19.5287 71.4979 19.47C71.0286 19.382 70.6509 19.294 70.3649 19.206C70.0789 19.1107 69.8333 18.953 69.6279 18.733C69.4299 18.513 69.3309 18.2087 69.3309 17.82C69.3309 17.336 69.5326 16.94 69.9359 16.632C70.3393 16.324 70.9003 16.17 71.6189 16.17C71.9929 16.17 72.3669 16.2213 72.7409 16.324C73.1149 16.4193 73.4229 16.5477 73.6649 16.709L73.3239 17.336C72.8473 17.006 72.2789 16.841 71.6189 16.841C71.1203 16.841 70.7426 16.929 70.4859 17.105C70.2366 17.281 70.1119 17.512 70.1119 17.798C70.1119 18.018 70.1816 18.194 70.3209 18.326C70.4676 18.458 70.6473 18.557 70.8599 18.623C71.0726 18.6817 71.3659 18.744 71.7399 18.81C72.2019 18.898 72.5723 18.986 72.8509 19.074C73.1296 19.162 73.3679 19.3123 73.5659 19.525C73.7639 19.7377 73.8629 20.031 73.8629 20.405C73.8629 20.911 73.6503 21.3143 73.2249 21.615C72.8069 21.9083 72.2239 22.055 71.4759 22.055ZM78.2548 16.17C78.9808 16.17 79.5564 16.3827 79.9818 16.808C80.4144 17.226 80.6308 17.8383 80.6308 18.645V22H79.8498V18.722C79.8498 18.1207 79.6994 17.6623 79.3988 17.347C79.0981 17.0317 78.6691 16.874 78.1118 16.874C77.4884 16.874 76.9934 17.061 76.6268 17.435C76.2674 17.8017 76.0878 18.3113 76.0878 18.964V22H75.3068V13.838H76.0878V17.226C76.3004 16.8887 76.5938 16.6283 76.9678 16.445C77.3418 16.2617 77.7708 16.17 78.2548 16.17ZM85.2476 21.362C85.6069 21.362 85.9369 21.2997 86.2376 21.175C86.5456 21.043 86.8059 20.8523 87.0186 20.603L87.4586 21.109C87.2019 21.417 86.8829 21.6517 86.5016 21.813C86.1203 21.9743 85.6986 22.055 85.2366 22.055C84.6426 22.055 84.1146 21.9303 83.6526 21.681C83.1906 21.4243 82.8313 21.0723 82.5746 20.625C82.3179 20.1777 82.1896 19.6717 82.1896 19.107C82.1896 18.5423 82.3106 18.0363 82.5526 17.589C82.8019 17.1417 83.1429 16.7933 83.5756 16.544C84.0083 16.2947 84.4996 16.17 85.0496 16.17C85.5629 16.17 86.0249 16.2873 86.4356 16.522C86.8536 16.7567 87.1836 17.083 87.4256 17.501C87.6749 17.919 87.8069 18.3957 87.8216 18.931L83.0696 19.855C83.2163 20.3243 83.4803 20.6947 83.8616 20.966C84.2503 21.23 84.7123 21.362 85.2476 21.362ZM85.0496 16.841C84.6463 16.841 84.2833 16.9363 83.9606 17.127C83.6453 17.3103 83.3959 17.5707 83.2126 17.908C83.0366 18.238 82.9486 18.6193 82.9486 19.052C82.9486 19.162 82.9523 19.2427 82.9596 19.294L87.0406 18.502C86.9526 18.018 86.7289 17.622 86.3696 17.314C86.0103 16.9987 85.5703 16.841 85.0496 16.841ZM94.6913 13.838V22H93.9433V20.856C93.7086 21.2447 93.3969 21.5417 93.0083 21.747C92.6269 21.9523 92.1943 22.055 91.7103 22.055C91.1676 22.055 90.6763 21.9303 90.2363 21.681C89.7963 21.4317 89.4516 21.0833 89.2023 20.636C88.9529 20.1887 88.8283 19.679 88.8283 19.107C88.8283 18.535 88.9529 18.0253 89.2023 17.578C89.4516 17.1307 89.7963 16.786 90.2363 16.544C90.6763 16.2947 91.1676 16.17 91.7103 16.17C92.1796 16.17 92.6013 16.269 92.9753 16.467C93.3566 16.6577 93.6683 16.94 93.9103 17.314V13.838H94.6913ZM91.7763 21.362C92.1796 21.362 92.5426 21.2703 92.8653 21.087C93.1953 20.8963 93.4519 20.6287 93.6353 20.284C93.8259 19.9393 93.9213 19.547 93.9213 19.107C93.9213 18.667 93.8259 18.2747 93.6353 17.93C93.4519 17.5853 93.1953 17.3213 92.8653 17.138C92.5426 16.9473 92.1796 16.852 91.7763 16.852C91.3656 16.852 90.9953 16.9473 90.6653 17.138C90.3426 17.3213 90.0859 17.5853 89.8953 17.93C89.7119 18.2747 89.6203 18.667 89.6203 19.107C89.6203 19.547 89.7119 19.9393 89.8953 20.284C90.0859 20.6287 90.3426 20.8963 90.6653 21.087C90.9953 21.2703 91.3656 21.362 91.7763 21.362ZM10.01 29.214V32.415C10.01 33.273 9.80467 33.9293 9.394 34.384C8.98333 34.8313 8.37833 35.055 7.579 35.055C7.073 35.055 6.64767 34.9597 6.303 34.769C5.96567 34.571 5.70533 34.2593 5.522 33.834C5.33867 34.252 5.07833 34.56 4.741 34.758C4.40367 34.956 3.97833 35.055 3.465 35.055C2.66567 35.055 2.06067 34.8313 1.65 34.384C1.23933 33.9293 1.034 33.273 1.034 32.415V29.214H1.815V32.349C1.815 33.031 1.947 33.537 2.211 33.867C2.475 34.1897 2.893 34.351 3.465 34.351C4.02967 34.351 4.44767 34.186 4.719 33.856C4.99767 33.526 5.137 33.0163 5.137 32.327V29.214H5.918V32.327C5.918 33.0163 6.05367 33.526 6.325 33.856C6.59633 34.186 7.018 34.351 7.59 34.351C8.14733 34.351 8.558 34.1897 8.822 33.867C9.09333 33.537 9.229 33.031 9.229 32.349V29.214H10.01ZM12.132 29.214H12.913V35H12.132V29.214ZM12.528 27.949C12.3666 27.949 12.231 27.894 12.121 27.784C12.011 27.674 11.956 27.542 11.956 27.388C11.956 27.2413 12.011 27.113 12.121 27.003C12.231 26.893 12.3666 26.838 12.528 26.838C12.6893 26.838 12.825 26.893 12.935 27.003C13.045 27.1057 13.1 27.2303 13.1 27.377C13.1 27.5383 13.045 27.674 12.935 27.784C12.825 27.894 12.6893 27.949 12.528 27.949ZM17.9351 34.648C17.7884 34.78 17.6087 34.8827 17.3961 34.956C17.1834 35.022 16.9597 35.055 16.7251 35.055C16.1824 35.055 15.7644 34.9083 15.4711 34.615C15.1777 34.3217 15.0311 33.9073 15.0311 33.372V27.949H15.8121V29.214H17.5611V29.874H15.8121V33.328C15.8121 33.6727 15.8964 33.9367 16.0651 34.12C16.2337 34.296 16.4794 34.384 16.8021 34.384C17.1541 34.384 17.4401 34.285 17.6601 34.087L17.9351 34.648ZM22.2987 29.17C23.0247 29.17 23.6004 29.3827 24.0257 29.808C24.4584 30.226 24.6747 30.8383 24.6747 31.645V35H23.8937V31.722C23.8937 31.1207 23.7434 30.6623 23.4427 30.347C23.1421 30.0317 22.7131 29.874 22.1557 29.874C21.5324 29.874 21.0374 30.061 20.6707 30.435C20.3114 30.8017 20.1317 31.3113 20.1317 31.964V35H19.3507V26.838H20.1317V30.226C20.3444 29.8887 20.6377 29.6283 21.0117 29.445C21.3857 29.2617 21.8147 29.17 22.2987 29.17ZM32.655 29.17C33.1976 29.17 33.689 29.2947 34.129 29.544C34.569 29.786 34.9136 30.1307 35.163 30.578C35.4123 31.0253 35.537 31.535 35.537 32.107C35.537 32.6863 35.4123 33.1997 35.163 33.647C34.9136 34.0943 34.569 34.4427 34.129 34.692C33.6963 34.934 33.205 35.055 32.655 35.055C32.1856 35.055 31.7603 34.9597 31.379 34.769C31.005 34.571 30.697 34.285 30.455 33.911V37.134H29.674V29.214H30.422V30.358C30.6566 29.9767 30.9646 29.6833 31.346 29.478C31.7346 29.2727 32.171 29.17 32.655 29.17ZM32.6 34.362C33.0033 34.362 33.37 34.2703 33.7 34.087C34.03 33.8963 34.2866 33.6287 34.47 33.284C34.6606 32.9393 34.756 32.547 34.756 32.107C34.756 31.667 34.6606 31.2783 34.47 30.941C34.2866 30.5963 34.03 30.3287 33.7 30.138C33.37 29.9473 33.0033 29.852 32.6 29.852C32.1893 29.852 31.819 29.9473 31.489 30.138C31.1663 30.3287 30.9096 30.5963 30.719 30.941C30.5356 31.2783 30.444 31.667 30.444 32.107C30.444 32.547 30.5356 32.9393 30.719 33.284C30.9096 33.6287 31.1663 33.8963 31.489 34.087C31.819 34.2703 32.1893 34.362 32.6 34.362ZM37.129 29.214H37.91V35H37.129V29.214ZM37.525 27.949C37.3637 27.949 37.228 27.894 37.118 27.784C37.008 27.674 36.953 27.542 36.953 27.388C36.953 27.2413 37.008 27.113 37.118 27.003C37.228 26.893 37.3637 26.838 37.525 26.838C37.6864 26.838 37.822 26.893 37.932 27.003C38.042 27.1057 38.097 27.2303 38.097 27.377C38.097 27.5383 38.042 27.674 37.932 27.784C37.822 27.894 37.6864 27.949 37.525 27.949ZM41.6341 35.055C41.1648 35.055 40.7138 34.989 40.2811 34.857C39.8558 34.7177 39.5221 34.5453 39.2801 34.34L39.6321 33.724C39.8741 33.9147 40.1785 34.0723 40.5451 34.197C40.9118 34.3143 41.2931 34.373 41.6891 34.373C42.2171 34.373 42.6058 34.2923 42.8551 34.131C43.1118 33.9623 43.2401 33.7277 43.2401 33.427C43.2401 33.2143 43.1705 33.0493 43.0311 32.932C42.8918 32.8073 42.7158 32.7157 42.5031 32.657C42.2905 32.591 42.0081 32.5287 41.6561 32.47C41.1868 32.382 40.8091 32.294 40.5231 32.206C40.2371 32.1107 39.9915 31.953 39.7861 31.733C39.5881 31.513 39.4891 31.2087 39.4891 30.82C39.4891 30.336 39.6908 29.94 40.0941 29.632C40.4975 29.324 41.0585 29.17 41.7771 29.17C42.1511 29.17 42.5251 29.2213 42.8991 29.324C43.2731 29.4193 43.5811 29.5477 43.8231 29.709L43.4821 30.336C43.0055 30.006 42.4371 29.841 41.7771 29.841C41.2785 29.841 40.9008 29.929 40.6441 30.105C40.3948 30.281 40.2701 30.512 40.2701 30.798C40.2701 31.018 40.3398 31.194 40.4791 31.326C40.6258 31.458 40.8055 31.557 41.0181 31.623C41.2308 31.6817 41.5241 31.744 41.8981 31.81C42.3601 31.898 42.7305 31.986 43.0091 32.074C43.2878 32.162 43.5261 32.3123 43.7241 32.525C43.9221 32.7377 44.0211 33.031 44.0211 33.405C44.0211 33.911 43.8085 34.3143 43.3831 34.615C42.9651 34.9083 42.3821 35.055 41.6341 35.055ZM48.314 34.648C48.1673 34.78 47.9876 34.8827 47.775 34.956C47.5623 35.022 47.3386 35.055 47.104 35.055C46.5613 35.055 46.1433 34.9083 45.85 34.615C45.5566 34.3217 45.41 33.9073 45.41 33.372V27.949H46.191V29.214H47.94V29.874H46.191V33.328C46.191 33.6727 46.2753 33.9367 46.444 34.12C46.6126 34.296 46.8583 34.384 47.181 34.384C47.533 34.384 47.819 34.285 48.039 34.087L48.314 34.648ZM54.8055 29.214V35H54.0575V33.856C53.8229 34.2447 53.5112 34.5417 53.1225 34.747C52.7412 34.9523 52.3085 35.055 51.8245 35.055C51.2819 35.055 50.7905 34.9303 50.3505 34.681C49.9105 34.4317 49.5659 34.0833 49.3165 33.636C49.0672 33.1887 48.9425 32.679 48.9425 32.107C48.9425 31.535 49.0672 31.0253 49.3165 30.578C49.5659 30.1307 49.9105 29.786 50.3505 29.544C50.7905 29.2947 51.2819 29.17 51.8245 29.17C52.2939 29.17 52.7155 29.269 53.0895 29.467C53.4709 29.6577 53.7825 29.94 54.0245 30.314V29.214H54.8055ZM51.8905 34.362C52.2939 34.362 52.6569 34.2703 52.9795 34.087C53.3095 33.8963 53.5662 33.6287 53.7495 33.284C53.9402 32.9393 54.0355 32.547 54.0355 32.107C54.0355 31.667 53.9402 31.2747 53.7495 30.93C53.5662 30.5853 53.3095 30.3213 52.9795 30.138C52.6569 29.9473 52.2939 29.852 51.8905 29.852C51.4799 29.852 51.1095 29.9473 50.7795 30.138C50.4569 30.3213 50.2002 30.5853 50.0095 30.93C49.8262 31.2747 49.7345 31.667 49.7345 32.107C49.7345 32.547 49.8262 32.9393 50.0095 33.284C50.2002 33.6287 50.4569 33.8963 50.7795 34.087C51.1095 34.2703 51.4799 34.362 51.8905 34.362ZM59.3786 35.055C58.8066 35.055 58.2933 34.9303 57.8386 34.681C57.3913 34.4317 57.0393 34.0833 56.7826 33.636C56.5259 33.1813 56.3976 32.6717 56.3976 32.107C56.3976 31.5423 56.5259 31.0363 56.7826 30.589C57.0393 30.1417 57.3913 29.7933 57.8386 29.544C58.2933 29.2947 58.8066 29.17 59.3786 29.17C59.8773 29.17 60.3209 29.269 60.7096 29.467C61.1056 29.6577 61.4173 29.94 61.6446 30.314L61.0616 30.71C60.8709 30.424 60.6289 30.2113 60.3356 30.072C60.0423 29.9253 59.7233 29.852 59.3786 29.852C58.9606 29.852 58.5829 29.9473 58.2456 30.138C57.9156 30.3213 57.6553 30.5853 57.4646 30.93C57.2813 31.2747 57.1896 31.667 57.1896 32.107C57.1896 32.5543 57.2813 32.9503 57.4646 33.295C57.6553 33.6323 57.9156 33.8963 58.2456 34.087C58.5829 34.2703 58.9606 34.362 59.3786 34.362C59.7233 34.362 60.0423 34.2923 60.3356 34.153C60.6289 34.0137 60.8709 33.801 61.0616 33.515L61.6446 33.911C61.4173 34.285 61.1056 34.571 60.7096 34.769C60.3136 34.9597 59.8699 35.055 59.3786 35.055ZM66.0409 29.17C66.7669 29.17 67.3426 29.3827 67.7679 29.808C68.2006 30.226 68.4169 30.8383 68.4169 31.645V35H67.6359V31.722C67.6359 31.1207 67.4856 30.6623 67.1849 30.347C66.8842 30.0317 66.4552 29.874 65.8979 29.874C65.2746 29.874 64.7796 30.061 64.4129 30.435C64.0536 30.8017 63.8739 31.3113 63.8739 31.964V35H63.0929V26.838H63.8739V30.226C64.0866 29.8887 64.3799 29.6283 64.7539 29.445C65.1279 29.2617 65.5569 29.17 66.0409 29.17ZM70.5372 29.214H71.3182V35H70.5372V29.214ZM70.9332 27.949C70.7719 27.949 70.6362 27.894 70.5262 27.784C70.4162 27.674 70.3612 27.542 70.3612 27.388C70.3612 27.2413 70.4162 27.113 70.5262 27.003C70.6362 26.893 70.7719 26.838 70.9332 26.838C71.0946 26.838 71.2302 26.893 71.3402 27.003C71.4502 27.1057 71.5052 27.2303 71.5052 27.377C71.5052 27.5383 71.4502 27.674 71.3402 27.784C71.2302 27.894 71.0946 27.949 70.9332 27.949ZM75.8563 35.055C75.299 35.055 74.7967 34.9303 74.3493 34.681C73.902 34.4243 73.55 34.0723 73.2933 33.625C73.0367 33.1777 72.9083 32.6717 72.9083 32.107C72.9083 31.5423 73.0367 31.0363 73.2933 30.589C73.55 30.1417 73.902 29.7933 74.3493 29.544C74.7967 29.2947 75.299 29.17 75.8563 29.17C76.4137 29.17 76.916 29.2947 77.3633 29.544C77.8107 29.7933 78.159 30.1417 78.4083 30.589C78.665 31.0363 78.7933 31.5423 78.7933 32.107C78.7933 32.6717 78.665 33.1777 78.4083 33.625C78.159 34.0723 77.8107 34.4243 77.3633 34.681C76.916 34.9303 76.4137 35.055 75.8563 35.055ZM75.8563 34.362C76.267 34.362 76.6337 34.2703 76.9563 34.087C77.2863 33.8963 77.543 33.6287 77.7263 33.284C77.9097 32.9393 78.0013 32.547 78.0013 32.107C78.0013 31.667 77.9097 31.2747 77.7263 30.93C77.543 30.5853 77.2863 30.3213 76.9563 30.138C76.6337 29.9473 76.267 29.852 75.8563 29.852C75.4457 29.852 75.0753 29.9473 74.7453 30.138C74.4227 30.3213 74.166 30.5853 73.9753 30.93C73.792 31.2747 73.7003 31.667 73.7003 32.107C73.7003 32.547 73.792 32.9393 73.9753 33.284C74.166 33.6287 74.4227 33.8963 74.7453 34.087C75.0753 34.2703 75.4457 34.362 75.8563 34.362ZM88.5467 29.214V35H87.7987V33.856C87.5641 34.2447 87.2524 34.5417 86.8637 34.747C86.4824 34.9523 86.0497 35.055 85.5657 35.055C85.0231 35.055 84.5317 34.9303 84.0917 34.681C83.6517 34.4317 83.3071 34.0833 83.0577 33.636C82.8084 33.1887 82.6837 32.679 82.6837 32.107C82.6837 31.535 82.8084 31.0253 83.0577 30.578C83.3071 30.1307 83.6517 29.786 84.0917 29.544C84.5317 29.2947 85.0231 29.17 85.5657 29.17C86.0351 29.17 86.4567 29.269 86.8307 29.467C87.2121 29.6577 87.5237 29.94 87.7657 30.314V29.214H88.5467ZM85.6317 34.362C86.0351 34.362 86.3981 34.2703 86.7207 34.087C87.0507 33.8963 87.3074 33.6287 87.4907 33.284C87.6814 32.9393 87.7767 32.547 87.7767 32.107C87.7767 31.667 87.6814 31.2747 87.4907 30.93C87.3074 30.5853 87.0507 30.3213 86.7207 30.138C86.3981 29.9473 86.0351 29.852 85.6317 29.852C85.2211 29.852 84.8507 29.9473 84.5207 30.138C84.1981 30.3213 83.9414 30.5853 83.7507 30.93C83.5674 31.2747 83.4757 31.667 83.4757 32.107C83.4757 32.547 83.5674 32.9393 83.7507 33.284C83.9414 33.6287 84.1981 33.8963 84.5207 34.087C84.8507 34.2703 85.2211 34.362 85.6317 34.362ZM93.6698 29.17C94.3958 29.17 94.9715 29.3827 95.3968 29.808C95.8295 30.226 96.0458 30.8383 96.0458 31.645V35H95.2648V31.722C95.2648 31.1207 95.1145 30.6623 94.8138 30.347C94.5131 30.0317 94.0841 29.874 93.5268 29.874C92.9035 29.874 92.4085 30.061 92.0418 30.435C91.6825 30.8017 91.5028 31.3113 91.5028 31.964V35H90.7218V29.214H91.4698V30.281C91.6825 29.929 91.9758 29.6577 92.3498 29.467C92.7311 29.269 93.1711 29.17 93.6698 29.17ZM103.468 26.838V35H102.72V33.856C102.485 34.2447 102.173 34.5417 101.785 34.747C101.403 34.9523 100.971 35.055 100.487 35.055C99.944 35.055 99.4526 34.9303 99.0126 34.681C98.5726 34.4317 98.228 34.0833 97.9786 33.636C97.7293 33.1887 97.6046 32.679 97.6046 32.107C97.6046 31.535 97.7293 31.0253 97.9786 30.578C98.228 30.1307 98.5726 29.786 99.0126 29.544C99.4526 29.2947 99.944 29.17 100.487 29.17C100.956 29.17 101.378 29.269 101.752 29.467C102.133 29.6577 102.445 29.94 102.687 30.314V26.838H103.468ZM100.553 34.362C100.956 34.362 101.319 34.2703 101.642 34.087C101.972 33.8963 102.228 33.6287 102.412 33.284C102.602 32.9393 102.698 32.547 102.698 32.107C102.698 31.667 102.602 31.2747 102.412 30.93C102.228 30.5853 101.972 30.3213 101.642 30.138C101.319 29.9473 100.956 29.852 100.553 29.852C100.142 29.852 99.7716 29.9473 99.4416 30.138C99.119 30.3213 98.8623 30.5853 98.6716 30.93C98.4883 31.2747 98.3966 31.667 98.3966 32.107C98.3966 32.547 98.4883 32.9393 98.6716 33.284C98.8623 33.6287 99.119 33.8963 99.4416 34.087C99.7716 34.2703 100.142 34.362 100.553 34.362ZM2.871 40.443C2.53367 40.443 2.277 40.5347 2.101 40.718C1.93233 40.9013 1.848 41.1727 1.848 41.532V42.214H3.63V42.874H1.87V48H1.089V41.499C1.089 40.971 1.23933 40.553 1.54 40.245C1.848 39.937 2.28067 39.783 2.838 39.783C3.058 39.783 3.27067 39.816 3.476 39.882C3.68133 39.9407 3.85367 40.0287 3.993 40.146L3.729 40.729C3.50167 40.5383 3.21567 40.443 2.871 40.443ZM6.31649 43.347C6.49983 42.9583 6.77116 42.665 7.13049 42.467C7.49716 42.269 7.94816 42.17 8.48349 42.17V42.929L8.29649 42.918C7.68783 42.918 7.21116 43.105 6.86649 43.479C6.52183 43.853 6.34949 44.3773 6.34949 45.052V48H5.56849V42.214H6.31649V43.347ZM12.3189 47.362C12.6782 47.362 13.0082 47.2997 13.3089 47.175C13.6169 47.043 13.8772 46.8523 14.0899 46.603L14.5299 47.109C14.2732 47.417 13.9542 47.6517 13.5729 47.813C13.1915 47.9743 12.7699 48.055 12.3079 48.055C11.7139 48.055 11.1859 47.9303 10.7239 47.681C10.2619 47.4243 9.90255 47.0723 9.64588 46.625C9.38922 46.1777 9.26088 45.6717 9.26088 45.107C9.26088 44.5423 9.38188 44.0363 9.62388 43.589C9.87322 43.1417 10.2142 42.7933 10.6469 42.544C11.0795 42.2947 11.5709 42.17 12.1209 42.17C12.6342 42.17 13.0962 42.2873 13.5069 42.522C13.9249 42.7567 14.2549 43.083 14.4969 43.501C14.7462 43.919 14.8782 44.3957 14.8929 44.931L10.1409 45.855C10.2875 46.3243 10.5515 46.6947 10.9329 46.966C11.3215 47.23 11.7835 47.362 12.3189 47.362ZM12.1209 42.841C11.7175 42.841 11.3545 42.9363 11.0319 43.127C10.7165 43.3103 10.4672 43.5707 10.2839 43.908C10.1079 44.238 10.0199 44.6193 10.0199 45.052C10.0199 45.162 10.0235 45.2427 10.0309 45.294L14.1119 44.502C14.0239 44.018 13.8002 43.622 13.4409 43.314C13.0815 42.9987 12.6415 42.841 12.1209 42.841ZM18.0336 48.055C17.5642 48.055 17.1132 47.989 16.6806 47.857C16.2552 47.7177 15.9216 47.5453 15.6796 47.34L16.0316 46.724C16.2736 46.9147 16.5779 47.0723 16.9446 47.197C17.3112 47.3143 17.6926 47.373 18.0886 47.373C18.6166 47.373 19.0052 47.2923 19.2546 47.131C19.5112 46.9623 19.6396 46.7277 19.6396 46.427C19.6396 46.2143 19.5699 46.0493 19.4306 45.932C19.2912 45.8073 19.1152 45.7157 18.9026 45.657C18.6899 45.591 18.4076 45.5287 18.0556 45.47C17.5862 45.382 17.2086 45.294 16.9226 45.206C16.6366 45.1107 16.3909 44.953 16.1856 44.733C15.9876 44.513 15.8886 44.2087 15.8886 43.82C15.8886 43.336 16.0902 42.94 16.4936 42.632C16.8969 42.324 17.4579 42.17 18.1766 42.17C18.5506 42.17 18.9246 42.2213 19.2986 42.324C19.6726 42.4193 19.9806 42.5477 20.2226 42.709L19.8816 43.336C19.4049 43.006 18.8366 42.841 18.1766 42.841C17.6779 42.841 17.3002 42.929 17.0436 43.105C16.7942 43.281 16.6696 43.512 16.6696 43.798C16.6696 44.018 16.7392 44.194 16.8786 44.326C17.0252 44.458 17.2049 44.557 17.4176 44.623C17.6302 44.6817 17.9236 44.744 18.2976 44.81C18.7596 44.898 19.1299 44.986 19.4086 45.074C19.6872 45.162 19.9256 45.3123 20.1236 45.525C20.3216 45.7377 20.4206 46.031 20.4206 46.405C20.4206 46.911 20.2079 47.3143 19.7826 47.615C19.3646 47.9083 18.7816 48.055 18.0336 48.055ZM24.8124 42.17C25.5384 42.17 26.1141 42.3827 26.5394 42.808C26.9721 43.226 27.1884 43.8383 27.1884 44.645V48H26.4074V44.722C26.4074 44.1207 26.2571 43.6623 25.9564 43.347C25.6557 43.0317 25.2267 42.874 24.6694 42.874C24.0461 42.874 23.5511 43.061 23.1844 43.435C22.8251 43.8017 22.6454 44.3113 22.6454 44.964V48H21.8644V39.838H22.6454V43.226C22.8581 42.8887 23.1514 42.6283 23.5254 42.445C23.8994 42.2617 24.3284 42.17 24.8124 42.17ZM39.4036 42.17C40.1296 42.17 40.698 42.379 41.1086 42.797C41.5266 43.215 41.7356 43.831 41.7356 44.645V48H40.9546V44.722C40.9546 44.1207 40.808 43.6623 40.5146 43.347C40.2286 43.0317 39.8216 42.874 39.2936 42.874C38.6923 42.874 38.2193 43.061 37.8746 43.435C37.53 43.8017 37.3576 44.3113 37.3576 44.964V48H36.5766V44.722C36.5766 44.1207 36.43 43.6623 36.1366 43.347C35.8506 43.0317 35.44 42.874 34.9046 42.874C34.3106 42.874 33.8376 43.061 33.4856 43.435C33.141 43.8017 32.9686 44.3113 32.9686 44.964V48H32.1876V42.214H32.9356V43.27C33.141 42.918 33.427 42.6467 33.7936 42.456C34.1603 42.2653 34.582 42.17 35.0586 42.17C35.5426 42.17 35.9606 42.2727 36.3126 42.478C36.672 42.6833 36.9396 42.9877 37.1156 43.391C37.3283 43.0097 37.6326 42.7127 38.0286 42.5C38.432 42.28 38.8903 42.17 39.4036 42.17ZM43.8536 42.214H44.6346V48H43.8536V42.214ZM44.2496 40.949C44.0883 40.949 43.9526 40.894 43.8426 40.784C43.7326 40.674 43.6776 40.542 43.6776 40.388C43.6776 40.2413 43.7326 40.113 43.8426 40.003C43.9526 39.893 44.0883 39.838 44.2496 39.838C44.411 39.838 44.5466 39.893 44.6566 40.003C44.7666 40.1057 44.8216 40.2303 44.8216 40.377C44.8216 40.5383 44.7666 40.674 44.6566 40.784C44.5466 40.894 44.411 40.949 44.2496 40.949ZM49.7558 42.17C50.4818 42.17 51.0574 42.3827 51.4828 42.808C51.9154 43.226 52.1318 43.8383 52.1318 44.645V48H51.3508V44.722C51.3508 44.1207 51.2004 43.6623 50.8998 43.347C50.5991 43.0317 50.1701 42.874 49.6128 42.874C48.9894 42.874 48.4944 43.061 48.1278 43.435C47.7684 43.8017 47.5888 44.3113 47.5888 44.964V48H46.8078V42.214H47.5558V43.281C47.7684 42.929 48.0618 42.6577 48.4358 42.467C48.8171 42.269 49.2571 42.17 49.7558 42.17ZM57.1011 47.648C56.9544 47.78 56.7748 47.8827 56.5621 47.956C56.3494 48.022 56.1258 48.055 55.8911 48.055C55.3484 48.055 54.9304 47.9083 54.6371 47.615C54.3438 47.3217 54.1971 46.9073 54.1971 46.372V40.949H54.9781V42.214H56.7271V42.874H54.9781V46.328C54.9781 46.6727 55.0624 46.9367 55.2311 47.12C55.3998 47.296 55.6454 47.384 55.9681 47.384C56.3201 47.384 56.6061 47.285 56.8261 47.087L57.1011 47.648ZM63.0236 48.055C62.503 48.055 62.0996 47.9083 61.8136 47.615C61.535 47.3217 61.3956 46.9147 61.3956 46.394V39.838H62.1766V46.328C62.1766 46.6727 62.2573 46.9367 62.4186 47.12C62.58 47.296 62.822 47.384 63.1446 47.384C63.35 47.384 63.526 47.351 63.6726 47.285L63.7276 47.934C63.5003 48.0147 63.2656 48.055 63.0236 48.055ZM67.1578 47.362C67.5171 47.362 67.8471 47.2997 68.1478 47.175C68.4558 47.043 68.7161 46.8523 68.9288 46.603L69.3688 47.109C69.1121 47.417 68.7931 47.6517 68.4118 47.813C68.0304 47.9743 67.6088 48.055 67.1468 48.055C66.5528 48.055 66.0248 47.9303 65.5628 47.681C65.1008 47.4243 64.7414 47.0723 64.4848 46.625C64.2281 46.1777 64.0998 45.6717 64.0998 45.107C64.0998 44.5423 64.2208 44.0363 64.4628 43.589C64.7121 43.1417 65.0531 42.7933 65.4858 42.544C65.9184 42.2947 66.4098 42.17 66.9598 42.17C67.4731 42.17 67.9351 42.2873 68.3458 42.522C68.7638 42.7567 69.0938 43.083 69.3358 43.501C69.5851 43.919 69.7171 44.3957 69.7318 44.931L64.9798 45.855C65.1264 46.3243 65.3904 46.6947 65.7718 46.966C66.1604 47.23 66.6224 47.362 67.1578 47.362ZM66.9598 42.841C66.5564 42.841 66.1934 42.9363 65.8708 43.127C65.5554 43.3103 65.3061 43.5707 65.1228 43.908C64.9468 44.238 64.8588 44.6193 64.8588 45.052C64.8588 45.162 64.8624 45.2427 64.8698 45.294L68.9508 44.502C68.8628 44.018 68.6391 43.622 68.2798 43.314C67.9204 42.9987 67.4804 42.841 66.9598 42.841ZM76.6014 42.214V48H75.8534V46.856C75.6188 47.2447 75.3071 47.5417 74.9184 47.747C74.5371 47.9523 74.1044 48.055 73.6204 48.055C73.0778 48.055 72.5864 47.9303 72.1464 47.681C71.7064 47.4317 71.3618 47.0833 71.1124 46.636C70.8631 46.1887 70.7384 45.679 70.7384 45.107C70.7384 44.535 70.8631 44.0253 71.1124 43.578C71.3618 43.1307 71.7064 42.786 72.1464 42.544C72.5864 42.2947 73.0778 42.17 73.6204 42.17C74.0898 42.17 74.5114 42.269 74.8854 42.467C75.2668 42.6577 75.5784 42.94 75.8204 43.314V42.214H76.6014ZM73.6864 47.362C74.0898 47.362 74.4528 47.2703 74.7754 47.087C75.1054 46.8963 75.3621 46.6287 75.5454 46.284C75.7361 45.9393 75.8314 45.547 75.8314 45.107C75.8314 44.667 75.7361 44.2747 75.5454 43.93C75.3621 43.5853 75.1054 43.3213 74.7754 43.138C74.4528 42.9473 74.0898 42.852 73.6864 42.852C73.2758 42.852 72.9054 42.9473 72.5754 43.138C72.2528 43.3213 71.9961 43.5853 71.8054 43.93C71.6221 44.2747 71.5304 44.667 71.5304 45.107C71.5304 45.547 71.6221 45.9393 71.8054 46.284C71.9961 46.6287 72.2528 46.8963 72.5754 47.087C72.9054 47.2703 73.2758 47.362 73.6864 47.362ZM83.6385 42.214L81.0645 48H80.2615L77.6985 42.214H78.5125L80.6795 47.142L82.8685 42.214H83.6385ZM87.0523 47.362C87.4116 47.362 87.7416 47.2997 88.0423 47.175C88.3503 47.043 88.6106 46.8523 88.8233 46.603L89.2633 47.109C89.0066 47.417 88.6876 47.6517 88.3063 47.813C87.9249 47.9743 87.5033 48.055 87.0413 48.055C86.4473 48.055 85.9193 47.9303 85.4573 47.681C84.9953 47.4243 84.6359 47.0723 84.3793 46.625C84.1226 46.1777 83.9943 45.6717 83.9943 45.107C83.9943 44.5423 84.1153 44.0363 84.3573 43.589C84.6066 43.1417 84.9476 42.7933 85.3803 42.544C85.8129 42.2947 86.3043 42.17 86.8543 42.17C87.3676 42.17 87.8296 42.2873 88.2403 42.522C88.6583 42.7567 88.9883 43.083 89.2303 43.501C89.4796 43.919 89.6116 44.3957 89.6263 44.931L84.8743 45.855C85.0209 46.3243 85.2849 46.6947 85.6663 46.966C86.0549 47.23 86.5169 47.362 87.0523 47.362ZM86.8543 42.841C86.4509 42.841 86.0879 42.9363 85.7653 43.127C85.4499 43.3103 85.2006 43.5707 85.0173 43.908C84.8413 44.238 84.7533 44.6193 84.7533 45.052C84.7533 45.162 84.7569 45.2427 84.7643 45.294L88.8453 44.502C88.7573 44.018 88.5336 43.622 88.1743 43.314C87.8149 42.9987 87.3749 42.841 86.8543 42.841ZM92.767 48.055C92.2976 48.055 91.8466 47.989 91.414 47.857C90.9886 47.7177 90.655 47.5453 90.413 47.34L90.765 46.724C91.007 46.9147 91.3113 47.0723 91.678 47.197C92.0446 47.3143 92.426 47.373 92.822 47.373C93.35 47.373 93.7386 47.2923 93.988 47.131C94.2446 46.9623 94.373 46.7277 94.373 46.427C94.373 46.2143 94.3033 46.0493 94.164 45.932C94.0246 45.8073 93.8486 45.7157 93.636 45.657C93.4233 45.591 93.141 45.5287 92.789 45.47C92.3196 45.382 91.942 45.294 91.656 45.206C91.37 45.1107 91.1243 44.953 90.919 44.733C90.721 44.513 90.622 44.2087 90.622 43.82C90.622 43.336 90.8236 42.94 91.227 42.632C91.6303 42.324 92.1913 42.17 92.91 42.17C93.284 42.17 93.658 42.2213 94.032 42.324C94.406 42.4193 94.714 42.5477 94.956 42.709L94.615 43.336C94.1383 43.006 93.57 42.841 92.91 42.841C92.4113 42.841 92.0336 42.929 91.777 43.105C91.5276 43.281 91.403 43.512 91.403 43.798C91.403 44.018 91.4726 44.194 91.612 44.326C91.7586 44.458 91.9383 44.557 92.151 44.623C92.3636 44.6817 92.657 44.744 93.031 44.81C93.493 44.898 93.8633 44.986 94.142 45.074C94.4206 45.162 94.659 45.3123 94.857 45.525C95.055 45.7377 95.154 46.031 95.154 46.405C95.154 46.911 94.9413 47.3143 94.516 47.615C94.098 47.9083 93.515 48.055 92.767 48.055ZM96.6748 48.055C96.5135 48.055 96.3741 47.9963 96.2568 47.879C96.1468 47.7617 96.0918 47.6187 96.0918 47.45C96.0918 47.2813 96.1468 47.142 96.2568 47.032C96.3741 46.9147 96.5135 46.856 96.6748 46.856C96.8361 46.856 96.9755 46.9147 97.0928 47.032C97.2101 47.142 97.2688 47.2813 97.2688 47.45C97.2688 47.6187 97.2101 47.7617 97.0928 47.879C96.9755 47.9963 96.8361 48.055 96.6748 48.055Z" fill="black"/>
</svg>
