<svg id="plugin" width="50" height="50" viewBox="0 0 300 300" fill="none" xmlns="http://www.w3.org/2000/svg">

       <path d="M171.591 160.793H194.208C200.17 160.793 205.002 165.626 205.002 171.587V194.204C205.002 200.166 200.17 204.999 194.208 204.999H171.591C165.63 204.999 160.797 200.166 160.797 194.204V171.587C160.797 165.626 165.63 160.793 171.591 160.793Z" stroke="#CACACA" stroke-width="11" stroke-linecap="round"/>

       <path d="M139.206 171.587V194.204C139.206 200.166 134.373 204.999 128.411 204.999H105.794C99.8328 204.999 95 200.166 95 194.204V171.587C95 165.626 99.8328 160.793 105.794 160.793H128.411C134.373 160.793 139.206 165.626 139.206 171.587Z" stroke="#CACACA" stroke-width="11" stroke-linecap="round"/>

       <path d="M160.797 128.411V105.794C160.797 99.8328 165.63 95 171.591 95H194.208C200.17 95 205.002 99.8328 205.002 105.794V128.411C205.002 134.373 200.17 139.206 194.208 139.206H171.591C165.63 139.206 160.797 134.373 160.797 128.411Z" stroke="#CACACA" stroke-width="11" stroke-linecap="round"/>

       <path d="M128.411 139.206H105.794C99.8328 139.206 95 134.373 95 128.411V105.794C95 99.8328 99.8328 95 105.794 95H128.411C134.373 95 139.206 99.8328 139.206 105.794V128.411C139.206 134.373 134.373 139.206 128.411 139.206Z" stroke="#CACACA" stroke-width="11" stroke-linecap="round"/>

       </svg>