<svg width="103" height="49" viewBox="0 0 103 49" fill="none" xmlns="http://www.w3.org/2000/svg">
<path d="M3.377 9.066C2.805 9.066 2.255 8.97433 1.727 8.791C1.20633 8.60767 0.803 8.36567 0.517 8.065L0.836 7.438C1.11467 7.71667 1.485 7.944 1.947 8.12C2.409 8.28867 2.88567 8.373 3.377 8.373C4.06633 8.373 4.58333 8.24833 4.928 7.999C5.27267 7.74233 5.445 7.41233 5.445 7.009C5.445 6.701 5.34967 6.45533 5.159 6.272C4.97567 6.08867 4.74833 5.94933 4.477 5.854C4.20567 5.75133 3.828 5.64133 3.344 5.524C2.76467 5.37733 2.30267 5.238 1.958 5.106C1.61333 4.96667 1.31633 4.75767 1.067 4.479C0.825 4.20033 0.704 3.82267 0.704 3.346C0.704 2.95733 0.806667 2.60533 1.012 2.29C1.21733 1.96733 1.53267 1.71067 1.958 1.52C2.38333 1.32933 2.91133 1.234 3.542 1.234C3.982 1.234 4.411 1.29633 4.829 1.421C5.25433 1.53833 5.621 1.70333 5.929 1.916L5.654 2.565C5.33133 2.35233 4.98667 2.19467 4.62 2.092C4.25333 1.982 3.894 1.927 3.542 1.927C2.86733 1.927 2.35767 2.059 2.013 2.323C1.67567 2.57967 1.507 2.91333 1.507 3.324C1.507 3.632 1.59867 3.88133 1.782 4.072C1.97267 4.25533 2.20733 4.39833 2.486 4.501C2.772 4.59633 3.15333 4.70267 3.63 4.82C4.19467 4.95933 4.64933 5.09867 4.994 5.238C5.346 5.37 5.643 5.57533 5.885 5.854C6.127 6.12533 6.248 6.49567 6.248 6.965C6.248 7.35367 6.14167 7.70933 5.929 8.032C5.72367 8.34733 5.40467 8.60033 4.972 8.791C4.53933 8.97433 4.00767 9.066 3.377 9.066ZM10.7056 8.648C10.5589 8.78 10.3792 8.88267 10.1666 8.956C9.95391 9.022 9.73024 9.055 9.49558 9.055C8.95291 9.055 8.53491 8.90833 8.24158 8.615C7.94824 8.32167 7.80158 7.90733 7.80158 7.372V1.949H8.58258V3.214H10.3316V3.874H8.58258V7.328C8.58258 7.67267 8.66691 7.93667 8.83558 8.12C9.00424 8.296 9.24991 8.384 9.57258 8.384C9.92458 8.384 10.2106 8.285 10.4306 8.087L10.7056 8.648ZM12.8692 4.347C13.0526 3.95833 13.3239 3.665 13.6832 3.467C14.0499 3.269 14.5009 3.17 15.0362 3.17V3.929L14.8492 3.918C14.2406 3.918 13.7639 4.105 13.4192 4.479C13.0746 4.853 12.9022 5.37733 12.9022 6.052V9H12.1212V3.214H12.8692V4.347ZM21.6766 3.214V9H20.9286V7.856C20.694 8.24467 20.3823 8.54167 19.9936 8.747C19.6123 8.95233 19.1796 9.055 18.6956 9.055C18.153 9.055 17.6616 8.93033 17.2216 8.681C16.7816 8.43167 16.437 8.08333 16.1876 7.636C15.9383 7.18867 15.8136 6.679 15.8136 6.107C15.8136 5.535 15.9383 5.02533 16.1876 4.578C16.437 4.13067 16.7816 3.786 17.2216 3.544C17.6616 3.29467 18.153 3.17 18.6956 3.17C19.165 3.17 19.5866 3.269 19.9606 3.467C20.342 3.65767 20.6536 3.94 20.8956 4.314V3.214H21.6766ZM18.7616 8.362C19.165 8.362 19.528 8.27033 19.8506 8.087C20.1806 7.89633 20.4373 7.62867 20.6206 7.284C20.8113 6.93933 20.9066 6.547 20.9066 6.107C20.9066 5.667 20.8113 5.27467 20.6206 4.93C20.4373 4.58533 20.1806 4.32133 19.8506 4.138C19.528 3.94733 19.165 3.852 18.7616 3.852C18.351 3.852 17.9806 3.94733 17.6506 4.138C17.328 4.32133 17.0713 4.58533 16.8806 4.93C16.6973 5.27467 16.6056 5.667 16.6056 6.107C16.6056 6.547 16.6973 6.93933 16.8806 7.284C17.0713 7.62867 17.328 7.89633 17.6506 8.087C17.9806 8.27033 18.351 8.362 18.7616 8.362ZM32.7727 3.214V6.415C32.7727 7.273 32.5674 7.92933 32.1567 8.384C31.746 8.83133 31.141 9.055 30.3417 9.055C29.8357 9.055 29.4104 8.95967 29.0657 8.769C28.7284 8.571 28.468 8.25933 28.2847 7.834C28.1014 8.252 27.841 8.56 27.5037 8.758C27.1664 8.956 26.741 9.055 26.2277 9.055C25.4284 9.055 24.8234 8.83133 24.4127 8.384C24.002 7.92933 23.7967 7.273 23.7967 6.415V3.214H24.5777V6.349C24.5777 7.031 24.7097 7.537 24.9737 7.867C25.2377 8.18967 25.6557 8.351 26.2277 8.351C26.7924 8.351 27.2104 8.186 27.4817 7.856C27.7604 7.526 27.8997 7.01633 27.8997 6.327V3.214H28.6807V6.327C28.6807 7.01633 28.8164 7.526 29.0877 7.856C29.359 8.186 29.7807 8.351 30.3527 8.351C30.91 8.351 31.3207 8.18967 31.5847 7.867C31.856 7.537 31.9917 7.031 31.9917 6.349V3.214H32.7727ZM37.8757 3.17C38.4183 3.17 38.9097 3.29467 39.3497 3.544C39.7897 3.786 40.1343 4.13067 40.3837 4.578C40.633 5.02533 40.7577 5.535 40.7577 6.107C40.7577 6.679 40.633 7.18867 40.3837 7.636C40.1343 8.08333 39.7897 8.43167 39.3497 8.681C38.9097 8.93033 38.4183 9.055 37.8757 9.055C37.3917 9.055 36.9553 8.95233 36.5667 8.747C36.1853 8.54167 35.8773 8.24467 35.6427 7.856V9H34.8947V0.838H35.6757V4.314C35.9177 3.94 36.2257 3.65767 36.5997 3.467C36.981 3.269 37.4063 3.17 37.8757 3.17ZM37.8207 8.362C38.224 8.362 38.5907 8.27033 38.9207 8.087C39.2507 7.89633 39.5073 7.62867 39.6907 7.284C39.8813 6.93933 39.9767 6.547 39.9767 6.107C39.9767 5.667 39.8813 5.27467 39.6907 4.93C39.5073 4.58533 39.2507 4.32133 38.9207 4.138C38.5907 3.94733 38.224 3.852 37.8207 3.852C37.41 3.852 37.0397 3.94733 36.7097 4.138C36.387 4.32133 36.1303 4.58533 35.9397 4.93C35.7563 5.27467 35.6647 5.667 35.6647 6.107C35.6647 6.547 35.7563 6.93933 35.9397 7.284C36.1303 7.62867 36.387 7.89633 36.7097 8.087C37.0397 8.27033 37.41 8.362 37.8207 8.362ZM44.8247 8.362C45.1841 8.362 45.5141 8.29967 45.8147 8.175C46.1227 8.043 46.3831 7.85233 46.5957 7.603L47.0357 8.109C46.7791 8.417 46.4601 8.65167 46.0787 8.813C45.6974 8.97433 45.2757 9.055 44.8137 9.055C44.2197 9.055 43.6917 8.93033 43.2297 8.681C42.7677 8.42433 42.4084 8.07233 42.1517 7.625C41.8951 7.17767 41.7667 6.67167 41.7667 6.107C41.7667 5.54233 41.8877 5.03633 42.1297 4.589C42.3791 4.14167 42.7201 3.79333 43.1527 3.544C43.5854 3.29467 44.0767 3.17 44.6267 3.17C45.1401 3.17 45.6021 3.28733 46.0127 3.522C46.4307 3.75667 46.7607 4.083 47.0027 4.501C47.2521 4.919 47.3841 5.39567 47.3987 5.931L42.6467 6.855C42.7934 7.32433 43.0574 7.69467 43.4387 7.966C43.8274 8.23 44.2894 8.362 44.8247 8.362ZM44.6267 3.841C44.2234 3.841 43.8604 3.93633 43.5377 4.127C43.2224 4.31033 42.9731 4.57067 42.7897 4.908C42.6137 5.238 42.5257 5.61933 42.5257 6.052C42.5257 6.162 42.5294 6.24267 42.5367 6.294L46.6177 5.502C46.5297 5.018 46.3061 4.622 45.9467 4.314C45.5874 3.99867 45.1474 3.841 44.6267 3.841ZM49.7364 4.347C49.9197 3.95833 50.1911 3.665 50.5504 3.467C50.9171 3.269 51.3681 3.17 51.9034 3.17V3.929L51.7164 3.918C51.1077 3.918 50.6311 4.105 50.2864 4.479C49.9417 4.853 49.7694 5.37733 49.7694 6.052V9H48.9884V3.214H49.7364V4.347ZM54.0655 4.347C54.2488 3.95833 54.5202 3.665 54.8795 3.467C55.2462 3.269 55.6972 3.17 56.2325 3.17V3.929L56.0455 3.918C55.4368 3.918 54.9602 4.105 54.6155 4.479C54.2708 4.853 54.0985 5.37733 54.0985 6.052V9H53.3175V3.214H54.0655V4.347ZM62.9466 3.214V8.296C62.9466 9.27867 62.7229 10.0047 62.2756 10.474C61.8282 10.9507 61.1536 11.189 60.2516 11.189C59.7456 11.189 59.2652 11.1083 58.8106 10.947C58.3632 10.793 58.0002 10.5767 57.7216 10.298L58.1176 9.704C58.3669 9.95333 58.6749 10.1477 59.0416 10.287C59.4082 10.4263 59.8006 10.496 60.2186 10.496C60.8859 10.496 61.3772 10.3237 61.6926 9.979C62.0079 9.64167 62.1656 9.11367 62.1656 8.395V7.724C61.9602 8.06133 61.6779 8.32167 61.3186 8.505C60.9666 8.68833 60.5669 8.78 60.1196 8.78C59.3642 8.78 58.7666 8.571 58.3266 8.153C57.8939 7.72767 57.6776 7.108 57.6776 6.294V3.214H58.4586V6.217C58.4586 6.82567 58.6089 7.28767 58.9096 7.603C59.2102 7.91833 59.6392 8.076 60.1966 8.076C60.8052 8.076 61.2856 7.89267 61.6376 7.526C61.9896 7.152 62.1656 6.635 62.1656 5.975V3.214H62.9466ZM68.0128 3.214H68.7938V9H68.0128V3.214ZM68.4088 1.949C68.2475 1.949 68.1118 1.894 68.0018 1.784C67.8918 1.674 67.8368 1.542 67.8368 1.388C67.8368 1.24133 67.8918 1.113 68.0018 1.003C68.1118 0.892999 68.2475 0.838 68.4088 0.838C68.5702 0.838 68.7058 0.892999 68.8158 1.003C68.9258 1.10567 68.9808 1.23033 68.9808 1.377C68.9808 1.53833 68.9258 1.674 68.8158 1.784C68.7058 1.894 68.5702 1.949 68.4088 1.949ZM73.3649 9.055C72.7929 9.055 72.2796 8.93033 71.8249 8.681C71.3776 8.43167 71.0256 8.08333 70.7689 7.636C70.5123 7.18133 70.3839 6.67167 70.3839 6.107C70.3839 5.54233 70.5123 5.03633 70.7689 4.589C71.0256 4.14167 71.3776 3.79333 71.8249 3.544C72.2796 3.29467 72.7929 3.17 73.3649 3.17C73.8636 3.17 74.3073 3.269 74.6959 3.467C75.0919 3.65767 75.4036 3.94 75.6309 4.314L75.0479 4.71C74.8573 4.424 74.6153 4.21133 74.3219 4.072C74.0286 3.92533 73.7096 3.852 73.3649 3.852C72.9469 3.852 72.5693 3.94733 72.2319 4.138C71.9019 4.32133 71.6416 4.58533 71.4509 4.93C71.2676 5.27467 71.1759 5.667 71.1759 6.107C71.1759 6.55433 71.2676 6.95033 71.4509 7.295C71.6416 7.63233 71.9019 7.89633 72.2319 8.087C72.5693 8.27033 72.9469 8.362 73.3649 8.362C73.7096 8.362 74.0286 8.29233 74.3219 8.153C74.6153 8.01367 74.8573 7.801 75.0479 7.515L75.6309 7.911C75.4036 8.285 75.0919 8.571 74.6959 8.769C74.2999 8.95967 73.8563 9.055 73.3649 9.055ZM79.5435 8.362C79.9028 8.362 80.2328 8.29967 80.5335 8.175C80.8415 8.043 81.1018 7.85233 81.3145 7.603L81.7545 8.109C81.4978 8.417 81.1788 8.65167 80.7975 8.813C80.4162 8.97433 79.9945 9.055 79.5325 9.055C78.9385 9.055 78.4105 8.93033 77.9485 8.681C77.4865 8.42433 77.1272 8.07233 76.8705 7.625C76.6138 7.17767 76.4855 6.67167 76.4855 6.107C76.4855 5.54233 76.6065 5.03633 76.8485 4.589C77.0978 4.14167 77.4388 3.79333 77.8715 3.544C78.3042 3.29467 78.7955 3.17 79.3455 3.17C79.8588 3.17 80.3208 3.28733 80.7315 3.522C81.1495 3.75667 81.4795 4.083 81.7215 4.501C81.9708 4.919 82.1028 5.39567 82.1175 5.931L77.3655 6.855C77.5122 7.32433 77.7762 7.69467 78.1575 7.966C78.5462 8.23 79.0082 8.362 79.5435 8.362ZM79.3455 3.841C78.9422 3.841 78.5792 3.93633 78.2565 4.127C77.9412 4.31033 77.6918 4.57067 77.5085 4.908C77.3325 5.238 77.2445 5.61933 77.2445 6.052C77.2445 6.162 77.2482 6.24267 77.2555 6.294L81.3365 5.502C81.2485 5.018 81.0248 4.622 80.6655 4.314C80.3062 3.99867 79.8662 3.841 79.3455 3.841ZM3.487 22.055C2.915 22.055 2.40167 21.9303 1.947 21.681C1.49967 21.4317 1.14767 21.0833 0.891 20.636C0.634333 20.1813 0.506 19.6717 0.506 19.107C0.506 18.5423 0.634333 18.0363 0.891 17.589C1.14767 17.1417 1.49967 16.7933 1.947 16.544C2.40167 16.2947 2.915 16.17 3.487 16.17C3.98567 16.17 4.42933 16.269 4.818 16.467C5.214 16.6577 5.52567 16.94 5.753 17.314L5.17 17.71C4.97933 17.424 4.73733 17.2113 4.444 17.072C4.15067 16.9253 3.83167 16.852 3.487 16.852C3.069 16.852 2.69133 16.9473 2.354 17.138C2.024 17.3213 1.76367 17.5853 1.573 17.93C1.38967 18.2747 1.298 18.667 1.298 19.107C1.298 19.5543 1.38967 19.9503 1.573 20.295C1.76367 20.6323 2.024 20.8963 2.354 21.087C2.69133 21.2703 3.069 21.362 3.487 21.362C3.83167 21.362 4.15067 21.2923 4.444 21.153C4.73733 21.0137 4.97933 20.801 5.17 20.515L5.753 20.911C5.52567 21.285 5.214 21.571 4.818 21.769C4.422 21.9597 3.97833 22.055 3.487 22.055ZM8.03524 17.347C8.21858 16.9583 8.48991 16.665 8.84924 16.467C9.21591 16.269 9.66691 16.17 10.2022 16.17V16.929L10.0152 16.918C9.40658 16.918 8.92991 17.105 8.58524 17.479C8.24058 17.853 8.06824 18.3773 8.06824 19.052V22H7.28724V16.214H8.03524V17.347ZM14.0376 21.362C14.397 21.362 14.727 21.2997 15.0276 21.175C15.3356 21.043 15.596 20.8523 15.8086 20.603L16.2486 21.109C15.992 21.417 15.673 21.6517 15.2916 21.813C14.9103 21.9743 14.4886 22.055 14.0266 22.055C13.4326 22.055 12.9046 21.9303 12.4426 21.681C11.9806 21.4243 11.6213 21.0723 11.3646 20.625C11.108 20.1777 10.9796 19.6717 10.9796 19.107C10.9796 18.5423 11.1006 18.0363 11.3426 17.589C11.592 17.1417 11.933 16.7933 12.3656 16.544C12.7983 16.2947 13.2896 16.17 13.8396 16.17C14.353 16.17 14.815 16.2873 15.2256 16.522C15.6436 16.7567 15.9736 17.083 16.2156 17.501C16.465 17.919 16.597 18.3957 16.6116 18.931L11.8596 19.855C12.0063 20.3243 12.2703 20.6947 12.6516 20.966C13.0403 21.23 13.5023 21.362 14.0376 21.362ZM13.8396 16.841C13.4363 16.841 13.0733 16.9363 12.7506 17.127C12.4353 17.3103 12.186 17.5707 12.0026 17.908C11.8266 18.238 11.7386 18.6193 11.7386 19.052C11.7386 19.162 11.7423 19.2427 11.7496 19.294L15.8306 18.502C15.7426 18.018 15.519 17.622 15.1596 17.314C14.8003 16.9987 14.3603 16.841 13.8396 16.841ZM23.4813 16.214V22H22.7333V20.856C22.4986 21.2447 22.187 21.5417 21.7983 21.747C21.417 21.9523 20.9843 22.055 20.5003 22.055C19.9576 22.055 19.4663 21.9303 19.0263 21.681C18.5863 21.4317 18.2416 21.0833 17.9923 20.636C17.743 20.1887 17.6183 19.679 17.6183 19.107C17.6183 18.535 17.743 18.0253 17.9923 17.578C18.2416 17.1307 18.5863 16.786 19.0263 16.544C19.4663 16.2947 19.9576 16.17 20.5003 16.17C20.9696 16.17 21.3913 16.269 21.7653 16.467C22.1466 16.6577 22.4583 16.94 22.7003 17.314V16.214H23.4813ZM20.5663 21.362C20.9696 21.362 21.3326 21.2703 21.6553 21.087C21.9853 20.8963 22.242 20.6287 22.4253 20.284C22.616 19.9393 22.7113 19.547 22.7113 19.107C22.7113 18.667 22.616 18.2747 22.4253 17.93C22.242 17.5853 21.9853 17.3213 21.6553 17.138C21.3326 16.9473 20.9696 16.852 20.5663 16.852C20.1556 16.852 19.7853 16.9473 19.4553 17.138C19.1326 17.3213 18.876 17.5853 18.6853 17.93C18.502 18.2747 18.4103 18.667 18.4103 19.107C18.4103 19.547 18.502 19.9393 18.6853 20.284C18.876 20.6287 19.1326 20.8963 19.4553 21.087C19.7853 21.2703 20.1556 21.362 20.5663 21.362ZM32.8724 16.17C33.5984 16.17 34.1667 16.379 34.5774 16.797C34.9954 17.215 35.2044 17.831 35.2044 18.645V22H34.4234V18.722C34.4234 18.1207 34.2767 17.6623 33.9834 17.347C33.6974 17.0317 33.2904 16.874 32.7624 16.874C32.1611 16.874 31.6881 17.061 31.3434 17.435C30.9987 17.8017 30.8264 18.3113 30.8264 18.964V22H30.0454V18.722C30.0454 18.1207 29.8987 17.6623 29.6054 17.347C29.3194 17.0317 28.9087 16.874 28.3734 16.874C27.7794 16.874 27.3064 17.061 26.9544 17.435C26.6097 17.8017 26.4374 18.3113 26.4374 18.964V22H25.6564V16.214H26.4044V17.27C26.6097 16.918 26.8957 16.6467 27.2624 16.456C27.629 16.2653 28.0507 16.17 28.5274 16.17C29.0114 16.17 29.4294 16.2727 29.7814 16.478C30.1407 16.6833 30.4084 16.9877 30.5844 17.391C30.797 17.0097 31.1014 16.7127 31.4974 16.5C31.9007 16.28 32.3591 16.17 32.8724 16.17ZM47.4173 16.17C48.1433 16.17 48.7116 16.379 49.1223 16.797C49.5403 17.215 49.7493 17.831 49.7493 18.645V22H48.9683V18.722C48.9683 18.1207 48.8216 17.6623 48.5283 17.347C48.2423 17.0317 47.8353 16.874 47.3073 16.874C46.706 16.874 46.233 17.061 45.8883 17.435C45.5436 17.8017 45.3713 18.3113 45.3713 18.964V22H44.5903V18.722C44.5903 18.1207 44.4436 17.6623 44.1503 17.347C43.8643 17.0317 43.4536 16.874 42.9183 16.874C42.3243 16.874 41.8513 17.061 41.4993 17.435C41.1546 17.8017 40.9823 18.3113 40.9823 18.964V22H40.2013V16.214H40.9493V17.27C41.1546 16.918 41.4406 16.6467 41.8073 16.456C42.174 16.2653 42.5956 16.17 43.0723 16.17C43.5563 16.17 43.9743 16.2727 44.3263 16.478C44.6856 16.6833 44.9533 16.9877 45.1293 17.391C45.342 17.0097 45.6463 16.7127 46.0423 16.5C46.4456 16.28 46.904 16.17 47.4173 16.17ZM51.8673 16.214H52.6483V22H51.8673V16.214ZM52.2633 14.949C52.102 14.949 51.9663 14.894 51.8563 14.784C51.7463 14.674 51.6913 14.542 51.6913 14.388C51.6913 14.2413 51.7463 14.113 51.8563 14.003C51.9663 13.893 52.102 13.838 52.2633 13.838C52.4247 13.838 52.5603 13.893 52.6703 14.003C52.7803 14.1057 52.8353 14.2303 52.8353 14.377C52.8353 14.5383 52.7803 14.674 52.6703 14.784C52.5603 14.894 52.4247 14.949 52.2633 14.949ZM58.5064 22L56.6694 19.58L54.8214 22H53.9414L56.2294 19.03L54.0514 16.214H54.9314L56.6694 18.48L58.4074 16.214H59.2654L57.0874 19.03L59.3974 22H58.5064ZM62.9683 21.362C63.3276 21.362 63.6576 21.2997 63.9583 21.175C64.2663 21.043 64.5266 20.8523 64.7393 20.603L65.1793 21.109C64.9226 21.417 64.6036 21.6517 64.2223 21.813C63.841 21.9743 63.4193 22.055 62.9573 22.055C62.3633 22.055 61.8353 21.9303 61.3733 21.681C60.9113 21.4243 60.552 21.0723 60.2953 20.625C60.0386 20.1777 59.9103 19.6717 59.9103 19.107C59.9103 18.5423 60.0313 18.0363 60.2733 17.589C60.5226 17.1417 60.8636 16.7933 61.2963 16.544C61.729 16.2947 62.2203 16.17 62.7703 16.17C63.2836 16.17 63.7456 16.2873 64.1563 16.522C64.5743 16.7567 64.9043 17.083 65.1463 17.501C65.3956 17.919 65.5276 18.3957 65.5423 18.931L60.7903 19.855C60.937 20.3243 61.201 20.6947 61.5823 20.966C61.971 21.23 62.433 21.362 62.9683 21.362ZM62.7703 16.841C62.367 16.841 62.004 16.9363 61.6813 17.127C61.366 17.3103 61.1166 17.5707 60.9333 17.908C60.7573 18.238 60.6693 18.6193 60.6693 19.052C60.6693 19.162 60.673 19.2427 60.6803 19.294L64.7613 18.502C64.6733 18.018 64.4496 17.622 64.0903 17.314C63.731 16.9987 63.291 16.841 62.7703 16.841ZM72.412 13.838V22H71.664V20.856C71.4293 21.2447 71.1176 21.5417 70.729 21.747C70.3476 21.9523 69.915 22.055 69.431 22.055C68.8883 22.055 68.397 21.9303 67.957 21.681C67.517 21.4317 67.1723 21.0833 66.923 20.636C66.6736 20.1887 66.549 19.679 66.549 19.107C66.549 18.535 66.6736 18.0253 66.923 17.578C67.1723 17.1307 67.517 16.786 67.957 16.544C68.397 16.2947 68.8883 16.17 69.431 16.17C69.9003 16.17 70.322 16.269 70.696 16.467C71.0773 16.6577 71.389 16.94 71.631 17.314V13.838H72.412ZM69.497 21.362C69.9003 21.362 70.2633 21.2703 70.586 21.087C70.916 20.8963 71.1726 20.6287 71.356 20.284C71.5466 19.9393 71.642 19.547 71.642 19.107C71.642 18.667 71.5466 18.2747 71.356 17.93C71.1726 17.5853 70.916 17.3213 70.586 17.138C70.2633 16.9473 69.9003 16.852 69.497 16.852C69.0863 16.852 68.716 16.9473 68.386 17.138C68.0633 17.3213 67.8066 17.5853 67.616 17.93C67.4326 18.2747 67.341 18.667 67.341 19.107C67.341 19.547 67.4326 19.9393 67.616 20.284C67.8066 20.6287 68.0633 20.8963 68.386 21.087C68.716 21.2703 69.0863 21.362 69.497 21.362ZM86.387 16.214V19.415C86.387 20.273 86.1816 20.9293 85.771 21.384C85.3603 21.8313 84.7553 22.055 83.956 22.055C83.45 22.055 83.0246 21.9597 82.68 21.769C82.3426 21.571 82.0823 21.2593 81.899 20.834C81.7156 21.252 81.4553 21.56 81.118 21.758C80.7806 21.956 80.3553 22.055 79.842 22.055C79.0426 22.055 78.4376 21.8313 78.027 21.384C77.6163 20.9293 77.411 20.273 77.411 19.415V16.214H78.192V19.349C78.192 20.031 78.324 20.537 78.588 20.867C78.852 21.1897 79.27 21.351 79.842 21.351C80.4066 21.351 80.8246 21.186 81.096 20.856C81.3746 20.526 81.514 20.0163 81.514 19.327V16.214H82.295V19.327C82.295 20.0163 82.4306 20.526 82.702 20.856C82.9733 21.186 83.395 21.351 83.967 21.351C84.5243 21.351 84.935 21.1897 85.199 20.867C85.4703 20.537 85.606 20.031 85.606 19.349V16.214H86.387ZM88.5089 16.214H89.2899V22H88.5089V16.214ZM88.9049 14.949C88.7436 14.949 88.6079 14.894 88.4979 14.784C88.3879 14.674 88.3329 14.542 88.3329 14.388C88.3329 14.2413 88.3879 14.113 88.4979 14.003C88.6079 13.893 88.7436 13.838 88.9049 13.838C89.0663 13.838 89.2019 13.893 89.3119 14.003C89.4219 14.1057 89.4769 14.2303 89.4769 14.377C89.4769 14.5383 89.4219 14.674 89.3119 14.784C89.2019 14.894 89.0663 14.949 88.9049 14.949ZM94.312 21.648C94.1654 21.78 93.9857 21.8827 93.773 21.956C93.5604 22.022 93.3367 22.055 93.102 22.055C92.5594 22.055 92.1414 21.9083 91.848 21.615C91.5547 21.3217 91.408 20.9073 91.408 20.372V14.949H92.189V16.214H93.938V16.874H92.189V20.328C92.189 20.6727 92.2734 20.9367 92.442 21.12C92.6107 21.296 92.8564 21.384 93.179 21.384C93.531 21.384 93.817 21.285 94.037 21.087L94.312 21.648ZM98.6757 16.17C99.4017 16.17 99.9773 16.3827 100.403 16.808C100.835 17.226 101.052 17.8383 101.052 18.645V22H100.271V18.722C100.271 18.1207 100.12 17.6623 99.8197 17.347C99.519 17.0317 99.09 16.874 98.5327 16.874C97.9093 16.874 97.4143 17.061 97.0477 17.435C96.6883 17.8017 96.5087 18.3113 96.5087 18.964V22H95.7277V13.838H96.5087V17.226C96.7213 16.8887 97.0147 16.6283 97.3887 16.445C97.7627 16.2617 98.1917 16.17 98.6757 16.17ZM2.64 35.055C2.17067 35.055 1.71967 34.989 1.287 34.857C0.861667 34.7177 0.528 34.5453 0.286 34.34L0.638 33.724C0.88 33.9147 1.18433 34.0723 1.551 34.197C1.91767 34.3143 2.299 34.373 2.695 34.373C3.223 34.373 3.61167 34.2923 3.861 34.131C4.11767 33.9623 4.246 33.7277 4.246 33.427C4.246 33.2143 4.17633 33.0493 4.037 32.932C3.89767 32.8073 3.72167 32.7157 3.509 32.657C3.29633 32.591 3.014 32.5287 2.662 32.47C2.19267 32.382 1.815 32.294 1.529 32.206C1.243 32.1107 0.997333 31.953 0.792 31.733C0.594 31.513 0.495 31.2087 0.495 30.82C0.495 30.336 0.696667 29.94 1.1 29.632C1.50333 29.324 2.06433 29.17 2.783 29.17C3.157 29.17 3.531 29.2213 3.905 29.324C4.279 29.4193 4.587 29.5477 4.829 29.709L4.488 30.336C4.01133 30.006 3.443 29.841 2.783 29.841C2.28433 29.841 1.90667 29.929 1.65 30.105C1.40067 30.281 1.276 30.512 1.276 30.798C1.276 31.018 1.34567 31.194 1.485 31.326C1.63167 31.458 1.81133 31.557 2.024 31.623C2.23667 31.6817 2.53 31.744 2.904 31.81C3.366 31.898 3.73633 31.986 4.015 32.074C4.29367 32.162 4.532 32.3123 4.73 32.525C4.928 32.7377 5.027 33.031 5.027 33.405C5.027 33.911 4.81433 34.3143 4.389 34.615C3.971 34.9083 3.388 35.055 2.64 35.055ZM13.6868 29.17C14.4128 29.17 14.9812 29.379 15.3918 29.797C15.8098 30.215 16.0188 30.831 16.0188 31.645V35H15.2378V31.722C15.2378 31.1207 15.0912 30.6623 14.7978 30.347C14.5118 30.0317 14.1048 29.874 13.5768 29.874C12.9755 29.874 12.5025 30.061 12.1578 30.435C11.8132 30.8017 11.6408 31.3113 11.6408 31.964V35H10.8598V31.722C10.8598 31.1207 10.7132 30.6623 10.4198 30.347C10.1338 30.0317 9.72317 29.874 9.18784 29.874C8.59384 29.874 8.12084 30.061 7.76884 30.435C7.42417 30.8017 7.25184 31.3113 7.25184 31.964V35H6.47084V29.214H7.21884V30.27C7.42417 29.918 7.71017 29.6467 8.07684 29.456C8.4435 29.2653 8.86517 29.17 9.34184 29.17C9.82584 29.17 10.2438 29.2727 10.5958 29.478C10.9552 29.6833 11.2228 29.9877 11.3988 30.391C11.6115 30.0097 11.9158 29.7127 12.3118 29.5C12.7152 29.28 13.1735 29.17 13.6868 29.17ZM23.4383 29.214V35H22.6903V33.856C22.4557 34.2447 22.144 34.5417 21.7553 34.747C21.374 34.9523 20.9413 35.055 20.4573 35.055C19.9147 35.055 19.4233 34.9303 18.9833 34.681C18.5433 34.4317 18.1987 34.0833 17.9493 33.636C17.7 33.1887 17.5753 32.679 17.5753 32.107C17.5753 31.535 17.7 31.0253 17.9493 30.578C18.1987 30.1307 18.5433 29.786 18.9833 29.544C19.4233 29.2947 19.9147 29.17 20.4573 29.17C20.9267 29.17 21.3483 29.269 21.7223 29.467C22.1037 29.6577 22.4153 29.94 22.6573 30.314V29.214H23.4383ZM20.5233 34.362C20.9267 34.362 21.2897 34.2703 21.6123 34.087C21.9423 33.8963 22.199 33.6287 22.3823 33.284C22.573 32.9393 22.6683 32.547 22.6683 32.107C22.6683 31.667 22.573 31.2747 22.3823 30.93C22.199 30.5853 21.9423 30.3213 21.6123 30.138C21.2897 29.9473 20.9267 29.852 20.5233 29.852C20.1127 29.852 19.7423 29.9473 19.4123 30.138C19.0897 30.3213 18.833 30.5853 18.6423 30.93C18.459 31.2747 18.3673 31.667 18.3673 32.107C18.3673 32.547 18.459 32.9393 18.6423 33.284C18.833 33.6287 19.0897 33.8963 19.4123 34.087C19.7423 34.2703 20.1127 34.362 20.5233 34.362ZM27.2414 35.055C26.7207 35.055 26.3174 34.9083 26.0314 34.615C25.7527 34.3217 25.6134 33.9147 25.6134 33.394V26.838H26.3944V33.328C26.3944 33.6727 26.4751 33.9367 26.6364 34.12C26.7977 34.296 27.0397 34.384 27.3624 34.384C27.5677 34.384 27.7437 34.351 27.8904 34.285L27.9454 34.934C27.7181 35.0147 27.4834 35.055 27.2414 35.055ZM30.6359 35.055C30.1153 35.055 29.7119 34.9083 29.4259 34.615C29.1473 34.3217 29.0079 33.9147 29.0079 33.394V26.838H29.7889V33.328C29.7889 33.6727 29.8696 33.9367 30.0309 34.12C30.1923 34.296 30.4343 34.384 30.7569 34.384C30.9623 34.384 31.1383 34.351 31.2849 34.285L31.3399 34.934C31.1126 35.0147 30.8779 35.055 30.6359 35.055ZM38.2624 29.17C38.805 29.17 39.2964 29.2947 39.7364 29.544C40.1764 29.786 40.521 30.1307 40.7704 30.578C41.0197 31.0253 41.1444 31.535 41.1444 32.107C41.1444 32.6863 41.0197 33.1997 40.7704 33.647C40.521 34.0943 40.1764 34.4427 39.7364 34.692C39.3037 34.934 38.8124 35.055 38.2624 35.055C37.793 35.055 37.3677 34.9597 36.9864 34.769C36.6124 34.571 36.3044 34.285 36.0624 33.911V37.134H35.2814V29.214H36.0294V30.358C36.264 29.9767 36.572 29.6833 36.9534 29.478C37.342 29.2727 37.7784 29.17 38.2624 29.17ZM38.2074 34.362C38.6107 34.362 38.9774 34.2703 39.3074 34.087C39.6374 33.8963 39.894 33.6287 40.0774 33.284C40.268 32.9393 40.3634 32.547 40.3634 32.107C40.3634 31.667 40.268 31.2783 40.0774 30.941C39.894 30.5963 39.6374 30.3287 39.3074 30.138C38.9774 29.9473 38.6107 29.852 38.2074 29.852C37.7967 29.852 37.4264 29.9473 37.0964 30.138C36.7737 30.3287 36.517 30.5963 36.3264 30.941C36.143 31.2783 36.0514 31.667 36.0514 32.107C36.0514 32.547 36.143 32.9393 36.3264 33.284C36.517 33.6287 36.7737 33.8963 37.0964 34.087C37.4264 34.2703 37.7967 34.362 38.2074 34.362ZM42.7365 29.214H43.5175V35H42.7365V29.214ZM43.1325 27.949C42.9711 27.949 42.8355 27.894 42.7255 27.784C42.6155 27.674 42.5605 27.542 42.5605 27.388C42.5605 27.2413 42.6155 27.113 42.7255 27.003C42.8355 26.893 42.9711 26.838 43.1325 26.838C43.2938 26.838 43.4295 26.893 43.5395 27.003C43.6495 27.1057 43.7045 27.2303 43.7045 27.377C43.7045 27.5383 43.6495 27.674 43.5395 27.784C43.4295 27.894 43.2938 27.949 43.1325 27.949ZM48.1656 34.362C48.5249 34.362 48.8549 34.2997 49.1556 34.175C49.4636 34.043 49.7239 33.8523 49.9366 33.603L50.3766 34.109C50.1199 34.417 49.8009 34.6517 49.4196 34.813C49.0382 34.9743 48.6166 35.055 48.1546 35.055C47.5606 35.055 47.0326 34.9303 46.5706 34.681C46.1086 34.4243 45.7492 34.0723 45.4926 33.625C45.2359 33.1777 45.1076 32.6717 45.1076 32.107C45.1076 31.5423 45.2286 31.0363 45.4706 30.589C45.7199 30.1417 46.0609 29.7933 46.4936 29.544C46.9262 29.2947 47.4176 29.17 47.9676 29.17C48.4809 29.17 48.9429 29.2873 49.3536 29.522C49.7716 29.7567 50.1016 30.083 50.3436 30.501C50.5929 30.919 50.7249 31.3957 50.7396 31.931L45.9876 32.855C46.1342 33.3243 46.3982 33.6947 46.7796 33.966C47.1682 34.23 47.6302 34.362 48.1656 34.362ZM47.9676 29.841C47.5642 29.841 47.2012 29.9363 46.8786 30.127C46.5632 30.3103 46.3139 30.5707 46.1306 30.908C45.9546 31.238 45.8666 31.6193 45.8666 32.052C45.8666 32.162 45.8702 32.2427 45.8776 32.294L49.9586 31.502C49.8706 31.018 49.6469 30.622 49.2876 30.314C48.9282 29.9987 48.4882 29.841 47.9676 29.841ZM54.7272 35.055C54.1552 35.055 53.6419 34.9303 53.1872 34.681C52.7399 34.4317 52.3879 34.0833 52.1312 33.636C51.8746 33.1813 51.7462 32.6717 51.7462 32.107C51.7462 31.5423 51.8746 31.0363 52.1312 30.589C52.3879 30.1417 52.7399 29.7933 53.1872 29.544C53.6419 29.2947 54.1552 29.17 54.7272 29.17C55.2259 29.17 55.6696 29.269 56.0582 29.467C56.4542 29.6577 56.7659 29.94 56.9932 30.314L56.4102 30.71C56.2196 30.424 55.9776 30.2113 55.6842 30.072C55.3909 29.9253 55.0719 29.852 54.7272 29.852C54.3092 29.852 53.9316 29.9473 53.5942 30.138C53.2642 30.3213 53.0039 30.5853 52.8132 30.93C52.6299 31.2747 52.5382 31.667 52.5382 32.107C52.5382 32.5543 52.6299 32.9503 52.8132 33.295C53.0039 33.6323 53.2642 33.8963 53.5942 34.087C53.9316 34.2703 54.3092 34.362 54.7272 34.362C55.0719 34.362 55.3909 34.2923 55.6842 34.153C55.9776 34.0137 56.2196 33.801 56.4102 33.515L56.9932 33.911C56.7659 34.285 56.4542 34.571 56.0582 34.769C55.6622 34.9597 55.2186 35.055 54.7272 35.055ZM60.9058 34.362C61.2651 34.362 61.5951 34.2997 61.8958 34.175C62.2038 34.043 62.4641 33.8523 62.6768 33.603L63.1168 34.109C62.8601 34.417 62.5411 34.6517 62.1598 34.813C61.7785 34.9743 61.3568 35.055 60.8948 35.055C60.3008 35.055 59.7728 34.9303 59.3108 34.681C58.8488 34.4243 58.4895 34.0723 58.2328 33.625C57.9761 33.1777 57.8478 32.6717 57.8478 32.107C57.8478 31.5423 57.9688 31.0363 58.2108 30.589C58.4601 30.1417 58.8011 29.7933 59.2338 29.544C59.6665 29.2947 60.1578 29.17 60.7078 29.17C61.2211 29.17 61.6831 29.2873 62.0938 29.522C62.5118 29.7567 62.8418 30.083 63.0838 30.501C63.3331 30.919 63.4651 31.3957 63.4798 31.931L58.7278 32.855C58.8745 33.3243 59.1385 33.6947 59.5198 33.966C59.9085 34.23 60.3705 34.362 60.9058 34.362ZM60.7078 29.841C60.3045 29.841 59.9415 29.9363 59.6188 30.127C59.3035 30.3103 59.0541 30.5707 58.8708 30.908C58.6948 31.238 58.6068 31.6193 58.6068 32.052C58.6068 32.162 58.6105 32.2427 58.6178 32.294L62.6988 31.502C62.6108 31.018 62.3871 30.622 62.0278 30.314C61.6685 29.9987 61.2285 29.841 60.7078 29.841ZM66.6205 35.055C66.1511 35.055 65.7001 34.989 65.2675 34.857C64.8421 34.7177 64.5085 34.5453 64.2665 34.34L64.6185 33.724C64.8605 33.9147 65.1648 34.0723 65.5315 34.197C65.8981 34.3143 66.2795 34.373 66.6755 34.373C67.2035 34.373 67.5921 34.2923 67.8415 34.131C68.0981 33.9623 68.2265 33.7277 68.2265 33.427C68.2265 33.2143 68.1568 33.0493 68.0175 32.932C67.8781 32.8073 67.7021 32.7157 67.4895 32.657C67.2768 32.591 66.9945 32.5287 66.6425 32.47C66.1731 32.382 65.7955 32.294 65.5095 32.206C65.2235 32.1107 64.9778 31.953 64.7725 31.733C64.5745 31.513 64.4755 31.2087 64.4755 30.82C64.4755 30.336 64.6771 29.94 65.0805 29.632C65.4838 29.324 66.0448 29.17 66.7635 29.17C67.1375 29.17 67.5115 29.2213 67.8855 29.324C68.2595 29.4193 68.5675 29.5477 68.8095 29.709L68.4685 30.336C67.9918 30.006 67.4235 29.841 66.7635 29.841C66.2648 29.841 65.8871 29.929 65.6305 30.105C65.3811 30.281 65.2565 30.512 65.2565 30.798C65.2565 31.018 65.3261 31.194 65.4655 31.326C65.6121 31.458 65.7918 31.557 66.0045 31.623C66.2171 31.6817 66.5105 31.744 66.8845 31.81C67.3465 31.898 67.7168 31.986 67.9955 32.074C68.2741 32.162 68.5125 32.3123 68.7105 32.525C68.9085 32.7377 69.0075 33.031 69.0075 33.405C69.0075 33.911 68.7948 34.3143 68.3695 34.615C67.9515 34.9083 67.3685 35.055 66.6205 35.055ZM75.6952 35.055C75.1379 35.055 74.6355 34.9303 74.1882 34.681C73.7409 34.4243 73.3889 34.0723 73.1322 33.625C72.8755 33.1777 72.7472 32.6717 72.7472 32.107C72.7472 31.5423 72.8755 31.0363 73.1322 30.589C73.3889 30.1417 73.7409 29.7933 74.1882 29.544C74.6355 29.2947 75.1379 29.17 75.6952 29.17C76.2525 29.17 76.7549 29.2947 77.2022 29.544C77.6495 29.7933 77.9979 30.1417 78.2472 30.589C78.5039 31.0363 78.6322 31.5423 78.6322 32.107C78.6322 32.6717 78.5039 33.1777 78.2472 33.625C77.9979 34.0723 77.6495 34.4243 77.2022 34.681C76.7549 34.9303 76.2525 35.055 75.6952 35.055ZM75.6952 34.362C76.1059 34.362 76.4725 34.2703 76.7952 34.087C77.1252 33.8963 77.3819 33.6287 77.5652 33.284C77.7485 32.9393 77.8402 32.547 77.8402 32.107C77.8402 31.667 77.7485 31.2747 77.5652 30.93C77.3819 30.5853 77.1252 30.3213 76.7952 30.138C76.4725 29.9473 76.1059 29.852 75.6952 29.852C75.2845 29.852 74.9142 29.9473 74.5842 30.138C74.2615 30.3213 74.0049 30.5853 73.8142 30.93C73.6309 31.2747 73.5392 31.667 73.5392 32.107C73.5392 32.547 73.6309 32.9393 73.8142 33.284C74.0049 33.6287 74.2615 33.8963 74.5842 34.087C74.9142 34.2703 75.2845 34.362 75.6952 34.362ZM82.0087 27.443C81.6714 27.443 81.4147 27.5347 81.2387 27.718C81.07 27.9013 80.9857 28.1727 80.9857 28.532V29.214H82.7677V29.874H81.0077V35H80.2267V28.499C80.2267 27.971 80.377 27.553 80.6777 27.245C80.9857 26.937 81.4184 26.783 81.9757 26.783C82.1957 26.783 82.4084 26.816 82.6137 26.882C82.819 26.9407 82.9914 27.0287 83.1307 27.146L82.8667 27.729C82.6394 27.5383 82.3534 27.443 82.0087 27.443ZM2.871 40.443C2.53367 40.443 2.277 40.5347 2.101 40.718C1.93233 40.9013 1.848 41.1727 1.848 41.532V42.214H3.63V42.874H1.87V48H1.089V41.499C1.089 40.971 1.23933 40.553 1.54 40.245C1.848 39.937 2.28067 39.783 2.838 39.783C3.058 39.783 3.27067 39.816 3.476 39.882C3.68133 39.9407 3.85367 40.0287 3.993 40.146L3.729 40.729C3.50167 40.5383 3.21567 40.443 2.871 40.443ZM6.31649 43.347C6.49983 42.9583 6.77116 42.665 7.13049 42.467C7.49716 42.269 7.94816 42.17 8.48349 42.17V42.929L8.29649 42.918C7.68783 42.918 7.21116 43.105 6.86649 43.479C6.52183 43.853 6.34949 44.3773 6.34949 45.052V48H5.56849V42.214H6.31649V43.347ZM12.3189 47.362C12.6782 47.362 13.0082 47.2997 13.3089 47.175C13.6169 47.043 13.8772 46.8523 14.0899 46.603L14.5299 47.109C14.2732 47.417 13.9542 47.6517 13.5729 47.813C13.1915 47.9743 12.7699 48.055 12.3079 48.055C11.7139 48.055 11.1859 47.9303 10.7239 47.681C10.2619 47.4243 9.90255 47.0723 9.64588 46.625C9.38922 46.1777 9.26088 45.6717 9.26088 45.107C9.26088 44.5423 9.38188 44.0363 9.62388 43.589C9.87322 43.1417 10.2142 42.7933 10.6469 42.544C11.0795 42.2947 11.5709 42.17 12.1209 42.17C12.6342 42.17 13.0962 42.2873 13.5069 42.522C13.9249 42.7567 14.2549 43.083 14.4969 43.501C14.7462 43.919 14.8782 44.3957 14.8929 44.931L10.1409 45.855C10.2875 46.3243 10.5515 46.6947 10.9329 46.966C11.3215 47.23 11.7835 47.362 12.3189 47.362ZM12.1209 42.841C11.7175 42.841 11.3545 42.9363 11.0319 43.127C10.7165 43.3103 10.4672 43.5707 10.2839 43.908C10.1079 44.238 10.0199 44.6193 10.0199 45.052C10.0199 45.162 10.0235 45.2427 10.0309 45.294L14.1119 44.502C14.0239 44.018 13.8002 43.622 13.4409 43.314C13.0815 42.9987 12.6415 42.841 12.1209 42.841ZM18.0336 48.055C17.5642 48.055 17.1132 47.989 16.6806 47.857C16.2552 47.7177 15.9216 47.5453 15.6796 47.34L16.0316 46.724C16.2736 46.9147 16.5779 47.0723 16.9446 47.197C17.3112 47.3143 17.6926 47.373 18.0886 47.373C18.6166 47.373 19.0052 47.2923 19.2546 47.131C19.5112 46.9623 19.6396 46.7277 19.6396 46.427C19.6396 46.2143 19.5699 46.0493 19.4306 45.932C19.2912 45.8073 19.1152 45.7157 18.9026 45.657C18.6899 45.591 18.4076 45.5287 18.0556 45.47C17.5862 45.382 17.2086 45.294 16.9226 45.206C16.6366 45.1107 16.3909 44.953 16.1856 44.733C15.9876 44.513 15.8886 44.2087 15.8886 43.82C15.8886 43.336 16.0902 42.94 16.4936 42.632C16.8969 42.324 17.4579 42.17 18.1766 42.17C18.5506 42.17 18.9246 42.2213 19.2986 42.324C19.6726 42.4193 19.9806 42.5477 20.2226 42.709L19.8816 43.336C19.4049 43.006 18.8366 42.841 18.1766 42.841C17.6779 42.841 17.3002 42.929 17.0436 43.105C16.7942 43.281 16.6696 43.512 16.6696 43.798C16.6696 44.018 16.7392 44.194 16.8786 44.326C17.0252 44.458 17.2049 44.557 17.4176 44.623C17.6302 44.6817 17.9236 44.744 18.2976 44.81C18.7596 44.898 19.1299 44.986 19.4086 45.074C19.6872 45.162 19.9256 45.3123 20.1236 45.525C20.3216 45.7377 20.4206 46.031 20.4206 46.405C20.4206 46.911 20.2079 47.3143 19.7826 47.615C19.3646 47.9083 18.7816 48.055 18.0336 48.055ZM24.8124 42.17C25.5384 42.17 26.1141 42.3827 26.5394 42.808C26.9721 43.226 27.1884 43.8383 27.1884 44.645V48H26.4074V44.722C26.4074 44.1207 26.2571 43.6623 25.9564 43.347C25.6557 43.0317 25.2267 42.874 24.6694 42.874C24.0461 42.874 23.5511 43.061 23.1844 43.435C22.8251 43.8017 22.6454 44.3113 22.6454 44.964V48H21.8644V39.838H22.6454V43.226C22.8581 42.8887 23.1514 42.6283 23.5254 42.445C23.8994 42.2617 24.3284 42.17 24.8124 42.17ZM33.7386 48.055C33.2693 48.055 32.8183 47.989 32.3856 47.857C31.9603 47.7177 31.6266 47.5453 31.3846 47.34L31.7366 46.724C31.9786 46.9147 32.283 47.0723 32.6496 47.197C33.0163 47.3143 33.3976 47.373 33.7936 47.373C34.3216 47.373 34.7103 47.2923 34.9596 47.131C35.2163 46.9623 35.3446 46.7277 35.3446 46.427C35.3446 46.2143 35.275 46.0493 35.1356 45.932C34.9963 45.8073 34.8203 45.7157 34.6076 45.657C34.395 45.591 34.1126 45.5287 33.7606 45.47C33.2913 45.382 32.9136 45.294 32.6276 45.206C32.3416 45.1107 32.096 44.953 31.8906 44.733C31.6926 44.513 31.5936 44.2087 31.5936 43.82C31.5936 43.336 31.7953 42.94 32.1986 42.632C32.602 42.324 33.163 42.17 33.8816 42.17C34.2556 42.17 34.6296 42.2213 35.0036 42.324C35.3776 42.4193 35.6856 42.5477 35.9276 42.709L35.5866 43.336C35.11 43.006 34.5416 42.841 33.8816 42.841C33.383 42.841 33.0053 42.929 32.7486 43.105C32.4993 43.281 32.3746 43.512 32.3746 43.798C32.3746 44.018 32.4443 44.194 32.5836 44.326C32.7303 44.458 32.91 44.557 33.1226 44.623C33.3353 44.6817 33.6286 44.744 34.0026 44.81C34.4646 44.898 34.835 44.986 35.1136 45.074C35.3923 45.162 35.6306 45.3123 35.8286 45.525C36.0266 45.7377 36.1256 46.031 36.1256 46.405C36.1256 46.911 35.913 47.3143 35.4876 47.615C35.0696 47.9083 34.4866 48.055 33.7386 48.055ZM40.4185 47.648C40.2718 47.78 40.0921 47.8827 39.8795 47.956C39.6668 48.022 39.4431 48.055 39.2085 48.055C38.6658 48.055 38.2478 47.9083 37.9545 47.615C37.6611 47.3217 37.5145 46.9073 37.5145 46.372V40.949H38.2955V42.214H40.0445V42.874H38.2955V46.328C38.2955 46.6727 38.3798 46.9367 38.5485 47.12C38.7171 47.296 38.9628 47.384 39.2855 47.384C39.6375 47.384 39.9235 47.285 40.1435 47.087L40.4185 47.648ZM42.5821 43.347C42.7655 42.9583 43.0368 42.665 43.3961 42.467C43.7628 42.269 44.2138 42.17 44.7491 42.17V42.929L44.5621 42.918C43.9535 42.918 43.4768 43.105 43.1321 43.479C42.7875 43.853 42.6151 44.3773 42.6151 45.052V48H41.8341V42.214H42.5821V43.347ZM51.3895 42.214V48H50.6415V46.856C50.4068 47.2447 50.0952 47.5417 49.7065 47.747C49.3252 47.9523 48.8925 48.055 48.4085 48.055C47.8658 48.055 47.3745 47.9303 46.9345 47.681C46.4945 47.4317 46.1498 47.0833 45.9005 46.636C45.6512 46.1887 45.5265 45.679 45.5265 45.107C45.5265 44.535 45.6512 44.0253 45.9005 43.578C46.1498 43.1307 46.4945 42.786 46.9345 42.544C47.3745 42.2947 47.8658 42.17 48.4085 42.17C48.8778 42.17 49.2995 42.269 49.6735 42.467C50.0548 42.6577 50.3665 42.94 50.6085 43.314V42.214H51.3895ZM48.4745 47.362C48.8778 47.362 49.2408 47.2703 49.5635 47.087C49.8935 46.8963 50.1502 46.6287 50.3335 46.284C50.5242 45.9393 50.6195 45.547 50.6195 45.107C50.6195 44.667 50.5242 44.2747 50.3335 43.93C50.1502 43.5853 49.8935 43.3213 49.5635 43.138C49.2408 42.9473 48.8778 42.852 48.4745 42.852C48.0638 42.852 47.6935 42.9473 47.3635 43.138C47.0408 43.3213 46.7842 43.5853 46.5935 43.93C46.4102 44.2747 46.3185 44.667 46.3185 45.107C46.3185 45.547 46.4102 45.9393 46.5935 46.284C46.7842 46.6287 47.0408 46.8963 47.3635 47.087C47.6935 47.2703 48.0638 47.362 48.4745 47.362ZM62.4856 42.214V45.415C62.4856 46.273 62.2803 46.9293 61.8696 47.384C61.4589 47.8313 60.8539 48.055 60.0546 48.055C59.5486 48.055 59.1233 47.9597 58.7786 47.769C58.4413 47.571 58.1809 47.2593 57.9976 46.834C57.8143 47.252 57.5539 47.56 57.2166 47.758C56.8793 47.956 56.4539 48.055 55.9406 48.055C55.1413 48.055 54.5363 47.8313 54.1256 47.384C53.7149 46.9293 53.5096 46.273 53.5096 45.415V42.214H54.2906V45.349C54.2906 46.031 54.4226 46.537 54.6866 46.867C54.9506 47.1897 55.3686 47.351 55.9406 47.351C56.5053 47.351 56.9233 47.186 57.1946 46.856C57.4733 46.526 57.6126 46.0163 57.6126 45.327V42.214H58.3936V45.327C58.3936 46.0163 58.5293 46.526 58.8006 46.856C59.0719 47.186 59.4936 47.351 60.0656 47.351C60.6229 47.351 61.0336 47.1897 61.2976 46.867C61.5689 46.537 61.7046 46.031 61.7046 45.349V42.214H62.4856ZM67.5886 42.17C68.1312 42.17 68.6226 42.2947 69.0626 42.544C69.5026 42.786 69.8472 43.1307 70.0966 43.578C70.3459 44.0253 70.4706 44.535 70.4706 45.107C70.4706 45.679 70.3459 46.1887 70.0966 46.636C69.8472 47.0833 69.5026 47.4317 69.0626 47.681C68.6226 47.9303 68.1312 48.055 67.5886 48.055C67.1046 48.055 66.6682 47.9523 66.2796 47.747C65.8982 47.5417 65.5902 47.2447 65.3556 46.856V48H64.6076V39.838H65.3886V43.314C65.6306 42.94 65.9386 42.6577 66.3126 42.467C66.6939 42.269 67.1192 42.17 67.5886 42.17ZM67.5336 47.362C67.9369 47.362 68.3036 47.2703 68.6336 47.087C68.9636 46.8963 69.2202 46.6287 69.4036 46.284C69.5942 45.9393 69.6896 45.547 69.6896 45.107C69.6896 44.667 69.5942 44.2747 69.4036 43.93C69.2202 43.5853 68.9636 43.3213 68.6336 43.138C68.3036 42.9473 67.9369 42.852 67.5336 42.852C67.1229 42.852 66.7526 42.9473 66.4226 43.138C66.0999 43.3213 65.8432 43.5853 65.6526 43.93C65.4692 44.2747 65.3776 44.667 65.3776 45.107C65.3776 45.547 65.4692 45.9393 65.6526 46.284C65.8432 46.6287 66.0999 46.8963 66.4226 47.087C66.7526 47.2703 67.1229 47.362 67.5336 47.362ZM74.5376 47.362C74.897 47.362 75.227 47.2997 75.5276 47.175C75.8356 47.043 76.096 46.8523 76.3086 46.603L76.7486 47.109C76.492 47.417 76.173 47.6517 75.7916 47.813C75.4103 47.9743 74.9886 48.055 74.5266 48.055C73.9326 48.055 73.4046 47.9303 72.9426 47.681C72.4806 47.4243 72.1213 47.0723 71.8646 46.625C71.608 46.1777 71.4796 45.6717 71.4796 45.107C71.4796 44.5423 71.6006 44.0363 71.8426 43.589C72.092 43.1417 72.433 42.7933 72.8656 42.544C73.2983 42.2947 73.7896 42.17 74.3396 42.17C74.853 42.17 75.315 42.2873 75.7256 42.522C76.1436 42.7567 76.4736 43.083 76.7156 43.501C76.965 43.919 77.097 44.3957 77.1116 44.931L72.3596 45.855C72.5063 46.3243 72.7703 46.6947 73.1516 46.966C73.5403 47.23 74.0023 47.362 74.5376 47.362ZM74.3396 42.841C73.9363 42.841 73.5733 42.9363 73.2506 43.127C72.9353 43.3103 72.686 43.5707 72.5026 43.908C72.3266 44.238 72.2386 44.6193 72.2386 45.052C72.2386 45.162 72.2423 45.2427 72.2496 45.294L76.3306 44.502C76.2426 44.018 76.019 43.622 75.6596 43.314C75.3003 42.9987 74.8603 42.841 74.3396 42.841ZM79.4493 43.347C79.6326 42.9583 79.904 42.665 80.2633 42.467C80.63 42.269 81.081 42.17 81.6163 42.17V42.929L81.4293 42.918C80.8206 42.918 80.344 43.105 79.9993 43.479C79.6546 43.853 79.4823 44.3773 79.4823 45.052V48H78.7013V42.214H79.4493V43.347ZM83.7784 43.347C83.9617 42.9583 84.2331 42.665 84.5924 42.467C84.9591 42.269 85.4101 42.17 85.9454 42.17V42.929L85.7584 42.918C85.1497 42.918 84.6731 43.105 84.3284 43.479C83.9837 43.853 83.8114 44.3773 83.8114 45.052V48H83.0304V42.214H83.7784V43.347ZM87.3595 42.214H88.1405V48H87.3595V42.214ZM87.7555 40.949C87.5942 40.949 87.4585 40.894 87.3485 40.784C87.2385 40.674 87.1835 40.542 87.1835 40.388C87.1835 40.2413 87.2385 40.113 87.3485 40.003C87.4585 39.893 87.5942 39.838 87.7555 39.838C87.9168 39.838 88.0525 39.893 88.1625 40.003C88.2725 40.1057 88.3275 40.2303 88.3275 40.377C88.3275 40.5383 88.2725 40.674 88.1625 40.784C88.0525 40.894 87.9168 40.949 87.7555 40.949ZM92.7886 47.362C93.1479 47.362 93.4779 47.2997 93.7786 47.175C94.0866 47.043 94.3469 46.8523 94.5596 46.603L94.9996 47.109C94.7429 47.417 94.4239 47.6517 94.0426 47.813C93.6613 47.9743 93.2396 48.055 92.7776 48.055C92.1836 48.055 91.6556 47.9303 91.1936 47.681C90.7316 47.4243 90.3723 47.0723 90.1156 46.625C89.8589 46.1777 89.7306 45.6717 89.7306 45.107C89.7306 44.5423 89.8516 44.0363 90.0936 43.589C90.3429 43.1417 90.6839 42.7933 91.1166 42.544C91.5493 42.2947 92.0406 42.17 92.5906 42.17C93.1039 42.17 93.5659 42.2873 93.9766 42.522C94.3946 42.7567 94.7246 43.083 94.9666 43.501C95.2159 43.919 95.3479 44.3957 95.3626 44.931L90.6106 45.855C90.7573 46.3243 91.0213 46.6947 91.4026 46.966C91.7913 47.23 92.2533 47.362 92.7886 47.362ZM92.5906 42.841C92.1873 42.841 91.8243 42.9363 91.5016 43.127C91.1863 43.3103 90.9369 43.5707 90.7536 43.908C90.5776 44.238 90.4896 44.6193 90.4896 45.052C90.4896 45.162 90.4933 45.2427 90.5006 45.294L94.5816 44.502C94.4936 44.018 94.2699 43.622 93.9106 43.314C93.5513 42.9987 93.1113 42.841 92.5906 42.841ZM98.5033 48.055C98.0339 48.055 97.5829 47.989 97.1503 47.857C96.7249 47.7177 96.3913 47.5453 96.1493 47.34L96.5013 46.724C96.7433 46.9147 97.0476 47.0723 97.4143 47.197C97.7809 47.3143 98.1623 47.373 98.5583 47.373C99.0863 47.373 99.4749 47.2923 99.7243 47.131C99.9809 46.9623 100.109 46.7277 100.109 46.427C100.109 46.2143 100.04 46.0493 99.9003 45.932C99.7609 45.8073 99.5849 45.7157 99.3723 45.657C99.1596 45.591 98.8773 45.5287 98.5253 45.47C98.0559 45.382 97.6783 45.294 97.3923 45.206C97.1063 45.1107 96.8606 44.953 96.6553 44.733C96.4573 44.513 96.3583 44.2087 96.3583 43.82C96.3583 43.336 96.5599 42.94 96.9633 42.632C97.3666 42.324 97.9276 42.17 98.6463 42.17C99.0203 42.17 99.3943 42.2213 99.7683 42.324C100.142 42.4193 100.45 42.5477 100.692 42.709L100.351 43.336C99.8746 43.006 99.3063 42.841 98.6463 42.841C98.1476 42.841 97.7699 42.929 97.5133 43.105C97.2639 43.281 97.1393 43.512 97.1393 43.798C97.1393 44.018 97.2089 44.194 97.3483 44.326C97.4949 44.458 97.6746 44.557 97.8873 44.623C98.0999 44.6817 98.3933 44.744 98.7673 44.81C99.2293 44.898 99.5996 44.986 99.8783 45.074C100.157 45.162 100.395 45.3123 100.593 45.525C100.791 45.7377 100.89 46.031 100.89 46.405C100.89 46.911 100.678 47.3143 100.252 47.615C99.8343 47.9083 99.2513 48.055 98.5033 48.055ZM102.411 48.055C102.25 48.055 102.11 47.9963 101.993 47.879C101.883 47.7617 101.828 47.6187 101.828 47.45C101.828 47.2813 101.883 47.142 101.993 47.032C102.11 46.9147 102.25 46.856 102.411 46.856C102.572 46.856 102.712 46.9147 102.829 47.032C102.946 47.142 103.005 47.2813 103.005 47.45C103.005 47.6187 102.946 47.7617 102.829 47.879C102.712 47.9963 102.572 48.055 102.411 48.055Z" fill="black"/>
</svg>
