<svg width="147" height="16" viewBox="0 0 147 16" fill="none" xmlns="http://www.w3.org/2000/svg">
<path d="M3.84352 12.2421C4.17088 12.5122 4.51229 12.7591 4.8618 13C5.21206 12.7623 5.55181 12.5094 5.88008 12.2421C6.4273 11.7928 6.9423 11.3056 7.42127 10.7841C8.52543 9.57675 9.7236 7.82651 9.7236 5.8618C9.7236 5.22334 9.59784 4.59113 9.35352 4.00127C9.10919 3.41141 8.75107 2.87545 8.29961 2.42399C7.84815 1.97253 7.31219 1.61441 6.72233 1.37008C6.13247 1.12575 5.50026 1 4.8618 1C4.22334 1 3.59113 1.12575 3.00127 1.37008C2.41141 1.61441 1.87545 1.97253 1.42399 2.42399C0.972528 2.87545 0.614411 3.41141 0.370082 4.00127C0.125754 4.59113 -9.5138e-09 5.22334 0 5.8618C0 7.82651 1.19816 9.57621 2.30233 10.7841C2.78128 11.3058 3.29628 11.7926 3.84352 12.2421ZM4.8618 7.61745C4.39617 7.61745 3.94962 7.43248 3.62037 7.10323C3.29112 6.77398 3.10615 6.32743 3.10615 5.8618C3.10615 5.39617 3.29112 4.94962 3.62037 4.62037C3.94962 4.29112 4.39617 4.10615 4.8618 4.10615C5.32743 4.10615 5.77398 4.29112 6.10323 4.62037C6.43248 4.94962 6.61745 5.39617 6.61745 5.8618C6.61745 6.32743 6.43248 6.77398 6.10323 7.10323C5.77398 7.43248 5.32743 7.61745 4.8618 7.61745Z" fill="#999999"/>
<path d="M22.3916 3.17969V8.47559C22.3916 9.05924 22.2645 9.54622 22.0103 9.93652C21.7596 10.3268 21.423 10.6204 21.0005 10.8174C20.5815 11.0107 20.1178 11.1074 19.6094 11.1074C19.0866 11.1074 18.6157 11.0107 18.1968 10.8174C17.7814 10.6204 17.4502 10.3268 17.2031 9.93652C16.9596 9.54622 16.8379 9.05924 16.8379 8.47559V3.17969H17.6006V8.47559C17.6006 8.91602 17.6865 9.28483 17.8584 9.58203C18.0303 9.87565 18.2666 10.0977 18.5674 10.248C18.8717 10.3949 19.2191 10.4683 19.6094 10.4683C20.0033 10.4683 20.3506 10.3949 20.6514 10.248C20.9557 10.0977 21.1921 9.87565 21.3604 9.58203C21.5322 9.28483 21.6182 8.91602 21.6182 8.47559V3.17969H22.3916ZM26.5381 11.1074C26.1836 11.1074 25.8685 11.0519 25.5928 10.9409C25.3171 10.8299 25.0825 10.6706 24.8892 10.4629C24.6958 10.2552 24.54 10.0117 24.4219 9.73242C24.3037 9.44954 24.2231 9.13623 24.1802 8.79248V7.53027C24.2482 7.03613 24.3771 6.60645 24.5669 6.24121C24.7603 5.87598 25.0181 5.59131 25.3403 5.38721C25.6662 5.18311 26.0618 5.08105 26.5273 5.08105C27.0036 5.08105 27.4082 5.2028 27.7412 5.44629C28.0742 5.68978 28.3267 6.03353 28.4985 6.47754C28.674 6.92155 28.7617 7.44255 28.7617 8.04053V8.15332C28.7617 8.72982 28.674 9.24007 28.4985 9.68408C28.3267 10.1281 28.0742 10.4772 27.7412 10.7314C27.4118 10.9821 27.0107 11.1074 26.5381 11.1074ZM24.019 13.2344V5.18848H24.7012L24.7603 6.30566V13.2344H24.019ZM26.3447 10.4897C26.7279 10.4897 27.043 10.3859 27.29 10.1782C27.5371 9.96696 27.7197 9.68587 27.8379 9.33496C27.9596 8.98047 28.0205 8.58659 28.0205 8.15332V8.04053C28.0205 7.60726 27.9596 7.21517 27.8379 6.86426C27.7197 6.50977 27.5353 6.23047 27.2847 6.02637C27.0376 5.81868 26.7207 5.71484 26.334 5.71484C26.0439 5.71484 25.7951 5.76497 25.5874 5.86523C25.3833 5.96191 25.2114 6.09082 25.0718 6.25195C24.9321 6.41309 24.8211 6.59033 24.7388 6.78369C24.66 6.97705 24.6009 7.16862 24.5615 7.3584V8.99121C24.6296 9.25977 24.7352 9.50863 24.8784 9.73779C25.0216 9.96338 25.2132 10.146 25.4531 10.2856C25.693 10.4217 25.9902 10.4897 26.3447 10.4897ZM32.6611 11.1074C32.3066 11.1074 31.9915 11.0519 31.7158 10.9409C31.4401 10.8299 31.2056 10.6706 31.0122 10.4629C30.8188 10.2552 30.6631 10.0117 30.5449 9.73242C30.4268 9.44954 30.3462 9.13623 30.3032 8.79248V7.53027C30.3713 7.03613 30.5002 6.60645 30.6899 6.24121C30.8833 5.87598 31.1411 5.59131 31.4634 5.38721C31.7892 5.18311 32.1849 5.08105 32.6504 5.08105C33.1266 5.08105 33.5312 5.2028 33.8643 5.44629C34.1973 5.68978 34.4497 6.03353 34.6216 6.47754C34.797 6.92155 34.8848 7.44255 34.8848 8.04053V8.15332C34.8848 8.72982 34.797 9.24007 34.6216 9.68408C34.4497 10.1281 34.1973 10.4772 33.8643 10.7314C33.5348 10.9821 33.1338 11.1074 32.6611 11.1074ZM30.1421 13.2344V5.18848H30.8242L30.8833 6.30566V13.2344H30.1421ZM32.4678 10.4897C32.8509 10.4897 33.166 10.3859 33.4131 10.1782C33.6602 9.96696 33.8428 9.68587 33.9609 9.33496C34.0827 8.98047 34.1436 8.58659 34.1436 8.15332V8.04053C34.1436 7.60726 34.0827 7.21517 33.9609 6.86426C33.8428 6.50977 33.6584 6.23047 33.4077 6.02637C33.1606 5.81868 32.8438 5.71484 32.457 5.71484C32.167 5.71484 31.9181 5.76497 31.7104 5.86523C31.5063 5.96191 31.3345 6.09082 31.1948 6.25195C31.0552 6.41309 30.9442 6.59033 30.8618 6.78369C30.783 6.97705 30.724 7.16862 30.6846 7.3584V8.99121C30.7526 9.25977 30.8582 9.50863 31.0015 9.73779C31.1447 9.96338 31.3363 10.146 31.5762 10.2856C31.8161 10.4217 32.1133 10.4897 32.4678 10.4897ZM38.564 11.1074C38.0519 11.1074 37.5972 10.9857 37.1997 10.7422C36.8058 10.4987 36.4979 10.1639 36.2759 9.73779C36.0539 9.30811 35.9429 8.81934 35.9429 8.27148V8.03516C35.9429 7.43001 36.0592 6.90723 36.292 6.4668C36.5247 6.02279 36.8309 5.68083 37.2104 5.44092C37.5936 5.20101 38.0054 5.08105 38.4458 5.08105C38.9578 5.08105 39.3857 5.19922 39.7295 5.43555C40.0768 5.66829 40.3364 5.98877 40.5083 6.39697C40.6838 6.8016 40.7715 7.2653 40.7715 7.78809V8.19629H36.3887V7.57861H40.0303V7.50879C40.0195 7.20085 39.9569 6.90902 39.8423 6.6333C39.7277 6.35758 39.5558 6.13379 39.3267 5.96191C39.0975 5.78646 38.8039 5.69873 38.4458 5.69873C38.0985 5.69873 37.7923 5.79541 37.5273 5.98877C37.2624 6.18213 37.0547 6.45426 36.9043 6.80518C36.7575 7.15609 36.6841 7.56608 36.6841 8.03516V8.27148C36.6841 8.67969 36.7629 9.05208 36.9204 9.38867C37.0815 9.72526 37.3053 9.99382 37.5918 10.1943C37.8818 10.3949 38.2184 10.4951 38.6016 10.4951C38.9453 10.4951 39.2461 10.4289 39.5039 10.2964C39.7653 10.1639 39.998 9.96517 40.2021 9.7002L40.6587 10.0493C40.4725 10.3322 40.2111 10.5793 39.8745 10.7905C39.5379 11.0018 39.1011 11.1074 38.564 11.1074ZM42.748 11H42.0068V5.18848H42.7319L42.748 6.13916V11ZM44.73 5.82764C44.6512 5.81331 44.5778 5.80436 44.5098 5.80078C44.4417 5.79362 44.3647 5.79004 44.2788 5.79004C43.9279 5.79004 43.6325 5.8724 43.3926 6.03711C43.1562 6.19824 42.9736 6.41846 42.8447 6.69775C42.7194 6.97705 42.6478 7.29036 42.6299 7.6377L42.3774 7.74512C42.3774 7.2474 42.4455 6.79801 42.5815 6.39697C42.7212 5.99593 42.9325 5.67725 43.2153 5.44092C43.5018 5.20101 43.867 5.08105 44.311 5.08105C44.3862 5.08105 44.4668 5.08822 44.5527 5.10254C44.6387 5.11686 44.7013 5.13298 44.7407 5.15088L44.73 5.82764ZM52.2334 3.17969H52.8296L52.3945 4.99512L50.6274 11H50.042L50.5737 8.85693L52.2334 3.17969ZM50.085 8.79248L50.4932 11H49.9023L47.9312 3.17969H48.71L50.085 8.79248ZM56.3853 3.17969H57.1641L55.1982 11H54.6074L55.0317 8.78711L56.3853 3.17969ZM54.5322 8.85693L55.0532 11H54.4731L52.7437 4.99512L52.314 3.17969H52.9048L54.5322 8.85693ZM60.5532 11.1074C60.0412 11.1074 59.5864 10.9857 59.189 10.7422C58.7951 10.4987 58.4871 10.1639 58.2651 9.73779C58.0431 9.30811 57.9321 8.81934 57.9321 8.27148V8.03516C57.9321 7.43001 58.0485 6.90723 58.2812 6.4668C58.514 6.02279 58.8201 5.68083 59.1997 5.44092C59.5828 5.20101 59.9946 5.08105 60.4351 5.08105C60.9471 5.08105 61.375 5.19922 61.7188 5.43555C62.0661 5.66829 62.3257 5.98877 62.4976 6.39697C62.673 6.8016 62.7607 7.2653 62.7607 7.78809V8.19629H58.3779V7.57861H62.0195V7.50879C62.0088 7.20085 61.9461 6.90902 61.8315 6.6333C61.717 6.35758 61.5451 6.13379 61.3159 5.96191C61.0868 5.78646 60.7931 5.69873 60.4351 5.69873C60.0877 5.69873 59.7816 5.79541 59.5166 5.98877C59.2516 6.18213 59.0439 6.45426 58.8936 6.80518C58.7467 7.15609 58.6733 7.56608 58.6733 8.03516V8.27148C58.6733 8.67969 58.7521 9.05208 58.9097 9.38867C59.0708 9.72526 59.2946 9.99382 59.5811 10.1943C59.8711 10.3949 60.2077 10.4951 60.5908 10.4951C60.9346 10.4951 61.2354 10.4289 61.4932 10.2964C61.7546 10.1639 61.9873 9.96517 62.1914 9.7002L62.6479 10.0493C62.4618 10.3322 62.2004 10.5793 61.8638 10.7905C61.5272 11.0018 61.0903 11.1074 60.5532 11.1074ZM66.021 11.1074C65.5233 11.1074 65.1025 11.0233 64.7588 10.855C64.415 10.6867 64.1554 10.4665 63.98 10.1943C63.8045 9.9222 63.7168 9.63216 63.7168 9.32422H64.458C64.4795 9.61784 64.5708 9.85059 64.7319 10.0225C64.8931 10.1908 65.09 10.3107 65.3228 10.3823C65.5555 10.4539 65.7882 10.4897 66.021 10.4897C66.3325 10.4897 66.5939 10.445 66.8052 10.3555C67.02 10.2624 67.1812 10.1406 67.2886 9.99023C67.396 9.83984 67.4497 9.67692 67.4497 9.50146C67.4497 9.34749 67.4121 9.19889 67.3369 9.05566C67.2617 8.90885 67.1167 8.77458 66.9019 8.65283C66.6906 8.53109 66.3755 8.42546 65.9565 8.33594C65.5269 8.24642 65.158 8.13542 64.8501 8.00293C64.5457 7.86686 64.313 7.69499 64.1519 7.4873C63.9907 7.27604 63.9102 7.01107 63.9102 6.69238C63.9102 6.39876 63.9943 6.13021 64.1626 5.88672C64.3345 5.64323 64.5762 5.44808 64.8877 5.30127C65.1992 5.15446 65.5662 5.08105 65.9888 5.08105C66.4399 5.08105 66.8267 5.15804 67.1489 5.31201C67.4748 5.46598 67.7236 5.67546 67.8955 5.94043C68.0674 6.2054 68.1533 6.50439 68.1533 6.8374H67.4121C67.4121 6.55094 67.2886 6.28955 67.0415 6.05322C66.798 5.81689 66.4471 5.69873 65.9888 5.69873C65.6737 5.69873 65.4176 5.74707 65.2207 5.84375C65.0238 5.94043 64.8787 6.06396 64.7856 6.21436C64.6961 6.36117 64.6514 6.51335 64.6514 6.6709C64.6514 6.83203 64.689 6.97705 64.7642 7.10596C64.8429 7.23128 64.988 7.34408 65.1992 7.44434C65.4141 7.5446 65.7292 7.64128 66.1445 7.73438C66.6172 7.8418 67.0039 7.9707 67.3047 8.12109C67.6055 8.2679 67.8293 8.45052 67.9761 8.66895C68.1229 8.88379 68.1963 9.14697 68.1963 9.4585C68.1963 9.78076 68.1068 10.0672 67.9277 10.3179C67.7487 10.5649 67.4963 10.7583 67.1704 10.8979C66.8446 11.0376 66.4614 11.1074 66.021 11.1074ZM71.8701 5.77393H68.8945V5.18848H71.8701V5.77393ZM70.6992 3.7168V9.57666C70.6992 9.83089 70.7332 10.0225 70.8013 10.1514C70.8693 10.2767 70.9588 10.3608 71.0698 10.4038C71.1808 10.4432 71.299 10.4629 71.4243 10.4629C71.5174 10.4629 71.6087 10.4575 71.6982 10.4468C71.7878 10.4325 71.8647 10.4199 71.9292 10.4092L71.9453 11.0161C71.8665 11.0412 71.7645 11.0627 71.6392 11.0806C71.5138 11.0985 71.3813 11.1074 71.2417 11.1074C70.9982 11.1074 70.778 11.0609 70.5811 10.9678C70.3877 10.8747 70.2355 10.7171 70.1245 10.4951C70.0135 10.2695 69.958 9.96338 69.958 9.57666V3.7168H70.6992ZM78.4336 11.1074C78.0827 11.1074 77.7336 11.0609 77.3862 10.9678C77.0389 10.8747 76.7238 10.7332 76.4409 10.5435C76.158 10.3501 75.9307 10.1066 75.7588 9.81299C75.5869 9.51579 75.501 9.16309 75.501 8.75488H76.269C76.269 9.06641 76.3317 9.33138 76.457 9.5498C76.5824 9.76823 76.7489 9.94548 76.9565 10.0815C77.1642 10.2176 77.3952 10.3161 77.6494 10.377C77.9072 10.4378 78.1686 10.4683 78.4336 10.4683C78.8311 10.4683 79.173 10.411 79.4595 10.2964C79.7459 10.1782 79.9679 10.0135 80.1255 9.80225C80.283 9.59098 80.3618 9.34391 80.3618 9.06104C80.3618 8.78532 80.2992 8.54899 80.1738 8.35205C80.0521 8.15511 79.8408 7.97965 79.54 7.82568C79.2428 7.67171 78.8293 7.51953 78.2993 7.36914C77.909 7.26172 77.5563 7.13997 77.2412 7.00391C76.9297 6.86784 76.6629 6.71387 76.4409 6.54199C76.2189 6.36654 76.0488 6.16243 75.9307 5.92969C75.8125 5.69694 75.7534 5.4266 75.7534 5.11865C75.7534 4.71403 75.8644 4.35954 76.0864 4.05518C76.3084 3.74723 76.6164 3.50732 77.0103 3.33545C77.4077 3.15999 77.866 3.07227 78.3853 3.07227C78.9438 3.07227 79.4255 3.17969 79.8301 3.39453C80.2347 3.60579 80.5462 3.88867 80.7646 4.24316C80.9831 4.59766 81.0923 4.98796 81.0923 5.41406H80.3242C80.3242 5.08822 80.249 4.79639 80.0986 4.53857C79.9482 4.28076 79.7298 4.07845 79.4434 3.93164C79.1569 3.78483 78.8042 3.71143 78.3853 3.71143C77.9735 3.71143 77.6279 3.77409 77.3486 3.89941C77.0729 4.02474 76.8652 4.19303 76.7256 4.4043C76.5895 4.61556 76.5215 4.8501 76.5215 5.10791C76.5215 5.34782 76.5859 5.56266 76.7148 5.75244C76.8438 5.94222 77.055 6.1141 77.3486 6.26807C77.6458 6.42204 78.0451 6.56706 78.5464 6.70312C79.1086 6.8571 79.5812 7.03792 79.9644 7.24561C80.3511 7.44971 80.6429 7.69678 80.8398 7.98682C81.0368 8.27686 81.1353 8.63135 81.1353 9.05029C81.1353 9.47282 81.0189 9.83984 80.7861 10.1514C80.557 10.4593 80.2383 10.6956 79.8301 10.8604C79.4255 11.0251 78.96 11.1074 78.4336 11.1074ZM82.8325 3.10449C82.9829 3.10449 83.1011 3.15104 83.187 3.24414C83.2765 3.33366 83.3213 3.44466 83.3213 3.57715C83.3213 3.70247 83.2765 3.81169 83.187 3.90479C83.1011 3.9943 82.9829 4.03906 82.8325 4.03906C82.6785 4.03906 82.5586 3.9943 82.4727 3.90479C82.3903 3.81169 82.3491 3.70247 82.3491 3.57715C82.3491 3.44824 82.3903 3.33724 82.4727 3.24414C82.5586 3.15104 82.6785 3.10449 82.8325 3.10449ZM83.2031 11H82.4673V5.18848H83.2031V11ZM86.9307 11.1074C86.4723 11.1074 86.0749 10.9821 85.7383 10.7314C85.4017 10.4772 85.1403 10.1281 84.9541 9.68408C84.7715 9.24007 84.6802 8.72982 84.6802 8.15332V8.04053C84.6802 7.44255 84.7715 6.92155 84.9541 6.47754C85.1403 6.03353 85.4017 5.68978 85.7383 5.44629C86.0785 5.2028 86.4795 5.08105 86.9414 5.08105C87.4033 5.08105 87.7918 5.18311 88.1069 5.38721C88.4256 5.59131 88.6781 5.87598 88.8643 6.24121C89.054 6.60645 89.1812 7.03613 89.2456 7.53027V8.7334C89.1883 9.19889 89.0666 9.61068 88.8804 9.96875C88.6978 10.3232 88.4453 10.6025 88.123 10.8066C87.8008 11.0072 87.4033 11.1074 86.9307 11.1074ZM87.0811 10.4683C87.4391 10.4683 87.7381 10.3984 87.978 10.2588C88.2179 10.1191 88.4095 9.93294 88.5527 9.7002C88.6995 9.46387 88.807 9.20785 88.875 8.93213V7.3584C88.8356 7.16862 88.7747 6.97705 88.6924 6.78369C88.61 6.59033 88.499 6.41309 88.3594 6.25195C88.2233 6.09082 88.0514 5.96191 87.8438 5.86523C87.6361 5.76497 87.3854 5.71484 87.0918 5.71484C86.7087 5.71484 86.3936 5.81868 86.1465 6.02637C85.8994 6.23047 85.7168 6.50977 85.5986 6.86426C85.484 7.21517 85.4268 7.60726 85.4268 8.04053V8.15332C85.4268 8.58659 85.484 8.97868 85.5986 9.32959C85.7168 9.67692 85.8976 9.95443 86.1411 10.1621C86.3882 10.3662 86.7015 10.4683 87.0811 10.4683ZM88.7354 11L88.6763 9.87207V2.75H89.4229V11H88.7354ZM93.3706 11.1074C92.8586 11.1074 92.4038 10.9857 92.0063 10.7422C91.6125 10.4987 91.3045 10.1639 91.0825 9.73779C90.8605 9.30811 90.7495 8.81934 90.7495 8.27148V8.03516C90.7495 7.43001 90.8659 6.90723 91.0986 6.4668C91.3314 6.02279 91.6375 5.68083 92.0171 5.44092C92.4002 5.20101 92.812 5.08105 93.2524 5.08105C93.7645 5.08105 94.1924 5.19922 94.5361 5.43555C94.8835 5.66829 95.1431 5.98877 95.3149 6.39697C95.4904 6.8016 95.5781 7.2653 95.5781 7.78809V8.19629H91.1953V7.57861H94.8369V7.50879C94.8262 7.20085 94.7635 6.90902 94.6489 6.6333C94.5343 6.35758 94.3625 6.13379 94.1333 5.96191C93.9041 5.78646 93.6105 5.69873 93.2524 5.69873C92.9051 5.69873 92.599 5.79541 92.334 5.98877C92.069 6.18213 91.8613 6.45426 91.7109 6.80518C91.5641 7.15609 91.4907 7.56608 91.4907 8.03516V8.27148C91.4907 8.67969 91.5695 9.05208 91.7271 9.38867C91.8882 9.72526 92.112 9.99382 92.3984 10.1943C92.6885 10.3949 93.0251 10.4951 93.4082 10.4951C93.752 10.4951 94.0527 10.4289 94.3105 10.2964C94.5719 10.1639 94.8047 9.96517 95.0088 9.7002L95.4653 10.0493C95.2791 10.3322 95.0177 10.5793 94.6812 10.7905C94.3446 11.0018 93.9077 11.1074 93.3706 11.1074ZM97.5171 10.7046C97.5171 11.0304 97.4455 11.3545 97.3022 11.6768C97.159 11.999 96.9603 12.2694 96.7061 12.4878L96.271 12.1816C96.3856 12.0312 96.4805 11.8791 96.5557 11.7251C96.6309 11.5747 96.6882 11.4172 96.7275 11.2524C96.7669 11.0877 96.7866 10.9105 96.7866 10.7207V9.94189H97.5171V10.7046ZM107.663 11H106.895L102.555 4.48486V11H101.787V3.17969H102.555L106.906 9.7002V3.17969H107.663V11ZM111.761 11.1074C111.249 11.1074 110.794 10.9857 110.397 10.7422C110.003 10.4987 109.695 10.1639 109.473 9.73779C109.251 9.30811 109.14 8.81934 109.14 8.27148V8.03516C109.14 7.43001 109.257 6.90723 109.489 6.4668C109.722 6.02279 110.028 5.68083 110.408 5.44092C110.791 5.20101 111.203 5.08105 111.643 5.08105C112.155 5.08105 112.583 5.19922 112.927 5.43555C113.274 5.66829 113.534 5.98877 113.706 6.39697C113.881 6.8016 113.969 7.2653 113.969 7.78809V8.19629H109.586V7.57861H113.228V7.50879C113.217 7.20085 113.154 6.90902 113.04 6.6333C112.925 6.35758 112.753 6.13379 112.524 5.96191C112.295 5.78646 112.001 5.69873 111.643 5.69873C111.296 5.69873 110.99 5.79541 110.725 5.98877C110.46 6.18213 110.252 6.45426 110.102 6.80518C109.955 7.15609 109.881 7.56608 109.881 8.03516V8.27148C109.881 8.67969 109.96 9.05208 110.118 9.38867C110.279 9.72526 110.503 9.99382 110.789 10.1943C111.079 10.3949 111.416 10.4951 111.799 10.4951C112.143 10.4951 112.443 10.4289 112.701 10.2964C112.963 10.1639 113.195 9.96517 113.399 9.7002L113.856 10.0493C113.67 10.3322 113.408 10.5793 113.072 10.7905C112.735 11.0018 112.298 11.1074 111.761 11.1074ZM118.201 5.18848H118.717L118.486 6.32178L117.003 11H116.499L116.778 9.72168L118.201 5.18848ZM116.692 9.75928L116.907 11H116.386L114.699 5.18848H115.451L116.692 9.75928ZM121.574 5.18848H122.326L120.64 11H120.119L120.371 9.73779L121.574 5.18848ZM120.226 9.67871L120.521 11H120.017L118.502 6.31641L118.287 5.18848H118.824L120.226 9.67871ZM128.664 7.35303L130.958 3.17969H131.833L129.051 8.06201V11H128.277V8.06201L125.495 3.17969H126.392L128.664 7.35303ZM132.107 8.01367C132.107 7.4515 132.214 6.9502 132.429 6.50977C132.644 6.06576 132.947 5.71663 133.337 5.4624C133.727 5.20817 134.186 5.08105 134.712 5.08105C135.245 5.08105 135.707 5.20817 136.098 5.4624C136.488 5.71663 136.789 6.06576 137 6.50977C137.215 6.9502 137.322 7.4515 137.322 8.01367V8.1748C137.322 8.73698 137.215 9.24007 137 9.68408C136.789 10.1245 136.488 10.4718 136.098 10.7261C135.711 10.9803 135.253 11.1074 134.723 11.1074C134.193 11.1074 133.731 10.9803 133.337 10.7261C132.947 10.4718 132.644 10.1245 132.429 9.68408C132.214 9.24007 132.107 8.73698 132.107 8.1748V8.01367ZM132.854 8.1748C132.854 8.58659 132.923 8.96973 133.063 9.32422C133.206 9.67513 133.416 9.95801 133.691 10.1729C133.971 10.3841 134.314 10.4897 134.723 10.4897C135.127 10.4897 135.467 10.3841 135.743 10.1729C136.019 9.95801 136.227 9.67513 136.366 9.32422C136.509 8.96973 136.581 8.58659 136.581 8.1748V8.01367C136.581 7.60547 136.509 7.22591 136.366 6.875C136.223 6.52409 136.014 6.24121 135.738 6.02637C135.462 5.80794 135.12 5.69873 134.712 5.69873C134.307 5.69873 133.967 5.80794 133.691 6.02637C133.416 6.24121 133.206 6.52409 133.063 6.875C132.923 7.22591 132.854 7.60547 132.854 8.01367V8.1748ZM139.374 11H138.633V5.18848H139.358L139.374 6.13916V11ZM141.356 5.82764C141.277 5.81331 141.204 5.80436 141.136 5.80078C141.068 5.79362 140.991 5.79004 140.905 5.79004C140.554 5.79004 140.258 5.8724 140.019 6.03711C139.782 6.19824 139.6 6.41846 139.471 6.69775C139.345 6.97705 139.274 7.29036 139.256 7.6377L139.003 7.74512C139.003 7.2474 139.071 6.79801 139.208 6.39697C139.347 5.99593 139.558 5.67725 139.841 5.44092C140.128 5.20101 140.493 5.08105 140.937 5.08105C141.012 5.08105 141.093 5.08822 141.179 5.10254C141.265 5.11686 141.327 5.13298 141.367 5.15088L141.356 5.82764ZM143.096 11H142.35V2.75H143.096V11ZM144.052 7.88477L142.817 9.09863L142.726 8.35742L143.682 7.29932L145.787 5.18848H146.711L144.052 7.88477ZM143.725 8.0459L144.127 7.40137L146.942 11H146.056L143.725 8.0459Z" fill="#999999"/>
</svg>
