<svg width="99" height="36" viewBox="0 0 99 36" fill="none" xmlns="http://www.w3.org/2000/svg">
<path d="M7.656 1.3L4.246 9H3.443L0.033 1.3H0.913L3.861 7.988L6.831 1.3H7.656ZM13.4481 3.214V9H12.7001V7.856C12.4654 8.24467 12.1538 8.54167 11.7651 8.747C11.3838 8.95233 10.9511 9.055 10.4671 9.055C9.92444 9.055 9.4331 8.93033 8.9931 8.681C8.5531 8.43167 8.20843 8.08333 7.9591 7.636C7.70977 7.18867 7.5851 6.679 7.5851 6.107C7.5851 5.535 7.70977 5.02533 7.9591 4.578C8.20843 4.13067 8.5531 3.786 8.9931 3.544C9.4331 3.29467 9.92444 3.17 10.4671 3.17C10.9364 3.17 11.3581 3.269 11.7321 3.467C12.1134 3.65767 12.4251 3.94 12.6671 4.314V3.214H13.4481ZM10.5331 8.362C10.9364 8.362 11.2994 8.27033 11.6221 8.087C11.9521 7.89633 12.2088 7.62867 12.3921 7.284C12.5828 6.93933 12.6781 6.547 12.6781 6.107C12.6781 5.667 12.5828 5.27467 12.3921 4.93C12.2088 4.58533 11.9521 4.32133 11.6221 4.138C11.2994 3.94733 10.9364 3.852 10.5331 3.852C10.1224 3.852 9.7521 3.94733 9.4221 4.138C9.09944 4.32133 8.84277 4.58533 8.6521 4.93C8.46877 5.27467 8.3771 5.667 8.3771 6.107C8.3771 6.547 8.46877 6.93933 8.6521 7.284C8.84277 7.62867 9.09944 7.89633 9.4221 8.087C9.7521 8.27033 10.1224 8.362 10.5331 8.362ZM18.5712 3.17C19.2972 3.17 19.8728 3.38267 20.2982 3.808C20.7308 4.226 20.9472 4.83833 20.9472 5.645V9H20.1662V5.722C20.1662 5.12067 20.0158 4.66233 19.7152 4.347C19.4145 4.03167 18.9855 3.874 18.4282 3.874C17.8048 3.874 17.3098 4.061 16.9432 4.435C16.5838 4.80167 16.4042 5.31133 16.4042 5.964V9H15.6232V3.214H16.3712V4.281C16.5838 3.929 16.8772 3.65767 17.2512 3.467C17.6325 3.269 18.0725 3.17 18.5712 3.17ZM23.0675 3.214H23.8485V9H23.0675V3.214ZM23.4635 1.949C23.3022 1.949 23.1665 1.894 23.0565 1.784C22.9465 1.674 22.8915 1.542 22.8915 1.388C22.8915 1.24133 22.9465 1.113 23.0565 1.003C23.1665 0.892999 23.3022 0.838 23.4635 0.838C23.6248 0.838 23.7605 0.892999 23.8705 1.003C23.9805 1.10567 24.0355 1.23033 24.0355 1.377C24.0355 1.53833 23.9805 1.674 23.8705 1.784C23.7605 1.894 23.6248 1.949 23.4635 1.949ZM27.6496 9.055C27.129 9.055 26.7256 8.90833 26.4396 8.615C26.161 8.32167 26.0216 7.91467 26.0216 7.394V0.838H26.8026V7.328C26.8026 7.67267 26.8833 7.93667 27.0446 8.12C27.206 8.296 27.448 8.384 27.7706 8.384C27.976 8.384 28.152 8.351 28.2986 8.285L28.3536 8.934C28.1263 9.01467 27.8916 9.055 27.6496 9.055ZM31.0441 9.055C30.5235 9.055 30.1201 8.90833 29.8341 8.615C29.5555 8.32167 29.4161 7.91467 29.4161 7.394V0.838H30.1971V7.328C30.1971 7.67267 30.2778 7.93667 30.4391 8.12C30.6005 8.296 30.8425 8.384 31.1651 8.384C31.3705 8.384 31.5465 8.351 31.6931 8.285L31.7481 8.934C31.5208 9.01467 31.2861 9.055 31.0441 9.055ZM37.9833 3.214V9H37.2353V7.856C37.0006 8.24467 36.6889 8.54167 36.3003 8.747C35.9189 8.95233 35.4863 9.055 35.0023 9.055C34.4596 9.055 33.9683 8.93033 33.5283 8.681C33.0883 8.43167 32.7436 8.08333 32.4943 7.636C32.2449 7.18867 32.1203 6.679 32.1203 6.107C32.1203 5.535 32.2449 5.02533 32.4943 4.578C32.7436 4.13067 33.0883 3.786 33.5283 3.544C33.9683 3.29467 34.4596 3.17 35.0023 3.17C35.4716 3.17 35.8933 3.269 36.2673 3.467C36.6486 3.65767 36.9603 3.94 37.2023 4.314V3.214H37.9833ZM35.0683 8.362C35.4716 8.362 35.8346 8.27033 36.1573 8.087C36.4873 7.89633 36.7439 7.62867 36.9273 7.284C37.1179 6.93933 37.2133 6.547 37.2133 6.107C37.2133 5.667 37.1179 5.27467 36.9273 4.93C36.7439 4.58533 36.4873 4.32133 36.1573 4.138C35.8346 3.94733 35.4716 3.852 35.0683 3.852C34.6576 3.852 34.2873 3.94733 33.9573 4.138C33.6346 4.32133 33.3779 4.58533 33.1873 4.93C33.0039 5.27467 32.9123 5.667 32.9123 6.107C32.9123 6.547 33.0039 6.93933 33.1873 7.284C33.3779 7.62867 33.6346 7.89633 33.9573 8.087C34.2873 8.27033 34.6576 8.362 35.0683 8.362ZM43.0372 3.214H43.8182V9H43.0372V3.214ZM43.4332 1.949C43.2719 1.949 43.1362 1.894 43.0262 1.784C42.9162 1.674 42.8612 1.542 42.8612 1.388C42.8612 1.24133 42.9162 1.113 43.0262 1.003C43.1362 0.892999 43.2719 0.838 43.4332 0.838C43.5946 0.838 43.7302 0.892999 43.8402 1.003C43.9502 1.10567 44.0052 1.23033 44.0052 1.377C44.0052 1.53833 43.9502 1.674 43.8402 1.784C43.7302 1.894 43.5946 1.949 43.4332 1.949ZM48.3893 9.055C47.8173 9.055 47.304 8.93033 46.8493 8.681C46.402 8.43167 46.05 8.08333 45.7933 7.636C45.5367 7.18133 45.4083 6.67167 45.4083 6.107C45.4083 5.54233 45.5367 5.03633 45.7933 4.589C46.05 4.14167 46.402 3.79333 46.8493 3.544C47.304 3.29467 47.8173 3.17 48.3893 3.17C48.888 3.17 49.3317 3.269 49.7203 3.467C50.1163 3.65767 50.428 3.94 50.6553 4.314L50.0723 4.71C49.8817 4.424 49.6397 4.21133 49.3463 4.072C49.053 3.92533 48.734 3.852 48.3893 3.852C47.9713 3.852 47.5937 3.94733 47.2563 4.138C46.9263 4.32133 46.666 4.58533 46.4753 4.93C46.292 5.27467 46.2003 5.667 46.2003 6.107C46.2003 6.55433 46.292 6.95033 46.4753 7.295C46.666 7.63233 46.9263 7.89633 47.2563 8.087C47.5937 8.27033 47.9713 8.362 48.3893 8.362C48.734 8.362 49.053 8.29233 49.3463 8.153C49.6397 8.01367 49.8817 7.801 50.0723 7.515L50.6553 7.911C50.428 8.285 50.1163 8.571 49.7203 8.769C49.3243 8.95967 48.8807 9.055 48.3893 9.055ZM54.5679 8.362C54.9272 8.362 55.2572 8.29967 55.5579 8.175C55.8659 8.043 56.1262 7.85233 56.3389 7.603L56.7789 8.109C56.5222 8.417 56.2032 8.65167 55.8219 8.813C55.4406 8.97433 55.0189 9.055 54.5569 9.055C53.9629 9.055 53.4349 8.93033 52.9729 8.681C52.5109 8.42433 52.1516 8.07233 51.8949 7.625C51.6382 7.17767 51.5099 6.67167 51.5099 6.107C51.5099 5.54233 51.6309 5.03633 51.8729 4.589C52.1222 4.14167 52.4632 3.79333 52.8959 3.544C53.3286 3.29467 53.8199 3.17 54.3699 3.17C54.8832 3.17 55.3452 3.28733 55.7559 3.522C56.1739 3.75667 56.5039 4.083 56.7459 4.501C56.9952 4.919 57.1272 5.39567 57.1419 5.931L52.3899 6.855C52.5366 7.32433 52.8006 7.69467 53.1819 7.966C53.5706 8.23 54.0326 8.362 54.5679 8.362ZM54.3699 3.841C53.9666 3.841 53.6036 3.93633 53.2809 4.127C52.9656 4.31033 52.7162 4.57067 52.5329 4.908C52.3569 5.238 52.2689 5.61933 52.2689 6.052C52.2689 6.162 52.2726 6.24267 52.2799 6.294L56.3609 5.502C56.2729 5.018 56.0492 4.622 55.6899 4.314C55.3306 3.99867 54.8906 3.841 54.3699 3.841ZM64.0085 9.055C63.4365 9.055 62.9232 8.93033 62.4685 8.681C62.0212 8.43167 61.6692 8.08333 61.4125 7.636C61.1558 7.18133 61.0275 6.67167 61.0275 6.107C61.0275 5.54233 61.1558 5.03633 61.4125 4.589C61.6692 4.14167 62.0212 3.79333 62.4685 3.544C62.9232 3.29467 63.4365 3.17 64.0085 3.17C64.5072 3.17 64.9508 3.269 65.3395 3.467C65.7355 3.65767 66.0472 3.94 66.2745 4.314L65.6915 4.71C65.5008 4.424 65.2588 4.21133 64.9655 4.072C64.6722 3.92533 64.3532 3.852 64.0085 3.852C63.5905 3.852 63.2128 3.94733 62.8755 4.138C62.5455 4.32133 62.2852 4.58533 62.0945 4.93C61.9112 5.27467 61.8195 5.667 61.8195 6.107C61.8195 6.55433 61.9112 6.95033 62.0945 7.295C62.2852 7.63233 62.5455 7.89633 62.8755 8.087C63.2128 8.27033 63.5905 8.362 64.0085 8.362C64.3532 8.362 64.6722 8.29233 64.9655 8.153C65.2588 8.01367 65.5008 7.801 65.6915 7.515L66.2745 7.911C66.0472 8.285 65.7355 8.571 65.3395 8.769C64.9435 8.95967 64.4998 9.055 64.0085 9.055ZM68.5567 4.347C68.7401 3.95833 69.0114 3.665 69.3707 3.467C69.7374 3.269 70.1884 3.17 70.7237 3.17V3.929L70.5367 3.918C69.9281 3.918 69.4514 4.105 69.1067 4.479C68.7621 4.853 68.5897 5.37733 68.5897 6.052V9H67.8087V3.214H68.5567V4.347ZM74.5591 8.362C74.9185 8.362 75.2485 8.29967 75.5491 8.175C75.8571 8.043 76.1175 7.85233 76.3301 7.603L76.7701 8.109C76.5135 8.417 76.1945 8.65167 75.8131 8.813C75.4318 8.97433 75.0101 9.055 74.5481 9.055C73.9541 9.055 73.4261 8.93033 72.9641 8.681C72.5021 8.42433 72.1428 8.07233 71.8861 7.625C71.6295 7.17767 71.5011 6.67167 71.5011 6.107C71.5011 5.54233 71.6221 5.03633 71.8641 4.589C72.1135 4.14167 72.4545 3.79333 72.8871 3.544C73.3198 3.29467 73.8111 3.17 74.3611 3.17C74.8745 3.17 75.3365 3.28733 75.7471 3.522C76.1651 3.75667 76.4951 4.083 76.7371 4.501C76.9865 4.919 77.1185 5.39567 77.1331 5.931L72.3811 6.855C72.5278 7.32433 72.7918 7.69467 73.1731 7.966C73.5618 8.23 74.0238 8.362 74.5591 8.362ZM74.3611 3.841C73.9578 3.841 73.5948 3.93633 73.2721 4.127C72.9568 4.31033 72.7075 4.57067 72.5241 4.908C72.3481 5.238 72.2601 5.61933 72.2601 6.052C72.2601 6.162 72.2638 6.24267 72.2711 6.294L76.3521 5.502C76.2641 5.018 76.0405 4.622 75.6811 4.314C75.3218 3.99867 74.8818 3.841 74.3611 3.841ZM84.0028 3.214V9H83.2548V7.856C83.0201 8.24467 82.7085 8.54167 82.3198 8.747C81.9385 8.95233 81.5058 9.055 81.0218 9.055C80.4791 9.055 79.9878 8.93033 79.5478 8.681C79.1078 8.43167 78.7631 8.08333 78.5138 7.636C78.2645 7.18867 78.1398 6.679 78.1398 6.107C78.1398 5.535 78.2645 5.02533 78.5138 4.578C78.7631 4.13067 79.1078 3.786 79.5478 3.544C79.9878 3.29467 80.4791 3.17 81.0218 3.17C81.4911 3.17 81.9128 3.269 82.2868 3.467C82.6681 3.65767 82.9798 3.94 83.2218 4.314V3.214H84.0028ZM81.0878 8.362C81.4911 8.362 81.8541 8.27033 82.1768 8.087C82.5068 7.89633 82.7635 7.62867 82.9468 7.284C83.1375 6.93933 83.2328 6.547 83.2328 6.107C83.2328 5.667 83.1375 5.27467 82.9468 4.93C82.7635 4.58533 82.5068 4.32133 82.1768 4.138C81.8541 3.94733 81.4911 3.852 81.0878 3.852C80.6771 3.852 80.3068 3.94733 79.9768 4.138C79.6541 4.32133 79.3975 4.58533 79.2068 4.93C79.0235 5.27467 78.9318 5.667 78.9318 6.107C78.9318 6.547 79.0235 6.93933 79.2068 7.284C79.3975 7.62867 79.6541 7.89633 79.9768 8.087C80.3068 8.27033 80.6771 8.362 81.0878 8.362ZM93.3939 3.17C94.1199 3.17 94.6882 3.379 95.0989 3.797C95.5169 4.215 95.7259 4.831 95.7259 5.645V9H94.9449V5.722C94.9449 5.12067 94.7982 4.66233 94.5049 4.347C94.2189 4.03167 93.8119 3.874 93.2839 3.874C92.6825 3.874 92.2095 4.061 91.8649 4.435C91.5202 4.80167 91.3479 5.31133 91.3479 5.964V9H90.5669V5.722C90.5669 5.12067 90.4202 4.66233 90.1269 4.347C89.8409 4.03167 89.4302 3.874 88.8949 3.874C88.3009 3.874 87.8279 4.061 87.4759 4.435C87.1312 4.80167 86.9589 5.31133 86.9589 5.964V9H86.1779V3.214H86.9259V4.27C87.1312 3.918 87.4172 3.64667 87.7839 3.456C88.1505 3.26533 88.5722 3.17 89.0489 3.17C89.5329 3.17 89.9509 3.27267 90.3029 3.478C90.6622 3.68333 90.9299 3.98767 91.1059 4.391C91.3185 4.00967 91.6229 3.71267 92.0189 3.5C92.4222 3.28 92.8805 3.17 93.3939 3.17ZM3.938 21.648C3.79133 21.78 3.61167 21.8827 3.399 21.956C3.18633 22.022 2.96267 22.055 2.728 22.055C2.18533 22.055 1.76733 21.9083 1.474 21.615C1.18067 21.3217 1.034 20.9073 1.034 20.372V14.949H1.815V16.214H3.564V16.874H1.815V20.328C1.815 20.6727 1.89933 20.9367 2.068 21.12C2.23667 21.296 2.48233 21.384 2.805 21.384C3.157 21.384 3.443 21.285 3.663 21.087L3.938 21.648ZM7.51455 22.055C6.95721 22.055 6.45488 21.9303 6.00755 21.681C5.56021 21.4243 5.20821 21.0723 4.95155 20.625C4.69488 20.1777 4.56655 19.6717 4.56655 19.107C4.56655 18.5423 4.69488 18.0363 4.95155 17.589C5.20821 17.1417 5.56021 16.7933 6.00755 16.544C6.45488 16.2947 6.95721 16.17 7.51455 16.17C8.07188 16.17 8.57421 16.2947 9.02155 16.544C9.46888 16.7933 9.81721 17.1417 10.0665 17.589C10.3232 18.0363 10.4515 18.5423 10.4515 19.107C10.4515 19.6717 10.3232 20.1777 10.0665 20.625C9.81721 21.0723 9.46888 21.4243 9.02155 21.681C8.57421 21.9303 8.07188 22.055 7.51455 22.055ZM7.51455 21.362C7.92521 21.362 8.29188 21.2703 8.61455 21.087C8.94455 20.8963 9.20121 20.6287 9.38455 20.284C9.56788 19.9393 9.65955 19.547 9.65955 19.107C9.65955 18.667 9.56788 18.2747 9.38455 17.93C9.20121 17.5853 8.94455 17.3213 8.61455 17.138C8.29188 16.9473 7.92521 16.852 7.51455 16.852C7.10388 16.852 6.73355 16.9473 6.40355 17.138C6.08088 17.3213 5.82421 17.5853 5.63355 17.93C5.45021 18.2747 5.35855 18.667 5.35855 19.107C5.35855 19.547 5.45021 19.9393 5.63355 20.284C5.82421 20.6287 6.08088 20.8963 6.40355 21.087C6.73355 21.2703 7.10388 21.362 7.51455 21.362ZM15.027 16.17C15.5697 16.17 16.061 16.2947 16.501 16.544C16.941 16.786 17.2857 17.1307 17.535 17.578C17.7844 18.0253 17.909 18.535 17.909 19.107C17.909 19.6863 17.7844 20.1997 17.535 20.647C17.2857 21.0943 16.941 21.4427 16.501 21.692C16.0684 21.934 15.577 22.055 15.027 22.055C14.5577 22.055 14.1324 21.9597 13.751 21.769C13.377 21.571 13.069 21.285 12.827 20.911V24.134H12.046V16.214H12.794V17.358C13.0287 16.9767 13.3367 16.6833 13.718 16.478C14.1067 16.2727 14.543 16.17 15.027 16.17ZM14.972 21.362C15.3754 21.362 15.742 21.2703 16.072 21.087C16.402 20.8963 16.6587 20.6287 16.842 20.284C17.0327 19.9393 17.128 19.547 17.128 19.107C17.128 18.667 17.0327 18.2783 16.842 17.941C16.6587 17.5963 16.402 17.3287 16.072 17.138C15.742 16.9473 15.3754 16.852 14.972 16.852C14.5614 16.852 14.191 16.9473 13.861 17.138C13.5384 17.3287 13.2817 17.5963 13.091 17.941C12.9077 18.2783 12.816 18.667 12.816 19.107C12.816 19.547 12.9077 19.9393 13.091 20.284C13.2817 20.6287 13.5384 20.8963 13.861 21.087C14.191 21.2703 14.5614 21.362 14.972 21.362ZM22.4821 16.17C23.0248 16.17 23.5161 16.2947 23.9561 16.544C24.3961 16.786 24.7408 17.1307 24.9901 17.578C25.2394 18.0253 25.3641 18.535 25.3641 19.107C25.3641 19.6863 25.2394 20.1997 24.9901 20.647C24.7408 21.0943 24.3961 21.4427 23.9561 21.692C23.5234 21.934 23.0321 22.055 22.4821 22.055C22.0128 22.055 21.5874 21.9597 21.2061 21.769C20.8321 21.571 20.5241 21.285 20.2821 20.911V24.134H19.5011V16.214H20.2491V17.358C20.4838 16.9767 20.7918 16.6833 21.1731 16.478C21.5618 16.2727 21.9981 16.17 22.4821 16.17ZM22.4271 21.362C22.8304 21.362 23.1971 21.2703 23.5271 21.087C23.8571 20.8963 24.1138 20.6287 24.2971 20.284C24.4878 19.9393 24.5831 19.547 24.5831 19.107C24.5831 18.667 24.4878 18.2783 24.2971 17.941C24.1138 17.5963 23.8571 17.3287 23.5271 17.138C23.1971 16.9473 22.8304 16.852 22.4271 16.852C22.0164 16.852 21.6461 16.9473 21.3161 17.138C20.9934 17.3287 20.7368 17.5963 20.5461 17.941C20.3628 18.2783 20.2711 18.667 20.2711 19.107C20.2711 19.547 20.3628 19.9393 20.5461 20.284C20.7368 20.6287 20.9934 20.8963 21.3161 21.087C21.6461 21.2703 22.0164 21.362 22.4271 21.362ZM29.4312 21.362C29.7905 21.362 30.1205 21.2997 30.4212 21.175C30.7292 21.043 30.9895 20.8523 31.2022 20.603L31.6422 21.109C31.3855 21.417 31.0665 21.6517 30.6852 21.813C30.3039 21.9743 29.8822 22.055 29.4202 22.055C28.8262 22.055 28.2982 21.9303 27.8362 21.681C27.3742 21.4243 27.0149 21.0723 26.7582 20.625C26.5015 20.1777 26.3732 19.6717 26.3732 19.107C26.3732 18.5423 26.4942 18.0363 26.7362 17.589C26.9855 17.1417 27.3265 16.7933 27.7592 16.544C28.1919 16.2947 28.6832 16.17 29.2332 16.17C29.7465 16.17 30.2085 16.2873 30.6192 16.522C31.0372 16.7567 31.3672 17.083 31.6092 17.501C31.8585 17.919 31.9905 18.3957 32.0052 18.931L27.2532 19.855C27.3999 20.3243 27.6639 20.6947 28.0452 20.966C28.4339 21.23 28.8959 21.362 29.4312 21.362ZM29.2332 16.841C28.8299 16.841 28.4669 16.9363 28.1442 17.127C27.8289 17.3103 27.5795 17.5707 27.3962 17.908C27.2202 18.238 27.1322 18.6193 27.1322 19.052C27.1322 19.162 27.1359 19.2427 27.1432 19.294L31.2242 18.502C31.1362 18.018 30.9125 17.622 30.5532 17.314C30.1939 16.9987 29.7539 16.841 29.2332 16.841ZM38.8749 13.838V22H38.1269V20.856C37.8922 21.2447 37.5805 21.5417 37.1919 21.747C36.8105 21.9523 36.3779 22.055 35.8939 22.055C35.3512 22.055 34.8599 21.9303 34.4199 21.681C33.9799 21.4317 33.6352 21.0833 33.3859 20.636C33.1365 20.1887 33.0119 19.679 33.0119 19.107C33.0119 18.535 33.1365 18.0253 33.3859 17.578C33.6352 17.1307 33.9799 16.786 34.4199 16.544C34.8599 16.2947 35.3512 16.17 35.8939 16.17C36.3632 16.17 36.7849 16.269 37.1589 16.467C37.5402 16.6577 37.8519 16.94 38.0939 17.314V13.838H38.8749ZM35.9599 21.362C36.3632 21.362 36.7262 21.2703 37.0489 21.087C37.3789 20.8963 37.6355 20.6287 37.8189 20.284C38.0095 19.9393 38.1049 19.547 38.1049 19.107C38.1049 18.667 38.0095 18.2747 37.8189 17.93C37.6355 17.5853 37.3789 17.3213 37.0489 17.138C36.7262 16.9473 36.3632 16.852 35.9599 16.852C35.5492 16.852 35.1789 16.9473 34.8489 17.138C34.5262 17.3213 34.2695 17.5853 34.0789 17.93C33.8955 18.2747 33.8039 18.667 33.8039 19.107C33.8039 19.547 33.8955 19.9393 34.0789 20.284C34.2695 20.6287 34.5262 20.8963 34.8489 21.087C35.1789 21.2703 35.5492 21.362 35.9599 21.362ZM52.8498 16.214V19.415C52.8498 20.273 52.6445 20.9293 52.2338 21.384C51.8232 21.8313 51.2182 22.055 50.4188 22.055C49.9128 22.055 49.4875 21.9597 49.1428 21.769C48.8055 21.571 48.5452 21.2593 48.3618 20.834C48.1785 21.252 47.9182 21.56 47.5808 21.758C47.2435 21.956 46.8182 22.055 46.3048 22.055C45.5055 22.055 44.9005 21.8313 44.4898 21.384C44.0792 20.9293 43.8738 20.273 43.8738 19.415V16.214H44.6548V19.349C44.6548 20.031 44.7868 20.537 45.0508 20.867C45.3148 21.1897 45.7328 21.351 46.3048 21.351C46.8695 21.351 47.2875 21.186 47.5588 20.856C47.8375 20.526 47.9768 20.0163 47.9768 19.327V16.214H48.7578V19.327C48.7578 20.0163 48.8935 20.526 49.1648 20.856C49.4362 21.186 49.8578 21.351 50.4298 21.351C50.9872 21.351 51.3978 21.1897 51.6618 20.867C51.9332 20.537 52.0688 20.031 52.0688 19.349V16.214H52.8498ZM54.9718 16.214H55.7528V22H54.9718V16.214ZM55.3678 14.949C55.2065 14.949 55.0708 14.894 54.9608 14.784C54.8508 14.674 54.7958 14.542 54.7958 14.388C54.7958 14.2413 54.8508 14.113 54.9608 14.003C55.0708 13.893 55.2065 13.838 55.3678 13.838C55.5291 13.838 55.6648 13.893 55.7748 14.003C55.8848 14.1057 55.9398 14.2303 55.9398 14.377C55.9398 14.5383 55.8848 14.674 55.7748 14.784C55.6648 14.894 55.5291 14.949 55.3678 14.949ZM60.7749 21.648C60.6282 21.78 60.4486 21.8827 60.2359 21.956C60.0232 22.022 59.7996 22.055 59.5649 22.055C59.0222 22.055 58.6042 21.9083 58.3109 21.615C58.0176 21.3217 57.8709 20.9073 57.8709 20.372V14.949H58.6519V16.214H60.4009V16.874H58.6519V20.328C58.6519 20.6727 58.7362 20.9367 58.9049 21.12C59.0736 21.296 59.3192 21.384 59.6419 21.384C59.9939 21.384 60.2799 21.285 60.4999 21.087L60.7749 21.648ZM65.1386 16.17C65.8646 16.17 66.4402 16.3827 66.8656 16.808C67.2982 17.226 67.5146 17.8383 67.5146 18.645V22H66.7336V18.722C66.7336 18.1207 66.5832 17.6623 66.2826 17.347C65.9819 17.0317 65.5529 16.874 64.9956 16.874C64.3722 16.874 63.8772 17.061 63.5106 17.435C63.1512 17.8017 62.9716 18.3113 62.9716 18.964V22H62.1906V13.838H62.9716V17.226C63.1842 16.8887 63.4776 16.6283 63.8516 16.445C64.2256 16.2617 64.6546 16.17 65.1386 16.17ZM74.2958 14.443C73.9585 14.443 73.7018 14.5347 73.5258 14.718C73.3571 14.9013 73.2728 15.1727 73.2728 15.532V16.214H75.0548V16.874H73.2948V22H72.5138V15.499C72.5138 14.971 72.6641 14.553 72.9648 14.245C73.2728 13.937 73.7055 13.783 74.2628 13.783C74.4828 13.783 74.6955 13.816 74.9008 13.882C75.1061 13.9407 75.2785 14.0287 75.4178 14.146L75.1538 14.729C74.9265 14.5383 74.6405 14.443 74.2958 14.443ZM77.7413 17.347C77.9246 16.9583 78.196 16.665 78.5553 16.467C78.922 16.269 79.373 16.17 79.9083 16.17V16.929L79.7213 16.918C79.1126 16.918 78.636 17.105 78.2913 17.479C77.9466 17.853 77.7743 18.3773 77.7743 19.052V22H76.9933V16.214H77.7413V17.347ZM83.7437 21.362C84.103 21.362 84.433 21.2997 84.7337 21.175C85.0417 21.043 85.302 20.8523 85.5147 20.603L85.9547 21.109C85.698 21.417 85.379 21.6517 84.9977 21.813C84.6164 21.9743 84.1947 22.055 83.7327 22.055C83.1387 22.055 82.6107 21.9303 82.1487 21.681C81.6867 21.4243 81.3274 21.0723 81.0707 20.625C80.814 20.1777 80.6857 19.6717 80.6857 19.107C80.6857 18.5423 80.8067 18.0363 81.0487 17.589C81.298 17.1417 81.639 16.7933 82.0717 16.544C82.5044 16.2947 82.9957 16.17 83.5457 16.17C84.059 16.17 84.521 16.2873 84.9317 16.522C85.3497 16.7567 85.6797 17.083 85.9217 17.501C86.171 17.919 86.303 18.3957 86.3177 18.931L81.5657 19.855C81.7124 20.3243 81.9764 20.6947 82.3577 20.966C82.7464 21.23 83.2084 21.362 83.7437 21.362ZM83.5457 16.841C83.1424 16.841 82.7794 16.9363 82.4567 17.127C82.1414 17.3103 81.892 17.5707 81.7087 17.908C81.5327 18.238 81.4447 18.6193 81.4447 19.052C81.4447 19.162 81.4484 19.2427 81.4557 19.294L85.5367 18.502C85.4487 18.018 85.225 17.622 84.8657 17.314C84.5064 16.9987 84.0664 16.841 83.5457 16.841ZM89.4584 22.055C88.989 22.055 88.538 21.989 88.1054 21.857C87.68 21.7177 87.3464 21.5453 87.1044 21.34L87.4564 20.724C87.6984 20.9147 88.0027 21.0723 88.3694 21.197C88.736 21.3143 89.1174 21.373 89.5134 21.373C90.0414 21.373 90.43 21.2923 90.6794 21.131C90.936 20.9623 91.0644 20.7277 91.0644 20.427C91.0644 20.2143 90.9947 20.0493 90.8554 19.932C90.716 19.8073 90.54 19.7157 90.3274 19.657C90.1147 19.591 89.8324 19.5287 89.4804 19.47C89.011 19.382 88.6334 19.294 88.3474 19.206C88.0614 19.1107 87.8157 18.953 87.6104 18.733C87.4124 18.513 87.3134 18.2087 87.3134 17.82C87.3134 17.336 87.515 16.94 87.9184 16.632C88.3217 16.324 88.8827 16.17 89.6014 16.17C89.9754 16.17 90.3494 16.2213 90.7234 16.324C91.0974 16.4193 91.4054 16.5477 91.6474 16.709L91.3064 17.336C90.8297 17.006 90.2614 16.841 89.6014 16.841C89.1027 16.841 88.725 16.929 88.4684 17.105C88.219 17.281 88.0944 17.512 88.0944 17.798C88.0944 18.018 88.164 18.194 88.3034 18.326C88.45 18.458 88.6297 18.557 88.8424 18.623C89.055 18.6817 89.3484 18.744 89.7224 18.81C90.1844 18.898 90.5547 18.986 90.8334 19.074C91.112 19.162 91.3504 19.3123 91.5484 19.525C91.7464 19.7377 91.8454 20.031 91.8454 20.405C91.8454 20.911 91.6327 21.3143 91.2074 21.615C90.7894 21.9083 90.2064 22.055 89.4584 22.055ZM96.2372 16.17C96.9632 16.17 97.5389 16.3827 97.9642 16.808C98.3969 17.226 98.6132 17.8383 98.6132 18.645V22H97.8322V18.722C97.8322 18.1207 97.6819 17.6623 97.3812 17.347C97.0805 17.0317 96.6515 16.874 96.0942 16.874C95.4709 16.874 94.9759 17.061 94.6092 17.435C94.2499 17.8017 94.0702 18.3113 94.0702 18.964V22H93.2892V13.838H94.0702V17.226C94.2829 16.8887 94.5762 16.6283 94.9502 16.445C95.3242 16.2617 95.7532 16.17 96.2372 16.17ZM8.305 29.17C9.031 29.17 9.59933 29.379 10.01 29.797C10.428 30.215 10.637 30.831 10.637 31.645V35H9.856V31.722C9.856 31.1207 9.70933 30.6623 9.416 30.347C9.13 30.0317 8.723 29.874 8.195 29.874C7.59367 29.874 7.12067 30.061 6.776 30.435C6.43133 30.8017 6.259 31.3113 6.259 31.964V35H5.478V31.722C5.478 31.1207 5.33133 30.6623 5.038 30.347C4.752 30.0317 4.34133 29.874 3.806 29.874C3.212 29.874 2.739 30.061 2.387 30.435C2.04233 30.8017 1.87 31.3113 1.87 31.964V35H1.089V29.214H1.837V30.27C2.04233 29.918 2.32833 29.6467 2.695 29.456C3.06167 29.2653 3.48333 29.17 3.96 29.17C4.444 29.17 4.862 29.2727 5.214 29.478C5.57333 29.6833 5.841 29.9877 6.017 30.391C6.22967 30.0097 6.534 29.7127 6.93 29.5C7.33333 29.28 7.79167 29.17 8.305 29.17ZM12.755 29.214H13.536V35H12.755V29.214ZM13.151 27.949C12.9897 27.949 12.854 27.894 12.744 27.784C12.634 27.674 12.579 27.542 12.579 27.388C12.579 27.2413 12.634 27.113 12.744 27.003C12.854 26.893 12.9897 26.838 13.151 26.838C13.3123 26.838 13.448 26.893 13.558 27.003C13.668 27.1057 13.723 27.2303 13.723 27.377C13.723 27.5383 13.668 27.674 13.558 27.784C13.448 27.894 13.3123 27.949 13.151 27.949ZM18.6571 29.17C19.3831 29.17 19.9588 29.3827 20.3841 29.808C20.8168 30.226 21.0331 30.8383 21.0331 31.645V35H20.2521V31.722C20.2521 31.1207 20.1018 30.6623 19.8011 30.347C19.5005 30.0317 19.0715 29.874 18.5141 29.874C17.8908 29.874 17.3958 30.061 17.0291 30.435C16.6698 30.8017 16.4901 31.3113 16.4901 31.964V35H15.7091V29.214H16.4571V30.281C16.6698 29.929 16.9631 29.6577 17.3371 29.467C17.7185 29.269 18.1585 29.17 18.6571 29.17ZM26.0025 34.648C25.8558 34.78 25.6761 34.8827 25.4635 34.956C25.2508 35.022 25.0271 35.055 24.7925 35.055C24.2498 35.055 23.8318 34.9083 23.5385 34.615C23.2451 34.3217 23.0985 33.9073 23.0985 33.372V27.949H23.8795V29.214H25.6285V29.874H23.8795V33.328C23.8795 33.6727 23.9638 33.9367 24.1325 34.12C24.3011 34.296 24.5468 34.384 24.8695 34.384C25.2215 34.384 25.5075 34.285 25.7275 34.087L26.0025 34.648ZM31.925 35.055C31.4043 35.055 31.001 34.9083 30.715 34.615C30.4363 34.3217 30.297 33.9147 30.297 33.394V26.838H31.078V33.328C31.078 33.6727 31.1587 33.9367 31.32 34.12C31.4813 34.296 31.7233 34.384 32.046 34.384C32.2513 34.384 32.4273 34.351 32.574 34.285L32.629 34.934C32.4017 35.0147 32.167 35.055 31.925 35.055ZM36.0591 34.362C36.4185 34.362 36.7485 34.2997 37.0491 34.175C37.3571 34.043 37.6175 33.8523 37.8301 33.603L38.2701 34.109C38.0135 34.417 37.6945 34.6517 37.3131 34.813C36.9318 34.9743 36.5101 35.055 36.0481 35.055C35.4541 35.055 34.9261 34.9303 34.4641 34.681C34.0021 34.4243 33.6428 34.0723 33.3861 33.625C33.1295 33.1777 33.0011 32.6717 33.0011 32.107C33.0011 31.5423 33.1221 31.0363 33.3641 30.589C33.6135 30.1417 33.9545 29.7933 34.3871 29.544C34.8198 29.2947 35.3111 29.17 35.8611 29.17C36.3745 29.17 36.8365 29.2873 37.2471 29.522C37.6651 29.7567 37.9951 30.083 38.2371 30.501C38.4865 30.919 38.6185 31.3957 38.6331 31.931L33.8811 32.855C34.0278 33.3243 34.2918 33.6947 34.6731 33.966C35.0618 34.23 35.5238 34.362 36.0591 34.362ZM35.8611 29.841C35.4578 29.841 35.0948 29.9363 34.7721 30.127C34.4568 30.3103 34.2075 30.5707 34.0241 30.908C33.8481 31.238 33.7601 31.6193 33.7601 32.052C33.7601 32.162 33.7638 32.2427 33.7711 32.294L37.8521 31.502C37.7641 31.018 37.5405 30.622 37.1811 30.314C36.8218 29.9987 36.3818 29.841 35.8611 29.841ZM45.5028 29.214V35H44.7548V33.856C44.5201 34.2447 44.2085 34.5417 43.8198 34.747C43.4385 34.9523 43.0058 35.055 42.5218 35.055C41.9791 35.055 41.4878 34.9303 41.0478 34.681C40.6078 34.4317 40.2631 34.0833 40.0138 33.636C39.7645 33.1887 39.6398 32.679 39.6398 32.107C39.6398 31.535 39.7645 31.0253 40.0138 30.578C40.2631 30.1307 40.6078 29.786 41.0478 29.544C41.4878 29.2947 41.9791 29.17 42.5218 29.17C42.9911 29.17 43.4128 29.269 43.7868 29.467C44.1681 29.6577 44.4798 29.94 44.7218 30.314V29.214H45.5028ZM42.5878 34.362C42.9911 34.362 43.3541 34.2703 43.6768 34.087C44.0068 33.8963 44.2635 33.6287 44.4468 33.284C44.6375 32.9393 44.7328 32.547 44.7328 32.107C44.7328 31.667 44.6375 31.2747 44.4468 30.93C44.2635 30.5853 44.0068 30.3213 43.6768 30.138C43.3541 29.9473 42.9911 29.852 42.5878 29.852C42.1771 29.852 41.8068 29.9473 41.4768 30.138C41.1541 30.3213 40.8975 30.5853 40.7068 30.93C40.5235 31.2747 40.4318 31.667 40.4318 32.107C40.4318 32.547 40.5235 32.9393 40.7068 33.284C40.8975 33.6287 41.1541 33.8963 41.4768 34.087C41.8068 34.2703 42.1771 34.362 42.5878 34.362ZM52.5399 29.214L49.9659 35H49.1629L46.5999 29.214H47.4139L49.5809 34.142L51.7699 29.214H52.5399ZM55.9536 34.362C56.313 34.362 56.643 34.2997 56.9436 34.175C57.2516 34.043 57.512 33.8523 57.7246 33.603L58.1646 34.109C57.908 34.417 57.589 34.6517 57.2076 34.813C56.8263 34.9743 56.4046 35.055 55.9426 35.055C55.3486 35.055 54.8206 34.9303 54.3586 34.681C53.8966 34.4243 53.5373 34.0723 53.2806 33.625C53.024 33.1777 52.8956 32.6717 52.8956 32.107C52.8956 31.5423 53.0166 31.0363 53.2586 30.589C53.508 30.1417 53.849 29.7933 54.2816 29.544C54.7143 29.2947 55.2056 29.17 55.7556 29.17C56.269 29.17 56.731 29.2873 57.1416 29.522C57.5596 29.7567 57.8896 30.083 58.1316 30.501C58.381 30.919 58.513 31.3957 58.5276 31.931L53.7756 32.855C53.9223 33.3243 54.1863 33.6947 54.5676 33.966C54.9563 34.23 55.4183 34.362 55.9536 34.362ZM55.7556 29.841C55.3523 29.841 54.9893 29.9363 54.6666 30.127C54.3513 30.3103 54.102 30.5707 53.9186 30.908C53.7426 31.238 53.6546 31.6193 53.6546 32.052C53.6546 32.162 53.6583 32.2427 53.6656 32.294L57.7466 31.502C57.6586 31.018 57.435 30.622 57.0756 30.314C56.7163 29.9987 56.2763 29.841 55.7556 29.841ZM61.6683 35.055C61.199 35.055 60.748 34.989 60.3153 34.857C59.89 34.7177 59.5563 34.5453 59.3143 34.34L59.6663 33.724C59.9083 33.9147 60.2127 34.0723 60.5793 34.197C60.946 34.3143 61.3273 34.373 61.7233 34.373C62.2513 34.373 62.64 34.2923 62.8893 34.131C63.146 33.9623 63.2743 33.7277 63.2743 33.427C63.2743 33.2143 63.2047 33.0493 63.0653 32.932C62.926 32.8073 62.75 32.7157 62.5373 32.657C62.3247 32.591 62.0423 32.5287 61.6903 32.47C61.221 32.382 60.8433 32.294 60.5573 32.206C60.2713 32.1107 60.0257 31.953 59.8203 31.733C59.6223 31.513 59.5233 31.2087 59.5233 30.82C59.5233 30.336 59.725 29.94 60.1283 29.632C60.5317 29.324 61.0927 29.17 61.8113 29.17C62.1853 29.17 62.5593 29.2213 62.9333 29.324C63.3073 29.4193 63.6153 29.5477 63.8573 29.709L63.5163 30.336C63.0397 30.006 62.4713 29.841 61.8113 29.841C61.3127 29.841 60.935 29.929 60.6783 30.105C60.429 30.281 60.3043 30.512 60.3043 30.798C60.3043 31.018 60.374 31.194 60.5133 31.326C60.66 31.458 60.8397 31.557 61.0523 31.623C61.265 31.6817 61.5583 31.744 61.9323 31.81C62.3943 31.898 62.7647 31.986 63.0433 32.074C63.322 32.162 63.5603 32.3123 63.7583 32.525C63.9563 32.7377 64.0553 33.031 64.0553 33.405C64.0553 33.911 63.8427 34.3143 63.4173 34.615C62.9993 34.9083 62.4163 35.055 61.6683 35.055ZM65.5762 35.055C65.4148 35.055 65.2755 34.9963 65.1582 34.879C65.0482 34.7617 64.9932 34.6187 64.9932 34.45C64.9932 34.2813 65.0482 34.142 65.1582 34.032C65.2755 33.9147 65.4148 33.856 65.5762 33.856C65.7375 33.856 65.8768 33.9147 65.9942 34.032C66.1115 34.142 66.1702 34.2813 66.1702 34.45C66.1702 34.6187 66.1115 34.7617 65.9942 34.879C65.8768 34.9963 65.7375 35.055 65.5762 35.055Z" fill="black"/>
</svg>
