<svg width="100" height="100" viewBox="0 0 100 100" fill="none" xmlns="http://www.w3.org/2000/svg">
<g filter="url(#filter0_d_19711_34113)">
<path d="M58 26.5C60.1609 26.5 62.1793 26.907 64.0498 27.7246C65.9104 28.5372 67.5448 29.6458 68.9482 31.0508C70.3536 32.4544 71.4627 34.0893 72.2754 35.9502C73.093 37.8222 73.5 39.8406 73.5 42C73.5 45.1818 72.6969 48.0196 71.0811 50.4961C69.5016 52.9175 67.3189 54.7753 64.5508 56.0752C63.7692 57.7756 62.7551 59.2546 61.5039 60.5059C60.2545 61.7553 58.7755 62.7684 57.0742 63.5498C55.8357 66.228 53.991 68.3845 51.541 70.0088C49.1874 71.5692 46.5335 72.3946 43.5918 72.4902L43 72.5C40.8391 72.5 38.8207 72.093 36.9502 71.2754C35.2058 70.5135 33.6597 69.4921 32.3154 68.2109L32.0488 67.9512C30.733 66.6338 29.6764 65.115 28.8799 63.3984L28.7246 63.0527C27.907 61.1806 27.5 59.161 27.5 57C27.5 53.9476 28.3133 51.1325 29.9375 48.5654C31.5308 46.0472 33.7061 44.1649 36.4502 42.9209C37.2324 41.2193 38.254 39.7333 39.5186 38.4688C40.7817 37.2056 42.2511 36.1987 43.9219 35.4473C45.1449 32.7695 46.9882 30.6139 49.4473 28.9902L49.9229 28.6885C52.3234 27.2277 55.02 26.5 58 26.5ZM35.1318 48.1006C33.9527 49.0611 33.0151 50.2337 32.3164 51.6221C31.4361 53.3715 31 55.1626 31 57C31 58.6847 31.3208 60.2495 31.958 61.6992C32.6007 63.1612 33.462 64.4284 34.541 65.5059H34.54C35.5118 66.4501 36.616 67.2204 37.8545 67.8174L38.3945 68.0625V68.0635C39.8451 68.6868 41.4114 69 43.0977 69C44.8693 69 46.6545 68.572 48.458 67.7041C49.8906 67.0147 51.077 66.0688 52.0254 64.8652C49.9849 65.079 48.0254 64.8932 46.1514 64.2979L45.708 64.1484C43.3724 63.3218 41.3503 62.0742 39.6494 60.4043L39.6465 60.4014C37.946 58.7009 36.6808 56.6863 35.8516 54.3652C35.1424 52.3799 34.9051 50.2897 35.1318 48.1006ZM42.6289 40.6152C41.7322 41.3954 40.9312 42.3576 40.2285 43.5078L40.043 43.8203C39.0844 45.4821 38.5996 47.3709 38.5996 49.5C38.5996 51.187 38.9101 52.7445 39.5264 54.1777C40.069 55.4397 40.7914 56.5606 41.6924 57.5439L42.0898 57.957L42.0977 57.9658C43.1769 59.0849 44.4272 59.9526 45.8516 60.5713H45.8525C47.2661 61.1882 48.8131 61.5 50.5 61.5C52.8223 61.5 54.7915 60.9739 56.4287 59.9424C57.6934 59.1455 58.7135 58.2865 59.5 57.3701C57.3085 57.5916 55.2138 57.352 53.2217 56.6406C50.8885 55.8074 48.8672 54.5586 47.165 52.8926L47.1611 52.8887C45.5657 51.2932 44.352 49.4229 43.5205 47.2832L43.3594 46.8516C42.6497 44.8773 42.4096 42.7966 42.6289 40.6152ZM53.4307 37.8242C51.2957 37.2294 49.072 37.3291 46.7441 38.1406C46.5407 38.7484 46.3842 39.3449 46.2773 39.9316C46.1581 40.5866 46.0977 41.2761 46.0977 42C46.0977 43.687 46.4081 45.2445 47.0244 46.6777C47.5659 47.9369 48.2987 49.0564 49.2236 50.0391L49.6318 50.4521L49.6387 50.459L49.6445 50.4658C50.723 51.5842 51.9806 52.4514 53.4199 53.0703C54.8532 53.6866 56.4106 53.9984 58.0977 54L58.6328 53.9883C59.1617 53.9658 59.6718 53.9097 60.1631 53.8203C60.7499 53.7135 61.3469 53.5561 61.9561 53.3525C62.7675 51.0216 62.8667 48.7983 62.2705 46.667C61.6452 44.4319 60.5724 42.5609 59.0557 41.041C57.5394 39.5216 55.6688 38.4478 53.4307 37.8242ZM58 30C55.9449 30 54.1211 30.4545 52.5166 31.3535C51.2387 32.0695 50.1113 32.9927 49.1328 34.125C51.3103 33.9098 53.3936 34.152 55.376 34.8594C57.5648 35.6405 59.4775 36.7876 61.1094 38.3008L61.4326 38.6074L61.4365 38.6113C63.1367 40.3132 64.4041 42.3278 65.2383 44.6484L65.3877 45.0898C65.9821 46.9408 66.1717 48.8834 65.9648 50.9131C67.0692 50.0056 67.9713 48.9372 68.6729 47.7051C69.5506 46.1635 70.0016 44.2689 70 42C70 40.313 69.6895 38.7555 69.0732 37.3223C68.4544 35.8832 67.5857 34.6263 66.4658 33.5479L66.4521 33.5342C65.3738 32.416 64.1168 31.5485 62.6777 30.9297C61.4235 30.3904 60.074 30.0837 58.626 30.0146L58 30Z" fill="url(#paint0_linear_19711_34113)"/>
</g>
<defs>
<filter id="filter0_d_19711_34113" x="23.5" y="24.5" width="54" height="54" filterUnits="userSpaceOnUse" color-interpolation-filters="sRGB">
<feFlood flood-opacity="0" result="BackgroundImageFix"/>
<feColorMatrix in="SourceAlpha" type="matrix" values="0 0 0 0 0 0 0 0 0 0 0 0 0 0 0 0 0 0 127 0" result="hardAlpha"/>
<feOffset dy="2"/>
<feGaussianBlur stdDeviation="2"/>
<feComposite in2="hardAlpha" operator="out"/>
<feColorMatrix type="matrix" values="0 0 0 0 0 0 0 0 0 1 0 0 0 0 1 0 0 0 0.25 0"/>
<feBlend mode="normal" in2="BackgroundImageFix" result="effect1_dropShadow_19711_34113"/>
<feBlend mode="normal" in="SourceGraphic" in2="effect1_dropShadow_19711_34113" result="shape"/>
</filter>
<linearGradient id="paint0_linear_19711_34113" x1="74" y1="32" x2="34" y2="67" gradientUnits="userSpaceOnUse">
<stop stop-color="#00FFFF"/>
<stop offset="1" stop-color="#00FF9F"/>
</linearGradient>
</defs>
</svg>
