<svg width="800" height="800" viewBox="0 0 800 800" fill="none" xmlns="http://www.w3.org/2000/svg">
<g filter="url(#filter0_d_19729_34105)">
<path d="M352.645 288.624C349.364 291.906 347.521 296.357 347.521 300.997C347.521 305.638 349.364 310.089 352.645 313.37L439.27 399.995L352.645 486.62C349.558 489.937 347.877 494.322 347.957 498.853C348.036 503.383 349.87 507.706 353.073 510.912C356.275 514.118 360.596 515.957 365.127 516.041C369.657 516.126 374.044 514.45 377.364 511.366L476.376 412.382C479.657 409.1 481.5 404.65 481.5 400.009C481.5 395.368 479.657 390.918 476.376 387.636L377.391 288.624C374.11 285.343 369.659 283.5 365.018 283.5C360.378 283.5 355.927 285.343 352.645 288.624Z" fill="#051B34"/>
<path d="M365.019 281C359.715 281 354.629 283.107 350.878 286.856H350.877C347.127 290.607 345.021 295.694 345.021 300.997C345.021 306.301 347.127 311.387 350.877 315.138L435.735 399.995L350.877 484.853L350.846 484.884L350.815 484.917C347.287 488.707 345.366 493.719 345.457 498.896C345.548 504.074 347.644 509.015 351.304 512.679C354.964 516.343 359.902 518.444 365.08 518.541C370.258 518.638 375.271 516.723 379.065 513.198L379.099 513.167L379.132 513.135L478.144 414.15V414.149C481.893 410.399 484 405.312 484 400.009C484 394.705 481.893 389.619 478.144 385.868L379.159 286.856L378.804 286.51C375.091 282.977 370.156 281 365.019 281Z" stroke="#051B34" stroke-width="5"/>
</g>
<defs>
<filter id="filter0_d_19729_34105" x="331.321" y="272.9" width="166.379" height="264.943" filterUnits="userSpaceOnUse" color-interpolation-filters="sRGB">
<feFlood flood-opacity="0" result="BackgroundImageFix"/>
<feColorMatrix in="SourceAlpha" type="matrix" values="0 0 0 0 0 0 0 0 0 0 0 0 0 0 0 0 0 0 127 0" result="hardAlpha"/>
<feOffset dy="5.6"/>
<feGaussianBlur stdDeviation="5.6"/>
<feComposite in2="hardAlpha" operator="out"/>
<feColorMatrix type="matrix" values="0 0 0 0 0 0 0 0 0 1 0 0 0 0 1 0 0 0 0.25 0"/>
<feBlend mode="normal" in2="BackgroundImageFix" result="effect1_dropShadow_19729_34105"/>
<feBlend mode="normal" in="SourceGraphic" in2="effect1_dropShadow_19729_34105" result="shape"/>
</filter>
</defs>
</svg>
