<svg width="800" height="800" viewBox="0 0 800 800" fill="none" xmlns="http://www.w3.org/2000/svg">
<g filter="url(#filter0_d_19729_34105)">
<path d="M352.645 288.624C349.364 291.906 347.521 296.357 347.521 300.997C347.521 305.638 349.364 310.089 352.645 313.37L439.27 399.995L352.645 486.62C349.558 489.937 347.877 494.322 347.957 498.853C348.036 503.383 349.87 507.706 353.073 510.912C356.275 514.118 360.596 515.957 365.127 516.041C369.657 516.126 374.044 514.45 377.364 511.366L476.376 412.382C479.657 409.1 481.5 404.65 481.5 400.009C481.5 395.368 479.657 390.918 476.376 387.636L377.391 288.624C374.11 285.343 369.659 283.5 365.018 283.5C360.378 283.5 355.927 285.343 352.645 288.624Z" fill="#051B34"/>
<path d="M365.019 278.5C359.052 278.5 353.33 280.87 349.11 285.089H349.109C344.891 289.308 342.521 295.031 342.521 300.997C342.521 306.964 344.891 312.686 349.109 316.905V316.906L432.199 399.995L349.109 483.085L349.047 483.148L348.985 483.214C345.016 487.478 342.855 493.116 342.957 498.94C343.06 504.765 345.418 510.323 349.535 514.445C353.652 518.567 359.208 520.932 365.033 521.041C370.858 521.15 376.498 518.995 380.767 515.03L380.834 514.968L380.899 514.902L479.911 415.918V415.917C484.13 411.698 486.5 405.975 486.5 400.009C486.5 394.042 484.131 388.32 479.912 384.101L380.928 285.089H380.927C376.707 280.87 370.985 278.5 365.019 278.5Z" stroke="#051B34" stroke-width="10"/>
</g>
<defs>
<filter id="filter0_d_19729_34105" x="326.321" y="267.9" width="176.379" height="274.943" filterUnits="userSpaceOnUse" color-interpolation-filters="sRGB">
<feFlood flood-opacity="0" result="BackgroundImageFix"/>
<feColorMatrix in="SourceAlpha" type="matrix" values="0 0 0 0 0 0 0 0 0 0 0 0 0 0 0 0 0 0 127 0" result="hardAlpha"/>
<feOffset dy="5.6"/>
<feGaussianBlur stdDeviation="5.6"/>
<feComposite in2="hardAlpha" operator="out"/>
<feColorMatrix type="matrix" values="0 0 0 0 0 0 0 0 0 1 0 0 0 0 1 0 0 0 0.25 0"/>
<feBlend mode="normal" in2="BackgroundImageFix" result="effect1_dropShadow_19729_34105"/>
<feBlend mode="normal" in="SourceGraphic" in2="effect1_dropShadow_19729_34105" result="shape"/>
</filter>
</defs>
</svg>
