<svg width="800" height="800" viewBox="0 0 800 800" fill="none" xmlns="http://www.w3.org/2000/svg">
<g filter="url(#filter0_d_19732_34105)">
<path d="M447.355 288.624C450.636 291.906 452.479 296.357 452.479 300.997C452.479 305.638 450.636 310.089 447.355 313.37L360.73 399.995L447.355 486.62C450.442 489.937 452.123 494.322 452.043 498.853C451.964 503.383 450.13 507.706 446.927 510.912C443.725 514.118 439.404 515.957 434.873 516.041C430.343 516.126 425.956 514.45 422.636 511.366L323.624 412.382C320.343 409.1 318.5 404.65 318.5 400.009C318.5 395.368 320.343 390.918 323.624 387.636L422.609 288.624C425.89 285.343 430.341 283.5 434.982 283.5C439.622 283.5 444.073 285.343 447.355 288.624Z" fill="#051B34"/>
<path d="M434.981 278.5C440.948 278.5 446.67 280.87 450.89 285.089H450.891C455.109 289.308 457.479 295.031 457.479 300.997C457.479 306.964 455.109 312.686 450.891 316.905V316.906L367.801 399.995L450.891 483.085L450.953 483.148L451.015 483.214C454.984 487.478 457.145 493.116 457.043 498.94C456.94 504.765 454.582 510.323 450.465 514.445C446.348 518.567 440.792 520.932 434.967 521.041C429.142 521.15 423.502 518.995 419.233 515.03L419.166 514.968L419.101 514.902L320.089 415.918V415.917C315.87 411.698 313.5 405.975 313.5 400.009C313.5 394.042 315.869 388.32 320.088 384.101L419.072 285.089H419.073C423.293 280.87 429.015 278.5 434.981 278.5Z" stroke="#051B34" stroke-width="10"/>
</g>
<defs>
<filter id="filter0_d_19732_34105" x="297.3" y="267.9" width="176.379" height="274.943" filterUnits="userSpaceOnUse" color-interpolation-filters="sRGB">
<feFlood flood-opacity="0" result="BackgroundImageFix"/>
<feColorMatrix in="SourceAlpha" type="matrix" values="0 0 0 0 0 0 0 0 0 0 0 0 0 0 0 0 0 0 127 0" result="hardAlpha"/>
<feOffset dy="5.6"/>
<feGaussianBlur stdDeviation="5.6"/>
<feComposite in2="hardAlpha" operator="out"/>
<feColorMatrix type="matrix" values="0 0 0 0 0 0 0 0 0 1 0 0 0 0 1 0 0 0 0.25 0"/>
<feBlend mode="normal" in2="BackgroundImageFix" result="effect1_dropShadow_19732_34105"/>
<feBlend mode="normal" in="SourceGraphic" in2="effect1_dropShadow_19732_34105" result="shape"/>
</filter>
</defs>
</svg>
