<svg width="800" height="800" viewBox="0 0 800 800" fill="none" xmlns="http://www.w3.org/2000/svg">
<g filter="url(#filter0_d_19729_34105)">
<path d="M352.63 288.64C349.348 291.922 347.505 296.372 347.505 301.013C347.505 305.654 349.348 310.104 352.63 313.386L439.255 400.011L352.63 486.636C349.542 489.953 347.861 494.338 347.941 498.868C348.021 503.399 349.855 507.722 353.057 510.928C356.26 514.134 360.581 515.972 365.111 516.057C369.642 516.142 374.028 514.466 377.348 511.382L476.36 412.398C479.641 409.116 481.484 404.665 481.484 400.025C481.484 395.384 479.641 390.933 476.36 387.652L377.376 288.64C374.094 285.359 369.643 283.516 365.003 283.516C360.362 283.516 355.911 285.359 352.63 288.64Z" fill="url(#paint0_linear_19729_34105)"/>
</g>
<defs>
<filter id="filter0_d_19729_34105" x="336.306" y="277.916" width="156.379" height="254.943" filterUnits="userSpaceOnUse" color-interpolation-filters="sRGB">
<feFlood flood-opacity="0" result="BackgroundImageFix"/>
<feColorMatrix in="SourceAlpha" type="matrix" values="0 0 0 0 0 0 0 0 0 0 0 0 0 0 0 0 0 0 127 0" result="hardAlpha"/>
<feOffset dy="5.6"/>
<feGaussianBlur stdDeviation="5.6"/>
<feComposite in2="hardAlpha" operator="out"/>
<feColorMatrix type="matrix" values="0 0 0 0 0 0 0 0 0 1 0 0 0 0 1 0 0 0 0.25 0"/>
<feBlend mode="normal" in2="BackgroundImageFix" result="effect1_dropShadow_19729_34105"/>
<feBlend mode="normal" in="SourceGraphic" in2="effect1_dropShadow_19729_34105" result="shape"/>
</filter>
<linearGradient id="paint0_linear_19729_34105" x1="397.2" y1="313.2" x2="395.8" y2="486.8" gradientUnits="userSpaceOnUse">
<stop stop-color="#00FFFF"/>
<stop offset="1" stop-color="#00FF9F"/>
</linearGradient>
</defs>
</svg>
