<svg width="800" height="800" viewBox="0 0 800 800" fill="none" xmlns="http://www.w3.org/2000/svg">
<g filter="url(#filter0_d_19729_34105)">
<path d="M340.787 260.8C336.686 264.902 334.382 270.465 334.382 276.266C334.382 282.067 336.686 287.63 340.787 291.733L449.068 400.014L340.787 508.295C336.928 512.441 334.827 517.922 334.926 523.585C335.026 529.248 337.319 534.652 341.322 538.66C345.324 542.667 350.726 544.965 356.389 545.071C362.052 545.177 367.535 543.082 371.685 539.228L495.45 415.497C499.551 411.395 501.855 405.832 501.855 400.031C501.855 394.23 499.551 388.667 495.45 384.565L371.72 260.8C367.617 256.699 362.054 254.395 356.253 254.395C350.452 254.395 344.889 256.699 340.787 260.8Z" fill="url(#paint0_linear_19729_34105)"/>
</g>
<defs>
<filter id="filter0_d_19729_34105" x="320.381" y="247.395" width="195.475" height="318.68" filterUnits="userSpaceOnUse" color-interpolation-filters="sRGB">
<feFlood flood-opacity="0" result="BackgroundImageFix"/>
<feColorMatrix in="SourceAlpha" type="matrix" values="0 0 0 0 0 0 0 0 0 0 0 0 0 0 0 0 0 0 127 0" result="hardAlpha"/>
<feOffset dy="7"/>
<feGaussianBlur stdDeviation="7"/>
<feComposite in2="hardAlpha" operator="out"/>
<feColorMatrix type="matrix" values="0 0 0 0 0 0 0 0 0 1 0 0 0 0 1 0 0 0 0.25 0"/>
<feBlend mode="normal" in2="BackgroundImageFix" result="effect1_dropShadow_19729_34105"/>
<feBlend mode="normal" in="SourceGraphic" in2="effect1_dropShadow_19729_34105" result="shape"/>
</filter>
<linearGradient id="paint0_linear_19729_34105" x1="396.5" y1="291.5" x2="394.75" y2="508.5" gradientUnits="userSpaceOnUse">
<stop stop-color="#00FFFF"/>
<stop offset="1" stop-color="#00FF9F"/>
</linearGradient>
</defs>
</svg>
