<svg width="800" height="800" viewBox="0 0 800 800" fill="none" xmlns="http://www.w3.org/2000/svg">
<g filter="url(#filter0_d_19732_34105)">
<path d="M447.355 288.624C450.636 291.906 452.479 296.357 452.479 300.997C452.479 305.638 450.636 310.089 447.355 313.37L360.73 399.995L447.355 486.62C450.442 489.937 452.123 494.322 452.043 498.853C451.964 503.383 450.13 507.706 446.927 510.912C443.725 514.118 439.404 515.957 434.873 516.041C430.343 516.126 425.956 514.45 422.636 511.366L323.624 412.382C320.343 409.1 318.5 404.65 318.5 400.009C318.5 395.368 320.343 390.918 323.624 387.636L422.609 288.624C425.89 285.343 430.341 283.5 434.982 283.5C439.622 283.5 444.073 285.343 447.355 288.624Z" fill="#051B34"/>
<path d="M434.981 281C440.285 281 445.371 283.107 449.122 286.856H449.123C452.873 290.607 454.979 295.694 454.979 300.997C454.979 306.301 452.873 311.387 449.123 315.138L364.265 399.995L449.123 484.853L449.154 484.884L449.185 484.917C452.713 488.707 454.634 493.719 454.543 498.896C454.452 504.074 452.356 509.015 448.696 512.679C445.036 516.343 440.098 518.444 434.92 518.541C429.742 518.638 424.729 516.723 420.935 513.198L420.901 513.167L420.868 513.135L321.856 414.15V414.149C318.107 410.399 316 405.312 316 400.009C316 394.705 318.107 389.619 321.856 385.868L420.841 286.856L421.196 286.51C424.909 282.977 429.844 281 434.981 281Z" stroke="#051B34" stroke-width="5"/>
</g>
<defs>
<filter id="filter0_d_19732_34105" x="302.3" y="272.9" width="166.379" height="264.943" filterUnits="userSpaceOnUse" color-interpolation-filters="sRGB">
<feFlood flood-opacity="0" result="BackgroundImageFix"/>
<feColorMatrix in="SourceAlpha" type="matrix" values="0 0 0 0 0 0 0 0 0 0 0 0 0 0 0 0 0 0 127 0" result="hardAlpha"/>
<feOffset dy="5.6"/>
<feGaussianBlur stdDeviation="5.6"/>
<feComposite in2="hardAlpha" operator="out"/>
<feColorMatrix type="matrix" values="0 0 0 0 0 0 0 0 0 1 0 0 0 0 1 0 0 0 0.25 0"/>
<feBlend mode="normal" in2="BackgroundImageFix" result="effect1_dropShadow_19732_34105"/>
<feBlend mode="normal" in="SourceGraphic" in2="effect1_dropShadow_19732_34105" result="shape"/>
</filter>
</defs>
</svg>
