<svg width="800" height="800" viewBox="0 0 800 800" fill="none" xmlns="http://www.w3.org/2000/svg">
<g filter="url(#filter0_d_19732_34105)">
<path d="M447.355 288.624C450.636 291.906 452.479 296.357 452.479 300.997C452.479 305.638 450.636 310.089 447.355 313.37L360.73 399.995L447.355 486.62C450.442 489.937 452.123 494.322 452.043 498.853C451.964 503.383 450.13 507.706 446.927 510.912C443.725 514.118 439.404 515.957 434.873 516.041C430.343 516.126 425.956 514.45 422.636 511.366L323.624 412.382C320.343 409.1 318.5 404.65 318.5 400.009C318.5 395.368 320.343 390.918 323.624 387.636L422.609 288.624C425.89 285.343 430.341 283.5 434.982 283.5C439.622 283.5 444.073 285.343 447.355 288.624Z" fill="#051B34"/>
</g>
<defs>
<filter id="filter0_d_19732_34105" x="307.3" y="277.9" width="156.379" height="254.943" filterUnits="userSpaceOnUse" color-interpolation-filters="sRGB">
<feFlood flood-opacity="0" result="BackgroundImageFix"/>
<feColorMatrix in="SourceAlpha" type="matrix" values="0 0 0 0 0 0 0 0 0 0 0 0 0 0 0 0 0 0 127 0" result="hardAlpha"/>
<feOffset dy="5.6"/>
<feGaussianBlur stdDeviation="5.6"/>
<feComposite in2="hardAlpha" operator="out"/>
<feColorMatrix type="matrix" values="0 0 0 0 0 0 0 0 0 1 0 0 0 0 1 0 0 0 0.25 0"/>
<feBlend mode="normal" in2="BackgroundImageFix" result="effect1_dropShadow_19732_34105"/>
<feBlend mode="normal" in="SourceGraphic" in2="effect1_dropShadow_19732_34105" result="shape"/>
</filter>
</defs>
</svg>
