<svg width="800" height="800" viewBox="0 0 800 800" fill="none" xmlns="http://www.w3.org/2000/svg">
<g filter="url(#filter0_d_19729_34102)">
<path d="M447.37 288.64C450.652 291.922 452.495 296.372 452.495 301.013C452.495 305.654 450.652 310.104 447.37 313.386L360.745 400.011L447.37 486.636C450.458 489.953 452.139 494.338 452.059 498.868C451.979 503.399 450.145 507.722 446.943 510.928C443.74 514.134 439.419 515.972 434.889 516.057C430.358 516.142 425.972 514.466 422.652 511.382L323.64 412.398C320.359 409.116 318.516 404.665 318.516 400.025C318.516 395.384 320.359 390.933 323.64 387.652L422.624 288.64C425.906 285.359 430.357 283.516 434.997 283.516C439.638 283.516 444.089 285.359 447.37 288.64Z" fill="url(#paint0_linear_19729_34102)"/>
</g>
<defs>
<filter id="filter0_d_19729_34102" x="307.316" y="277.916" width="156.379" height="254.943" filterUnits="userSpaceOnUse" color-interpolation-filters="sRGB">
<feFlood flood-opacity="0" result="BackgroundImageFix"/>
<feColorMatrix in="SourceAlpha" type="matrix" values="0 0 0 0 0 0 0 0 0 0 0 0 0 0 0 0 0 0 127 0" result="hardAlpha"/>
<feOffset dy="5.6"/>
<feGaussianBlur stdDeviation="5.6"/>
<feComposite in2="hardAlpha" operator="out"/>
<feColorMatrix type="matrix" values="0 0 0 0 0 0 0 0 0 1 0 0 0 0 1 0 0 0 0.25 0"/>
<feBlend mode="normal" in2="BackgroundImageFix" result="effect1_dropShadow_19729_34102"/>
<feBlend mode="normal" in="SourceGraphic" in2="effect1_dropShadow_19729_34102" result="shape"/>
</filter>
<linearGradient id="paint0_linear_19729_34102" x1="402.8" y1="313.2" x2="404.2" y2="486.8" gradientUnits="userSpaceOnUse">
<stop stop-color="#00FFFF"/>
<stop offset="1" stop-color="#00FF9F"/>
</linearGradient>
</defs>
</svg>
