<svg width="100" height="100" viewBox="0 0 100 100" fill="none" xmlns="http://www.w3.org/2000/svg">
<path d="M60.8522 60.111C61.3824 60.6021 62.0068 60.9804 62.6876 61.2229C63.3684 61.4653 64.0914 61.5669 64.8127 61.5214C65.9557 61.5506 67.0765 61.2028 68.0023 60.5318C68.7564 60.0422 69.3273 59.3151 69.6252 58.4693H75.0106C74.4354 60.8806 73.0352 63.0149 71.0523 64.5027C69.1472 65.7655 66.8972 66.4061 64.6127 66.336C62.9819 66.3595 61.3633 66.0526 59.8543 65.4339C58.4891 64.8631 57.2643 64.0022 56.2647 62.911C55.2724 61.7651 54.5087 60.4399 54.0147 59.0068C53.4609 57.404 53.1909 55.7169 53.2168 54.0214C53.2064 52.3547 53.4855 50.6984 54.0418 49.1276C54.7912 46.9182 56.2199 45.0023 58.1237 43.6538C60.0276 42.3052 62.309 41.5931 64.6418 41.6192C66.3644 41.5862 68.0673 41.9897 69.5919 42.7921C70.969 43.5463 72.1565 44.6047 73.0669 45.8859C73.997 47.2296 74.6636 48.7375 75.0315 50.3297C75.4356 52.0401 75.5794 53.8005 75.4586 55.5547H59.4189C59.2877 57.2005 59.8022 58.8339 60.8522 60.111ZM39.973 33.3546C41.3236 33.3288 42.6724 33.4673 43.9897 33.7671C45.0993 34.0094 46.1527 34.4604 47.0939 35.0963C47.9647 35.7275 48.6522 36.5775 49.0897 37.5588C49.5918 38.765 49.8334 40.065 49.8001 41.3713C49.859 42.8072 49.4923 44.2286 48.7459 45.4567C47.965 46.6182 46.8825 47.5451 45.6147 48.138C47.333 48.6031 48.8299 49.6643 49.8376 51.1318C50.8043 52.688 51.2897 54.4964 51.2335 56.3276C51.2661 57.7874 50.9646 59.2354 50.3522 60.561C49.7861 61.7184 48.9562 62.7267 47.9293 63.5047C46.8739 64.2761 45.6852 64.846 44.423 65.186C43.1157 65.5519 41.7638 65.7335 40.4063 65.7256H25.5V33.3546H39.973ZM39.4834 60.2297C40.1278 60.2381 40.764 60.1693 41.3917 60.0235C41.963 59.8969 42.5047 59.6621 42.9876 59.3318C43.4626 59.0026 43.8438 58.5589 44.1001 58.0422C44.3959 57.3818 44.5334 56.661 44.498 55.9401C44.5625 55.282 44.4754 54.6178 44.2436 53.9985C44.0118 53.3792 43.6413 52.8212 43.1605 52.3672C42.1404 51.6173 40.8913 51.2454 39.6271 51.3151H32.2521V60.2297H39.4834ZM67.8898 47.7984C67.4411 47.3495 66.9012 47.0021 66.3068 46.7797C65.7124 46.5572 65.0771 46.4648 64.4439 46.5088C63.6033 46.4766 62.7686 46.6625 62.021 47.0484C61.4296 47.3752 60.9074 47.8139 60.4835 48.3401C60.1085 48.8342 59.8288 49.3937 59.6585 49.9901C59.5043 50.4901 59.4092 50.9998 59.3731 51.5193H69.3085C69.2213 50.1657 68.7284 48.8698 67.8939 47.8005L67.8898 47.7984ZM39.1126 46.4484C40.1745 46.4925 41.2198 46.1744 42.0772 45.5463C42.9084 44.8067 43.3418 43.713 43.2438 42.6026C43.2722 41.9629 43.1449 41.326 42.873 40.7463C42.6419 40.2856 42.2842 39.9003 41.8417 39.6359C41.3929 39.3449 40.8885 39.1505 40.3605 39.065C39.7875 38.9536 39.2045 38.9026 38.6209 38.913H32.2521V46.4776H39.1126V46.4484ZM70.5419 35.5171H58.0918V38.6984H70.5419V35.5171Z" fill="#051B34"/>
</svg>
