<svg width="100" height="100" viewBox="0 0 100 100" fill="none" xmlns="http://www.w3.org/2000/svg">
<g filter="url(#filter0_d_19711_34117)">
<path d="M53.9775 25.5C55.6223 25.5002 57.2019 26.1441 58.3779 27.2939L68.4688 37.1621L68.6875 37.3877C69.1849 37.925 69.5854 38.5454 69.8701 39.2217C70.1955 39.9946 70.3631 40.8245 70.3633 41.6631V68.1592C70.3632 69.8288 69.7001 71.4298 68.5195 72.6104C67.339 73.7909 65.7379 74.4541 64.0684 74.4541H36.7959C35.1263 74.454 33.5243 73.7909 32.3438 72.6104C31.1633 71.4298 30.5 69.8286 30.5 68.1592V31.7959C30.5 30.1263 31.1632 28.5244 32.3438 27.3438C33.5243 26.1632 35.1263 25.5001 36.7959 25.5H53.9775ZM36.7959 29C36.0546 29.0001 35.3426 29.2942 34.8184 29.8184C34.2942 30.3426 34 31.0546 34 31.7959V68.1592C34 68.9004 34.2943 69.6116 34.8184 70.1357C35.3426 70.6599 36.0546 70.954 36.7959 70.9541H64.0684C64.8096 70.9541 65.5207 70.6599 66.0449 70.1357C66.5691 69.6115 66.8632 68.9005 66.8633 68.1592V42.6367H59.5225C57.8529 42.6367 56.2509 41.9726 55.0703 40.792C53.8899 39.6114 53.2266 38.0103 53.2266 36.3408V29H36.7959ZM52.6953 44.3975C52.9125 44.3715 53.1331 44.3881 53.3438 44.4473L53.3428 44.4482C53.5537 44.5072 53.7516 44.6079 53.9238 44.7432C54.0959 44.8784 54.2394 45.0466 54.3467 45.2373C54.4539 45.4281 54.5228 45.6381 54.5488 45.8555C54.5749 46.0728 54.5581 46.2932 54.499 46.5039L49.5752 64.0449C49.4558 64.4706 49.1725 64.8322 48.7871 65.0488C48.4018 65.2654 47.9461 65.3195 47.5205 65.2002C47.0949 65.0809 46.7342 64.7974 46.5176 64.4121C46.301 64.0268 46.246 63.5711 46.3652 63.1455L51.2891 45.6016C51.3482 45.3909 51.4478 45.1935 51.583 45.0215C51.7183 44.8495 51.8863 44.7058 52.0771 44.5986C52.2679 44.4915 52.4781 44.4235 52.6953 44.3975ZM44.3213 48.4434C44.5401 48.4434 44.7568 48.4865 44.959 48.5703C45.1612 48.6541 45.3443 48.7768 45.499 48.9316C45.811 49.2441 45.9862 49.6679 45.9863 50.1094C45.9863 50.5509 45.8109 50.9746 45.499 51.2871L41.9648 54.8242L45.501 58.3594C45.8134 58.672 45.9883 59.0961 45.9883 59.5381C45.9882 59.9802 45.8127 60.4043 45.5 60.7168C45.1873 61.0293 44.7633 61.2052 44.3213 61.2051C43.8793 61.2049 43.455 61.0294 43.1426 60.7168L38.4287 56.002C38.1166 55.6895 37.9414 55.2659 37.9414 54.8242C37.9414 54.3826 38.1166 53.959 38.4287 53.6465L43.1416 48.9316C43.2963 48.7768 43.4804 48.6541 43.6826 48.5703C43.8849 48.4865 44.1023 48.4434 44.3213 48.4434ZM56.5312 48.4014C56.7549 48.4054 56.9754 48.4549 57.1797 48.5459C57.384 48.637 57.5682 48.768 57.7207 48.9316L62.4355 53.6455C62.7478 53.9579 62.9228 54.3816 62.9229 54.8232C62.9229 55.2651 62.7479 55.6894 62.4355 56.002L57.7217 60.7168C57.5671 60.8714 57.3836 60.9944 57.1816 61.0781C56.9794 61.1619 56.7619 61.205 56.543 61.2051C56.3242 61.2051 56.1074 61.1618 55.9053 61.0781C55.7031 60.9944 55.519 60.8715 55.3643 60.7168C55.2097 60.5622 55.0867 60.3787 55.0029 60.1768C54.9191 59.9746 54.876 59.757 54.876 59.5381C54.876 59.3193 54.9193 59.1025 55.0029 58.9004C55.0866 58.6982 55.2095 58.5142 55.3643 58.3594L58.8994 54.8242L55.3652 51.2871C55.2016 51.1346 55.0705 50.9504 54.9795 50.7461C54.8885 50.5417 54.8389 50.3213 54.835 50.0977C54.831 49.874 54.8723 49.6518 54.9561 49.4443C55.0399 49.2368 55.165 49.0479 55.3232 48.8896C55.4814 48.7315 55.6695 48.6063 55.877 48.5225C56.0845 48.4386 56.3075 48.3974 56.5312 48.4014ZM56.7266 36.3408C56.7266 37.082 57.0209 37.7932 57.5449 38.3174C58.0691 38.8416 58.7811 39.1367 59.5225 39.1367H65.4814L56.7266 30.5752V36.3408Z" fill="url(#paint0_linear_19711_34117)"/>
</g>
<defs>
<filter id="filter0_d_19711_34117" x="26.5" y="23.5" width="47.8633" height="56.9531" filterUnits="userSpaceOnUse" color-interpolation-filters="sRGB">
<feFlood flood-opacity="0" result="BackgroundImageFix"/>
<feColorMatrix in="SourceAlpha" type="matrix" values="0 0 0 0 0 0 0 0 0 0 0 0 0 0 0 0 0 0 127 0" result="hardAlpha"/>
<feOffset dy="2"/>
<feGaussianBlur stdDeviation="2"/>
<feComposite in2="hardAlpha" operator="out"/>
<feColorMatrix type="matrix" values="0 0 0 0 0 0 0 0 0 1 0 0 0 0 1 0 0 0 0.25 0"/>
<feBlend mode="normal" in2="BackgroundImageFix" result="effect1_dropShadow_19711_34117"/>
<feBlend mode="normal" in="SourceGraphic" in2="effect1_dropShadow_19711_34117" result="shape"/>
</filter>
<linearGradient id="paint0_linear_19711_34117" x1="60.8745" y1="31.2079" x2="33.7792" y2="71.5574" gradientUnits="userSpaceOnUse">
<stop stop-color="#00FFFF"/>
<stop offset="1" stop-color="#00FF9F"/>
</linearGradient>
</defs>
</svg>
