<svg width="100" height="100" viewBox="0 0 100 100" fill="none" xmlns="http://www.w3.org/2000/svg">
<g filter="url(#filter0_d_19711_34109)">
<path d="M66.6582 26C68.8707 26.0003 70.9933 26.8796 72.5576 28.4443C74.1218 30.009 75.0003 32.1313 75 34.3438C74.9997 36.418 74.2266 38.4122 72.8408 39.9424L72.5557 40.2422L67.8477 44.9502C67.7917 45.0245 67.7317 45.0974 67.6641 45.165C67.5964 45.2327 67.5236 45.2927 67.4492 45.3486L42.5254 70.2773L42.5225 70.2803C41.7691 71.0312 40.8428 71.586 39.8252 71.8955H39.8232L30.0293 74.8652L30.0244 74.8672C29.4843 75.0295 28.9102 75.0427 28.3633 74.9053C27.8162 74.7677 27.3162 74.4845 26.917 74.0859C26.5179 73.6875 26.2342 73.1883 26.0957 72.6416C25.9573 72.0947 25.9693 71.52 26.1309 70.9795L26.1338 70.9717L29.1055 61.1797L29.1074 61.1738C29.4198 60.1551 29.9779 59.2289 30.7324 58.4766L55.6523 33.5498C55.708 33.4759 55.7686 33.4042 55.8359 33.3369C55.9029 33.27 55.9744 33.2098 56.0479 33.1543L60.7588 28.4424C62.3234 26.8782 64.4458 25.9998 66.6582 26ZM33.5586 61.3066L33.5566 61.3086C33.2664 61.598 33.0518 61.9549 32.9316 62.3467L30.4375 70.5615L38.6631 68.0674C39.0527 67.9485 39.4074 67.7364 39.6963 67.4492L63.4062 43.7354L57.2656 37.5947L33.5586 61.3066ZM66.6582 30C65.5067 29.9999 64.4014 30.4565 63.5869 31.2705L60.0928 34.7656L66.2344 40.9072L69.7275 37.4141V37.4131C70.5419 36.5988 70.9999 35.4944 71 34.3428C71.0001 33.1912 70.5426 32.0869 69.7285 31.2725C68.9143 30.458 67.8098 30.0002 66.6582 30Z" fill="url(#paint0_linear_19711_34109)"/>
</g>
<defs>
<filter id="filter0_d_19711_34109" x="22" y="24" width="57" height="57" filterUnits="userSpaceOnUse" color-interpolation-filters="sRGB">
<feFlood flood-opacity="0" result="BackgroundImageFix"/>
<feColorMatrix in="SourceAlpha" type="matrix" values="0 0 0 0 0 0 0 0 0 0 0 0 0 0 0 0 0 0 127 0" result="hardAlpha"/>
<feOffset dy="2"/>
<feGaussianBlur stdDeviation="2"/>
<feComposite in2="hardAlpha" operator="out"/>
<feColorMatrix type="matrix" values="0 0 0 0 0 0 0 0 0 1 0 0 0 0 1 0 0 0 0.25 0"/>
<feBlend mode="normal" in2="BackgroundImageFix" result="effect1_dropShadow_19711_34109"/>
<feBlend mode="normal" in="SourceGraphic" in2="effect1_dropShadow_19711_34109" result="shape"/>
</filter>
<linearGradient id="paint0_linear_19711_34109" x1="74.9999" y1="26" x2="25.9998" y2="74.9999" gradientUnits="userSpaceOnUse">
<stop stop-color="#00FFFF"/>
<stop offset="1" stop-color="#00FF9F"/>
</linearGradient>
</defs>
</svg>
