<svg width="100" height="100" viewBox="0 0 100 100" fill="none" xmlns="http://www.w3.org/2000/svg">
<g filter="url(#filter0_d_19712_34160)">
<path d="M45.3409 39.829C45.3408 37.4194 45.9279 35.046 47.0515 32.9143C48.1751 30.7827 49.8012 28.9569 51.7891 27.5951C53.7771 26.2333 56.0669 25.3765 58.4605 25.0988C60.8541 24.8211 63.2793 25.1309 65.5262 26.0014C65.8133 26.113 66.0681 26.2943 66.2675 26.5291C66.4669 26.7639 66.6046 27.0446 66.6683 27.346C66.7319 27.6473 66.7195 27.9598 66.6321 28.2551C66.5446 28.5505 66.385 28.8194 66.1676 29.0375L59.0832 36.1219L63.8766 40.9152L70.9572 33.8346C71.175 33.6162 71.4439 33.4557 71.7395 33.3675C72.0351 33.2793 72.348 33.2663 72.6499 33.3296C72.9518 33.3929 73.2331 33.5306 73.4683 33.7301C73.7036 33.9296 73.8853 34.1847 73.997 34.4722C74.9948 37.0455 75.2547 39.8462 74.7473 42.5591C74.2399 45.2721 72.9854 47.7896 71.125 49.8283C69.2647 51.8671 66.8722 53.3461 64.2169 54.0991C61.5617 54.8521 58.7489 54.8491 56.0953 54.0904L37.541 72.8967C36.1688 74.2546 34.3182 75.0192 32.3877 75.0259C30.4572 75.0325 28.6013 74.2806 27.2198 72.9322C25.8383 71.5837 25.0417 69.7466 25.0016 67.8165C24.9615 65.8864 25.6811 64.0178 27.0054 62.6131L45.7264 43.2099C45.4686 42.1015 45.3392 40.967 45.3409 39.829ZM60.1694 28.7076C58.4219 28.7069 56.6988 29.1181 55.1399 29.9077C53.5809 30.6974 52.23 31.8433 51.1967 33.2525C50.1633 34.6618 49.4765 36.2947 49.1921 38.0189C48.9077 39.7431 49.0336 41.5101 49.5596 43.1766C49.6602 43.4948 49.673 43.8344 49.5967 44.1593C49.5204 44.4843 49.3577 44.7826 49.1259 45.0227L29.6708 65.1858C29.0322 65.8862 28.6906 66.8072 28.718 67.7545C28.7455 68.7019 29.1398 69.6016 29.8179 70.2638C30.4959 70.926 31.4047 71.2989 32.3524 71.3039C33.3002 71.3089 34.2128 70.9456 34.8979 70.2906L54.2677 50.6687C54.5197 50.4141 54.8401 50.238 55.1901 50.1617C55.5401 50.0853 55.9047 50.1121 56.2398 50.2387C58.0056 50.905 59.9119 51.111 61.7793 50.8373C63.6466 50.5637 65.4136 49.8192 66.9139 48.6742C68.4142 47.5292 69.5984 46.0211 70.355 44.2921C71.1117 42.5631 71.4158 40.67 71.2389 38.791L65.1852 44.8485C64.8376 45.196 64.3662 45.3912 63.8747 45.3912C63.3832 45.3912 62.9118 45.196 62.5642 44.8485L55.1499 37.4342C54.8025 37.0866 54.6073 36.6152 54.6073 36.1237C54.6073 35.6322 54.8025 35.1609 55.1499 34.8133L61.2074 28.7558C60.8624 28.7236 60.516 28.7075 60.1694 28.7076Z" fill="url(#paint0_linear_19712_34160)"/>
</g>
<defs>
<filter id="filter0_d_19712_34160" x="21" y="23" width="58" height="58.0273" filterUnits="userSpaceOnUse" color-interpolation-filters="sRGB">
<feFlood flood-opacity="0" result="BackgroundImageFix"/>
<feColorMatrix in="SourceAlpha" type="matrix" values="0 0 0 0 0 0 0 0 0 0 0 0 0 0 0 0 0 0 127 0" result="hardAlpha"/>
<feOffset dy="2"/>
<feGaussianBlur stdDeviation="2"/>
<feComposite in2="hardAlpha" operator="out"/>
<feColorMatrix type="matrix" values="0 0 0 0 0 0 0 0 0 1 0 0 0 0 1 0 0 0 0.25 0"/>
<feBlend mode="normal" in2="BackgroundImageFix" result="effect1_dropShadow_19712_34160"/>
<feBlend mode="normal" in="SourceGraphic" in2="effect1_dropShadow_19712_34160" result="shape"/>
</filter>
<linearGradient id="paint0_linear_19712_34160" x1="63.3333" y1="29.4444" x2="36.6667" y2="75" gradientUnits="userSpaceOnUse">
<stop stop-color="#00FFFF"/>
<stop offset="1" stop-color="#00FF9F"/>
</linearGradient>
</defs>
</svg>
