<svg width="100" height="100" viewBox="0 0 100 100" fill="none" xmlns="http://www.w3.org/2000/svg">
<path fill-rule="evenodd" clip-rule="evenodd" d="M36.1481 28.1381C34.4444 29.0714 32.9148 30.2122 31.5593 31.5603C28.5185 34.6085 26.5296 38.5936 25.6074 43.3455C33.8852 44.0677 41.5704 42.7529 48.1 40.4566C44.7927 35.743 40.7586 31.5839 36.1481 28.1344M25.0519 47.9418C25.0173 48.6183 25 49.3048 25 50.0011C25 55.8862 26.2593 60.9455 28.7852 64.9529C36.5185 58.0011 44.2296 53.8566 52.0185 51.7418C52.6407 51.5714 53.2654 51.4146 53.8926 51.2714C53.0037 49.0122 51.9296 46.727 50.6333 44.4566C42.472 47.5084 33.7321 48.6991 25.0519 47.9418ZM31.6889 68.5677C36.0593 72.8603 42.3259 75.0011 50 75.0011C52.3516 75.0148 54.6984 74.7877 57.0037 74.3233C57.0037 74.2122 57.0123 74.1011 57.0296 73.9899C57.7148 69.3122 57.4556 62.764 55.3926 55.6788C54.6716 55.8369 53.9519 56.0134 53.2333 56.2085C46.1593 58.1344 39.0148 61.9344 31.6889 68.5677ZM61.8259 72.8418C64.2938 71.8151 66.5399 70.321 68.4407 68.4418C71.7963 65.0862 73.863 60.5899 74.6444 55.1825C69.6778 54.5196 64.8074 54.3492 59.9889 54.9122C61.8667 61.6159 62.2852 67.9085 61.8259 72.8418ZM75 50.5566V50.0011C75 42.8159 73.1222 36.8677 69.363 32.5529C66.237 36.0159 61.2444 39.727 54.9407 42.664C56.3815 45.2492 57.5667 47.8529 58.5259 50.427C64.0296 49.6862 69.5148 49.8455 74.9963 50.5603M65.9333 29.4418C61.7815 26.4825 56.3778 25.0011 50 25.0011C46.9905 24.9771 43.9917 25.3608 41.0852 26.1418C45.4841 29.7426 49.3312 33.9691 52.5037 38.6862C58.4778 35.9751 63.1481 32.5381 65.9333 29.4418Z" fill="#051B34"/>
</svg>
