<svg width="30" height="30" viewBox="0 0 30 30" fill="none" xmlns="http://www.w3.org/2000/svg">
<g filter="url(#filter0_d_19717_34202)">
<path d="M21.4 9H8.6C7.72 9 7.008 9.72 7.008 10.6L7 20.2C7 21.08 7.72 21.8 8.6 21.8H21.4C22.28 21.8 23 21.08 23 20.2V10.6C23 9.72 22.28 9 21.4 9ZM21.08 12.4L15.424 15.936C15.168 16.096 14.832 16.096 14.576 15.936L8.92 12.4C8.83978 12.355 8.76954 12.2941 8.71351 12.2212C8.65749 12.1482 8.61685 12.0646 8.59406 11.9755C8.57127 11.8864 8.5668 11.7935 8.58093 11.7026C8.59505 11.6117 8.62747 11.5247 8.67623 11.4466C8.72498 11.3686 8.78906 11.3013 8.86458 11.2488C8.9401 11.1963 9.0255 11.1596 9.1156 11.141C9.2057 11.1225 9.29863 11.1224 9.38876 11.1408C9.4789 11.1591 9.56437 11.1956 9.64 11.248L15 14.6L20.36 11.248C20.4356 11.1956 20.5211 11.1591 20.6112 11.1408C20.7014 11.1224 20.7943 11.1225 20.8844 11.141C20.9745 11.1596 21.0599 11.1963 21.1354 11.2488C21.2109 11.3013 21.275 11.3686 21.3238 11.4466C21.3725 11.5247 21.405 11.6117 21.4191 11.7026C21.4332 11.7935 21.4287 11.8864 21.4059 11.9755C21.3832 12.0646 21.3425 12.1482 21.2865 12.2212C21.2305 12.2941 21.1602 12.355 21.08 12.4Z" fill="url(#paint0_linear_19717_34202)"/>
</g>
<defs>
<filter id="filter0_d_19717_34202" x="3" y="7" width="24" height="20.8008" filterUnits="userSpaceOnUse" color-interpolation-filters="sRGB">
<feFlood flood-opacity="0" result="BackgroundImageFix"/>
<feColorMatrix in="SourceAlpha" type="matrix" values="0 0 0 0 0 0 0 0 0 0 0 0 0 0 0 0 0 0 127 0" result="hardAlpha"/>
<feOffset dy="2"/>
<feGaussianBlur stdDeviation="2"/>
<feComposite in2="hardAlpha" operator="out"/>
<feColorMatrix type="matrix" values="0 0 0 0 0 0 0 0 0 1 0 0 0 0 1 0 0 0 0.25 0"/>
<feBlend mode="normal" in2="BackgroundImageFix" result="effect1_dropShadow_19717_34202"/>
<feBlend mode="normal" in="SourceGraphic" in2="effect1_dropShadow_19717_34202" result="shape"/>
</filter>
<linearGradient id="paint0_linear_19717_34202" x1="23" y1="9" x2="9.5" y2="22" gradientUnits="userSpaceOnUse">
<stop stop-color="#00FFFF"/>
<stop offset="1" stop-color="#00FF9F"/>
</linearGradient>
</defs>
</svg>
