<svg width="100" height="100" viewBox="0 0 100 100" fill="none" xmlns="http://www.w3.org/2000/svg">
<g filter="url(#filter0_d_19710_34122)">
<path d="M40.7091 62.3461C41.3384 62.8705 42.0903 63.151 42.8607 63.1487C43.6311 63.1465 44.3818 62.8615 45.0089 62.3334C45.6445 61.7855 46.1267 61.0269 46.3909 60.1502L47.9873 54.3634C48.3969 52.9129 49.0867 51.5947 50.0021 50.5129C50.9175 49.4311 52.0335 48.6152 53.262 48.1298L58.2295 46.2332C58.964 45.9194 59.5965 45.3415 60.0379 44.581C60.4794 43.8205 60.7075 42.9157 60.6901 41.994C60.6728 41.0724 60.4108 40.1805 59.9412 39.4438C59.4716 38.7072 58.8179 38.1631 58.0724 37.8881L53.162 35.9999C51.9323 35.517 50.8147 34.7032 49.8974 33.6228C48.98 32.5424 48.2882 31.225 47.8766 29.7747L46.2624 23.9247C46.0024 23.0628 45.5214 22.318 44.8861 21.7939C44.2508 21.2697 43.4929 20.9923 42.7177 21.0002C41.9426 21.008 41.1889 21.3009 40.5613 21.8379C39.9338 22.3749 39.4636 23.1293 39.2163 23.9964L37.5843 29.897C37.1746 31.3083 36.4989 32.5916 35.6082 33.6502C34.7174 34.7087 33.6347 35.515 32.4417 36.0083L27.4777 37.8923C26.7478 38.1997 26.117 38.7677 25.673 39.5174C25.229 40.2672 24.9938 41.1615 25.0001 42.0762C25.0064 42.9909 25.2538 43.8805 25.7081 44.6217C26.1623 45.3629 26.8008 45.9187 27.5349 46.2121L32.4417 48.0877C33.6776 48.5717 34.8 49.3913 35.7186 50.4806C36.6372 51.5698 37.3264 52.8983 37.7307 54.3592L39.3449 60.2218C39.602 61.0817 40.0806 61.8234 40.7091 62.3461ZM41.0127 31.0939L42.8947 25.2903L44.466 31.0939C45.05 33.1721 46.0379 35.0602 47.3506 36.6073C48.6634 38.1544 50.2646 39.3176 52.0263 40.0038L57.0475 42.2376L52.112 44.1216C50.3518 44.8132 48.7526 45.9798 47.4414 47.5287C46.1302 49.0776 45.1432 50.9662 44.5589 53.0442L42.6911 58.8521L41.0877 53.04C40.5114 50.9627 39.5333 49.0724 38.2307 47.5187C36.9117 45.9692 35.3086 44.7983 33.5452 44.0963L28.6241 41.8963L33.5738 39.9996C35.3116 39.2892 36.8879 38.1168 38.1807 36.5731C39.4635 35.0229 40.4318 33.1495 41.0127 31.0939ZM62.6257 79.382C62.991 79.6851 63.4111 79.8837 63.8527 79.9621C64.2942 80.0406 64.7452 79.9967 65.1699 79.834C65.5947 79.6713 65.9815 79.3942 66.2998 79.0246C66.6181 78.655 66.8592 78.203 67.004 77.7045L67.8897 74.4929C68.0815 73.8274 68.399 73.2221 68.8182 72.7227C69.2396 72.2169 69.7539 71.846 70.3181 71.6269L73.0751 70.5648C73.644 70.333 74.1364 69.8952 74.482 69.3137C74.8276 68.7321 75.0088 68.0367 74.9997 67.3265C74.9906 66.6163 74.7916 65.9276 74.4313 65.3587C74.071 64.7898 73.5676 64.3697 72.993 64.1584L70.2646 63.1047C69.7005 62.8817 69.1877 62.5077 68.7665 62.012C68.3452 61.5162 68.0268 60.9122 67.8361 60.2471L66.9362 56.9892C66.7429 56.3191 66.3759 55.7378 65.8871 55.3276C65.3983 54.9174 64.8125 54.6992 64.2128 54.7039C63.613 54.7085 63.0297 54.9358 62.5455 55.3536C62.0613 55.7713 61.7008 56.3583 61.5151 57.0313L60.633 60.2429C60.4507 60.9036 60.1415 61.5057 59.7295 62.0021C59.3176 62.4985 58.814 62.8759 58.2581 63.1047L55.4976 64.1668C54.9295 64.394 54.4365 64.8264 54.0883 65.4028C53.7402 65.9791 53.5545 66.6701 53.5577 67.3779C53.5608 68.0858 53.7526 68.7744 54.106 69.3464C54.4593 69.9184 54.9561 70.3446 55.5261 70.5648L58.251 71.6058C58.8224 71.8334 59.3366 72.2085 59.758 72.7058C60.183 73.2074 60.4973 73.8143 60.6794 74.4845L61.5829 77.7466C61.7786 78.4061 62.143 78.9775 62.6257 79.382ZM59.3652 67.6102L58.7259 67.3658L59.3831 67.0961C60.4634 66.648 61.443 65.9152 62.2475 64.9534C63.0519 63.9916 63.66 62.826 64.0256 61.5453L64.2328 60.795L64.447 61.5579C64.8117 62.8497 65.4262 64.0234 66.242 64.9862C67.0577 65.9489 68.0523 66.6742 69.1468 67.1045L69.8432 67.37L69.2004 67.6229C68.1036 68.0543 67.1074 68.7819 66.2909 69.7478C65.4744 70.7136 64.8601 71.891 64.497 73.1863L64.2863 73.9492L64.0792 73.1905C63.7165 71.8915 63.1013 70.7107 62.2827 69.7425C61.4642 68.7743 60.465 68.0455 59.3652 67.6145" fill="url(#paint0_linear_19710_34122)"/>
</g>
<defs>
<filter id="filter0_d_19710_34122" x="21" y="19" width="58" height="67" filterUnits="userSpaceOnUse" color-interpolation-filters="sRGB">
<feFlood flood-opacity="0" result="BackgroundImageFix"/>
<feColorMatrix in="SourceAlpha" type="matrix" values="0 0 0 0 0 0 0 0 0 0 0 0 0 0 0 0 0 0 127 0" result="hardAlpha"/>
<feOffset dy="2"/>
<feGaussianBlur stdDeviation="2"/>
<feComposite in2="hardAlpha" operator="out"/>
<feColorMatrix type="matrix" values="0 0 0 0 0 0 0 0 0 1 0 0 0 0 1 0 0 0 0.25 0"/>
<feBlend mode="normal" in2="BackgroundImageFix" result="effect1_dropShadow_19710_34122"/>
<feBlend mode="normal" in="SourceGraphic" in2="effect1_dropShadow_19710_34122" result="shape"/>
</filter>
<linearGradient id="paint0_linear_19710_34122" x1="49.5" y1="20.4099" x2="41.2081" y2="69.5914" gradientUnits="userSpaceOnUse">
<stop stop-color="#00FFFF"/>
<stop offset="1" stop-color="#00FF9F"/>
</linearGradient>
</defs>
</svg>
