<svg width="1000" height="1000" viewBox="0 0 1000 1000" fill="none" xmlns="http://www.w3.org/2000/svg">
<g clip-path="url(#clip0_18906_35971)">
<rect width="1000" height="1000" fill="#051B34"/>
<path opacity="0.5" d="M327.463 481.364L1256.25 90C1377.13 238.648 1372.01 780.886 1256.25 930L327.463 538.636C311.357 516.297 310.342 503.73 327.463 481.364Z" fill="url(#paint0_linear_18906_35971)" fill-opacity="0.6"/>
<g filter="url(#filter0_f_18906_35971)">
<path d="M-151.428 -185.723H3334.29V1277.13H-151.428C894.618 647.363 820.77 331.01 -151.428 -185.723Z" fill="#051B34"/>
</g>
<path d="M331.843 456.796H355.312V566.326H331.841V566.307C317.317 566.306 303.388 560.538 293.118 550.268C282.847 539.997 277.078 526.067 277.078 511.542C277.078 497.018 282.847 483.088 293.118 472.817C303.388 462.547 317.319 456.777 331.843 456.777V456.796Z" fill="#00FFFF"/>
<circle cx="355.312" cy="511.582" r="50.8534" fill="#051B34" stroke="#00FFFF" stroke-width="7.82359"/>
<path d="M385.35 529.926C383.423 533.078 381.012 535.907 378.205 538.309" stroke="#00FFFF" stroke-width="7.82359" stroke-linecap="round"/>
<path d="M344.433 478.057C349.716 476.34 355.332 475.898 360.819 476.767C366.307 477.636 371.511 479.792 376.005 483.057C380.5 486.323 384.158 490.606 386.681 495.557C389.203 500.507 390.518 505.984 390.518 511.54" stroke="#00FFFF" stroke-width="7.82359" stroke-linecap="round"/>
<g filter="url(#filter1_f_18906_35971)">
<circle cx="361.821" cy="512.041" r="34.0132" fill="#00FFFF"/>
<circle cx="361.821" cy="512.041" r="31.5836" stroke="#00FFFF" stroke-opacity="0.4" stroke-width="4.85902"/>
<path d="M387.687 527.841C386.027 530.555 383.951 532.991 381.534 535.06" stroke="#00FFFF" stroke-opacity="0.4" stroke-width="6.73713" stroke-linecap="round"/>
<path d="M352.452 483.173C357.002 481.694 361.838 481.314 366.563 482.062C371.289 482.811 375.77 484.667 379.64 487.479C383.511 490.291 386.661 493.979 388.833 498.242C391.005 502.505 392.138 507.222 392.138 512.006" stroke="#00FFFF" stroke-opacity="0.4" stroke-width="6.73713" stroke-linecap="round"/>
</g>
<path d="M212.23 468.005C194.17 468.005 185.14 475.69 185.14 491.06V491.636H232.787V525.835H185.14V568.871H139.798V492.021C139.798 472.552 145.754 457.566 157.666 447.063C169.578 436.56 186.485 431.309 208.387 431.309C216.201 431.309 223.565 432.077 230.482 433.614C237.398 435.023 243.354 437.009 248.35 439.57L235.285 473.769C231.699 471.847 227.856 470.439 223.758 469.542C219.787 468.517 215.944 468.005 212.23 468.005ZM517.827 570.792C505.916 570.792 495.221 568.487 485.742 563.876C476.392 559.265 469.027 552.797 463.648 544.471C458.396 536.146 455.771 526.731 455.771 516.229C455.771 505.726 458.396 496.376 463.648 488.178C469.027 479.853 476.392 473.384 485.742 468.773C495.221 464.162 505.916 461.857 517.827 461.857C530.636 461.857 541.587 464.611 550.681 470.118C559.775 475.626 566.051 483.247 569.509 492.981L535.887 509.504C531.789 500.282 525.705 495.671 517.635 495.671C512.512 495.671 508.221 497.464 504.763 501.051C501.433 504.637 499.768 509.696 499.768 516.229C499.768 522.889 501.433 528.012 504.763 531.599C508.221 535.185 512.512 536.978 517.635 536.978C525.705 536.978 531.789 532.367 535.887 523.145L569.509 539.668C566.051 549.402 559.775 557.023 550.681 562.531C541.587 568.039 530.636 570.792 517.827 570.792ZM723.255 463.778V568.871H681.948V558.881C678.106 562.851 673.623 565.861 668.499 567.91C663.376 569.832 657.932 570.792 652.169 570.792C638.848 570.792 628.153 566.758 620.083 558.688C612.014 550.491 607.98 538.195 607.98 521.8V463.778H651.4V514.307C651.4 521.48 652.553 526.603 654.858 529.677C657.164 532.751 660.558 534.288 665.041 534.288C669.268 534.288 672.79 532.623 675.608 529.293C678.426 525.835 679.835 520.455 679.835 513.155V463.778H723.255ZM812.448 570.792C803.482 570.792 794.645 569.832 785.935 567.91C777.225 565.989 770.18 563.492 764.801 560.418L776.713 531.791C781.58 534.737 787.344 537.042 794.004 538.707C800.664 540.372 807.133 541.205 813.409 541.205C818.404 541.205 821.862 540.821 823.784 540.052C825.833 539.156 826.858 537.875 826.858 536.21C826.858 534.545 825.577 533.392 823.015 532.751C820.582 532.111 816.547 531.471 810.911 530.83C802.33 529.805 795.029 528.525 789.009 526.988C782.989 525.323 777.673 522.184 773.062 517.573C768.579 512.962 766.338 506.366 766.338 497.784C766.338 490.996 768.387 484.912 772.486 479.532C776.585 474.153 782.669 469.862 790.738 466.66C798.935 463.458 808.734 461.857 820.133 461.857C828.074 461.857 835.824 462.625 843.38 464.162C851.066 465.571 857.598 467.685 862.977 470.503L851.066 499.129C841.843 494.006 831.725 491.444 820.71 491.444C811.231 491.444 806.492 493.109 806.492 496.44C806.492 498.105 807.773 499.321 810.335 500.09C812.896 500.73 816.931 501.371 822.439 502.011C831.02 503.036 838.257 504.381 844.149 506.046C850.169 507.711 855.42 510.849 859.903 515.46C864.514 520.071 866.82 526.667 866.82 535.249C866.82 541.781 864.771 547.737 860.672 553.117C856.573 558.496 850.425 562.787 842.228 565.989C834.03 569.191 824.104 570.792 812.448 570.792Z" fill="url(#paint1_linear_18906_35971)"/>
</g>
<defs>
<filter id="filter0_f_18906_35971" x="-365.714" y="-400.008" width="3914.29" height="1891.43" filterUnits="userSpaceOnUse" color-interpolation-filters="sRGB">
<feFlood flood-opacity="0" result="BackgroundImageFix"/>
<feBlend mode="normal" in="SourceGraphic" in2="BackgroundImageFix" result="shape"/>
<feGaussianBlur stdDeviation="107.143" result="effect1_foregroundBlur_18906_35971"/>
</filter>
<filter id="filter1_f_18906_35971" x="235.883" y="386.102" width="251.876" height="251.877" filterUnits="userSpaceOnUse" color-interpolation-filters="sRGB">
<feFlood flood-opacity="0" result="BackgroundImageFix"/>
<feBlend mode="normal" in="SourceGraphic" in2="BackgroundImageFix" result="shape"/>
<feGaussianBlur stdDeviation="45.9625" result="effect1_foregroundBlur_18906_35971"/>
</filter>
<linearGradient id="paint0_linear_18906_35971" x1="348.026" y1="510" x2="921.531" y2="510" gradientUnits="userSpaceOnUse">
<stop stop-color="#00FFFF" stop-opacity="0.6"/>
<stop offset="1" stop-color="#00FFFF" stop-opacity="0"/>
</linearGradient>
<linearGradient id="paint1_linear_18906_35971" x1="130" y1="499.502" x2="871" y2="499.683" gradientUnits="userSpaceOnUse">
<stop stop-color="#00FFFF"/>
<stop offset="1" stop-color="#00FF9F"/>
</linearGradient>
<clipPath id="clip0_18906_35971">
<rect width="1000" height="1000" fill="white"/>
</clipPath>
</defs>
</svg>
