<svg width="100" height="100" viewBox="0 0 100 100" fill="none" xmlns="http://www.w3.org/2000/svg">
<g filter="url(#filter0_d_19712_34160)">
<path d="M45.2002 35.6045C47.093 34.9385 49.1036 34.6718 51.1045 34.8213C53.1054 34.9708 55.0534 35.5339 56.8262 36.4736C58.5991 37.4135 60.1585 38.71 61.4053 40.2822C62.652 41.8544 63.5592 43.6681 64.0703 45.6084C64.5768 47.5313 64.6821 49.5376 64.3818 51.5029C63.6068 57.9571 59.2212 60.7503 57.8252 62.1816C57.0406 62.9874 56.9748 63.2271 56.9453 63.3779C56.9213 63.5011 56.9096 63.6842 56.9258 64.0615C56.9338 64.2471 56.9471 64.4532 56.9629 64.709C56.978 64.9537 56.9946 65.233 57.0088 65.5469L57.0156 65.7383C57.0196 66.1848 56.9436 66.6291 56.791 67.0498C56.6164 67.5309 56.3444 67.9715 55.9932 68.3438C55.7801 68.5696 55.5398 68.7666 55.2793 68.9326V71.5986C55.2792 72.367 55.0679 73.1305 54.6504 73.7441C54.2382 74.3499 53.5118 74.9443 52.5176 74.9443H47.4775C46.4848 74.9443 45.7589 74.3498 45.3477 73.7461C44.9302 73.1332 44.7188 72.369 44.7188 71.5986V68.9277C44.4598 68.7625 44.2207 68.5671 44.0088 68.3428C43.6582 67.9716 43.3873 67.5322 43.2119 67.0527C43.0461 66.5994 42.9703 66.1187 42.9863 65.6367L42.9932 64.7871C42.9965 64.5323 42.9998 64.3194 42.999 64.126C42.9974 63.7331 42.9795 63.5042 42.9453 63.333C42.8989 63.1006 42.8071 62.8354 42.1885 62.1953L41.8379 61.8604C41.4724 61.5258 41.0505 61.172 40.4668 60.6328C39.7572 59.9773 38.9595 59.1751 38.2168 58.1719C36.8013 56.2598 35.6474 53.6976 35.5088 50.1191L35.4941 49.3906C35.4829 47.3871 35.8862 45.4027 36.6787 43.5625C37.4724 41.7195 38.6399 40.061 40.1064 38.6914C41.5729 37.3219 43.3074 36.2705 45.2002 35.6045ZM47.7188 69.5205V71.5986C47.7188 71.7467 47.7463 71.8629 47.7754 71.9443H52.2227C52.2517 71.8629 52.2792 71.7466 52.2793 71.5986V69.5205H47.7188ZM33.0566 61.3398C33.6405 60.7524 34.5901 60.7495 35.1777 61.333C35.7653 61.917 35.7685 62.8675 35.1846 63.4551L32.0127 66.6465C31.4287 67.2337 30.4791 67.2362 29.8916 66.6523C29.3042 66.0684 29.301 65.1188 29.8848 64.5312L33.0566 61.3398ZM64.8604 61.3369C65.4459 60.7513 66.3955 60.7506 66.9814 61.3359L70.1748 64.5273C70.7608 65.1129 70.7613 66.0634 70.1758 66.6494C69.5902 67.2352 68.6406 67.2349 68.0547 66.6494L64.8604 63.458C64.2747 62.8724 64.2749 61.9228 64.8604 61.3369ZM50.8809 37.8135C49.293 37.6949 47.6973 37.9061 46.1953 38.4346C44.6934 38.9631 43.317 39.7971 42.1533 40.8838C40.9898 41.9705 40.0644 43.2868 39.4346 44.749C38.8048 46.2114 38.4842 47.7887 38.4941 49.3809V49.3906C38.4942 52.6717 39.4767 54.8317 40.6279 56.3867C41.2156 57.1805 41.8649 57.8393 42.5029 58.4287C43.0721 58.9545 43.83 59.5938 44.3096 60.0732C44.3148 60.0785 44.321 60.0845 44.3262 60.0898C45.1564 60.9453 45.6817 61.7139 45.8877 62.7461C45.9798 63.2079 45.9972 63.6699 45.999 64.1133C45.9999 64.3381 45.9964 64.5802 45.9932 64.8271C45.9898 65.0782 45.9863 65.344 45.9863 65.6367C45.9863 65.6644 45.9859 65.6921 45.9844 65.7197C45.9787 65.8226 45.9939 65.9257 46.0293 66.0225C46.0647 66.1192 46.1197 66.2074 46.1904 66.2822C46.2295 66.3236 46.2733 66.36 46.3203 66.3916C46.5029 66.4039 46.676 66.4487 46.835 66.5205H53.1621C53.3232 66.4476 53.4991 66.4022 53.6846 66.3906C53.7303 66.3599 53.7735 66.3254 53.8115 66.2852C53.8815 66.2109 53.9359 66.1232 53.9707 66.0273C54.0056 65.9313 54.0198 65.8286 54.0137 65.7266C54.0132 65.7188 54.013 65.7108 54.0127 65.7031C53.9995 65.4073 53.9841 65.1419 53.9688 64.8936C53.9537 64.6506 53.9382 64.4109 53.9287 64.1904C53.91 63.7558 53.907 63.2843 54.001 62.8027C54.2078 61.7439 54.8172 60.9705 55.6768 60.0879V60.0869C57.5655 58.1502 60.785 56.3027 61.4043 51.1455L61.4111 51.0928C61.6575 49.5198 61.5754 47.9127 61.1699 46.373C60.7643 44.8333 60.044 43.3941 59.0547 42.1465C58.0654 40.899 56.8285 39.8698 55.4219 39.124C54.0151 38.3783 52.4686 37.9321 50.8809 37.8135ZM32 48.3877C32.8283 48.3878 33.5 49.0593 33.5 49.8877C33.4999 50.7159 32.8282 51.3876 32 51.3877H27.5C26.6717 51.3877 26.0001 50.716 26 49.8877C26 49.0593 26.6716 48.3877 27.5 48.3877H32ZM72.5 48.3877C73.3284 48.3877 74 49.0593 74 49.8877C73.9999 50.716 73.3283 51.3877 72.5 51.3877H67.998C67.1697 51.3877 66.4982 50.716 66.498 49.8877C66.498 49.0593 67.1696 48.3877 67.998 48.3877H72.5ZM48.083 40.5127C48.9114 40.5123 49.5836 41.1833 49.584 42.0117C49.5843 42.84 48.9132 43.5122 48.085 43.5127C47.0332 43.5132 46.0238 43.9309 45.2803 44.6748C44.5369 45.4187 44.1191 46.4278 44.1191 47.4795C44.119 48.3078 43.4475 48.9795 42.6191 48.9795C41.791 48.9793 41.1193 48.3077 41.1191 47.4795C41.1191 45.6323 41.8533 43.8602 43.1592 42.5537C44.465 41.2475 46.236 40.5136 48.083 40.5127ZM32.3477 30.8682C32.9357 30.2846 33.8852 30.2879 34.4688 30.876L37.6406 34.0723C38.224 34.6603 38.2198 35.6099 37.6318 36.1934C37.0438 36.7768 36.0942 36.7735 35.5107 36.1855L32.3389 32.9893C31.7555 32.4012 31.7597 31.4517 32.3477 30.8682ZM65.5996 30.874C66.1854 30.2886 67.135 30.2885 67.7207 30.874C68.3065 31.4598 68.3065 32.4103 67.7207 32.9961L64.5264 36.1895C63.9406 36.775 62.991 36.7752 62.4053 36.1895C61.8197 35.6037 61.8197 34.6541 62.4053 34.0684L65.5996 30.874ZM49.999 25C50.8273 25.0001 51.499 25.6717 51.499 26.5V30.1406C51.499 30.9689 50.8273 31.6405 49.999 31.6406C49.1706 31.6406 48.4991 30.969 48.499 30.1406V26.5C48.499 25.6716 49.1706 25 49.999 25Z" fill="url(#paint0_linear_19712_34160)"/>
</g>
<defs>
<filter id="filter0_d_19712_34160" x="22" y="23" width="56" height="57.9453" filterUnits="userSpaceOnUse" color-interpolation-filters="sRGB">
<feFlood flood-opacity="0" result="BackgroundImageFix"/>
<feColorMatrix in="SourceAlpha" type="matrix" values="0 0 0 0 0 0 0 0 0 0 0 0 0 0 0 0 0 0 127 0" result="hardAlpha"/>
<feOffset dy="2"/>
<feGaussianBlur stdDeviation="2"/>
<feComposite in2="hardAlpha" operator="out"/>
<feColorMatrix type="matrix" values="0 0 0 0 0 0 0 0 0 1 0 0 0 0 1 0 0 0 0.25 0"/>
<feBlend mode="normal" in2="BackgroundImageFix" result="effect1_dropShadow_19712_34160"/>
<feBlend mode="normal" in="SourceGraphic" in2="effect1_dropShadow_19712_34160" result="shape"/>
</filter>
<linearGradient id="paint0_linear_19712_34160" x1="65.835" y1="33.41" x2="46.3355" y2="68.9096" gradientUnits="userSpaceOnUse">
<stop stop-color="#00FFFF"/>
<stop offset="1" stop-color="#00FF9F"/>
</linearGradient>
</defs>
</svg>
