<svg width="100" height="100" viewBox="0 0 100 100" fill="none" xmlns="http://www.w3.org/2000/svg">
<path d="M35.4932 31.2492C35.4925 32.6407 34.9391 33.9749 33.9546 34.9583C32.9702 35.9418 31.6354 36.4939 30.244 36.4932C28.8525 36.4925 27.5183 35.9391 26.5348 34.9546C25.5514 33.9702 24.9993 32.6354 25 31.244C25.0007 29.8525 25.5541 28.5183 26.5385 27.5348C27.523 26.5514 28.8577 25.9993 30.2492 26C31.6407 26.0007 32.9749 26.5541 33.9583 27.5385C34.9418 28.523 35.4939 29.8577 35.4932 31.2492ZM35.6506 40.3783H25.1574V73.2219H35.6506V40.3783ZM52.2298 40.3783H41.7891V73.2219H52.1249V55.9869C52.1249 46.3856 64.638 45.4937 64.638 55.9869V73.2219H75V52.4192C75 36.2335 56.4795 36.8368 52.1249 44.7854L52.2298 40.3783Z" fill="#051B34"/>
</svg>
