<svg width="100" height="100" viewBox="0 0 100 100" fill="none" xmlns="http://www.w3.org/2000/svg">
<g filter="url(#filter0_d_19711_34105)">
<path d="M54.012 27C56.8687 27.0002 59.1837 29.3175 59.1839 32.1719C59.184 32.4699 59.2625 32.7634 59.4115 33.0215C59.5604 33.2794 59.7747 33.4935 60.0326 33.6426C60.2905 33.7917 60.5832 33.8707 60.8812 33.8711C61.1792 33.8714 61.4725 33.7931 61.7308 33.6445C62.9179 32.9593 64.3287 32.7734 65.6527 33.1279C66.9769 33.4826 68.1066 34.349 68.7923 35.5361L72.307 41.6162C72.6466 42.2044 72.8668 42.8539 72.9554 43.5273C73.0441 44.2007 72.9993 44.885 72.8236 45.541C72.6477 46.1972 72.3436 46.8127 71.93 47.3516C71.5164 47.8904 71.0007 48.3431 70.4124 48.6826C70.1546 48.8317 69.9403 49.0458 69.7913 49.3037C69.6423 49.5619 69.5638 49.8552 69.5638 50.1533C69.5638 50.4515 69.6423 50.7447 69.7913 51.0029C69.9403 51.2611 70.1544 51.4758 70.4124 51.625C71.6001 52.3108 72.4674 53.44 72.8226 54.7646C73.1777 56.0892 72.9921 57.5007 72.307 58.6885L68.7943 64.7705C68.4547 65.3586 68.003 65.8747 67.4642 66.2881C66.9255 66.7013 66.3104 67.004 65.6546 67.1797C64.9987 67.3553 64.3142 67.4003 63.641 67.3115C62.9678 67.2227 62.3188 67.0018 61.7308 66.6621C61.4725 66.5135 61.1792 66.4352 60.8812 66.4355C60.5832 66.4359 60.2905 66.5149 60.0326 66.6641C59.7746 66.8132 59.5604 67.028 59.4115 67.2861C59.2626 67.5442 59.184 67.8368 59.1839 68.1348C59.1839 70.9894 56.8687 73.3047 54.014 73.3047H46.9915C44.1349 73.3045 41.8199 70.9895 41.8197 68.1328C41.8194 67.8346 41.7404 67.5413 41.5912 67.2832C41.4419 67.0252 41.2273 66.811 40.9691 66.6621C40.7108 66.5132 40.4176 66.4345 40.1195 66.4346C39.8215 66.4347 39.5289 66.5132 39.2708 66.6621C38.6826 67.0018 38.0331 67.2228 37.3597 67.3115C36.6862 67.4002 36.0012 67.3546 35.3451 67.1787C34.6891 67.0029 34.0742 66.6996 33.5355 66.2861C32.9966 65.8725 32.544 65.3569 32.2044 64.7686L28.6947 58.6885C28.355 58.1002 28.1349 57.4508 28.0462 56.7773C27.9576 56.1039 28.0023 55.4197 28.1781 54.7637C28.3539 54.1075 28.6571 53.492 29.0706 52.9531C29.4843 52.4142 29.9999 51.9616 30.5882 51.6221C30.8464 51.4732 31.0612 51.2591 31.2103 51.001C31.3593 50.743 31.4378 50.4503 31.4378 50.1523C31.4378 49.8544 31.3593 49.5617 31.2103 49.3037C31.0612 49.0456 30.8464 48.8315 30.5882 48.6826C29.9997 48.3433 29.4835 47.8904 29.0697 47.3516C28.656 46.8129 28.3521 46.198 28.1761 45.542C28 44.8858 27.9558 44.2009 28.0443 43.5273C28.1328 42.8539 28.3532 42.2045 28.6927 41.6162L32.2025 35.5391C32.542 34.9507 32.9937 34.4341 33.5326 34.0205C34.0714 33.6069 34.6869 33.3038 35.3431 33.1279C35.9991 32.9521 36.6834 32.9075 37.3568 32.9961C38.0301 33.0847 38.6797 33.305 39.2679 33.6445C39.5263 33.7937 39.8201 33.8721 40.1185 33.8721C40.4168 33.872 40.7098 33.7937 40.9681 33.6445C41.2264 33.4953 41.4411 33.2808 41.5902 33.0225C41.7393 32.764 41.8179 32.4702 41.8177 32.1719C41.8179 29.3151 44.1327 27 46.9896 27H54.012ZM46.9915 30.4727C46.0542 30.4729 45.2925 31.2345 45.2923 32.1719C45.2923 36.154 40.9842 38.6431 37.5345 36.6523C37.3412 36.5407 37.127 36.4676 36.9056 36.4385C36.6845 36.4094 36.4599 36.4247 36.2445 36.4824C36.0288 36.5403 35.8258 36.6404 35.6488 36.7764C35.4719 36.9123 35.3237 37.0821 35.2122 37.2754L31.6995 43.3525C31.588 43.546 31.5156 43.76 31.4867 43.9814C31.4578 44.2028 31.4726 44.428 31.5306 44.6436C31.5887 44.8591 31.6893 45.0614 31.8255 45.2383C31.9275 45.3707 32.0484 45.4871 32.1839 45.584L32.3245 45.6729C35.7719 47.6639 35.7719 52.6407 32.3245 54.6318C31.9346 54.857 31.6503 55.2282 31.5335 55.6631C31.4168 56.0981 31.4777 56.5619 31.7025 56.9521L35.2122 63.0322C35.3237 63.2255 35.4718 63.3953 35.6488 63.5312C35.8258 63.6672 36.0288 63.7664 36.2445 63.8242C36.4599 63.882 36.6845 63.8972 36.9056 63.8682C37.127 63.839 37.3412 63.766 37.5345 63.6543C40.9818 61.6637 45.2923 64.1508 45.2923 68.1328C45.2924 68.5834 45.4718 69.0154 45.7904 69.334C46.109 69.6526 46.541 69.8319 46.9915 69.832H54.014C54.4639 69.8314 54.8951 69.6521 55.2132 69.334C55.5313 69.0159 55.7106 68.5847 55.7113 68.1348C55.7113 64.1549 60.0198 61.6634 63.4671 63.6543C63.6601 63.766 63.8731 63.8389 64.0941 63.8682C64.3151 63.8974 64.5399 63.8827 64.7552 63.8252C64.9707 63.7676 65.173 63.668 65.3499 63.5322C65.5268 63.3965 65.675 63.2273 65.7865 63.0342L69.2992 56.9521C69.7668 56.1395 69.4864 55.0995 68.6761 54.6318C65.2269 52.643 65.2268 47.6659 68.6761 45.6748C69.4887 45.2048 69.7668 44.1652 69.2992 43.3525L65.7865 37.2725C65.675 37.0795 65.5268 36.9101 65.3499 36.7744C65.173 36.6387 64.9706 36.5391 64.7552 36.4814C64.5399 36.4239 64.315 36.4092 64.0941 36.4385C63.8731 36.4678 63.6601 36.5407 63.4671 36.6523C60.0198 38.6411 55.7113 36.1541 55.7113 32.1719C55.7111 31.2344 54.9515 30.4727 54.014 30.4727H46.9915ZM50.5013 41.2715C52.8561 41.2715 55.1146 42.207 56.7796 43.8721C58.4446 45.5372 59.3802 47.7957 59.3802 50.1504C59.3802 52.5051 58.4447 54.7636 56.7796 56.4287C55.1146 58.0938 52.8561 59.0292 50.5013 59.0293C48.1466 59.0293 45.8881 58.0937 44.223 56.4287C42.5579 54.7636 41.6225 52.5051 41.6224 50.1504C41.6224 47.7956 42.5579 45.5372 44.223 43.8721C45.8881 42.207 48.1465 41.2715 50.5013 41.2715ZM50.4964 44.7461C49.0627 44.7461 47.688 45.3163 46.6742 46.3301C45.6604 47.3439 45.0902 48.7186 45.0902 50.1523C45.0902 51.5861 45.6603 52.9618 46.6742 53.9756C47.6879 54.9892 49.0628 55.5586 50.4964 55.5586C51.93 55.5586 53.3049 54.9892 54.3187 53.9756C55.3325 52.9618 55.9027 51.5861 55.9027 50.1523C55.9026 48.7186 55.3325 47.3439 54.3187 46.3301C53.3049 45.3163 51.9302 44.7461 50.4964 44.7461Z" fill="url(#paint0_linear_19711_34105)"/>
</g>
<defs>
<filter id="filter0_d_19711_34105" x="24" y="25" width="53" height="54.3047" filterUnits="userSpaceOnUse" color-interpolation-filters="sRGB">
<feFlood flood-opacity="0" result="BackgroundImageFix"/>
<feColorMatrix in="SourceAlpha" type="matrix" values="0 0 0 0 0 0 0 0 0 0 0 0 0 0 0 0 0 0 127 0" result="hardAlpha"/>
<feOffset dy="2"/>
<feGaussianBlur stdDeviation="2"/>
<feComposite in2="hardAlpha" operator="out"/>
<feColorMatrix type="matrix" values="0 0 0 0 0 0 0 0 0 1 0 0 0 0 1 0 0 0 0.25 0"/>
<feBlend mode="normal" in2="BackgroundImageFix" result="effect1_dropShadow_19711_34105"/>
<feBlend mode="normal" in="SourceGraphic" in2="effect1_dropShadow_19711_34105" result="shape"/>
</filter>
<linearGradient id="paint0_linear_19711_34105" x1="65" y1="34" x2="43" y2="66" gradientUnits="userSpaceOnUse">
<stop stop-color="#00FFFF"/>
<stop offset="1" stop-color="#00FF9F"/>
</linearGradient>
</defs>
</svg>
