<svg width="100" height="100" viewBox="0 0 100 100" fill="none" xmlns="http://www.w3.org/2000/svg">
<g filter="url(#filter0_d_19712_34160)">
<path d="M50.501 25.7725C64.1573 25.7727 75.2275 36.8437 75.2275 50.5C75.2273 64.1562 64.1571 75.2263 50.501 75.2266C36.8446 75.2266 25.7736 64.1563 25.7734 50.5C25.7734 36.8435 36.8445 25.7725 50.501 25.7725ZM50.501 29.7725C39.0536 29.7725 29.7734 39.0526 29.7734 50.5C29.7736 61.9472 39.0537 71.2266 50.501 71.2266C61.948 71.2263 71.2273 61.947 71.2275 50.5C71.2275 39.0528 61.9481 29.7727 50.501 29.7725ZM50.5 34.8613C51.6046 34.8613 52.5 35.7568 52.5 36.8613V49.2607L60.4854 53.2539C61.4731 53.7479 61.8738 54.9496 61.3799 55.9375C60.8858 56.9251 59.6841 57.3258 58.6963 56.832L49.6055 52.2861C48.9283 51.9474 48.5003 51.2552 48.5 50.498V36.8613C48.5 35.7568 49.3954 34.8613 50.5 34.8613Z" fill="url(#paint0_linear_19712_34160)"/>
</g>
<defs>
<filter id="filter0_d_19712_34160" x="21.7734" y="23.7734" width="57.4541" height="57.4531" filterUnits="userSpaceOnUse" color-interpolation-filters="sRGB">
<feFlood flood-opacity="0" result="BackgroundImageFix"/>
<feColorMatrix in="SourceAlpha" type="matrix" values="0 0 0 0 0 0 0 0 0 0 0 0 0 0 0 0 0 0 127 0" result="hardAlpha"/>
<feOffset dy="2"/>
<feGaussianBlur stdDeviation="2"/>
<feComposite in2="hardAlpha" operator="out"/>
<feColorMatrix type="matrix" values="0 0 0 0 0 0 0 0 0 1 0 0 0 0 1 0 0 0 0.25 0"/>
<feBlend mode="normal" in2="BackgroundImageFix" result="effect1_dropShadow_19712_34160"/>
<feBlend mode="normal" in="SourceGraphic" in2="effect1_dropShadow_19712_34160" result="shape"/>
</filter>
<linearGradient id="paint0_linear_19712_34160" x1="66.6121" y1="32.7222" x2="35.501" y2="69.9444" gradientUnits="userSpaceOnUse">
<stop stop-color="#00FFFF"/>
<stop offset="1" stop-color="#00FF9F"/>
</linearGradient>
</defs>
</svg>
