<svg width="100" height="100" viewBox="0 0 100 100" fill="none" xmlns="http://www.w3.org/2000/svg">
<path fill-rule="evenodd" clip-rule="evenodd" d="M51.1729 24C60.9018 24.0002 69.9521 30.6958 69.9521 41.1738C69.9521 45.9633 68.73 51.0454 66.1025 54.9541C63.4579 58.8882 59.3827 61.6318 53.7783 61.6318C52.4142 61.6318 50.8845 61.2931 49.5225 60.6387C48.6708 60.2294 47.8612 59.6848 47.1982 59.001C46.3161 62.5831 45.7983 64.9047 45.0156 67C44.1102 69.4236 42.8501 71.5499 40.3184 75.0332L40.1973 75.2002L40.0068 75.2812C39.8916 75.3306 39.853 75.3534 39.7598 75.3965C39.726 75.4121 39.6556 75.4438 39.5732 75.4668C39.4821 75.4923 39.3356 75.5185 39.1621 75.4814C38.8432 75.4131 38.6601 75.1673 38.6484 75.1533C38.5843 75.0779 38.5579 75.0414 38.4785 74.9541L38.3096 74.7686L38.2861 74.5195C38.1131 72.6856 37.8193 70.7466 37.8193 68.8076C37.8194 65.644 38.5431 61.8228 39.4238 58.0898C39.8657 56.2169 40.3505 54.3506 40.8105 52.5869C41.2459 50.9178 41.6558 49.3434 41.9912 47.9277C41.2648 46.2986 41.0684 44.4196 41.0684 42.7803C41.0684 38.4587 43.6351 35.8207 46.3652 35.2705C47.7179 34.998 49.1254 35.2434 50.2061 36.0967C51.2987 36.9596 51.958 38.3652 51.958 40.21C51.9579 42.3054 51.2473 44.3196 50.5947 46.1758C49.9245 48.0822 49.3164 49.8228 49.3164 51.5635C49.3165 53.6908 51.0546 55.2049 53.207 55.2051C56.2083 55.2051 58.2715 53.0564 59.6221 50.0059C60.9662 46.9698 61.4902 43.2585 61.4902 40.6738C61.4902 37.3108 60.306 34.7757 58.375 33.0732C56.4316 31.36 53.659 30.4268 50.3867 30.4268C42.8466 30.4268 37.0694 35.7959 37.0693 43.4229C37.0693 45.1871 37.6062 46.5271 38.1592 47.5576C38.4469 48.0939 38.7125 48.502 38.9561 48.9189C39.0702 49.1144 39.1812 49.317 39.2646 49.5127C39.3453 49.7017 39.4258 49.9436 39.4258 50.207C39.4257 50.7026 39.2624 51.6695 38.9756 52.5107C38.8311 52.9344 38.6377 53.3814 38.3818 53.7373C38.1424 54.0703 37.7236 54.4911 37.1055 54.4912C36.3068 54.4912 35.4636 54.16 34.6777 53.6182C33.8831 53.0702 33.1001 52.276 32.4111 51.2676C31.031 49.2474 30 46.3308 30 42.6729C30.0002 31.0514 40.6308 24 51.1729 24Z" fill="#051B34"/>
</svg>
