<svg width="100" height="100" viewBox="0 0 100 100" fill="none" xmlns="http://www.w3.org/2000/svg">
<g filter="url(#filter0_d_19710_34102)">
<path d="M24.491 62.0113H43.6323C43.9818 62.0113 44.2651 62.2946 44.2651 62.6441V68.4972C44.2651 68.8466 43.9818 69.1299 43.6323 69.1299H37.9374C37.0637 69.1299 36.3555 69.8382 36.3555 70.7119C36.3555 71.5855 37.0637 72.2938 37.9374 72.2938H53.7566C54.6303 72.2938 55.3385 71.5855 55.3385 70.7119C55.3385 69.8382 54.6303 69.1299 53.7566 69.1299H48.0617C47.7122 69.1299 47.4289 68.8466 47.4289 68.4972V62.6441C47.4289 62.2946 47.7122 62.0113 48.0617 62.0113H67.2029C67.832 62.0105 68.4351 61.7603 68.8799 61.3154C69.3248 60.8706 69.575 60.2675 69.5758 59.6384V30.3729C69.575 29.7438 69.3248 29.1407 68.8799 28.6959C68.4351 28.251 67.832 28.0008 67.2029 28H24.491C23.862 28.0008 23.2589 28.251 22.814 28.6959C22.3692 29.1407 22.1189 29.7438 22.1182 30.3729V59.6384C22.1189 60.2675 22.3692 60.8706 22.814 61.3154C23.2589 61.7603 23.862 62.0105 24.491 62.0113ZM25.282 31.7966C25.282 31.4471 25.5653 31.1638 25.9148 31.1638H66.4119V58.2147C66.4119 58.5642 66.1286 58.8475 65.7792 58.8475H25.9148C25.5653 58.8475 25.282 58.5642 25.282 58.2147V31.7966Z" fill="url(#paint0_linear_19710_34102)"/>
<path d="M25.282 31.7966C25.282 31.4471 25.5653 31.1638 25.9148 31.1638H66.4119V58.2147C66.4119 58.5642 66.1286 58.8475 65.7792 58.8475H25.9148C25.5653 58.8475 25.282 58.5642 25.282 58.2147V31.7966Z" fill="#051B34"/>
</g>
<g filter="url(#filter1_d_19710_34102)">
<path d="M82.3212 45.9961H63.9505C62.4809 45.9961 61.2715 47.2055 61.2715 48.6752V70.1076C61.2715 71.5773 62.4809 72.7867 63.9505 72.7867H82.3212C83.7909 72.7867 85.0003 71.5773 85.0003 70.1076V48.6752C85.0003 47.2055 83.7909 45.9961 82.3212 45.9961ZM82.704 70.1076C82.704 70.322 82.5356 70.4904 82.3212 70.4904H63.9505C63.7362 70.4904 63.5678 70.322 63.5678 70.1076V48.6752C63.5678 48.4608 63.7362 48.2924 63.9505 48.2924H82.3212C82.5356 48.2924 82.704 48.4608 82.704 48.6752V70.1076ZM74.6668 65.515C74.6668 66.3569 73.9779 67.0458 73.1359 67.0458C72.2939 67.0458 71.605 66.3569 71.605 65.515C71.605 64.673 72.2939 63.9841 73.1359 63.9841C73.9779 63.9841 74.6668 64.673 74.6668 65.515Z" fill="url(#paint1_linear_19710_34102)"/>
<path fill-rule="evenodd" clip-rule="evenodd" d="M82.704 70.1076C82.704 70.322 82.5356 70.4904 82.3212 70.4904H63.9505C63.7362 70.4904 63.5678 70.322 63.5678 70.1076V48.6752C63.5678 48.4608 63.7362 48.2924 63.9505 48.2924H82.3212C82.5356 48.2924 82.704 48.4608 82.704 48.6752V70.1076ZM73.1359 67.0458C73.9779 67.0458 74.6668 66.3569 74.6668 65.515C74.6668 64.673 73.9779 63.9841 73.1359 63.9841C72.2939 63.9841 71.605 64.673 71.605 65.515C71.605 66.3569 72.2939 67.0458 73.1359 67.0458Z" fill="#051B34"/>
</g>
<g filter="url(#filter2_d_19710_34102)">
<path d="M26.5678 48.3711C27.2758 48.3711 27.9548 48.6523 28.4554 49.153C28.956 49.6536 29.2373 50.3326 29.2373 51.0406V69.4304C29.2373 70.1384 28.956 70.8174 28.4554 71.318C27.9548 71.8187 27.2758 72.0999 26.5678 72.0999H17.6695C16.9615 72.0999 16.2825 71.8187 15.7819 71.318C15.2812 70.8174 15 70.1384 15 69.4304V51.0406C15 50.3326 15.2812 49.6536 15.7819 49.153C16.2825 48.6523 16.9615 48.3711 17.6695 48.3711H26.5678ZM26.5678 50.1508H17.6695C17.4335 50.1508 17.2072 50.2445 17.0403 50.4114C16.8734 50.5783 16.7797 50.8046 16.7797 51.0406V69.4304C16.7797 69.9216 17.1783 70.3202 17.6695 70.3202H26.5678C26.8038 70.3202 27.0301 70.2265 27.197 70.0596C27.3639 69.8927 27.4576 69.6664 27.4576 69.4304V51.0406C27.4576 50.8046 27.3639 50.5783 27.197 50.4114C27.0301 50.2445 26.8038 50.1508 26.5678 50.1508ZM23.6005 66.7609C23.8365 66.7606 24.063 66.8541 24.2301 67.0207C24.3972 67.1874 24.4912 67.4136 24.4915 67.6496C24.4918 67.8856 24.3984 68.112 24.2317 68.2791C24.0651 68.4462 23.8389 68.5403 23.6029 68.5406L20.6368 68.5453C20.4008 68.5456 20.1743 68.4522 20.0072 68.2855C19.8401 68.1189 19.7461 67.8927 19.7458 67.6567C19.7454 67.4207 19.8389 67.1942 20.0055 67.0271C20.1722 66.86 20.3984 66.766 20.6344 66.7657L23.6005 66.7609Z" fill="url(#paint2_linear_19710_34102)"/>
<path fill-rule="evenodd" clip-rule="evenodd" d="M26.5678 50.1508H17.6695C17.4335 50.1508 17.2072 50.2445 17.0403 50.4114C16.8734 50.5783 16.7797 50.8046 16.7797 51.0406V69.4304C16.7797 69.9216 17.1783 70.3202 17.6695 70.3202H26.5678C26.8038 70.3202 27.0301 70.2265 27.197 70.0596C27.3639 69.8927 27.4576 69.6664 27.4576 69.4304V51.0406C27.4576 50.8046 27.3639 50.5783 27.197 50.4114C27.0301 50.2445 26.8038 50.1508 26.5678 50.1508ZM24.2301 67.0207C24.063 66.8541 23.8365 66.7606 23.6005 66.7609L20.6344 66.7657C20.3984 66.766 20.1722 66.86 20.0055 67.0271C19.8389 67.1942 19.7454 67.4207 19.7458 67.6567C19.7461 67.8927 19.8401 68.1189 20.0072 68.2855C20.1743 68.4522 20.4008 68.5456 20.6368 68.5453L23.6029 68.5406C23.8389 68.5403 24.0651 68.4462 24.2317 68.2791C24.3984 68.112 24.4918 67.8856 24.4915 67.6496C24.4912 67.4136 24.3972 67.1874 24.2301 67.0207Z" fill="#051B34"/>
</g>
<defs>
<filter id="filter0_d_19710_34102" x="17.3724" y="25.6271" width="56.9495" height="53.7845" filterUnits="userSpaceOnUse" color-interpolation-filters="sRGB">
<feFlood flood-opacity="0" result="BackgroundImageFix"/>
<feColorMatrix in="SourceAlpha" type="matrix" values="0 0 0 0 0 0 0 0 0 0 0 0 0 0 0 0 0 0 127 0" result="hardAlpha"/>
<feOffset dy="2.37288"/>
<feGaussianBlur stdDeviation="2.37288"/>
<feComposite in2="hardAlpha" operator="out"/>
<feColorMatrix type="matrix" values="0 0 0 0 0 0 0 0 0 1 0 0 0 0 1 0 0 0 0.25 0"/>
<feBlend mode="normal" in2="BackgroundImageFix" result="effect1_dropShadow_19710_34102"/>
<feBlend mode="normal" in="SourceGraphic" in2="effect1_dropShadow_19710_34102" result="shape"/>
</filter>
<filter id="filter1_d_19710_34102" x="56.5257" y="43.6232" width="33.22" height="36.2806" filterUnits="userSpaceOnUse" color-interpolation-filters="sRGB">
<feFlood flood-opacity="0" result="BackgroundImageFix"/>
<feColorMatrix in="SourceAlpha" type="matrix" values="0 0 0 0 0 0 0 0 0 0 0 0 0 0 0 0 0 0 127 0" result="hardAlpha"/>
<feOffset dy="2.37288"/>
<feGaussianBlur stdDeviation="2.37288"/>
<feComposite in2="hardAlpha" operator="out"/>
<feColorMatrix type="matrix" values="0 0 0 0 0 0 0 0 0 1 0 0 0 0 1 0 0 0 0.25 0"/>
<feBlend mode="normal" in2="BackgroundImageFix" result="effect1_dropShadow_19710_34102"/>
<feBlend mode="normal" in="SourceGraphic" in2="effect1_dropShadow_19710_34102" result="shape"/>
</filter>
<filter id="filter2_d_19710_34102" x="10.2542" y="45.9982" width="23.7288" height="33.222" filterUnits="userSpaceOnUse" color-interpolation-filters="sRGB">
<feFlood flood-opacity="0" result="BackgroundImageFix"/>
<feColorMatrix in="SourceAlpha" type="matrix" values="0 0 0 0 0 0 0 0 0 0 0 0 0 0 0 0 0 0 127 0" result="hardAlpha"/>
<feOffset dy="2.37288"/>
<feGaussianBlur stdDeviation="2.37288"/>
<feComposite in2="hardAlpha" operator="out"/>
<feColorMatrix type="matrix" values="0 0 0 0 0 0 0 0 0 1 0 0 0 0 1 0 0 0 0.25 0"/>
<feBlend mode="normal" in2="BackgroundImageFix" result="effect1_dropShadow_19710_34102"/>
<feBlend mode="normal" in="SourceGraphic" in2="effect1_dropShadow_19710_34102" result="shape"/>
</filter>
<linearGradient id="paint0_linear_19710_34102" x1="45.847" y1="28" x2="45.847" y2="72.2938" gradientUnits="userSpaceOnUse">
<stop stop-color="#00FFFF"/>
<stop offset="1" stop-color="#00FF9F"/>
</linearGradient>
<linearGradient id="paint1_linear_19710_34102" x1="73.1359" y1="45.9961" x2="73.1359" y2="72.7867" gradientUnits="userSpaceOnUse">
<stop stop-color="#00FFFF"/>
<stop offset="1" stop-color="#00FF9F"/>
</linearGradient>
<linearGradient id="paint2_linear_19710_34102" x1="22.1186" y1="48.3711" x2="22.1186" y2="72.0999" gradientUnits="userSpaceOnUse">
<stop stop-color="#00FFFF"/>
<stop offset="1" stop-color="#00FF9F"/>
</linearGradient>
</defs>
</svg>
