<svg width="100" height="100" viewBox="0 0 100 100" fill="none" xmlns="http://www.w3.org/2000/svg">
<g filter="url(#filter0_d_19712_34160)">
<path d="M46.264 42.7747C49.4604 42.7218 52.7661 44.0033 54.9095 47.0237C55.5629 47.9449 55.3461 49.2216 54.4251 49.8753C53.5039 50.5289 52.2273 50.3119 51.5735 49.3909C50.3302 47.6388 48.398 46.8313 46.3313 46.8655C44.229 46.9004 42.1423 47.8134 40.805 49.3206C40.7752 49.3542 40.7441 49.3867 40.7122 49.4183L33.7747 56.2698C32.1256 58.0838 31.3554 60.0776 31.3421 61.9554C31.3289 63.83 32.067 65.7627 33.7522 67.4798H33.7513C36.9159 70.7027 41.6345 70.7027 44.7991 67.4798L44.8118 67.4661L51.7952 60.4827C52.594 59.6842 53.8891 59.6842 54.6878 60.4827C55.4862 61.2814 55.4862 62.5766 54.6878 63.3753L47.7171 70.345C42.9491 75.2009 35.6003 75.2018 30.8323 70.346V70.345C28.4537 67.9214 27.2298 64.9707 27.2513 61.9261C27.2728 58.8945 28.5267 55.9435 30.7835 53.4778L30.8548 53.4036L37.8011 46.5442C39.9545 44.1554 43.1298 42.8267 46.264 42.7747ZM51.7972 29.054C56.4911 24.2875 63.6766 24.2173 68.4436 28.844L68.6692 29.0677L69.1009 29.5276C71.1912 31.8527 72.2706 34.603 72.2503 37.4436C72.2286 40.4599 70.9697 43.3879 68.7181 45.8479C68.6991 45.8687 68.6793 45.8895 68.6595 45.9095L61.7337 52.8733C59.5971 55.2413 56.4381 56.6347 53.304 56.7591C50.1003 56.8861 46.7547 55.6816 44.5921 52.6341C43.9383 51.7128 44.1552 50.4353 45.0765 49.7815C45.9976 49.1285 47.2744 49.3452 47.928 50.2659C49.1521 51.9909 51.0632 52.7546 53.1419 52.6722C55.2608 52.588 57.3804 51.6183 58.7347 50.0921C58.7602 50.0633 58.7876 50.0354 58.8147 50.0081L65.72 43.0638C67.3787 41.2425 68.1462 39.2663 68.1595 37.4144C68.1726 35.5688 67.4399 33.6565 65.7493 31.9339V31.9329C62.5847 28.7105 57.8669 28.7113 54.7024 31.9339C54.6982 31.9382 54.694 31.9433 54.6897 31.9476L47.7063 38.93C46.9076 39.7287 45.6126 39.7286 44.8138 38.93C44.0151 38.1312 44.015 36.8362 44.8138 36.0374L51.7972 29.054Z" fill="url(#paint0_linear_19712_34160)"/>
</g>
<defs>
<filter id="filter0_d_19712_34160" x="23.6147" y="23.6076" width="52.2726" height="55.8351" filterUnits="userSpaceOnUse" color-interpolation-filters="sRGB">
<feFlood flood-opacity="0" result="BackgroundImageFix"/>
<feColorMatrix in="SourceAlpha" type="matrix" values="0 0 0 0 0 0 0 0 0 0 0 0 0 0 0 0 0 0 127 0" result="hardAlpha"/>
<feOffset dy="1.81816"/>
<feGaussianBlur stdDeviation="1.81816"/>
<feComposite in2="hardAlpha" operator="out"/>
<feColorMatrix type="matrix" values="0 0 0 0 0 0 0 0 0 1 0 0 0 0 1 0 0 0 0.25 0"/>
<feBlend mode="normal" in2="BackgroundImageFix" result="effect1_dropShadow_19712_34160"/>
<feBlend mode="normal" in="SourceGraphic" in2="effect1_dropShadow_19712_34160" result="shape"/>
</filter>
<linearGradient id="paint0_linear_19712_34160" x1="67.0233" y1="29.7439" x2="32.478" y2="67.9254" gradientUnits="userSpaceOnUse">
<stop stop-color="#00FFFF"/>
<stop offset="1" stop-color="#00FF9F"/>
</linearGradient>
</defs>
</svg>
