<svg width="100" height="100" viewBox="0 0 100 100" fill="none" xmlns="http://www.w3.org/2000/svg">
<g filter="url(#filter0_d_19712_34160)">
<path d="M79.6044 46.072L73.6227 34.1038C73.4023 33.6633 73.0973 33.2706 72.7252 32.9479C72.353 32.6253 71.9209 32.3791 71.4536 32.2235C70.9863 32.0679 70.4929 32.0058 70.0016 32.0409C69.5103 32.076 69.0307 32.2075 68.5902 32.4279L62.7609 35.3414L50.481 32.0927C50.1659 32.0108 49.8351 32.0108 49.52 32.0927L37.2401 35.3414L31.4107 32.4279C30.9702 32.2075 30.4907 32.076 29.9994 32.0409C29.5081 32.0058 29.0147 32.0679 28.5473 32.2235C28.08 32.3791 27.6479 32.6253 27.2758 32.9479C26.9036 33.2706 26.5986 33.6633 26.3783 34.1038L20.3965 46.0696C20.1761 46.5101 20.0446 46.9897 20.0095 47.481C19.9744 47.9723 20.0365 48.4657 20.1921 48.933C20.3477 49.4003 20.5939 49.8324 20.9165 50.2046C21.2392 50.5767 21.6319 50.8817 22.0725 51.1021L28.4011 54.2687L41.4076 63.5578C41.5994 63.6939 41.8147 63.7933 42.0428 63.8508L57.044 67.6011C57.3582 67.6798 57.6874 67.6759 57.9995 67.5896C58.3117 67.5034 58.5963 67.3377 58.8254 67.1088L68.2011 57.7331L71.7358 54.1984L77.9285 51.1021C78.8175 50.657 79.4934 49.8772 79.8077 48.934C80.122 47.9907 80.0488 46.9613 79.6044 46.072ZM66.7385 53.8937L58.673 47.4338C58.3117 47.1445 57.8561 46.999 57.394 47.0254C56.9318 47.0518 56.4957 47.2482 56.1697 47.5768C51.9952 51.7818 47.3424 51.2497 44.375 49.3746L54.5102 39.5301H61.9663L68.3441 52.2834L66.7385 53.8937ZM56.9245 63.7054L43.3015 60.2997L31.7693 52.0631L38.3323 38.937L50.0005 35.8454L52.2975 36.4525L41.7498 46.6908L41.7311 46.7119C41.334 47.1089 41.0312 47.5901 40.8449 48.1198C40.6587 48.6495 40.5938 49.2143 40.6549 49.7725C40.7161 50.3306 40.9019 50.8679 41.1985 51.3447C41.4951 51.8215 41.895 52.2256 42.3686 52.5272C47.1877 55.6048 53.0031 55.1055 57.5831 51.3552L64.0641 56.5611L56.9245 63.7054Z" fill="url(#paint0_linear_19712_34160)"/>
</g>
<defs>
<filter id="filter0_d_19712_34160" x="15.2" y="29.6312" width="69.6" height="45.225" filterUnits="userSpaceOnUse" color-interpolation-filters="sRGB">
<feFlood flood-opacity="0" result="BackgroundImageFix"/>
<feColorMatrix in="SourceAlpha" type="matrix" values="0 0 0 0 0 0 0 0 0 0 0 0 0 0 0 0 0 0 127 0" result="hardAlpha"/>
<feOffset dy="2.4"/>
<feGaussianBlur stdDeviation="2.4"/>
<feComposite in2="hardAlpha" operator="out"/>
<feColorMatrix type="matrix" values="0 0 0 0 0 0 0 0 0 1 0 0 0 0 1 0 0 0 0.25 0"/>
<feBlend mode="normal" in2="BackgroundImageFix" result="effect1_dropShadow_19712_34160"/>
<feBlend mode="normal" in="SourceGraphic" in2="effect1_dropShadow_19712_34160" result="shape"/>
</filter>
<linearGradient id="paint0_linear_19712_34160" x1="71.6" y1="41.0313" x2="42.2" y2="63.2312" gradientUnits="userSpaceOnUse">
<stop stop-color="#00FFFF"/>
<stop offset="1" stop-color="#00FF9F"/>
</linearGradient>
</defs>
</svg>
