<svg width="50" height="50" viewBox="0 0 50 50" fill="none" xmlns="http://www.w3.org/2000/svg">
<path d="M17.8827 8.5198C21.0501 2.83993 22.6326 0 25 0C27.3674 0 28.9499 2.83993 32.1173 8.5198L32.9373 9.98976C33.8373 11.6047 34.2873 12.4122 34.9873 12.9447C35.6872 13.4772 36.5622 13.6747 38.3122 14.0697L39.9021 14.4297C46.052 15.8221 49.1244 16.5171 49.8569 18.8696C50.5869 21.2195 48.4919 23.6719 44.2995 28.5743L43.2146 29.8418C42.0246 31.2343 41.4271 31.9317 41.1596 32.7917C40.8921 33.6542 40.9821 34.5842 41.1621 36.4416L41.3271 38.1341C41.9596 44.6764 42.2771 47.9464 40.3621 49.3988C38.4472 50.8513 35.5672 49.5263 29.8124 46.8764L28.3199 46.1914C26.685 45.4364 25.8675 45.0614 25 45.0614C24.1325 45.0614 23.315 45.4364 21.6801 46.1914L20.1901 46.8764C14.4327 49.5263 11.5528 50.8513 9.64036 49.4013C7.72291 47.9464 8.0404 44.6764 8.67288 38.1341L8.83788 36.4441C9.01787 34.5842 9.10787 33.6542 8.83788 32.7942C8.57289 31.9317 7.9754 31.2343 6.78543 29.8443L5.70045 28.5743C1.50805 23.6744 -0.586899 21.222 0.143084 18.8696C0.873067 16.5171 3.95049 15.8196 10.1003 14.4297L11.6903 14.0697C13.4378 13.6747 14.3103 13.4772 15.0127 12.9447C15.7152 12.4122 16.1627 11.6047 17.0627 9.98976L17.8827 8.5198Z" fill="#FFD103"/>
</svg>
