<svg width="30" height="30" viewBox="0 0 30 30" fill="none" xmlns="http://www.w3.org/2000/svg">
<g filter="url(#filter0_d_19717_34202)">
<path d="M15 7C19.4184 7 23 10.5816 23 15C23 19.4184 19.4184 23 15 23C13.6384 23.0019 12.2987 22.6551 11.1094 21.9922L10.8652 21.8496L8.44044 22.5635C8.30847 22.6024 8.1684 22.6064 8.03419 22.5762C7.89998 22.5459 7.7754 22.4823 7.67286 22.3906C7.5703 22.2989 7.49321 22.1818 7.44825 22.0518C7.40339 21.9219 7.39209 21.7828 7.41602 21.6475L7.43653 21.5596L8.1504 19.1348C7.39604 17.8878 6.99815 16.4574 7.00001 15C7.00001 10.5816 10.5816 7.00001 15 7ZM12.9629 11.1055C12.8671 11.095 12.7702 11.1095 12.6816 11.1475C11.9417 11.4643 11.3085 12.2664 11.3389 13.1016L11.3428 13.1611L11.3525 13.3018L11.3731 13.4678L11.4053 13.6582C11.5445 14.3974 11.9632 15.5825 13.1904 16.8105C14.4184 18.0377 15.6036 18.4565 16.3428 18.5957L16.5332 18.6279L16.6191 18.6396L16.7725 18.6533L16.8994 18.6611C17.7329 18.6914 18.5347 18.0623 18.8516 17.3232C18.8908 17.2316 18.9051 17.1311 18.8926 17.0322C18.8801 16.9335 18.842 16.8396 18.7813 16.7607C18.4525 16.3407 18.0365 16.0092 17.6045 15.7012L17.1699 15.3984C17.0492 15.3148 16.9009 15.2812 16.7559 15.3047C16.6107 15.3283 16.4797 15.4067 16.3916 15.5244L15.9111 16.2568L15.8809 16.293C15.8233 16.3449 15.7384 16.3574 15.668 16.3174C15.3432 16.131 14.8689 15.8144 14.5274 15.4736C14.1866 15.1328 13.8897 14.679 13.7217 14.375C13.7015 14.3363 13.6953 14.2916 13.7051 14.249C13.7149 14.2064 13.7402 14.1687 13.7754 14.1426L14.5147 13.5938L14.5742 13.5332C14.6557 13.4381 14.7033 13.3184 14.71 13.1934C14.7166 13.0685 14.6821 12.9449 14.6113 12.8418L14.4893 12.6611L14.2275 12.2822C13.9523 11.8966 13.6317 11.5014 13.2285 11.207C13.1503 11.1509 13.0587 11.116 12.9629 11.1055Z" fill="url(#paint0_linear_19717_34202)"/>
</g>
<defs>
<filter id="filter0_d_19717_34202" x="3" y="5" width="24" height="24" filterUnits="userSpaceOnUse" color-interpolation-filters="sRGB">
<feFlood flood-opacity="0" result="BackgroundImageFix"/>
<feColorMatrix in="SourceAlpha" type="matrix" values="0 0 0 0 0 0 0 0 0 0 0 0 0 0 0 0 0 0 127 0" result="hardAlpha"/>
<feOffset dy="2"/>
<feGaussianBlur stdDeviation="2"/>
<feComposite in2="hardAlpha" operator="out"/>
<feColorMatrix type="matrix" values="0 0 0 0 0 0 0 0 0 1 0 0 0 0 1 0 0 0 0.25 0"/>
<feBlend mode="normal" in2="BackgroundImageFix" result="effect1_dropShadow_19717_34202"/>
<feBlend mode="normal" in="SourceGraphic" in2="effect1_dropShadow_19717_34202" result="shape"/>
</filter>
<linearGradient id="paint0_linear_19717_34202" x1="23" y1="7" x2="9" y2="21.5" gradientUnits="userSpaceOnUse">
<stop stop-color="#00FFFF"/>
<stop offset="1" stop-color="#00FF9F"/>
</linearGradient>
</defs>
</svg>
