<svg width="38" height="37" viewBox="0 0 38 37" fill="none" xmlns="http://www.w3.org/2000/svg">
<g filter="url(#filter0_d_19561_35903)">
<path d="M29 8C29 6.34315 27.6569 5 26 5H11C9.34315 5 8 6.34315 8 8V29.7252C8 30.8021 9.10108 31.5281 10.0909 31.1039L17.9091 27.7532C18.2864 27.5915 18.7136 27.5915 19.0909 27.7532L26.9091 31.1039C27.8989 31.5281 29 30.8021 29 29.7252V8Z" fill="#E40000"/>
</g>
<g filter="url(#filter1_d_19561_35903)">
<path d="M12.5717 15.9297V15.1712L14.1634 13.7777C14.2827 13.6697 14.3842 13.571 14.468 13.4815C14.5518 13.3906 14.6158 13.2997 14.6598 13.2088C14.7038 13.1165 14.7259 13.0163 14.7259 12.9084C14.7259 12.7876 14.6996 12.6847 14.647 12.5994C14.5945 12.5128 14.522 12.446 14.4297 12.3991C14.3374 12.3523 14.2315 12.3288 14.1122 12.3288C13.9915 12.3288 13.8857 12.3537 13.7947 12.4034C13.7038 12.4517 13.6328 12.522 13.5817 12.6143C13.532 12.7067 13.5071 12.8189 13.5071 12.951H12.5078C12.5078 12.6541 12.5746 12.3977 12.7081 12.1818C12.8416 11.9659 13.0291 11.7997 13.2706 11.6832C13.5135 11.5653 13.7955 11.5064 14.1165 11.5064C14.4474 11.5064 14.7351 11.5618 14.9794 11.6726C15.2237 11.7834 15.4126 11.9382 15.5462 12.1371C15.6811 12.3345 15.7486 12.5639 15.7486 12.8253C15.7486 12.9915 15.7152 13.1562 15.6484 13.3196C15.5817 13.483 15.4616 13.6634 15.2884 13.8608C15.1165 14.0582 14.8722 14.2947 14.5554 14.5703L14.0334 15.0518V15.0795H15.8018V15.9297H12.5717ZM18.0684 15.9893C17.7502 15.9893 17.4675 15.9318 17.2203 15.8168C16.9732 15.7017 16.7779 15.5433 16.6344 15.3416C16.4924 15.1399 16.4185 14.9084 16.4128 14.647H17.4355C17.4441 14.8075 17.5094 14.9368 17.6316 15.0348C17.7537 15.1314 17.8993 15.1797 18.0684 15.1797C18.2005 15.1797 18.3176 15.1506 18.4199 15.0923C18.5222 15.0341 18.6025 14.9524 18.6607 14.8473C18.7189 14.7408 18.7473 14.6186 18.7459 14.4808C18.7473 14.3402 18.7182 14.2173 18.6586 14.1122C18.6003 14.0071 18.5194 13.9254 18.4157 13.8672C18.3134 13.8075 18.1955 13.7777 18.062 13.7777C17.9355 13.7763 17.8155 13.804 17.7019 13.8608C17.5897 13.9176 17.5044 13.995 17.4462 14.093L16.5151 13.9183L16.7047 11.5661H19.5044V12.4162H17.5719L17.4718 13.4453H17.4973C17.5698 13.3246 17.6863 13.2251 17.8468 13.147C18.0087 13.0675 18.1926 13.0277 18.3986 13.0277C18.66 13.0277 18.8929 13.0888 19.0975 13.2109C19.3034 13.3317 19.4654 13.4993 19.5833 13.7138C19.7026 13.9283 19.7623 14.174 19.7623 14.451C19.7623 14.7507 19.6912 15.0163 19.5492 15.2479C19.4086 15.4794 19.2111 15.6612 18.9569 15.7933C18.704 15.924 18.4078 15.9893 18.0684 15.9893ZM22.7852 15.1115V14.8814C22.7852 14.7024 22.8235 14.5369 22.9002 14.3849C22.9783 14.233 23.0913 14.1108 23.239 14.0185C23.3867 13.9261 23.5671 13.88 23.7802 13.88C23.9975 13.88 24.18 13.9261 24.3278 14.0185C24.4769 14.1094 24.5891 14.2308 24.6644 14.3828C24.7411 14.5334 24.7795 14.6996 24.7795 14.8814V15.1115C24.7795 15.2905 24.7411 15.456 24.6644 15.608C24.5877 15.7599 24.4748 15.8821 24.3256 15.9744C24.1765 16.0668 23.9947 16.1129 23.7802 16.1129C23.5643 16.1129 23.3825 16.0668 23.2347 15.9744C23.087 15.8821 22.9748 15.7599 22.8981 15.608C22.8228 15.456 22.7852 15.2905 22.7852 15.1115ZM23.4648 14.8814V15.1115C23.4648 15.2024 23.4869 15.2898 23.5309 15.3736C23.5763 15.4574 23.6594 15.4993 23.7802 15.4993C23.9038 15.4993 23.9869 15.4588 24.0295 15.3778C24.0721 15.2955 24.0934 15.2067 24.0934 15.1115V14.8814C24.0934 14.7862 24.0728 14.6967 24.0316 14.6129C23.9918 14.5277 23.908 14.4851 23.7802 14.4851C23.6609 14.4851 23.5785 14.5277 23.533 14.6129C23.4876 14.6967 23.4648 14.7862 23.4648 14.8814ZM20.5224 12.6143V12.3842C20.5224 12.2024 20.5614 12.0362 20.6396 11.8857C20.7191 11.7337 20.8327 11.6122 20.9805 11.5213C21.1282 11.429 21.3072 11.3828 21.5174 11.3828C21.7347 11.3828 21.9173 11.429 22.065 11.5213C22.2141 11.6122 22.3271 11.7337 22.4038 11.8857C22.4805 12.0362 22.5188 12.2024 22.5188 12.3842V12.6143C22.5188 12.7962 22.4798 12.9624 22.4016 13.1129C22.3249 13.2635 22.212 13.3835 22.0629 13.473C21.9137 13.5625 21.7319 13.6072 21.5174 13.6072C21.3029 13.6072 21.1211 13.5618 20.9719 13.4709C20.8242 13.38 20.712 13.2592 20.6353 13.1087C20.56 12.9581 20.5224 12.7933 20.5224 12.6143ZM21.2085 12.3842V12.6143C21.2085 12.7095 21.2305 12.7983 21.2745 12.8807C21.32 12.9616 21.4009 13.0021 21.5174 13.0021C21.6424 13.0021 21.7255 12.9616 21.7667 12.8807C21.8093 12.7983 21.8306 12.7095 21.8306 12.6143V12.3842C21.8306 12.2891 21.8107 12.1996 21.771 12.1158C21.7312 12.0305 21.6467 11.9879 21.5174 11.9879C21.3981 11.9879 21.3164 12.0312 21.2724 12.1179C21.2298 12.2045 21.2085 12.2933 21.2085 12.3842ZM20.8441 15.9297L23.8441 11.5661H24.4258L21.4258 15.9297H20.8441ZM16.6989 20.7479C16.6989 21.228 16.6065 21.6349 16.4219 21.9688C16.2372 22.3026 15.9872 22.5561 15.6719 22.7294C15.358 22.9027 15.0057 22.9893 14.6151 22.9893C14.223 22.9893 13.87 22.902 13.5561 22.7273C13.2422 22.5526 12.9929 22.299 12.8082 21.9666C12.625 21.6328 12.5334 21.2266 12.5334 20.7479C12.5334 20.2678 12.625 19.8608 12.8082 19.527C12.9929 19.1932 13.2422 18.9396 13.5561 18.7663C13.87 18.593 14.223 18.5064 14.6151 18.5064C15.0057 18.5064 15.358 18.593 15.6719 18.7663C15.9872 18.9396 16.2372 19.1932 16.4219 19.527C16.6065 19.8608 16.6989 20.2678 16.6989 20.7479ZM15.6207 20.7479C15.6207 20.4638 15.5803 20.2237 15.4993 20.0277C15.4197 19.8317 15.3047 19.6832 15.1541 19.5824C15.005 19.4815 14.8253 19.4311 14.6151 19.4311C14.4063 19.4311 14.2266 19.4815 14.076 19.5824C13.9254 19.6832 13.8097 19.8317 13.7287 20.0277C13.6491 20.2237 13.6094 20.4638 13.6094 20.7479C13.6094 21.032 13.6491 21.272 13.7287 21.468C13.8097 21.6641 13.9254 21.8125 14.076 21.9134C14.2266 22.0142 14.4063 22.0646 14.6151 22.0646C14.8253 22.0646 15.005 22.0142 15.1541 21.9134C15.3047 21.8125 15.4197 21.6641 15.4993 21.468C15.5803 21.272 15.6207 21.032 15.6207 20.7479ZM17.3146 22.9297V18.5661H20.2933V19.4226H18.3693V20.3175H20.1037V21.1761H18.3693V22.9297H17.3146ZM20.8244 22.9297V18.5661H23.8031V19.4226H21.8791V20.3175H23.6135V21.1761H21.8791V22.9297H20.8244Z" fill="white"/>
</g>
<defs>
<filter id="filter0_d_19561_35903" x="5" y="5" width="25" height="30.2266" filterUnits="userSpaceOnUse" color-interpolation-filters="sRGB">
<feFlood flood-opacity="0" result="BackgroundImageFix"/>
<feColorMatrix in="SourceAlpha" type="matrix" values="0 0 0 0 0 0 0 0 0 0 0 0 0 0 0 0 0 0 127 0" result="hardAlpha"/>
<feOffset dx="-1" dy="2"/>
<feGaussianBlur stdDeviation="1"/>
<feComposite in2="hardAlpha" operator="out"/>
<feColorMatrix type="matrix" values="0 0 0 0 0 0 0 0 0 0 0 0 0 0 0 0 0 0 0.25 0"/>
<feBlend mode="normal" in2="BackgroundImageFix" result="effect1_dropShadow_19561_35903"/>
<feBlend mode="normal" in="SourceGraphic" in2="effect1_dropShadow_19561_35903" result="shape"/>
</filter>
<filter id="filter1_d_19561_35903" x="11.0078" y="11.3828" width="15.2715" height="14.6055" filterUnits="userSpaceOnUse" color-interpolation-filters="sRGB">
<feFlood flood-opacity="0" result="BackgroundImageFix"/>
<feColorMatrix in="SourceAlpha" type="matrix" values="0 0 0 0 0 0 0 0 0 0 0 0 0 0 0 0 0 0 127 0" result="hardAlpha"/>
<feOffset dy="1.5"/>
<feGaussianBlur stdDeviation="0.75"/>
<feComposite in2="hardAlpha" operator="out"/>
<feColorMatrix type="matrix" values="0 0 0 0 0 0 0 0 0 0 0 0 0 0 0 0 0 0 0.25 0"/>
<feBlend mode="normal" in2="BackgroundImageFix" result="effect1_dropShadow_19561_35903"/>
<feBlend mode="normal" in="SourceGraphic" in2="effect1_dropShadow_19561_35903" result="shape"/>
</filter>
</defs>
</svg>
