<svg width="38" height="37" viewBox="0 0 38 37" fill="none" xmlns="http://www.w3.org/2000/svg">
<g filter="url(#filter0_d_19561_35900)">
<path d="M29 8C29 6.34315 27.6569 5 26 5H11C9.34315 5 8 6.34315 8 8V29.7252C8 30.8021 9.10108 31.5281 10.0909 31.1039L17.9091 27.7532C18.2864 27.5915 18.7136 27.5915 19.0909 27.7532L26.9091 31.1039C27.8989 31.5281 29 30.8021 29 29.7252V8Z" fill="#E40000"/>
</g>
<g filter="url(#filter1_d_19561_35900)">
<path d="M14.2422 15.9893C13.924 15.9893 13.6413 15.9318 13.3942 15.8168C13.147 15.7017 12.9517 15.5433 12.8082 15.3416C12.6662 15.1399 12.5923 14.9084 12.5866 14.647H13.6094C13.6179 14.8075 13.6832 14.9368 13.8054 15.0348C13.9276 15.1314 14.0732 15.1797 14.2422 15.1797C14.3743 15.1797 14.4915 15.1506 14.5938 15.0923C14.696 15.0341 14.7763 14.9524 14.8345 14.8473C14.8928 14.7408 14.9212 14.6186 14.9197 14.4808C14.9212 14.3402 14.892 14.2173 14.8324 14.1122C14.7741 14.0071 14.6932 13.9254 14.5895 13.8672C14.4872 13.8075 14.3693 13.7777 14.2358 13.7777C14.1094 13.7763 13.9893 13.804 13.8757 13.8608C13.7635 13.9176 13.6783 13.995 13.62 14.093L12.6889 13.9183L12.8786 11.5661H15.6783V12.4162H13.7457L13.6456 13.4453H13.6712C13.7436 13.3246 13.8601 13.2251 14.0206 13.147C14.1825 13.0675 14.3665 13.0277 14.5724 13.0277C14.8338 13.0277 15.0668 13.0888 15.2713 13.2109C15.4773 13.3317 15.6392 13.4993 15.7571 13.7138C15.8764 13.9283 15.9361 14.174 15.9361 14.451C15.9361 14.7507 15.8651 15.0163 15.723 15.2479C15.5824 15.4794 15.3849 15.6612 15.1307 15.7933C14.8778 15.924 14.5817 15.9893 14.2422 15.9893ZM18.3198 16.0362C17.9391 16.0362 17.611 15.946 17.3354 15.7656C17.0598 15.5838 16.8475 15.3232 16.6983 14.9837C16.5492 14.6428 16.4753 14.233 16.4767 13.7543C16.4782 13.2756 16.5527 12.8693 16.7005 12.5355C16.8496 12.2003 17.0613 11.9453 17.3354 11.7706C17.611 11.5945 17.9391 11.5064 18.3198 11.5064C18.7005 11.5064 19.0286 11.5945 19.3042 11.7706C19.5811 11.9453 19.7942 12.2003 19.9434 12.5355C20.0925 12.8707 20.1664 13.277 20.165 13.7543C20.165 14.2344 20.0904 14.6449 19.9412 14.9858C19.7921 15.3267 19.5797 15.5874 19.3042 15.7678C19.03 15.9467 18.7019 16.0362 18.3198 16.0362ZM18.3198 15.1733C18.5471 15.1733 18.731 15.0575 18.8716 14.826C19.0123 14.593 19.0819 14.2358 19.0804 13.7543C19.0804 13.4389 19.0485 13.179 18.9846 12.9744C18.9206 12.7685 18.8319 12.6151 18.7182 12.5142C18.6046 12.4134 18.4718 12.3629 18.3198 12.3629C18.0939 12.3629 17.9114 12.4773 17.7722 12.706C17.633 12.9332 17.5627 13.2827 17.5613 13.7543C17.5598 14.0739 17.5904 14.3388 17.6529 14.549C17.7168 14.7592 17.8063 14.9162 17.9213 15.0199C18.0364 15.1222 18.1692 15.1733 18.3198 15.1733ZM23.2129 15.1115V14.8814C23.2129 14.7024 23.2512 14.5369 23.3279 14.3849C23.4061 14.233 23.519 14.1108 23.6667 14.0185C23.8145 13.9261 23.9949 13.88 24.2079 13.88C24.4252 13.88 24.6078 13.9261 24.7555 14.0185C24.9047 14.1094 25.0169 14.2308 25.0922 14.3828C25.1689 14.5334 25.2072 14.6996 25.2072 14.8814V15.1115C25.2072 15.2905 25.1689 15.456 25.0922 15.608C25.0154 15.7599 24.9025 15.8821 24.7534 15.9744C24.6042 16.0668 24.4224 16.1129 24.2079 16.1129C23.992 16.1129 23.8102 16.0668 23.6625 15.9744C23.5147 15.8821 23.4025 15.7599 23.3258 15.608C23.2505 15.456 23.2129 15.2905 23.2129 15.1115ZM23.8926 14.8814V15.1115C23.8926 15.2024 23.9146 15.2898 23.9586 15.3736C24.0041 15.4574 24.0872 15.4993 24.2079 15.4993C24.3315 15.4993 24.4146 15.4588 24.4572 15.3778C24.4998 15.2955 24.5211 15.2067 24.5211 15.1115V14.8814C24.5211 14.7862 24.5005 14.6967 24.4593 14.6129C24.4196 14.5277 24.3358 14.4851 24.2079 14.4851C24.0886 14.4851 24.0062 14.5277 23.9608 14.6129C23.9153 14.6967 23.8926 14.7862 23.8926 14.8814ZM20.9501 12.6143V12.3842C20.9501 12.2024 20.9892 12.0362 21.0673 11.8857C21.1468 11.7337 21.2605 11.6122 21.4082 11.5213C21.5559 11.429 21.7349 11.3828 21.9451 11.3828C22.1625 11.3828 22.345 11.429 22.4927 11.5213C22.6419 11.6122 22.7548 11.7337 22.8315 11.8857C22.9082 12.0362 22.9466 12.2024 22.9466 12.3842V12.6143C22.9466 12.7962 22.9075 12.9624 22.8294 13.1129C22.7527 13.2635 22.6397 13.3835 22.4906 13.473C22.3414 13.5625 22.1596 13.6072 21.9451 13.6072C21.7306 13.6072 21.5488 13.5618 21.3997 13.4709C21.252 13.38 21.1397 13.2592 21.063 13.1087C20.9877 12.9581 20.9501 12.7933 20.9501 12.6143ZM21.6362 12.3842V12.6143C21.6362 12.7095 21.6582 12.7983 21.7022 12.8807C21.7477 12.9616 21.8287 13.0021 21.9451 13.0021C22.0701 13.0021 22.1532 12.9616 22.1944 12.8807C22.237 12.7983 22.2583 12.7095 22.2583 12.6143V12.3842C22.2583 12.2891 22.2385 12.1996 22.1987 12.1158C22.1589 12.0305 22.0744 11.9879 21.9451 11.9879C21.8258 11.9879 21.7441 12.0312 21.7001 12.1179C21.6575 12.2045 21.6362 12.2933 21.6362 12.3842ZM21.2718 15.9297L24.2718 11.5661H24.8535L21.8535 15.9297H21.2718ZM16.6989 20.7479C16.6989 21.228 16.6065 21.6349 16.4219 21.9688C16.2372 22.3026 15.9872 22.5561 15.6719 22.7294C15.358 22.9027 15.0057 22.9893 14.6151 22.9893C14.223 22.9893 13.87 22.902 13.5561 22.7273C13.2422 22.5526 12.9929 22.299 12.8082 21.9666C12.625 21.6328 12.5334 21.2266 12.5334 20.7479C12.5334 20.2678 12.625 19.8608 12.8082 19.527C12.9929 19.1932 13.2422 18.9396 13.5561 18.7663C13.87 18.593 14.223 18.5064 14.6151 18.5064C15.0057 18.5064 15.358 18.593 15.6719 18.7663C15.9872 18.9396 16.2372 19.1932 16.4219 19.527C16.6065 19.8608 16.6989 20.2678 16.6989 20.7479ZM15.6207 20.7479C15.6207 20.4638 15.5803 20.2237 15.4993 20.0277C15.4197 19.8317 15.3047 19.6832 15.1541 19.5824C15.005 19.4815 14.8253 19.4311 14.6151 19.4311C14.4063 19.4311 14.2266 19.4815 14.076 19.5824C13.9254 19.6832 13.8097 19.8317 13.7287 20.0277C13.6491 20.2237 13.6094 20.4638 13.6094 20.7479C13.6094 21.032 13.6491 21.272 13.7287 21.468C13.8097 21.6641 13.9254 21.8125 14.076 21.9134C14.2266 22.0142 14.4063 22.0646 14.6151 22.0646C14.8253 22.0646 15.005 22.0142 15.1541 21.9134C15.3047 21.8125 15.4197 21.6641 15.4993 21.468C15.5803 21.272 15.6207 21.032 15.6207 20.7479ZM17.3146 22.9297V18.5661H20.2933V19.4226H18.3693V20.3175H20.1037V21.1761H18.3693V22.9297H17.3146ZM20.8244 22.9297V18.5661H23.8031V19.4226H21.8791V20.3175H23.6135V21.1761H21.8791V22.9297H20.8244Z" fill="white"/>
</g>
<defs>
<filter id="filter0_d_19561_35900" x="5" y="5" width="25" height="30.2266" filterUnits="userSpaceOnUse" color-interpolation-filters="sRGB">
<feFlood flood-opacity="0" result="BackgroundImageFix"/>
<feColorMatrix in="SourceAlpha" type="matrix" values="0 0 0 0 0 0 0 0 0 0 0 0 0 0 0 0 0 0 127 0" result="hardAlpha"/>
<feOffset dx="-1" dy="2"/>
<feGaussianBlur stdDeviation="1"/>
<feComposite in2="hardAlpha" operator="out"/>
<feColorMatrix type="matrix" values="0 0 0 0 0 0 0 0 0 0 0 0 0 0 0 0 0 0 0.25 0"/>
<feBlend mode="normal" in2="BackgroundImageFix" result="effect1_dropShadow_19561_35900"/>
<feBlend mode="normal" in="SourceGraphic" in2="effect1_dropShadow_19561_35900" result="shape"/>
</filter>
<filter id="filter1_d_19561_35900" x="11.0332" y="11.3828" width="15.6738" height="14.6055" filterUnits="userSpaceOnUse" color-interpolation-filters="sRGB">
<feFlood flood-opacity="0" result="BackgroundImageFix"/>
<feColorMatrix in="SourceAlpha" type="matrix" values="0 0 0 0 0 0 0 0 0 0 0 0 0 0 0 0 0 0 127 0" result="hardAlpha"/>
<feOffset dy="1.5"/>
<feGaussianBlur stdDeviation="0.75"/>
<feComposite in2="hardAlpha" operator="out"/>
<feColorMatrix type="matrix" values="0 0 0 0 0 0 0 0 0 0 0 0 0 0 0 0 0 0 0.25 0"/>
<feBlend mode="normal" in2="BackgroundImageFix" result="effect1_dropShadow_19561_35900"/>
<feBlend mode="normal" in="SourceGraphic" in2="effect1_dropShadow_19561_35900" result="shape"/>
</filter>
</defs>
</svg>
