<svg width="250" height="250" viewBox="0 0 250 250" fill="none" xmlns="http://www.w3.org/2000/svg">
<rect width="250" height="250" fill="white"/>
<g clip-path="url(#clip0_19629_36128)">
<path d="M126.081 201.715C125.99 201.729 125.902 202.063 125.727 202.238C125.598 202.363 125.438 202.356 125.353 202.511C125.32 202.569 125.331 202.669 125.294 202.764C125.222 202.954 124.97 202.971 124.97 203.179C124.969 203.403 125.18 203.446 125.364 203.605C125.507 203.733 125.52 203.821 125.693 203.883C125.841 203.933 126.061 203.769 126.259 203.828C126.421 203.876 126.577 203.911 126.613 204.078C126.646 204.232 126.611 204.47 126.414 204.443C126.348 204.435 126.059 204.339 125.706 204.376C125.279 204.425 124.792 204.564 124.744 205.04C124.718 205.306 125.047 205.62 125.365 205.556C125.584 205.513 125.481 205.254 125.6 205.128C125.757 204.967 126.646 205.691 127.472 205.691C127.819 205.691 128.078 205.603 128.335 205.334C128.359 205.313 128.388 205.269 128.425 205.266C128.461 205.269 128.522 205.304 128.542 205.318C129.207 205.853 129.71 206.926 132.155 206.938C132.499 206.94 132.89 207.104 133.211 207.396C133.496 207.66 133.662 208.07 133.825 208.487C134.07 209.111 134.508 209.719 135.173 210.395C135.209 210.431 135.757 210.857 135.8 210.888C135.807 210.893 135.848 210.989 135.833 211.043C135.817 211.448 135.758 212.627 136.637 212.681C136.852 212.692 136.796 212.54 136.796 212.437C136.795 212.231 136.758 212.027 136.866 211.817C137.014 211.528 136.552 211.395 136.566 210.769C136.575 210.303 136.184 210.383 135.985 210.028C135.871 209.822 135.769 209.713 135.776 209.461C135.821 208.045 135.475 207.114 135.302 206.885C135.168 206.713 135.056 206.645 135.179 206.565C135.913 206.08 136.079 205.629 136.079 205.629C136.47 204.713 136.82 203.875 137.304 203.506C137.401 203.43 137.651 203.243 137.804 203.17C138.256 202.957 138.493 202.828 138.625 202.701C138.832 202.499 138.996 202.077 138.797 201.822C138.55 201.506 138.122 201.756 137.934 201.868C136.585 202.669 136.386 204.08 135.919 204.891C135.546 205.539 134.94 206.015 134.399 206.054C133.993 206.084 133.555 206.002 133.119 205.81C132.059 205.346 131.479 204.746 131.341 204.639C131.057 204.42 128.845 202.249 127.054 202.16C127.054 202.16 126.831 201.715 126.775 201.708C126.644 201.691 126.51 201.973 126.414 202.006C126.324 202.036 126.172 201.7 126.081 201.715ZM118.193 214.671C118.025 214.667 117.881 214.529 117.881 214.358L117.882 208.769H116.04V214.929C116.04 215.232 116.284 215.478 116.585 215.478H119.804C120.106 215.478 120.348 215.232 120.348 214.929V208.769H118.507L118.506 214.358C118.506 214.529 118.363 214.667 118.193 214.671ZM124.36 208.769H121.573C121.242 208.769 120.974 209.037 120.974 209.37V215.478H122.818V209.876C122.818 209.835 122.826 209.795 122.842 209.757C122.858 209.72 122.881 209.686 122.91 209.657C122.939 209.629 122.973 209.606 123.01 209.591C123.048 209.575 123.088 209.568 123.129 209.568C123.301 209.568 123.439 209.701 123.443 209.871V215.478H125.279V209.871C125.281 209.701 125.419 209.568 125.591 209.568C125.761 209.568 125.902 209.704 125.903 209.875V215.478H127.747V209.37C127.747 209.037 127.478 208.769 127.148 208.769L124.36 208.769ZM114.811 213.792H112.95V215.478H111.109V208.769H114.823C115.155 208.769 115.415 209.039 115.415 209.373V213.187C115.415 213.267 115.4 213.345 115.369 213.419C115.339 213.492 115.295 213.559 115.239 213.615C115.182 213.671 115.116 213.716 115.043 213.746C114.969 213.776 114.891 213.792 114.811 213.792L114.811 213.792ZM113.575 209.887C113.576 209.846 113.568 209.805 113.553 209.766C113.537 209.728 113.514 209.693 113.485 209.663C113.456 209.633 113.422 209.61 113.384 209.593C113.346 209.577 113.305 209.568 113.263 209.568H112.95V212.961H113.263C113.426 212.961 113.577 212.832 113.575 212.646V209.887Z" fill="#CACACA"/>
<path d="M130.837 215.478V213.794H130.211V215.478H128.371V209.371C128.371 209.038 128.64 208.77 128.97 208.77H132.078C132.409 208.77 132.678 209.038 132.678 209.371V215.478H130.837ZM130.837 212.963V209.874C130.833 209.703 130.695 209.572 130.523 209.572C130.353 209.572 130.213 209.708 130.211 209.879V212.963H130.837Z" fill="#CACACA"/>
</g>
<g clip-path="url(#clip1_19629_36128)">
<path d="M206.356 208.552C206.827 207.263 208.6 202.402 209.012 201.26C209.054 201.143 209.121 201.112 209.234 201.112H210.766C210.978 201.112 210.996 201.138 210.92 201.348C210.64 202.121 210.033 203.802 210.012 203.87L210.067 203.902C210.174 203.746 211.333 201.992 211.815 201.277C211.866 201.202 211.976 201.121 212.061 201.121H213.632C213.675 201.121 213.759 201.115 213.772 201.153C213.778 201.173 213.763 201.194 213.744 201.222C213.41 201.696 212.037 203.64 211.528 204.378C211.453 204.485 211.401 204.629 211.393 204.759C211.315 206.037 211.249 207.316 211.178 208.595C211.164 208.85 211.154 208.859 210.895 208.86C210.364 208.861 209.834 208.861 209.303 208.86C209.032 208.859 209.031 208.853 209.062 208.592C209.169 207.709 209.273 206.826 209.377 205.943C209.384 205.879 209.378 205.813 209.343 205.733C209.305 205.815 208.576 207.761 208.258 208.654C208.201 208.815 208.111 208.862 207.949 208.862C207.479 208.863 207.033 208.863 206.576 208.862C206.259 208.862 206.25 208.844 206.356 208.552ZM204.015 208.859C204.533 208.86 205.033 208.86 205.568 208.859C205.718 208.858 205.8 208.808 205.849 208.668C205.957 208.357 208.193 202.222 208.537 201.269C208.56 201.204 208.573 201.178 208.558 201.15C208.542 201.116 208.47 201.12 208.433 201.12H206.811C206.638 201.12 206.568 201.214 206.539 201.287C206.366 201.732 204.589 206.634 203.861 208.636C203.791 208.827 203.813 208.858 204.015 208.859ZM199.023 208.86H200.237C200.437 208.86 200.531 208.795 200.597 208.609C201.029 207.397 201.471 206.189 201.911 204.979C201.941 204.898 201.981 204.821 202.016 204.742C202.058 204.82 202.064 204.883 202.057 204.946C201.932 206.167 201.806 207.388 201.681 208.61C201.656 208.847 201.666 208.862 201.907 208.862H203.141C203.302 208.862 203.376 208.802 203.429 208.654C204.236 206.428 206.037 201.481 206.129 201.223C206.137 201.199 206.148 201.171 206.121 201.141C206.094 201.112 206.05 201.113 206.014 201.113H204.621C204.483 201.113 204.444 201.196 204.405 201.303C204.105 202.133 203.267 204.418 203.15 204.731L203.092 204.713C203.092 204.713 203.23 202.398 203.309 201.36C203.324 201.162 203.259 201.109 203.068 201.109H201.834C201.675 201.109 201.6 201.164 201.546 201.313C200.661 203.758 199.772 206.202 198.879 208.645C198.821 208.806 198.85 208.86 199.023 208.86ZM215.001 208.232C215.104 207.908 215.209 207.577 215.217 207.554C215.303 207.318 215.294 207.303 215.051 207.302C214.726 207.301 213.819 207.303 213.819 207.303C213.819 207.303 214.223 206.211 214.371 205.778C214.42 205.633 214.497 205.589 214.647 205.591C214.951 205.594 215.257 205.588 215.562 205.591C215.672 205.591 215.749 205.566 215.79 205.447C215.923 205.065 216.064 204.686 216.207 204.307C216.264 204.152 216.226 204.085 216.054 204.088C215.769 204.093 215.483 204.085 215.198 204.088C215.049 204.089 215.009 204.035 215.063 203.892C215.193 203.551 215.319 203.208 215.435 202.863C215.481 202.727 215.557 202.678 215.698 202.678H216.713C216.838 202.678 216.904 202.595 216.932 202.526C217.095 202.12 217.238 201.706 217.386 201.294C217.402 201.248 217.402 201.22 217.359 201.166C217.313 201.108 217.21 201.11 217.201 201.11C216.232 201.11 215.263 201.118 214.295 201.11C214.114 201.109 214.044 201.182 213.987 201.341C213.514 202.659 211.74 207.521 211.334 208.637C211.261 208.84 211.28 208.862 211.501 208.864C211.581 208.864 212.008 208.865 212.526 208.865C208.319 209.944 204.014 211.051 202.524 211.438C201.506 211.702 200.482 211.874 199.427 211.601C198.119 211.261 197.384 210.251 197.613 208.927C197.73 208.249 197.995 207.595 198.206 206.934C198.27 206.733 198.378 206.545 198.465 206.35C197.321 207.287 196.404 208.396 195.671 209.636C195.228 210.385 194.826 211.19 194.591 212.023C194.07 213.869 194.979 215.343 196.779 215.743C197.087 215.812 197.409 215.847 197.725 215.851C199.414 215.878 200.983 215.373 202.514 214.729C207.427 212.658 220.565 207.101 222.223 206.4C222.222 206.388 218.93 207.226 215.001 208.232Z" fill="#CACACA"/>
</g>
<g clip-path="url(#clip2_19629_36128)">
<path fill-rule="evenodd" clip-rule="evenodd" d="M31.6898 213.992V214.248C31.2781 213.958 30.7863 213.802 30.2825 213.804H30.2758C28.9086 213.804 27.7773 214.928 27.7773 216.302C27.7773 217.669 28.9086 218.8 30.2756 218.8H30.2823C30.8142 218.8 31.2924 218.632 31.6896 218.349V218.598H32.767V213.992H31.6898ZM30.2823 217.669H30.2756C29.5214 217.669 28.9153 217.056 28.9153 216.302C28.9153 215.554 29.5212 214.935 30.2756 214.935H30.2823C31.0298 214.935 31.6493 215.554 31.6493 216.302C31.6493 217.056 31.0298 217.669 30.2823 217.669ZM49.6763 213.999V214.248C49.2724 213.972 48.7738 213.804 48.2556 213.804H48.2489C46.8819 213.804 45.7506 214.928 45.7506 216.302C45.7506 217.676 46.8819 218.8 48.2489 218.8H48.2556C48.774 218.8 49.2724 218.632 49.6763 218.356V218.605H50.7472V213.999H49.6763ZM48.2556 217.676H48.2489C47.5014 217.676 46.8886 217.056 46.8886 216.302C46.8886 215.561 47.5014 214.942 48.2489 214.942H48.2556C49.0031 214.942 49.6226 215.561 49.6226 216.302C49.6224 217.056 49.0029 217.676 48.2556 217.676ZM37.0771 212.43V214.248C36.6797 213.985 36.1883 213.803 35.6696 213.803H35.6629C34.2892 213.803 33.1713 214.935 33.1713 216.295C33.1713 217.675 34.2892 218.8 35.6629 218.8H35.6696C36.1883 218.8 36.6866 218.632 37.0771 218.355V218.598H38.1545V212.43H37.0771ZM35.6696 217.669H35.6629C34.9154 217.669 34.3026 217.056 34.3026 216.295C34.3026 215.554 34.9154 214.935 35.6629 214.935H35.6696C36.4171 214.935 37.0366 215.554 37.0366 216.295C37.0366 217.056 36.4171 217.669 35.6696 217.669ZM44.3094 212.43V214.248C43.8983 213.985 43.4069 213.803 42.8884 213.803H42.8819C41.5216 213.803 40.3969 214.935 40.3969 216.295C40.3969 217.675 41.5214 218.8 42.8819 218.8H42.8884C43.4071 218.8 43.9052 218.632 44.3094 218.355V218.598H45.3666V212.43H44.3094ZM42.8884 217.669H42.8819C42.1343 217.669 41.5284 217.056 41.5284 216.295C41.5284 215.554 42.1343 214.935 42.8819 214.935H42.8884C43.6359 214.935 44.2557 215.554 44.2557 216.295C44.2557 217.056 43.6359 217.669 42.8884 217.669ZM38.9154 213.615H39.9929V212.443H38.9154V213.615ZM38.9154 218.611H39.9929V214.012H38.9154V218.611ZM51.1981 217.11C51.2251 218.268 52.2824 218.827 53.4405 218.807C54.7133 218.787 55.5684 218.208 55.555 217.157C55.5281 215.319 52.5248 215.945 52.5248 215.184C52.5248 214.861 52.8008 214.726 53.3128 214.726C53.9593 214.726 54.094 215.023 54.1477 215.346H55.3262C55.2991 214.807 54.8345 213.75 53.2589 213.75C51.9053 213.75 51.3059 214.484 51.3059 215.379C51.3059 217.184 54.2823 216.538 54.2823 217.373C54.2823 217.588 54.06 217.885 53.4608 217.885C52.922 217.885 52.4911 217.649 52.4911 217.11L51.1981 217.11Z" fill="#CACACA"/>
<path fill-rule="evenodd" clip-rule="evenodd" d="M38.9168 210.965H44.3107L39.8664 202.729L35.6777 204.992L38.9168 210.965ZM40.5598 200.595L44.7415 198.332L51.5768 210.965H46.1626L40.5598 200.595ZM37.0986 210.965L35.0179 207.127L30.8359 209.383L31.6979 210.965H37.0986Z" fill="#CACACA"/>
</g>
<g clip-path="url(#clip3_19629_36128)">
<path d="M209.417 118.379C209.326 118.393 209.238 118.727 209.063 118.902C208.934 119.028 208.774 119.02 208.689 119.175C208.656 119.233 208.667 119.333 208.63 119.428C208.558 119.618 208.306 119.635 208.306 119.843C208.305 120.067 208.516 120.11 208.699 120.269C208.842 120.397 208.856 120.485 209.029 120.547C209.177 120.597 209.397 120.433 209.595 120.492C209.757 120.54 209.913 120.575 209.949 120.742C209.982 120.896 209.947 121.135 209.75 121.107C209.684 121.099 209.395 121.003 209.042 121.04C208.615 121.089 208.128 121.228 208.08 121.704C208.054 121.97 208.383 122.284 208.701 122.22C208.92 122.177 208.817 121.918 208.936 121.792C209.093 121.631 209.982 122.355 210.808 122.355C211.155 122.355 211.414 122.267 211.671 121.998C211.695 121.977 211.724 121.933 211.761 121.93C211.797 121.933 211.858 121.968 211.878 121.982C212.543 122.517 213.046 123.59 215.491 123.602C215.835 123.604 216.226 123.768 216.547 124.06C216.832 124.324 216.998 124.734 217.161 125.151C217.406 125.775 217.844 126.383 218.509 127.059C218.545 127.095 219.093 127.521 219.136 127.553C219.143 127.557 219.183 127.653 219.169 127.707C219.153 128.113 219.094 129.291 219.973 129.345C220.188 129.356 220.132 129.205 220.132 129.101C220.131 128.895 220.094 128.691 220.202 128.481C220.35 128.192 219.888 128.059 219.902 127.433C219.911 126.967 219.52 127.047 219.321 126.692C219.207 126.486 219.105 126.377 219.112 126.125C219.157 124.709 218.811 123.778 218.638 123.55C218.504 123.377 218.392 123.309 218.515 123.229C219.249 122.744 219.415 122.294 219.415 122.294C219.806 121.377 220.156 120.539 220.64 120.17C220.737 120.094 220.987 119.907 221.14 119.834C221.592 119.622 221.829 119.492 221.961 119.365C222.168 119.163 222.332 118.741 222.133 118.486C221.886 118.17 221.458 118.42 221.27 118.532C219.921 119.333 219.722 120.745 219.255 121.555C218.882 122.203 218.276 122.679 217.734 122.718C217.329 122.748 216.891 122.666 216.455 122.474C215.395 122.01 214.815 121.41 214.677 121.303C214.392 121.084 212.181 118.913 210.39 118.824C210.39 118.824 210.167 118.379 210.111 118.372C209.98 118.355 209.846 118.637 209.75 118.67C209.66 118.7 209.508 118.364 209.417 118.379ZM201.529 131.335C201.36 131.331 201.217 131.193 201.217 131.022L201.218 125.433H199.376V131.593C199.376 131.896 199.62 132.142 199.921 132.142H203.14C203.442 132.142 203.684 131.896 203.684 131.593V125.433H201.843L201.842 131.022C201.842 131.193 201.699 131.331 201.529 131.335ZM207.696 125.433H204.909C204.578 125.433 204.31 125.701 204.31 126.034V132.142H206.153V126.54C206.154 126.499 206.162 126.459 206.178 126.421C206.194 126.384 206.217 126.35 206.246 126.321C206.274 126.293 206.309 126.27 206.346 126.255C206.384 126.24 206.424 126.232 206.465 126.232C206.637 126.232 206.775 126.365 206.779 126.535V132.142H208.615V126.535C208.617 126.365 208.755 126.232 208.927 126.232C209.097 126.232 209.238 126.368 209.239 126.54V132.142H211.083V126.034C211.083 125.701 210.814 125.433 210.484 125.433L207.696 125.433ZM198.147 130.456H196.286V132.142H194.445V125.433H198.159C198.491 125.433 198.751 125.703 198.751 126.037V129.851C198.751 129.931 198.736 130.009 198.705 130.083C198.675 130.156 198.631 130.223 198.575 130.279C198.518 130.335 198.452 130.38 198.378 130.41C198.305 130.441 198.226 130.456 198.147 130.456L198.147 130.456ZM196.911 126.551C196.912 126.51 196.904 126.469 196.888 126.43C196.873 126.392 196.85 126.357 196.821 126.327C196.792 126.297 196.758 126.274 196.72 126.257C196.681 126.241 196.64 126.232 196.599 126.232H196.286V129.625H196.599C196.762 129.625 196.912 129.496 196.911 129.31V126.551Z" fill="#CACACA"/>
<path d="M214.173 132.146V130.462H213.547V132.146H211.707V126.039C211.707 125.706 211.976 125.438 212.306 125.438H215.414C215.745 125.438 216.014 125.706 216.014 126.039V132.146H214.173ZM214.173 129.631V126.542C214.169 126.371 214.031 126.24 213.859 126.24C213.689 126.24 213.549 126.376 213.547 126.547V129.631H214.173Z" fill="#CACACA"/>
</g>
<g clip-path="url(#clip4_19629_36128)">
<path d="M39.6883 125.22C40.1594 123.931 41.9319 119.07 42.3436 117.928C42.3857 117.811 42.4528 117.78 42.5658 117.78H44.098C44.3102 117.78 44.328 117.806 44.2518 118.016C43.9717 118.789 43.3647 120.47 43.3436 120.538L43.3992 120.57C43.5057 120.414 44.6648 118.66 45.1467 117.945C45.1975 117.869 45.3079 117.789 45.3927 117.789H46.9645C47.007 117.789 47.0907 117.783 47.1036 117.821C47.1101 117.841 47.0952 117.862 47.0758 117.89C46.7422 118.364 45.3694 120.308 44.8597 121.046C44.7853 121.153 44.7333 121.297 44.7253 121.427C44.6471 122.705 44.5808 123.984 44.5102 125.263C44.4962 125.518 44.486 125.527 44.227 125.528C43.6964 125.529 43.1657 125.529 42.6351 125.528C42.3644 125.527 42.363 125.521 42.3945 125.259C42.501 124.377 42.6053 123.494 42.7086 122.611C42.7161 122.547 42.7096 122.481 42.6747 122.401C42.6372 122.483 41.9083 124.429 41.5901 125.322C41.5328 125.483 41.4433 125.53 41.2809 125.53C40.8107 125.53 40.3655 125.531 39.9079 125.53C39.5909 125.53 39.582 125.512 39.6883 125.22ZM37.3475 125.527C37.865 125.528 38.3651 125.528 38.8999 125.527C39.0501 125.526 39.1323 125.476 39.1809 125.336C39.2893 125.025 41.5247 118.89 41.869 117.937C41.8922 117.872 41.9046 117.846 41.8905 117.818C41.8736 117.784 41.8021 117.788 41.7647 117.788H40.1432C39.9704 117.788 39.9 117.882 39.8715 117.955C39.6976 118.399 37.9207 123.302 37.1928 125.304C37.1233 125.495 37.1447 125.526 37.3475 125.527ZM32.3551 125.528H33.5691C33.7689 125.528 33.8627 125.463 33.9287 125.277C34.361 124.065 34.8033 122.857 35.2435 121.647C35.2731 121.566 35.3129 121.489 35.348 121.41C35.3901 121.488 35.3957 121.551 35.3893 121.614C35.2645 122.835 35.1379 124.056 35.0127 125.278C34.9883 125.515 34.9977 125.53 35.2392 125.53H36.4732C36.6338 125.53 36.7077 125.47 36.7611 125.322C37.5685 123.096 39.3692 118.149 39.4606 117.891C39.4693 117.867 39.48 117.839 39.4527 117.809C39.4259 117.78 39.3823 117.781 39.346 117.781H37.9528C37.815 117.781 37.7758 117.864 37.7372 117.971C37.4375 118.801 36.5992 121.086 36.4824 121.399L36.4237 121.381C36.4237 121.381 36.5623 119.066 36.6408 118.028C36.6558 117.83 36.5912 117.777 36.3998 117.777H35.1659C35.0068 117.777 34.9319 117.832 34.8781 117.981C33.993 120.426 33.1041 122.87 32.2114 125.313C32.1526 125.474 32.1822 125.528 32.3551 125.528ZM48.3332 124.9C48.4357 124.576 48.5409 124.245 48.5495 124.222C48.6348 123.986 48.626 123.971 48.3831 123.97C48.058 123.968 47.151 123.971 47.151 123.971C47.151 123.971 47.5553 122.879 47.7029 122.446C47.7524 122.301 47.8295 122.257 47.9787 122.259C48.2828 122.262 48.5891 122.256 48.8942 122.259C49.004 122.259 49.0808 122.234 49.1222 122.115C49.2555 121.733 49.3964 121.354 49.5385 120.975C49.5964 120.82 49.5576 120.753 49.3858 120.756C49.1006 120.761 48.8152 120.753 48.5298 120.756C48.3812 120.757 48.3413 120.703 48.3953 120.56C48.5247 120.219 48.6508 119.876 48.7675 119.531C48.8134 119.395 48.8891 119.346 49.03 119.346H50.0448C50.1705 119.346 50.2365 119.263 50.2641 119.194C50.4272 118.788 50.5705 118.374 50.718 117.962C50.7344 117.916 50.7339 117.888 50.6908 117.834C50.6453 117.775 50.5417 117.778 50.5328 117.778C49.564 117.778 48.5953 117.786 47.6266 117.778C47.4457 117.776 47.3759 117.85 47.3187 118.009C46.8455 119.327 45.0716 124.189 44.6665 125.305C44.5927 125.508 44.6124 125.53 44.8332 125.532C44.9132 125.532 45.3397 125.533 45.8584 125.533C41.6514 126.612 37.3461 127.719 35.856 128.106C34.8384 128.37 33.8136 128.542 32.7592 128.268C31.4508 127.929 30.7162 126.919 30.9445 125.595C31.0616 124.917 31.3266 124.263 31.5377 123.602C31.6022 123.4 31.7097 123.213 31.7975 123.018C30.6531 123.955 29.7359 125.064 29.003 126.304C28.5603 127.053 28.1578 127.858 27.9231 128.691C27.4024 130.537 28.3105 132.01 30.111 132.411C30.4194 132.48 30.741 132.514 31.0571 132.519C32.7456 132.546 34.3149 132.041 35.8455 131.397C40.7591 129.326 53.8969 123.769 55.5551 123.068C55.5536 123.056 52.2617 123.894 48.3332 124.9Z" fill="#CACACA"/>
</g>
<g clip-path="url(#clip5_19629_36128)">
<path fill-rule="evenodd" clip-rule="evenodd" d="M115.022 130.66V130.916C114.61 130.626 114.118 130.47 113.615 130.472H113.608C112.241 130.472 111.109 131.596 111.109 132.97C111.109 134.337 112.241 135.468 113.608 135.468H113.614C114.146 135.468 114.624 135.3 115.022 135.017V135.266H116.099V130.66H115.022ZM113.614 134.337H113.608C112.853 134.337 112.247 133.724 112.247 132.97C112.247 132.222 112.853 131.603 113.608 131.603H113.614C114.362 131.603 114.981 132.222 114.981 132.97C114.981 133.724 114.362 134.337 113.614 134.337ZM133.008 130.667V130.916C132.604 130.64 132.106 130.472 131.588 130.472H131.581C130.214 130.472 129.083 131.596 129.083 132.97C129.083 134.344 130.214 135.468 131.581 135.468H131.588C132.106 135.468 132.604 135.3 133.008 135.024V135.273H134.079V130.667H133.008ZM131.588 134.344H131.581C130.833 134.344 130.221 133.724 130.221 132.97C130.221 132.229 130.833 131.61 131.581 131.61H131.588C132.335 131.61 132.955 132.229 132.955 132.97C132.954 133.724 132.335 134.344 131.588 134.344ZM120.409 129.098V130.916C120.012 130.653 119.52 130.471 119.002 130.471H118.995C117.621 130.471 116.503 131.603 116.503 132.963C116.503 134.343 117.621 135.468 118.995 135.468H119.002C119.52 135.468 120.019 135.3 120.409 135.023V135.266H121.487V129.098H120.409ZM119.002 134.337H118.995C118.247 134.337 117.635 133.724 117.635 132.963C117.635 132.222 118.247 131.603 118.995 131.603H119.002C119.749 131.603 120.369 132.222 120.369 132.963C120.369 133.724 119.749 134.337 119.002 134.337ZM127.641 129.098V130.916C127.23 130.653 126.739 130.471 126.22 130.471H126.214C124.854 130.471 123.729 131.603 123.729 132.963C123.729 134.343 124.853 135.468 126.214 135.468H126.22C126.739 135.468 127.237 135.3 127.641 135.023V135.266H128.699V129.098H127.641ZM126.22 134.337H126.214C125.466 134.337 124.86 133.724 124.86 132.963C124.86 132.222 125.466 131.603 126.214 131.603H126.22C126.968 131.603 127.588 132.222 127.588 132.963C127.588 133.724 126.968 134.337 126.22 134.337ZM122.247 130.283H123.325V129.111H122.247V130.283ZM122.247 135.279H123.325V130.68H122.247V135.279ZM134.53 133.778C134.557 134.936 135.614 135.495 136.773 135.475C138.045 135.455 138.9 134.876 138.887 133.825C138.86 131.987 135.857 132.613 135.857 131.852C135.857 131.529 136.133 131.394 136.645 131.394C137.291 131.394 137.426 131.691 137.48 132.014H138.658C138.631 131.475 138.167 130.418 136.591 130.418C135.237 130.418 134.638 131.152 134.638 132.047C134.638 133.852 137.614 133.206 137.614 134.041C137.614 134.256 137.392 134.553 136.793 134.553C136.254 134.553 135.823 134.317 135.823 133.778L134.53 133.778Z" fill="#CACACA"/>
<path fill-rule="evenodd" clip-rule="evenodd" d="M122.249 127.633H127.643L123.198 119.397L119.01 121.66L122.249 127.633ZM123.892 117.263L128.074 115L134.909 127.633H129.495L123.892 117.263ZM120.431 127.633L118.35 123.795L114.168 126.051L115.03 127.633H120.431Z" fill="#CACACA"/>
</g>
<g clip-path="url(#clip6_19629_36128)">
<path d="M42.7486 35.0472C42.6576 35.0607 42.5702 35.3954 42.3946 35.5698C42.2662 35.6955 42.1057 35.6879 42.0207 35.8435C41.9883 35.9013 41.9987 36.0007 41.9623 36.0957C41.8903 36.2863 41.6381 36.3033 41.6381 36.5108C41.6372 36.735 41.8483 36.7776 42.0315 36.937C42.1745 37.0647 42.1882 37.153 42.3611 37.2152C42.5091 37.2652 42.7289 37.1013 42.9269 37.1603C43.0891 37.2085 43.2446 37.2433 43.2814 37.4102C43.3138 37.5643 43.2791 37.8025 43.0821 37.775C43.0157 37.7674 42.7274 37.6707 42.3741 37.7084C41.9471 37.7569 41.46 37.896 41.4123 38.3722C41.386 38.638 41.7152 38.9516 42.033 38.8878C42.2524 38.8448 42.1487 38.5856 42.268 38.4599C42.4249 38.2985 43.3138 39.0226 44.1397 39.0226C44.4874 39.0226 44.7461 38.9347 45.0031 38.6657C45.0272 38.6449 45.0563 38.601 45.0935 38.5981C45.1286 38.601 45.1896 38.6356 45.2098 38.6502C45.8748 39.1848 46.3778 40.2576 48.823 40.2698C49.1671 40.2719 49.5585 40.4362 49.8786 40.7279C50.1638 40.9916 50.3304 41.4022 50.4927 41.8185C50.7376 42.4432 51.1758 43.051 51.8409 43.727C51.877 43.7633 52.4246 44.1888 52.4684 44.2205C52.4751 44.2254 52.5155 44.3212 52.5014 44.3748C52.4853 44.7805 52.4263 45.9594 53.3053 46.0129C53.5201 46.0236 53.464 45.8725 53.464 45.7688C53.4635 45.5633 53.4261 45.3593 53.5341 45.1488C53.6821 44.8598 53.2202 44.7267 53.2336 44.1014C53.2433 43.6352 52.8516 43.7147 52.6531 43.3596C52.5386 43.1538 52.4368 43.0448 52.4441 42.7931C52.4888 41.3769 52.1427 40.4461 51.9703 40.2175C51.8356 40.0451 51.7242 39.9767 51.8472 39.8969C52.581 39.412 52.7473 38.9615 52.7473 38.9615C53.1375 38.0446 53.4883 37.2071 53.9721 36.8382C54.0693 36.7619 54.3193 36.5754 54.4724 36.5023C54.9241 36.2895 55.1614 36.1603 55.2927 36.0329C55.4999 35.8309 55.6642 35.4091 55.4651 35.1535C55.2179 34.8382 54.7901 35.0884 54.6017 35.2004C53.253 36.0007 53.0542 37.4125 52.5871 38.2235C52.2144 38.8711 51.6084 39.3471 51.0665 39.386C50.6608 39.416 50.2226 39.3339 49.7868 39.1424C48.7266 38.6776 48.1466 38.0776 48.0092 37.9714C47.7245 37.7516 45.5135 35.5807 43.7216 35.4921C43.7216 35.4921 43.4992 35.0466 43.4434 35.0396C43.3124 35.0226 43.1783 35.3053 43.0821 35.3384C42.9917 35.3682 42.8398 35.0323 42.7486 35.0472ZM34.8611 48.0032C34.6925 47.9991 34.5493 47.8609 34.5493 47.6898L34.5498 42.101H32.7077V48.2613C32.7077 48.5635 32.9523 48.8097 33.2526 48.8097H36.4718C36.774 48.8097 37.0158 48.5635 37.0158 48.2613V42.1009H35.1754L35.1739 47.6898C35.1739 47.8609 35.0307 47.9991 34.8611 48.0032ZM41.028 42.101H38.2406C37.9102 42.101 37.6416 42.3692 37.6416 42.7024V48.8097H39.4855V43.2076C39.4857 43.167 39.494 43.1268 39.5098 43.0893C39.5256 43.0518 39.5486 43.0178 39.5776 42.9893C39.6065 42.9607 39.6408 42.9381 39.6784 42.9228C39.7161 42.9075 39.7564 42.8998 39.7971 42.9C39.969 42.9 40.1073 43.0328 40.111 43.2029V48.8097H41.9471V43.2029C41.9494 43.0328 42.0873 42.9001 42.2592 42.9001C42.4293 42.9001 42.5703 43.036 42.5714 43.2075V48.8097H44.4153V42.7024C44.4153 42.3692 44.1458 42.1009 43.8161 42.1009L41.028 42.101ZM31.4792 47.1239H29.6182V48.8097H27.7773V42.101H31.4909C31.8233 42.101 32.0828 42.371 32.0828 42.7052V46.5192C32.083 46.5986 32.0676 46.6772 32.0373 46.7507C32.0071 46.8241 31.9626 46.8908 31.9065 46.947C31.8505 47.0032 31.7838 47.0477 31.7105 47.0781C31.6371 47.1085 31.5585 47.1241 31.4791 47.124L31.4792 47.1239ZM30.243 43.2193C30.2435 43.1778 30.2359 43.1367 30.2205 43.0982C30.2051 43.0596 30.1823 43.0246 30.1533 42.9949C30.1243 42.9652 30.0898 42.9416 30.0516 42.9253C30.0135 42.909 29.9725 42.9004 29.931 42.9H29.6183V46.2932H29.931C30.0936 46.2932 30.2445 46.164 30.243 45.9781V43.2193Z" fill="#CACACA"/>
<path d="M47.505 48.8104V47.1261H46.8792V48.8104H45.0391V42.7031C45.0391 42.3699 45.3077 42.1016 45.638 42.1016H48.7464C49.0773 42.1016 49.3456 42.3699 49.3456 42.7031V48.8104H47.505ZM47.505 46.2951V43.2059C47.5006 43.0353 47.3632 42.9041 47.1914 42.9041C47.0212 42.9041 46.8809 43.0405 46.8792 43.2109V46.2951H47.505Z" fill="#CACACA"/>
</g>
<g clip-path="url(#clip7_19629_36128)">
<path d="M123.02 41.8884C123.491 40.5986 125.264 35.7377 125.676 34.5957C125.718 34.4789 125.785 34.4482 125.898 34.4482H127.43C127.642 34.4482 127.66 34.4735 127.584 34.6841C127.304 35.4574 126.697 37.1379 126.676 37.2055L126.731 37.2379C126.838 37.0819 127.997 35.3279 128.479 34.6129C128.53 34.5374 128.64 34.4566 128.725 34.4566H130.297C130.339 34.4566 130.423 34.4507 130.436 34.4893C130.442 34.5088 130.427 34.5301 130.408 34.5577C130.074 35.0322 128.701 36.9761 128.192 37.7135C128.117 37.8212 128.065 37.9648 128.057 38.0951C127.979 39.3732 127.913 40.652 127.842 41.9306C127.828 42.1858 127.818 42.1952 127.559 42.1957C127.028 42.1967 126.498 42.1965 125.967 42.1957C125.696 42.1952 125.695 42.1889 125.727 41.9275C125.833 41.0448 125.937 40.162 126.041 39.279C126.048 39.2148 126.042 39.1488 126.007 39.0687C125.969 39.1511 125.24 41.0967 124.922 41.99C124.865 42.1509 124.775 42.1982 124.613 42.1983C124.143 42.1985 123.698 42.1986 123.24 42.1983C122.923 42.1981 122.914 42.1796 123.02 41.8884ZM120.68 42.1946C121.197 42.1963 121.697 42.1959 122.232 42.1946C122.382 42.1942 122.464 42.1441 122.513 42.0043C122.621 41.6932 124.857 35.5583 125.201 34.6046C125.224 34.5404 125.237 34.514 125.222 34.4858C125.206 34.4521 125.134 34.4563 125.097 34.4563H123.475C123.302 34.4563 123.232 34.5497 123.203 34.6227C123.03 35.0675 121.253 39.9702 120.525 41.9717C120.455 42.1631 120.477 42.1939 120.68 42.1946ZM115.687 42.1957H116.901C117.101 42.1957 117.195 42.1306 117.261 41.9453C117.693 40.7332 118.135 39.5246 118.576 38.3153C118.605 38.2341 118.645 38.1568 118.68 38.0776C118.722 38.1556 118.728 38.2193 118.721 38.2819C118.597 39.5032 118.47 40.7243 118.345 41.9455C118.32 42.1833 118.33 42.1977 118.571 42.1977H119.805C119.966 42.1977 120.04 42.1376 120.093 41.9903C120.901 39.7635 122.701 34.8168 122.793 34.5593C122.801 34.5349 122.812 34.5067 122.785 34.4771C122.758 34.448 122.714 34.4489 122.678 34.4489H121.285C121.147 34.4489 121.108 34.5317 121.069 34.6385C120.77 35.4685 119.931 37.7536 119.814 38.0671L119.756 38.0493C119.756 38.0493 119.894 35.7343 119.973 34.6955C119.988 34.4976 119.923 34.4453 119.732 34.4453H118.498C118.339 34.4453 118.264 34.5002 118.21 34.6489C117.325 37.0942 116.436 39.5381 115.543 41.9805C115.485 42.1415 115.514 42.1957 115.687 42.1957ZM131.665 41.5675C131.768 41.2443 131.873 40.9132 131.881 40.8897C131.967 40.6537 131.958 40.6388 131.715 40.6378C131.39 40.6365 130.483 40.639 130.483 40.639C130.483 40.639 130.887 39.5471 131.035 39.1139C131.084 38.9687 131.162 38.9248 131.311 38.9265C131.615 38.9301 131.921 38.9244 132.226 38.9265C132.336 38.9273 132.413 38.9018 132.454 38.7831C132.587 38.401 132.728 38.0215 132.871 37.6426C132.928 37.4882 132.89 37.4207 132.718 37.4238C132.433 37.4292 132.147 37.421 131.862 37.4238C131.713 37.4253 131.673 37.3705 131.727 37.2281C131.857 36.8869 131.983 36.5443 132.1 36.1986C132.145 36.0628 132.221 36.0141 132.362 36.0141H133.377C133.503 36.0141 133.569 35.9307 133.596 35.862C133.759 35.4559 133.903 35.0419 134.05 34.6297C134.066 34.5838 134.066 34.5564 134.023 34.5015C133.977 34.4434 133.874 34.4459 133.865 34.4459C132.896 34.4457 131.927 34.4537 130.959 34.4459C130.778 34.4445 130.708 34.5178 130.651 34.677C130.178 35.9945 128.404 40.8566 127.998 41.9732C127.925 42.1763 127.944 42.1983 128.165 42.1997C128.245 42.2003 128.672 42.201 129.19 42.2014C124.983 43.2798 120.678 44.3872 119.188 44.7737C118.17 45.0377 117.146 45.2104 116.091 44.9365C114.783 44.5965 114.048 43.5866 114.277 42.263C114.394 41.5847 114.659 40.9309 114.87 40.2702C114.934 40.0685 115.042 39.8805 115.13 39.6863C113.985 40.6228 113.068 41.7319 112.335 42.9718C111.892 43.7208 111.49 44.5263 111.255 45.3588C110.734 47.2048 111.643 48.6785 113.443 49.0793C113.751 49.148 114.073 49.1824 114.389 49.1874C116.078 49.2138 117.647 48.7094 119.178 48.0645C124.091 45.9943 137.229 40.437 138.887 39.7357C138.886 39.7237 135.594 40.562 131.665 41.5675Z" fill="#CACACA"/>
</g>
<g clip-path="url(#clip8_19629_36128)">
<path fill-rule="evenodd" clip-rule="evenodd" d="M198.358 47.3281V47.584C197.946 47.2936 197.454 47.1383 196.951 47.1395H196.944C195.577 47.1395 194.445 48.2641 194.445 49.6378C194.445 51.0048 195.577 52.1361 196.944 52.1361H196.95C197.482 52.1361 197.96 51.9677 198.358 51.6848V51.9341H199.435V47.3281H198.358ZM196.95 51.0048H196.944C196.189 51.0048 195.583 50.392 195.583 49.6378C195.583 48.8902 196.189 48.2706 196.944 48.2706H196.95C197.698 48.2706 198.317 48.8902 198.317 49.6378C198.317 50.392 197.698 51.0048 196.95 51.0048ZM216.344 47.3348V47.584C215.94 47.3082 215.442 47.1395 214.924 47.1395H214.917C213.55 47.1395 212.419 48.2641 212.419 49.6378C212.419 51.0115 213.55 52.1361 214.917 52.1361H214.924C215.442 52.1361 215.94 51.9677 216.344 51.6915V51.9406H217.415V47.3348H216.344ZM214.924 51.0115H214.917C214.169 51.0115 213.557 50.392 213.557 49.6378C213.557 48.8969 214.169 48.2775 214.917 48.2775H214.924C215.671 48.2775 216.291 48.8971 216.291 49.6378C216.29 50.392 215.671 51.0115 214.924 51.0115ZM203.745 45.7656V47.5838C203.348 47.3212 202.856 47.1393 202.338 47.1393H202.331C200.957 47.1393 199.839 48.2706 199.839 49.6309C199.839 51.0113 200.957 52.1359 202.331 52.1359H202.338C202.856 52.1359 203.355 51.9675 203.745 51.6913V51.9337H204.822V45.7656H203.745ZM202.338 51.0048H202.331C201.583 51.0048 200.971 50.392 200.971 49.6311C200.971 48.8902 201.583 48.2708 202.331 48.2708H202.338C203.085 48.2708 203.705 48.8904 203.705 49.6311C203.705 50.392 203.085 51.0048 202.338 51.0048ZM210.977 45.7656V47.5838C210.566 47.3212 210.075 47.1393 209.556 47.1393H209.55C208.19 47.1393 207.065 48.2706 207.065 49.6309C207.065 51.0113 208.189 52.1359 209.55 52.1359H209.556C210.075 52.1359 210.573 51.9675 210.977 51.6913V51.9337H212.035V45.7656H210.977ZM209.556 51.0048H209.55C208.802 51.0048 208.196 50.392 208.196 49.6311C208.196 48.8902 208.802 48.2708 209.55 48.2708H209.556C210.304 48.2708 210.924 48.8904 210.924 49.6311C210.924 50.392 210.304 51.0048 209.556 51.0048ZM205.583 46.9508H206.661V45.779H205.583V46.9508ZM205.583 51.9474H206.661V47.3482H205.583V51.9474ZM217.866 50.4459C217.893 51.604 218.95 52.163 220.108 52.143C221.381 52.1227 222.236 51.5436 222.223 50.4931C222.196 48.6548 219.193 49.2811 219.193 48.5202C219.193 48.1968 219.469 48.0621 219.981 48.0621C220.627 48.0621 220.762 48.3585 220.816 48.6819H221.994C221.967 48.1433 221.503 47.0856 219.927 47.0856C218.573 47.0856 217.974 47.8197 217.974 48.7154C217.974 50.5201 220.95 49.8736 220.95 50.7087C220.95 50.9243 220.728 51.2206 220.129 51.2206C219.59 51.2206 219.159 50.9849 219.159 50.4461L217.866 50.4459Z" fill="#CACACA"/>
<path fill-rule="evenodd" clip-rule="evenodd" d="M205.585 44.3009H210.979L206.534 36.0653L202.346 38.3281L205.585 44.3009ZM207.228 33.9307L211.409 31.668L218.245 44.3009H212.831L207.228 33.9307ZM203.767 44.3009L201.686 40.4625L197.504 42.7185L198.366 44.3009H203.767Z" fill="#CACACA"/>
</g>
<defs>
<clipPath id="clip0_19629_36128">
<rect width="27.7778" height="27.7778" fill="white" transform="translate(111.109 194.445)"/>
</clipPath>
<clipPath id="clip1_19629_36128">
<rect width="27.7778" height="27.7778" fill="white" transform="translate(194.445 194.445)"/>
</clipPath>
<clipPath id="clip2_19629_36128">
<rect width="27.7778" height="27.7778" fill="white" transform="translate(27.7773 194.445)"/>
</clipPath>
<clipPath id="clip3_19629_36128">
<rect width="27.7778" height="27.7778" fill="white" transform="translate(194.445 111.109)"/>
</clipPath>
<clipPath id="clip4_19629_36128">
<rect width="27.7778" height="27.7778" fill="white" transform="translate(27.7773 111.109)"/>
</clipPath>
<clipPath id="clip5_19629_36128">
<rect width="27.7778" height="27.7778" fill="white" transform="translate(111.109 111.109)"/>
</clipPath>
<clipPath id="clip6_19629_36128">
<rect width="27.7778" height="27.7778" fill="white" transform="translate(27.7773 27.7773)"/>
</clipPath>
<clipPath id="clip7_19629_36128">
<rect width="27.7778" height="27.7778" fill="white" transform="translate(111.109 27.7773)"/>
</clipPath>
<clipPath id="clip8_19629_36128">
<rect width="27.7778" height="27.7778" fill="white" transform="translate(194.445 27.7773)"/>
</clipPath>
</defs>
</svg>
